<?xml version="1.0" encoding="us-ascii" standalone="no"?><svg xmlns="http://www.w3.org/2000/svg" xmlns:xlink="http://www.w3.org/1999/xlink" contentStyleType="text/css" height="2448px" preserveAspectRatio="none" style="width:2566px;height:2448px;background:#FFFFFF;" version="1.1" viewBox="0 0 2566 2448" width="2566px" zoomAndPan="magnify"><defs/><g><!--cluster Client--><g id="cluster_Client"><path d="M8.5,6 L56.5,6 A3.75,3.75 0 0 1 59,8.5 L66,28.2969 L828.5,28.2969 A2.5,2.5 0 0 1 831,30.7969 L831,854 A2.5,2.5 0 0 1 828.5,856.5 L8.5,856.5 A2.5,2.5 0 0 1 6,854 L6,8.5 A2.5,2.5 0 0 1 8.5,6 " fill="none" style="stroke:#000000;stroke-width:1.5;"/><line style="stroke:#000000;stroke-width:1.5;" x1="6" x2="66" y1="28.2969" y2="28.2969"/><text fill="#000000" font-family="sans-serif" font-size="14" font-weight="bold" lengthAdjust="spacing" textLength="47" x="10" y="20.9951">Client</text></g><!--cluster JobManager--><g id="cluster_JobManager"><path d="M857.5,205.5 L953.5,205.5 A3.75,3.75 0 0 1 956,208 L963,227.7969 L2556.5,227.7969 A2.5,2.5 0 0 1 2559,230.2969 L2559,1947.5 A2.5,2.5 0 0 1 2556.5,1950 L857.5,1950 A2.5,2.5 0 0 1 855,1947.5 L855,208 A2.5,2.5 0 0 1 857.5,205.5 " fill="none" style="stroke:#000000;stroke-width:1.5;"/><line style="stroke:#000000;stroke-width:1.5;" x1="855" x2="963" y1="227.7969" y2="227.7969"/><text fill="#000000" font-family="sans-serif" font-size="14" font-weight="bold" lengthAdjust="spacing" textLength="95" x="859" y="220.4951">JobManager</text></g><!--cluster TaskManager--><g id="cluster_TaskManager"><path d="M1067.5,1999 L1177.5,1999 A3.75,3.75 0 0 1 1180,2001.5 L1187,2021.2969 L1563.5,2021.2969 A2.5,2.5 0 0 1 1566,2023.7969 L1566,2438.5 A2.5,2.5 0 0 1 1563.5,2441 L1067.5,2441 A2.5,2.5 0 0 1 1065,2438.5 L1065,2001.5 A2.5,2.5 0 0 1 1067.5,1999 " fill="none" style="stroke:#000000;stroke-width:1.5;"/><line style="stroke:#000000;stroke-width:1.5;" x1="1065" x2="1187" y1="2021.2969" y2="2021.2969"/><text fill="#000000" font-family="sans-serif" font-size="14" font-weight="bold" lengthAdjust="spacing" textLength="109" x="1069" y="2013.9951">TaskManager</text></g><!--class JobGraph--><g id="elem_JobGraph"><rect codeLine="4" fill="#F1F1F1" height="446.8281" id="JobGraph" rx="2.5" ry="2.5" style="stroke:#181818;stroke-width:0.5;" width="497" x="317.5" y="41"/><ellipse cx="528.25" cy="57" fill="#ADD1B2" rx="11" ry="11" style="stroke:#181818;stroke-width:1.0;"/><path d="M530.5938,52.6719 C529.6563,52.2344 529.0625,52.0938 528.1875,52.0938 C525.5625,52.0938 523.5625,54.1719 523.5625,56.8906 L523.5625,58.0156 C523.5625,60.5938 525.6719,62.4844 528.5625,62.4844 C529.7813,62.4844 530.9375,62.1875 531.6875,61.6406 C532.2656,61.2344 532.5938,60.7813 532.5938,60.3906 C532.5938,59.9375 532.2031,59.5469 531.7344,59.5469 C531.5156,59.5469 531.3125,59.625 531.125,59.8125 C530.6719,60.2969 530.6719,60.2969 530.4844,60.3906 C530.0625,60.6563 529.375,60.7813 528.6094,60.7813 C526.5625,60.7813 525.2656,59.6875 525.2656,57.9844 L525.2656,56.8906 C525.2656,55.1094 526.5156,53.7969 528.25,53.7969 C528.8281,53.7969 529.4375,53.9531 529.9063,54.2031 C530.3906,54.4844 530.5625,54.7031 530.6563,55.1094 C530.7188,55.5156 530.75,55.6406 530.8906,55.7656 C531.0313,55.9063 531.2656,56.0156 531.4844,56.0156 C531.75,56.0156 532.0156,55.875 532.1875,55.6563 C532.2969,55.5 532.3281,55.3125 532.3281,54.8906 L532.3281,53.4688 C532.3281,53.0313 532.3125,52.9063 532.2188,52.75 C532.0625,52.4844 531.7813,52.3438 531.4844,52.3438 C531.1875,52.3438 530.9844,52.4375 530.7656,52.75 L530.5938,52.6719 Z " fill="#000000"/><text fill="#000000" font-family="sans-serif" font-size="14" lengthAdjust="spacing" textLength="67" x="548.75" y="61.8467">JobGraph</text><line style="stroke:#181818;stroke-width:0.5;" x1="318.5" x2="813.5" y1="73" y2="73"/><text fill="#000000" font-family="sans-serif" font-size="14" lengthAdjust="spacing" textLength="124" x="323.5" y="89.9951">getJobID() : JobID</text><text fill="#000000" font-family="sans-serif" font-size="14" lengthAdjust="spacing" textLength="133" x="323.5" y="106.292">getName() : String</text><line style="stroke:#181818;stroke-width:1.0;stroke-dasharray:1.0,2.0;" x1="318.5" x2="813.5" y1="113.5938" y2="113.5938"/><text fill="#000000" font-family="sans-serif" font-size="14" lengthAdjust="spacing" textLength="166" x="323.5" y="130.5889">getJobType() : JobType</text><text fill="#000000" font-family="sans-serif" font-size="14" lengthAdjust="spacing" textLength="213" x="323.5" y="146.8857">getMaximumParallelism() : int</text><text fill="#000000" font-family="sans-serif" font-size="14" lengthAdjust="spacing" textLength="267" x="323.5" y="163.1826">getJobConfiguration() : Configuration</text><text fill="#000000" font-family="sans-serif" font-size="14" lengthAdjust="spacing" textLength="383" x="323.5" y="179.4795">getCheckpointSettings() : JobCheckpointingSettings</text><text fill="#000000" font-family="sans-serif" font-size="14" lengthAdjust="spacing" textLength="296" x="323.5" y="195.7764">getInitialClientHeartbeatTimeout() : long</text><text fill="#000000" font-family="sans-serif" font-size="14" lengthAdjust="spacing" textLength="430" x="323.5" y="212.0732">getSavepointRestoreSettings() : SavepointRestoreSettings</text><text fill="#000000" font-family="sans-serif" font-size="14" lengthAdjust="spacing" textLength="485" x="323.5" y="228.3701">getSerializedExecutionConfig() : SerializedValue&lt;ExecutionConfig&gt;</text><text fill="#000000" font-family="sans-serif" font-size="14" lengthAdjust="spacing" textLength="154" x="323.5" y="244.667">isDynamic() : boolean</text><text fill="#000000" font-family="sans-serif" font-size="14" lengthAdjust="spacing" textLength="256" x="323.5" y="260.9639">isCheckpointingEnabled() : boolean</text><text fill="#000000" font-family="sans-serif" font-size="14" lengthAdjust="spacing" textLength="349" x="323.5" y="277.2607">isApproximateLocalRecoveryEnabled() : boolean</text><line style="stroke:#181818;stroke-width:1.0;stroke-dasharray:1.0,2.0;" x1="318.5" x2="813.5" y1="284.5625" y2="284.5625"/><text fill="#000000" font-family="sans-serif" font-size="14" lengthAdjust="spacing" textLength="259" x="323.5" y="301.5576">getVertices() : Iterable&lt;JobVertex&gt;</text><text fill="#000000" font-family="sans-serif" font-size="14" lengthAdjust="spacing" textLength="245" x="323.5" y="317.8545">getVerticesAsArray() : JobVertex[]</text><text fill="#000000" font-family="sans-serif" font-size="14" lengthAdjust="spacing" textLength="292" x="323.5" y="334.1514">findVertexByID(JobVertexID) : JobVertex</text><text fill="#000000" font-family="sans-serif" font-size="14" lengthAdjust="spacing" textLength="202" x="323.5" y="350.4482">getNumberOfVertices() : int</text><line style="stroke:#181818;stroke-width:1.0;stroke-dasharray:1.0,2.0;" x1="318.5" x2="813.5" y1="357.75" y2="357.75"/><text fill="#000000" font-family="sans-serif" font-size="14" lengthAdjust="spacing" textLength="356" x="323.5" y="374.7451">getSlotSharingGroups() : Set&lt;SlotSharingGroup&gt;</text><text fill="#000000" font-family="sans-serif" font-size="14" lengthAdjust="spacing" textLength="352" x="323.5" y="391.042">getCoLocationGroups() : Set&lt;CoLocationGroup&gt;</text><text fill="#000000" font-family="sans-serif" font-size="14" lengthAdjust="spacing" textLength="315" x="323.5" y="407.3389">getJobStatusHooks() : List&lt;JobStatusHook&gt;</text><line style="stroke:#181818;stroke-width:1.0;stroke-dasharray:1.0,2.0;" x1="318.5" x2="813.5" y1="414.6406" y2="414.6406"/><text fill="#000000" font-family="sans-serif" font-size="14" lengthAdjust="spacing" textLength="411" x="323.5" y="431.6357">getUserArtifacts() : Map&lt;String, DistributedCacheEntry&gt;</text><text fill="#000000" font-family="sans-serif" font-size="14" lengthAdjust="spacing" textLength="352" x="323.5" y="447.9326">getUserJarBlobKeys() : List&lt;PermanentBlobKey&gt;</text><text fill="#000000" font-family="sans-serif" font-size="14" lengthAdjust="spacing" textLength="185" x="323.5" y="464.2295">getUserJars() : List&lt;Path&gt;</text><text fill="#000000" font-family="sans-serif" font-size="14" lengthAdjust="spacing" textLength="221" x="323.5" y="480.5264">hasUsercodeJarFiles() : boolean</text></g><g id="elem_GMN4"><path d="M22,252 L22,277.1328 A0,0 0 0 0 22,277.1328 L282,277.1328 A0,0 0 0 0 282,277.1328 L282,270 L317.383,264.5 L282,262 L282,262 L272,252 L22,252 A0,0 0 0 0 22,252 " fill="#FEFFDD" style="stroke:#181818;stroke-width:0.5;"/><path d="M272,252 L272,262 L282,262 L272,252 " fill="#FEFFDD" style="stroke:#181818;stroke-width:0.5;"/><text fill="#000000" font-family="sans-serif" font-size="13" lengthAdjust="spacing" textLength="239" x="28" y="269.0669">Serializable representation of the job.</text></g><!--class JobVertex--><g id="elem_JobVertex"><rect codeLine="35" fill="#F1F1F1" height="178.375" id="JobVertex" rx="2.5" ry="2.5" style="stroke:#181818;stroke-width:0.5;" width="314" x="478" y="662.5"/><ellipse cx="594.75" cy="678.5" fill="#ADD1B2" rx="11" ry="11" style="stroke:#181818;stroke-width:1.0;"/><path d="M597.0938,674.1719 C596.1563,673.7344 595.5625,673.5938 594.6875,673.5938 C592.0625,673.5938 590.0625,675.6719 590.0625,678.3906 L590.0625,679.5156 C590.0625,682.0938 592.1719,683.9844 595.0625,683.9844 C596.2813,683.9844 597.4375,683.6875 598.1875,683.1406 C598.7656,682.7344 599.0938,682.2813 599.0938,681.8906 C599.0938,681.4375 598.7031,681.0469 598.2344,681.0469 C598.0156,681.0469 597.8125,681.125 597.625,681.3125 C597.1719,681.7969 597.1719,681.7969 596.9844,681.8906 C596.5625,682.1563 595.875,682.2813 595.1094,682.2813 C593.0625,682.2813 591.7656,681.1875 591.7656,679.4844 L591.7656,678.3906 C591.7656,676.6094 593.0156,675.2969 594.75,675.2969 C595.3281,675.2969 595.9375,675.4531 596.4063,675.7031 C596.8906,675.9844 597.0625,676.2031 597.1563,676.6094 C597.2188,677.0156 597.25,677.1406 597.3906,677.2656 C597.5313,677.4063 597.7656,677.5156 597.9844,677.5156 C598.25,677.5156 598.5156,677.375 598.6875,677.1563 C598.7969,677 598.8281,676.8125 598.8281,676.3906 L598.8281,674.9688 C598.8281,674.5313 598.8125,674.4063 598.7188,674.25 C598.5625,673.9844 598.2813,673.8438 597.9844,673.8438 C597.6875,673.8438 597.4844,673.9375 597.2656,674.25 L597.0938,674.1719 Z " fill="#000000"/><text fill="#000000" font-family="sans-serif" font-size="14" lengthAdjust="spacing" textLength="72" x="615.25" y="683.3467">JobVertex</text><line style="stroke:#181818;stroke-width:0.5;" x1="479" x2="791" y1="694.5" y2="694.5"/><line style="stroke:#181818;stroke-width:0.5;" x1="479" x2="791" y1="702.5" y2="702.5"/><text fill="#000000" font-family="sans-serif" font-size="14" lengthAdjust="spacing" textLength="150" x="484" y="719.4951">getID() : JobVertexID</text><text fill="#000000" font-family="sans-serif" font-size="14" lengthAdjust="spacing" textLength="133" x="484" y="735.792">getName() : String</text><text fill="#000000" font-family="sans-serif" font-size="14" lengthAdjust="spacing" textLength="145" x="484" y="752.0889">getParallelism() : int</text><text fill="#000000" font-family="sans-serif" font-size="14" lengthAdjust="spacing" textLength="173" x="484" y="768.3857">getMaxParallelism() : int</text><text fill="#000000" font-family="sans-serif" font-size="14" lengthAdjust="spacing" textLength="302" x="484" y="784.6826">getSlotSharingGroup() : SlotSharingGroup</text><text fill="#000000" font-family="sans-serif" font-size="14" lengthAdjust="spacing" textLength="275" x="484" y="800.9795">getInvokableClass(ClassLoader) : Class</text><text fill="#000000" font-family="sans-serif" font-size="14" lengthAdjust="spacing" textLength="292" x="484" y="817.2764">getOperatorIDs() : List&lt;OperatorIDPair&gt;</text><text fill="#000000" font-family="sans-serif" font-size="14" lengthAdjust="spacing" textLength="39" x="484" y="833.5732">[...] ()</text></g><g id="elem_GMN8"><path d="M115,739 L115,764.1328 A0,0 0 0 0 115,764.1328 L443,764.1328 A0,0 0 0 0 443,764.1328 L443,757 L477.952,751.5 L443,749 L443,749 L433,739 L115,739 A0,0 0 0 0 115,739 " fill="#FEFFDD" style="stroke:#181818;stroke-width:0.5;"/><path d="M433,739 L433,749 L443,749 L433,739 " fill="#FEFFDD" style="stroke:#181818;stroke-width:0.5;"/><text fill="#000000" font-family="sans-serif" font-size="13" lengthAdjust="spacing" textLength="307" x="121" y="756.0669">Serializable representation of a JobGraph's task.</text></g><!--class AccessExecutionGraph--><g id="elem_AccessExecutionGraph"><rect codeLine="49" fill="#F1F1F1" height="373.3438" id="AccessExecutionGraph" rx="2.5" ry="2.5" style="stroke:#181818;stroke-width:0.5;" width="499" x="888.5" y="565"/><ellipse cx="1052.25" cy="581" fill="#B4A7E5" rx="11" ry="11" style="stroke:#181818;stroke-width:1.0;"/><path d="M1053.2031,577.7813 L1054.9219,577.7813 C1055.3125,577.7813 1055.5,577.75 1055.625,577.6719 C1055.8906,577.5156 1056.0313,577.2344 1056.0313,576.9375 C1056.0313,576.6719 1055.9219,576.4063 1055.6875,576.2344 C1055.5156,576.125 1055.375,576.0938 1054.9219,576.0938 L1049.7813,576.0938 C1049.3438,576.0938 1049.2188,576.1094 1049.0625,576.2031 C1048.8125,576.3594 1048.6563,576.6563 1048.6563,576.9375 C1048.6563,577.2188 1048.7969,577.4688 1049.0156,577.6406 C1049.1719,577.75 1049.3594,577.7813 1049.7813,577.7813 L1051.5,577.7813 L1051.5,584.2969 L1049.7813,584.2969 C1049.3438,584.2969 1049.2188,584.3125 1049.0625,584.4219 C1048.8125,584.5781 1048.6563,584.8594 1048.6563,585.1563 C1048.6563,585.4063 1048.7969,585.6719 1049.0156,585.8281 C1049.1719,585.9531 1049.375,586 1049.7813,586 L1054.9219,586 C1055.6719,586 1056.0313,585.7188 1056.0313,585.1563 C1056.0313,584.875 1055.9219,584.625 1055.6875,584.4531 C1055.5156,584.3281 1055.375,584.2969 1054.9219,584.2969 L1053.2031,584.2969 L1053.2031,577.7813 Z " fill="#000000"/><text fill="#000000" font-family="sans-serif" font-size="14" font-style="italic" lengthAdjust="spacing" textLength="163" x="1072.75" y="585.8467">AccessExecutionGraph</text><line style="stroke:#181818;stroke-width:0.5;" x1="889.5" x2="1386.5" y1="597" y2="597"/><text fill="#000000" font-family="sans-serif" font-size="14" lengthAdjust="spacing" textLength="124" x="894.5" y="613.9951">getJobID() : JobID</text><text fill="#000000" font-family="sans-serif" font-size="14" lengthAdjust="spacing" textLength="156" x="894.5" y="630.292">getJobName() : String</text><text fill="#000000" font-family="sans-serif" font-size="14" lengthAdjust="spacing" textLength="151" x="894.5" y="646.5889">getJsonPlan() : String</text><text fill="#000000" font-family="sans-serif" font-size="14" lengthAdjust="spacing" textLength="410" x="894.5" y="662.8857">getArchivedExecutionConfig() : ArchivedExecutionConfig</text><line style="stroke:#181818;stroke-width:1.0;stroke-dasharray:1.0,2.0;" x1="889.5" x2="1386.5" y1="670.1875" y2="670.1875"/><text fill="#000000" font-family="sans-serif" font-size="14" lengthAdjust="spacing" textLength="482" x="894.5" y="687.1826">getCheckpointCoordinatorConfig() : CheckpointCoordinatorConfig</text><text fill="#000000" font-family="sans-serif" font-size="14" lengthAdjust="spacing" textLength="235" x="894.5" y="703.4795">getStateBackendName() : String</text><text fill="#000000" font-family="sans-serif" font-size="14" lengthAdjust="spacing" textLength="274" x="894.5" y="719.7764">getCheckpointStorageName() : String</text><text fill="#000000" font-family="sans-serif" font-size="14" lengthAdjust="spacing" textLength="266" x="894.5" y="736.0732">getChangelogStorageName() : String</text><line style="stroke:#181818;stroke-width:1.0;stroke-dasharray:1.0,2.0;" x1="889.5" x2="1386.5" y1="743.375" y2="743.375"/><text fill="#000000" font-family="sans-serif" font-size="14" lengthAdjust="spacing" textLength="180" x="894.5" y="760.3701">getJobState() : JobStatus</text><text fill="#000000" font-family="sans-serif" font-size="14" lengthAdjust="spacing" textLength="276" x="894.5" y="776.667">getStatusTimestamp(JobStatus) : long</text><text fill="#000000" font-family="sans-serif" font-size="14" lengthAdjust="spacing" textLength="187" x="894.5" y="792.9639">getFailureInfo() : ErrorInfo</text><line style="stroke:#181818;stroke-width:1.0;stroke-dasharray:1.0,2.0;" x1="889.5" x2="1386.5" y1="800.2656" y2="800.2656"/><text fill="#000000" font-family="sans-serif" font-size="14" lengthAdjust="spacing" textLength="399" x="894.5" y="817.2607">getJobVertex(JobVertexID) : AccessExecutionJobVertex</text><text fill="#000000" font-family="sans-serif" font-size="14" lengthAdjust="spacing" textLength="465" x="894.5" y="833.5576">getAllVertices() : Map&lt;JobVertexID, AccessExecutionJobVertex&gt;</text><text fill="#000000" font-family="sans-serif" font-size="14" lengthAdjust="spacing" textLength="474" x="894.5" y="849.8545">getVerticesTopologically() : Iterable&lt;AccessExecutionJobVertex&gt;</text><text fill="#000000" font-family="sans-serif" font-size="14" lengthAdjust="spacing" textLength="445" x="894.5" y="866.1514">getAllExecutionVertices() : Iterable&lt;AccessExecutionVertex&gt;</text><line style="stroke:#181818;stroke-width:1.0;stroke-dasharray:1.0,2.0;" x1="889.5" x2="1386.5" y1="873.4531" y2="873.4531"/><text fill="#000000" font-family="sans-serif" font-size="14" lengthAdjust="spacing" textLength="428" x="894.5" y="890.4482">getCheckpointStatsSnapshot() : CheckpointStatsSnapshot</text><line style="stroke:#181818;stroke-width:1.0;stroke-dasharray:1.0,2.0;" x1="889.5" x2="1386.5" y1="897.75" y2="897.75"/><text fill="#000000" font-family="sans-serif" font-size="14" lengthAdjust="spacing" textLength="487" x="894.5" y="914.7451">getAccumulatorResultsStringified() : StringifiedAccumulatorResult[]</text><text fill="#000000" font-family="sans-serif" font-size="14" lengthAdjust="spacing" textLength="438" x="894.5" y="931.042">getAccumulatorsSerialized() : Map&lt;String, SerializedObject&gt;</text></g><g id="elem_GMN13"><path d="M1422.5,739 L1422.5,747.5 L1387.54,751.5 L1422.5,755.5 L1422.5,764.1328 A0,0 0 0 0 1422.5,764.1328 L1789.5,764.1328 A0,0 0 0 0 1789.5,764.1328 L1789.5,749 L1779.5,739 L1422.5,739 A0,0 0 0 0 1422.5,739 " fill="#FEFFDD" style="stroke:#181818;stroke-width:0.5;"/><path d="M1779.5,739 L1779.5,749 L1789.5,749 L1779.5,739 " fill="#FEFFDD" style="stroke:#181818;stroke-width:0.5;"/><text fill="#000000" font-family="sans-serif" font-size="13" lengthAdjust="spacing" textLength="346" x="1428.5" y="756.0669">Representation of a JobGraph while executing the job.</text></g><!--class ExecutionGraph--><g id="elem_ExecutionGraph"><rect codeLine="76" fill="#F1F1F1" height="48" id="ExecutionGraph" rx="2.5" ry="2.5" style="stroke:#181818;stroke-width:0.5;" width="146" x="1065" y="240.5"/><ellipse cx="1080" cy="256.5" fill="#B4A7E5" rx="11" ry="11" style="stroke:#181818;stroke-width:1.0;"/><path d="M1080.9531,253.2813 L1082.6719,253.2813 C1083.0625,253.2813 1083.25,253.25 1083.375,253.1719 C1083.6406,253.0156 1083.7813,252.7344 1083.7813,252.4375 C1083.7813,252.1719 1083.6719,251.9063 1083.4375,251.7344 C1083.2656,251.625 1083.125,251.5938 1082.6719,251.5938 L1077.5313,251.5938 C1077.0938,251.5938 1076.9688,251.6094 1076.8125,251.7031 C1076.5625,251.8594 1076.4063,252.1563 1076.4063,252.4375 C1076.4063,252.7188 1076.5469,252.9688 1076.7656,253.1406 C1076.9219,253.25 1077.1094,253.2813 1077.5313,253.2813 L1079.25,253.2813 L1079.25,259.7969 L1077.5313,259.7969 C1077.0938,259.7969 1076.9688,259.8125 1076.8125,259.9219 C1076.5625,260.0781 1076.4063,260.3594 1076.4063,260.6563 C1076.4063,260.9063 1076.5469,261.1719 1076.7656,261.3281 C1076.9219,261.4531 1077.125,261.5 1077.5313,261.5 L1082.6719,261.5 C1083.4219,261.5 1083.7813,261.2188 1083.7813,260.6563 C1083.7813,260.375 1083.6719,260.125 1083.4375,259.9531 C1083.2656,259.8281 1083.125,259.7969 1082.6719,259.7969 L1080.9531,259.7969 L1080.9531,253.2813 Z " fill="#000000"/><text fill="#000000" font-family="sans-serif" font-size="14" font-style="italic" lengthAdjust="spacing" textLength="114" x="1094" y="261.3467">ExecutionGraph</text><line style="stroke:#181818;stroke-width:0.5;" x1="1066" x2="1210" y1="272.5" y2="272.5"/><line style="stroke:#181818;stroke-width:0.5;" x1="1066" x2="1210" y1="280.5" y2="280.5"/></g><!--class AccessExecutionJobVertex--><g id="elem_AccessExecutionJobVertex"><rect codeLine="80" fill="#F1F1F1" height="202.375" id="AccessExecutionJobVertex" rx="2.5" ry="2.5" style="stroke:#181818;stroke-width:0.5;" width="570" x="871" y="1015"/><ellipse cx="1057.75" cy="1031" fill="#B4A7E5" rx="11" ry="11" style="stroke:#181818;stroke-width:1.0;"/><path d="M1058.7031,1027.7813 L1060.4219,1027.7813 C1060.8125,1027.7813 1061,1027.75 1061.125,1027.6719 C1061.3906,1027.5156 1061.5313,1027.2344 1061.5313,1026.9375 C1061.5313,1026.6719 1061.4219,1026.4063 1061.1875,1026.2344 C1061.0156,1026.125 1060.875,1026.0938 1060.4219,1026.0938 L1055.2813,1026.0938 C1054.8438,1026.0938 1054.7188,1026.1094 1054.5625,1026.2031 C1054.3125,1026.3594 1054.1563,1026.6563 1054.1563,1026.9375 C1054.1563,1027.2188 1054.2969,1027.4688 1054.5156,1027.6406 C1054.6719,1027.75 1054.8594,1027.7813 1055.2813,1027.7813 L1057,1027.7813 L1057,1034.2969 L1055.2813,1034.2969 C1054.8438,1034.2969 1054.7188,1034.3125 1054.5625,1034.4219 C1054.3125,1034.5781 1054.1563,1034.8594 1054.1563,1035.1563 C1054.1563,1035.4063 1054.2969,1035.6719 1054.5156,1035.8281 C1054.6719,1035.9531 1054.875,1036 1055.2813,1036 L1060.4219,1036 C1061.1719,1036 1061.5313,1035.7188 1061.5313,1035.1563 C1061.5313,1034.875 1061.4219,1034.625 1061.1875,1034.4531 C1061.0156,1034.3281 1060.875,1034.2969 1060.4219,1034.2969 L1058.7031,1034.2969 L1058.7031,1027.7813 Z " fill="#000000"/><text fill="#000000" font-family="sans-serif" font-size="14" font-style="italic" lengthAdjust="spacing" textLength="188" x="1078.25" y="1035.8467">AccessExecutionJobVertex</text><line style="stroke:#181818;stroke-width:0.5;" x1="872" x2="1440" y1="1047" y2="1047"/><text fill="#000000" font-family="sans-serif" font-size="14" lengthAdjust="spacing" textLength="220" x="877" y="1063.9951">getJobVertexId() : JobVertexID</text><text fill="#000000" font-family="sans-serif" font-size="14" lengthAdjust="spacing" textLength="133" x="877" y="1080.292">getName() : String</text><line style="stroke:#181818;stroke-width:1.0;stroke-dasharray:1.0,2.0;" x1="872" x2="1440" y1="1087.5938" y2="1087.5938"/><text fill="#000000" font-family="sans-serif" font-size="14" lengthAdjust="spacing" textLength="145" x="877" y="1104.5889">getParallelism() : int</text><text fill="#000000" font-family="sans-serif" font-size="14" lengthAdjust="spacing" textLength="173" x="877" y="1120.8857">getMaxParallelism() : int</text><text fill="#000000" font-family="sans-serif" font-size="14" lengthAdjust="spacing" textLength="274" x="877" y="1137.1826">getResourceProfile() : ResourceProfile</text><line style="stroke:#181818;stroke-width:1.0;stroke-dasharray:1.0,2.0;" x1="872" x2="1440" y1="1144.4844" y2="1144.4844"/><text fill="#000000" font-family="sans-serif" font-size="14" lengthAdjust="spacing" textLength="284" x="877" y="1161.4795">getAggregatedState() : ExecutionState</text><line style="stroke:#181818;stroke-width:1.0;stroke-dasharray:1.0,2.0;" x1="872" x2="1440" y1="1168.7813" y2="1168.7813"/><text fill="#000000" font-family="sans-serif" font-size="14" lengthAdjust="spacing" textLength="320" x="877" y="1185.7764">getTaskVertices() : AccessExecutionVertex[]</text><line style="stroke:#181818;stroke-width:1.0;stroke-dasharray:1.0,2.0;" x1="872" x2="1440" y1="1193.0781" y2="1193.0781"/><text fill="#000000" font-family="sans-serif" font-size="14" lengthAdjust="spacing" textLength="558" x="877" y="1210.0732">getAggregatedUserAccumulatorsStringified() : StringifiedAccumulatorResult[]</text></g><g id="elem_GMN18"><path d="M1476.5,1103.5 L1476.5,1112 L1441.12,1116 L1476.5,1120 L1476.5,1128.6328 A0,0 0 0 0 1476.5,1128.6328 L1847.5,1128.6328 A0,0 0 0 0 1847.5,1128.6328 L1847.5,1113.5 L1837.5,1103.5 L1476.5,1103.5 A0,0 0 0 0 1476.5,1103.5 " fill="#FEFFDD" style="stroke:#181818;stroke-width:0.5;"/><path d="M1837.5,1103.5 L1837.5,1113.5 L1847.5,1113.5 L1837.5,1103.5 " fill="#FEFFDD" style="stroke:#181818;stroke-width:0.5;"/><text fill="#000000" font-family="sans-serif" font-size="13" lengthAdjust="spacing" textLength="350" x="1482.5" y="1120.5669">Representation of a JobVertex while executing the job.</text></g><!--class AccessExecutionVertex--><g id="elem_AccessExecutionVertex"><rect codeLine="96" fill="#F1F1F1" height="194.375" id="AccessExecutionVertex" rx="2.5" ry="2.5" style="stroke:#181818;stroke-width:0.5;" width="463" x="871.5" y="1294"/><ellipse cx="1015.75" cy="1310" fill="#B4A7E5" rx="11" ry="11" style="stroke:#181818;stroke-width:1.0;"/><path d="M1016.7031,1306.7813 L1018.4219,1306.7813 C1018.8125,1306.7813 1019,1306.75 1019.125,1306.6719 C1019.3906,1306.5156 1019.5313,1306.2344 1019.5313,1305.9375 C1019.5313,1305.6719 1019.4219,1305.4063 1019.1875,1305.2344 C1019.0156,1305.125 1018.875,1305.0938 1018.4219,1305.0938 L1013.2813,1305.0938 C1012.8438,1305.0938 1012.7188,1305.1094 1012.5625,1305.2031 C1012.3125,1305.3594 1012.1563,1305.6563 1012.1563,1305.9375 C1012.1563,1306.2188 1012.2969,1306.4688 1012.5156,1306.6406 C1012.6719,1306.75 1012.8594,1306.7813 1013.2813,1306.7813 L1015,1306.7813 L1015,1313.2969 L1013.2813,1313.2969 C1012.8438,1313.2969 1012.7188,1313.3125 1012.5625,1313.4219 C1012.3125,1313.5781 1012.1563,1313.8594 1012.1563,1314.1563 C1012.1563,1314.4063 1012.2969,1314.6719 1012.5156,1314.8281 C1012.6719,1314.9531 1012.875,1315 1013.2813,1315 L1018.4219,1315 C1019.1719,1315 1019.5313,1314.7188 1019.5313,1314.1563 C1019.5313,1313.875 1019.4219,1313.625 1019.1875,1313.4531 C1019.0156,1313.3281 1018.875,1313.2969 1018.4219,1313.2969 L1016.7031,1313.2969 L1016.7031,1306.7813 Z " fill="#000000"/><text fill="#000000" font-family="sans-serif" font-size="14" font-style="italic" lengthAdjust="spacing" textLength="166" x="1036.25" y="1314.8467">AccessExecutionVertex</text><line style="stroke:#181818;stroke-width:0.5;" x1="872.5" x2="1333.5" y1="1326" y2="1326"/><text fill="#000000" font-family="sans-serif" font-size="14" lengthAdjust="spacing" textLength="297" x="877.5" y="1342.9951">getTaskNameWithSubtaskIndex() : String</text><text fill="#000000" font-family="sans-serif" font-size="14" lengthAdjust="spacing" textLength="217" x="877.5" y="1359.292">getParallelSubtaskIndex() : int</text><line style="stroke:#181818;stroke-width:1.0;stroke-dasharray:1.0,2.0;" x1="872.5" x2="1333.5" y1="1366.5938" y2="1366.5938"/><text fill="#000000" font-family="sans-serif" font-size="14" lengthAdjust="spacing" textLength="270" x="877.5" y="1383.5889">getExecutionState() : ExecutionState</text><text fill="#000000" font-family="sans-serif" font-size="14" lengthAdjust="spacing" textLength="312" x="877.5" y="1399.8857">getStateTimestamp(ExecutionState) : long</text><text fill="#000000" font-family="sans-serif" font-size="14" lengthAdjust="spacing" textLength="187" x="877.5" y="1416.1826">getFailureInfo() : ErrorInfo</text><text fill="#000000" font-family="sans-serif" font-size="14" lengthAdjust="spacing" textLength="292" x="877.5" y="1432.4795">getExecutionHistory() : ExecutionHistory</text><line style="stroke:#181818;stroke-width:1.0;stroke-dasharray:1.0,2.0;" x1="872.5" x2="1333.5" y1="1439.7813" y2="1439.7813"/><text fill="#000000" font-family="sans-serif" font-size="14" lengthAdjust="spacing" textLength="358" x="877.5" y="1456.7764">getCurrentExecutionAttempt() : AccessExecution</text><line style="stroke:#181818;stroke-width:1.0;stroke-dasharray:1.0,2.0;" x1="872.5" x2="1333.5" y1="1464.0781" y2="1464.0781"/><text fill="#000000" font-family="sans-serif" font-size="14" lengthAdjust="spacing" textLength="451" x="877.5" y="1481.0732">getCurrentAssignedResourceLocation() : TaskManagerLocation</text></g><g id="elem_GMN22"><path d="M1369.5,1378.5 L1369.5,1387 L1334.58,1391 L1369.5,1395 L1369.5,1403.6328 A0,0 0 0 0 1369.5,1403.6328 L2542.5,1403.6328 A0,0 0 0 0 2542.5,1403.6328 L2542.5,1388.5 L2532.5,1378.5 L1369.5,1378.5 A0,0 0 0 0 1369.5,1378.5 " fill="#FEFFDD" style="stroke:#181818;stroke-width:0.5;"/><path d="M2532.5,1378.5 L2532.5,1388.5 L2542.5,1388.5 L2532.5,1378.5 " fill="#FEFFDD" style="stroke:#181818;stroke-width:0.5;"/><text fill="#000000" font-family="sans-serif" font-size="13" lengthAdjust="spacing" textLength="1152" x="1375.5" y="1395.5669">A parallel instance of the AccessExecutionJobVertex (i.e. a JobVertex of parallelism n results in n AccessExecutionVertex instance for the corresponding AccessExecutionJobVertex)</text></g><!--class AccessExecution--><g id="elem_AccessExecution"><rect codeLine="111" fill="#F1F1F1" height="259.5625" id="AccessExecution" rx="2.5" ry="2.5" style="stroke:#181818;stroke-width:0.5;" width="485" x="871.5" y="1565"/><ellipse cx="1050.25" cy="1581" fill="#B4A7E5" rx="11" ry="11" style="stroke:#181818;stroke-width:1.0;"/><path d="M1051.2031,1577.7813 L1052.9219,1577.7813 C1053.3125,1577.7813 1053.5,1577.75 1053.625,1577.6719 C1053.8906,1577.5156 1054.0313,1577.2344 1054.0313,1576.9375 C1054.0313,1576.6719 1053.9219,1576.4063 1053.6875,1576.2344 C1053.5156,1576.125 1053.375,1576.0938 1052.9219,1576.0938 L1047.7813,1576.0938 C1047.3438,1576.0938 1047.2188,1576.1094 1047.0625,1576.2031 C1046.8125,1576.3594 1046.6563,1576.6563 1046.6563,1576.9375 C1046.6563,1577.2188 1046.7969,1577.4688 1047.0156,1577.6406 C1047.1719,1577.75 1047.3594,1577.7813 1047.7813,1577.7813 L1049.5,1577.7813 L1049.5,1584.2969 L1047.7813,1584.2969 C1047.3438,1584.2969 1047.2188,1584.3125 1047.0625,1584.4219 C1046.8125,1584.5781 1046.6563,1584.8594 1046.6563,1585.1563 C1046.6563,1585.4063 1046.7969,1585.6719 1047.0156,1585.8281 C1047.1719,1585.9531 1047.375,1586 1047.7813,1586 L1052.9219,1586 C1053.6719,1586 1054.0313,1585.7188 1054.0313,1585.1563 C1054.0313,1584.875 1053.9219,1584.625 1053.6875,1584.4531 C1053.5156,1584.3281 1053.375,1584.2969 1052.9219,1584.2969 L1051.2031,1584.2969 L1051.2031,1577.7813 Z " fill="#000000"/><text fill="#000000" font-family="sans-serif" font-size="14" font-style="italic" lengthAdjust="spacing" textLength="119" x="1070.75" y="1585.8467">AccessExecution</text><line style="stroke:#181818;stroke-width:0.5;" x1="872.5" x2="1355.5" y1="1597" y2="1597"/><text fill="#000000" font-family="sans-serif" font-size="14" lengthAdjust="spacing" textLength="275" x="877.5" y="1613.9951">getAttemptId() : ExecutionAttemptID</text><text fill="#000000" font-family="sans-serif" font-size="14" lengthAdjust="spacing" textLength="217" x="877.5" y="1630.292">getParallelSubtaskIndex() : int</text><text fill="#000000" font-family="sans-serif" font-size="14" lengthAdjust="spacing" textLength="189" x="877.5" y="1646.5889">getAttemptNumber() : int</text><line style="stroke:#181818;stroke-width:1.0;stroke-dasharray:1.0,2.0;" x1="872.5" x2="1355.5" y1="1653.8906" y2="1653.8906"/><text fill="#000000" font-family="sans-serif" font-size="14" lengthAdjust="spacing" textLength="199" x="877.5" y="1670.8857">getState() : ExecutionState</text><text fill="#000000" font-family="sans-serif" font-size="14" lengthAdjust="spacing" textLength="218" x="877.5" y="1687.1826">getStateTimestamps() : long[]</text><text fill="#000000" font-family="sans-serif" font-size="14" lengthAdjust="spacing" textLength="245" x="877.5" y="1703.4795">getStateEndTimestamps() : long[]</text><text fill="#000000" font-family="sans-serif" font-size="14" lengthAdjust="spacing" textLength="312" x="877.5" y="1719.7764">getStateTimestamp(ExecutionState) : long</text><text fill="#000000" font-family="sans-serif" font-size="14" lengthAdjust="spacing" textLength="339" x="877.5" y="1736.0732">getStateEndTimestamp(ExecutionState) : long</text><text fill="#000000" font-family="sans-serif" font-size="14" lengthAdjust="spacing" textLength="187" x="877.5" y="1752.3701">getFailureInfo() : ErrorInfo</text><line style="stroke:#181818;stroke-width:1.0;stroke-dasharray:1.0,2.0;" x1="872.5" x2="1355.5" y1="1759.6719" y2="1759.6719"/><text fill="#000000" font-family="sans-serif" font-size="14" lengthAdjust="spacing" textLength="396" x="877.5" y="1776.667">getAssignedResourceLocation() : TaskManagerLocation</text><line style="stroke:#181818;stroke-width:1.0;stroke-dasharray:1.0,2.0;" x1="872.5" x2="1355.5" y1="1783.9688" y2="1783.9688"/><text fill="#000000" font-family="sans-serif" font-size="14" lengthAdjust="spacing" textLength="473" x="877.5" y="1800.9639">getUserAccumulatorsStringified() : StringifiedAccumulatorResult[]</text><text fill="#000000" font-family="sans-serif" font-size="14" lengthAdjust="spacing" textLength="184" x="877.5" y="1817.2607">getIOMetrics() : IOMetrics</text></g><g id="elem_GMN26"><path d="M1391.5,1682.5 L1391.5,1691 L1356.68,1695 L1391.5,1699 L1391.5,1707.6328 A0,0 0 0 0 1391.5,1707.6328 L2238.5,1707.6328 A0,0 0 0 0 2238.5,1707.6328 L2238.5,1692.5 L2228.5,1682.5 L1391.5,1682.5 A0,0 0 0 0 1391.5,1682.5 " fill="#FEFFDD" style="stroke:#181818;stroke-width:0.5;"/><path d="M2228.5,1682.5 L2228.5,1692.5 L2238.5,1692.5 L2228.5,1682.5 " fill="#FEFFDD" style="stroke:#181818;stroke-width:0.5;"/><text fill="#000000" font-family="sans-serif" font-size="13" lengthAdjust="spacing" textLength="826" x="1397.5" y="1699.5669">The actual execution abstraction of AccessExecutionVertex (multiple attempts can be made to execute AccessExecutionVertex)</text></g><!--class Execution--><g id="elem_Execution"><rect codeLine="130" fill="#F1F1F1" height="48" id="Execution" rx="2.5" ry="2.5" style="stroke:#181818;stroke-width:0.5;" width="103" x="1062.5" y="1886"/><ellipse cx="1077.5" cy="1902" fill="#ADD1B2" rx="11" ry="11" style="stroke:#181818;stroke-width:1.0;"/><path d="M1079.8438,1897.6719 C1078.9063,1897.2344 1078.3125,1897.0938 1077.4375,1897.0938 C1074.8125,1897.0938 1072.8125,1899.1719 1072.8125,1901.8906 L1072.8125,1903.0156 C1072.8125,1905.5938 1074.9219,1907.4844 1077.8125,1907.4844 C1079.0313,1907.4844 1080.1875,1907.1875 1080.9375,1906.6406 C1081.5156,1906.2344 1081.8438,1905.7813 1081.8438,1905.3906 C1081.8438,1904.9375 1081.4531,1904.5469 1080.9844,1904.5469 C1080.7656,1904.5469 1080.5625,1904.625 1080.375,1904.8125 C1079.9219,1905.2969 1079.9219,1905.2969 1079.7344,1905.3906 C1079.3125,1905.6563 1078.625,1905.7813 1077.8594,1905.7813 C1075.8125,1905.7813 1074.5156,1904.6875 1074.5156,1902.9844 L1074.5156,1901.8906 C1074.5156,1900.1094 1075.7656,1898.7969 1077.5,1898.7969 C1078.0781,1898.7969 1078.6875,1898.9531 1079.1563,1899.2031 C1079.6406,1899.4844 1079.8125,1899.7031 1079.9063,1900.1094 C1079.9688,1900.5156 1080,1900.6406 1080.1406,1900.7656 C1080.2813,1900.9063 1080.5156,1901.0156 1080.7344,1901.0156 C1081,1901.0156 1081.2656,1900.875 1081.4375,1900.6563 C1081.5469,1900.5 1081.5781,1900.3125 1081.5781,1899.8906 L1081.5781,1898.4688 C1081.5781,1898.0313 1081.5625,1897.9063 1081.4688,1897.75 C1081.3125,1897.4844 1081.0313,1897.3438 1080.7344,1897.3438 C1080.4375,1897.3438 1080.2344,1897.4375 1080.0156,1897.75 L1079.8438,1897.6719 Z " fill="#000000"/><text fill="#000000" font-family="sans-serif" font-size="14" lengthAdjust="spacing" textLength="71" x="1091.5" y="1906.8467">Execution</text><line style="stroke:#181818;stroke-width:0.5;" x1="1063.5" x2="1164.5" y1="1918" y2="1918"/><line style="stroke:#181818;stroke-width:0.5;" x1="1063.5" x2="1164.5" y1="1926" y2="1926"/></g><!--class Task--><g id="elem_Task"><rect codeLine="135" fill="#F1F1F1" height="48" id="Task" rx="2.5" ry="2.5" style="stroke:#181818;stroke-width:0.5;" width="65" x="1081.5" y="2034"/><ellipse cx="1096.5" cy="2050" fill="#ADD1B2" rx="11" ry="11" style="stroke:#181818;stroke-width:1.0;"/><path d="M1098.8438,2045.6719 C1097.9063,2045.2344 1097.3125,2045.0938 1096.4375,2045.0938 C1093.8125,2045.0938 1091.8125,2047.1719 1091.8125,2049.8906 L1091.8125,2051.0156 C1091.8125,2053.5938 1093.9219,2055.4844 1096.8125,2055.4844 C1098.0313,2055.4844 1099.1875,2055.1875 1099.9375,2054.6406 C1100.5156,2054.2344 1100.8438,2053.7813 1100.8438,2053.3906 C1100.8438,2052.9375 1100.4531,2052.5469 1099.9844,2052.5469 C1099.7656,2052.5469 1099.5625,2052.625 1099.375,2052.8125 C1098.9219,2053.2969 1098.9219,2053.2969 1098.7344,2053.3906 C1098.3125,2053.6563 1097.625,2053.7813 1096.8594,2053.7813 C1094.8125,2053.7813 1093.5156,2052.6875 1093.5156,2050.9844 L1093.5156,2049.8906 C1093.5156,2048.1094 1094.7656,2046.7969 1096.5,2046.7969 C1097.0781,2046.7969 1097.6875,2046.9531 1098.1563,2047.2031 C1098.6406,2047.4844 1098.8125,2047.7031 1098.9063,2048.1094 C1098.9688,2048.5156 1099,2048.6406 1099.1406,2048.7656 C1099.2813,2048.9063 1099.5156,2049.0156 1099.7344,2049.0156 C1100,2049.0156 1100.2656,2048.875 1100.4375,2048.6563 C1100.5469,2048.5 1100.5781,2048.3125 1100.5781,2047.8906 L1100.5781,2046.4688 C1100.5781,2046.0313 1100.5625,2045.9063 1100.4688,2045.75 C1100.3125,2045.4844 1100.0313,2045.3438 1099.7344,2045.3438 C1099.4375,2045.3438 1099.2344,2045.4375 1099.0156,2045.75 L1098.8438,2045.6719 Z " fill="#000000"/><text fill="#000000" font-family="sans-serif" font-size="14" lengthAdjust="spacing" textLength="33" x="1110.5" y="2054.8467">Task</text><line style="stroke:#181818;stroke-width:0.5;" x1="1082.5" x2="1145.5" y1="2066" y2="2066"/><line style="stroke:#181818;stroke-width:0.5;" x1="1082.5" x2="1145.5" y1="2074" y2="2074"/></g><!--class TaskInvokable--><g id="elem_TaskInvokable"><rect codeLine="138" fill="#F1F1F1" height="48" id="TaskInvokable" rx="2.5" ry="2.5" style="stroke:#181818;stroke-width:0.5;" width="134" x="1081" y="2159"/><ellipse cx="1096" cy="2175" fill="#B4A7E5" rx="11" ry="11" style="stroke:#181818;stroke-width:1.0;"/><path d="M1096.9531,2171.7813 L1098.6719,2171.7813 C1099.0625,2171.7813 1099.25,2171.75 1099.375,2171.6719 C1099.6406,2171.5156 1099.7813,2171.2344 1099.7813,2170.9375 C1099.7813,2170.6719 1099.6719,2170.4063 1099.4375,2170.2344 C1099.2656,2170.125 1099.125,2170.0938 1098.6719,2170.0938 L1093.5313,2170.0938 C1093.0938,2170.0938 1092.9688,2170.1094 1092.8125,2170.2031 C1092.5625,2170.3594 1092.4063,2170.6563 1092.4063,2170.9375 C1092.4063,2171.2188 1092.5469,2171.4688 1092.7656,2171.6406 C1092.9219,2171.75 1093.1094,2171.7813 1093.5313,2171.7813 L1095.25,2171.7813 L1095.25,2178.2969 L1093.5313,2178.2969 C1093.0938,2178.2969 1092.9688,2178.3125 1092.8125,2178.4219 C1092.5625,2178.5781 1092.4063,2178.8594 1092.4063,2179.1563 C1092.4063,2179.4063 1092.5469,2179.6719 1092.7656,2179.8281 C1092.9219,2179.9531 1093.125,2180 1093.5313,2180 L1098.6719,2180 C1099.4219,2180 1099.7813,2179.7188 1099.7813,2179.1563 C1099.7813,2178.875 1099.6719,2178.625 1099.4375,2178.4531 C1099.2656,2178.3281 1099.125,2178.2969 1098.6719,2178.2969 L1096.9531,2178.2969 L1096.9531,2171.7813 Z " fill="#000000"/><text fill="#000000" font-family="sans-serif" font-size="14" font-style="italic" lengthAdjust="spacing" textLength="102" x="1110" y="2179.8467">TaskInvokable</text><line style="stroke:#181818;stroke-width:0.5;" x1="1082" x2="1214" y1="2191" y2="2191"/><line style="stroke:#181818;stroke-width:0.5;" x1="1082" x2="1214" y1="2199" y2="2199"/></g><!--class StreamTask--><g id="elem_StreamTask"><rect codeLine="141" fill="#F1F1F1" height="48" id="StreamTask" rx="2.5" ry="2.5" style="stroke:#181818;stroke-width:0.5;" width="118" x="1083" y="2268"/><ellipse cx="1098" cy="2284" fill="#ADD1B2" rx="11" ry="11" style="stroke:#181818;stroke-width:1.0;"/><path d="M1100.3438,2279.6719 C1099.4063,2279.2344 1098.8125,2279.0938 1097.9375,2279.0938 C1095.3125,2279.0938 1093.3125,2281.1719 1093.3125,2283.8906 L1093.3125,2285.0156 C1093.3125,2287.5938 1095.4219,2289.4844 1098.3125,2289.4844 C1099.5313,2289.4844 1100.6875,2289.1875 1101.4375,2288.6406 C1102.0156,2288.2344 1102.3438,2287.7813 1102.3438,2287.3906 C1102.3438,2286.9375 1101.9531,2286.5469 1101.4844,2286.5469 C1101.2656,2286.5469 1101.0625,2286.625 1100.875,2286.8125 C1100.4219,2287.2969 1100.4219,2287.2969 1100.2344,2287.3906 C1099.8125,2287.6563 1099.125,2287.7813 1098.3594,2287.7813 C1096.3125,2287.7813 1095.0156,2286.6875 1095.0156,2284.9844 L1095.0156,2283.8906 C1095.0156,2282.1094 1096.2656,2280.7969 1098,2280.7969 C1098.5781,2280.7969 1099.1875,2280.9531 1099.6563,2281.2031 C1100.1406,2281.4844 1100.3125,2281.7031 1100.4063,2282.1094 C1100.4688,2282.5156 1100.5,2282.6406 1100.6406,2282.7656 C1100.7813,2282.9063 1101.0156,2283.0156 1101.2344,2283.0156 C1101.5,2283.0156 1101.7656,2282.875 1101.9375,2282.6563 C1102.0469,2282.5 1102.0781,2282.3125 1102.0781,2281.8906 L1102.0781,2280.4688 C1102.0781,2280.0313 1102.0625,2279.9063 1101.9688,2279.75 C1101.8125,2279.4844 1101.5313,2279.3438 1101.2344,2279.3438 C1100.9375,2279.3438 1100.7344,2279.4375 1100.5156,2279.75 L1100.3438,2279.6719 Z " fill="#000000"/><text fill="#000000" font-family="sans-serif" font-size="14" lengthAdjust="spacing" textLength="86" x="1112" y="2288.8467">StreamTask</text><line style="stroke:#181818;stroke-width:0.5;" x1="1084" x2="1200" y1="2300" y2="2300"/><line style="stroke:#181818;stroke-width:0.5;" x1="1084" x2="1200" y1="2308" y2="2308"/></g><!--class AbstractInvokable--><g id="elem_AbstractInvokable"><rect codeLine="143" fill="#F1F1F1" height="48" id="AbstractInvokable" rx="2.5" ry="2.5" style="stroke:#181818;stroke-width:0.5;" width="165" x="1236.5" y="2268"/><ellipse cx="1251.5" cy="2284" fill="#ADD1B2" rx="11" ry="11" style="stroke:#181818;stroke-width:1.0;"/><path d="M1253.8438,2279.6719 C1252.9063,2279.2344 1252.3125,2279.0938 1251.4375,2279.0938 C1248.8125,2279.0938 1246.8125,2281.1719 1246.8125,2283.8906 L1246.8125,2285.0156 C1246.8125,2287.5938 1248.9219,2289.4844 1251.8125,2289.4844 C1253.0313,2289.4844 1254.1875,2289.1875 1254.9375,2288.6406 C1255.5156,2288.2344 1255.8438,2287.7813 1255.8438,2287.3906 C1255.8438,2286.9375 1255.4531,2286.5469 1254.9844,2286.5469 C1254.7656,2286.5469 1254.5625,2286.625 1254.375,2286.8125 C1253.9219,2287.2969 1253.9219,2287.2969 1253.7344,2287.3906 C1253.3125,2287.6563 1252.625,2287.7813 1251.8594,2287.7813 C1249.8125,2287.7813 1248.5156,2286.6875 1248.5156,2284.9844 L1248.5156,2283.8906 C1248.5156,2282.1094 1249.7656,2280.7969 1251.5,2280.7969 C1252.0781,2280.7969 1252.6875,2280.9531 1253.1563,2281.2031 C1253.6406,2281.4844 1253.8125,2281.7031 1253.9063,2282.1094 C1253.9688,2282.5156 1254,2282.6406 1254.1406,2282.7656 C1254.2813,2282.9063 1254.5156,2283.0156 1254.7344,2283.0156 C1255,2283.0156 1255.2656,2282.875 1255.4375,2282.6563 C1255.5469,2282.5 1255.5781,2282.3125 1255.5781,2281.8906 L1255.5781,2280.4688 C1255.5781,2280.0313 1255.5625,2279.9063 1255.4688,2279.75 C1255.3125,2279.4844 1255.0313,2279.3438 1254.7344,2279.3438 C1254.4375,2279.3438 1254.2344,2279.4375 1254.0156,2279.75 L1253.8438,2279.6719 Z " fill="#000000"/><text fill="#000000" font-family="sans-serif" font-size="14" lengthAdjust="spacing" textLength="133" x="1265.5" y="2288.8467">AbstractInvokable</text><line style="stroke:#181818;stroke-width:0.5;" x1="1237.5" x2="1400.5" y1="2300" y2="2300"/><line style="stroke:#181818;stroke-width:0.5;" x1="1237.5" x2="1400.5" y1="2308" y2="2308"/></g><!--class BatchTask--><g id="elem_BatchTask"><rect codeLine="145" fill="#F1F1F1" height="48" id="BatchTask" rx="2.5" ry="2.5" style="stroke:#181818;stroke-width:0.5;" width="107" x="1265.5" y="2377"/><ellipse cx="1280.5" cy="2393" fill="#ADD1B2" rx="11" ry="11" style="stroke:#181818;stroke-width:1.0;"/><path d="M1282.8438,2388.6719 C1281.9063,2388.2344 1281.3125,2388.0938 1280.4375,2388.0938 C1277.8125,2388.0938 1275.8125,2390.1719 1275.8125,2392.8906 L1275.8125,2394.0156 C1275.8125,2396.5938 1277.9219,2398.4844 1280.8125,2398.4844 C1282.0313,2398.4844 1283.1875,2398.1875 1283.9375,2397.6406 C1284.5156,2397.2344 1284.8438,2396.7813 1284.8438,2396.3906 C1284.8438,2395.9375 1284.4531,2395.5469 1283.9844,2395.5469 C1283.7656,2395.5469 1283.5625,2395.625 1283.375,2395.8125 C1282.9219,2396.2969 1282.9219,2396.2969 1282.7344,2396.3906 C1282.3125,2396.6563 1281.625,2396.7813 1280.8594,2396.7813 C1278.8125,2396.7813 1277.5156,2395.6875 1277.5156,2393.9844 L1277.5156,2392.8906 C1277.5156,2391.1094 1278.7656,2389.7969 1280.5,2389.7969 C1281.0781,2389.7969 1281.6875,2389.9531 1282.1563,2390.2031 C1282.6406,2390.4844 1282.8125,2390.7031 1282.9063,2391.1094 C1282.9688,2391.5156 1283,2391.6406 1283.1406,2391.7656 C1283.2813,2391.9063 1283.5156,2392.0156 1283.7344,2392.0156 C1284,2392.0156 1284.2656,2391.875 1284.4375,2391.6563 C1284.5469,2391.5 1284.5781,2391.3125 1284.5781,2390.8906 L1284.5781,2389.4688 C1284.5781,2389.0313 1284.5625,2388.9063 1284.4688,2388.75 C1284.3125,2388.4844 1284.0313,2388.3438 1283.7344,2388.3438 C1283.4375,2388.3438 1283.2344,2388.4375 1283.0156,2388.75 L1282.8438,2388.6719 Z " fill="#000000"/><text fill="#000000" font-family="sans-serif" font-size="14" lengthAdjust="spacing" textLength="75" x="1294.5" y="2397.8467">BatchTask</text><line style="stroke:#181818;stroke-width:0.5;" x1="1266.5" x2="1371.5" y1="2409" y2="2409"/><line style="stroke:#181818;stroke-width:0.5;" x1="1266.5" x2="1371.5" y1="2417" y2="2417"/></g><g id="elem_GMN40"><path d="M1182,2045.5 L1182,2054 L1146.98,2058 L1182,2062 L1182,2070.6328 A0,0 0 0 0 1182,2070.6328 L1550,2070.6328 A0,0 0 0 0 1550,2070.6328 L1550,2055.5 L1540,2045.5 L1182,2045.5 A0,0 0 0 0 1182,2045.5 " fill="#FEFFDD" style="stroke:#181818;stroke-width:0.5;"/><path d="M1540,2045.5 L1540,2055.5 L1550,2055.5 L1540,2045.5 " fill="#FEFFDD" style="stroke:#181818;stroke-width:0.5;"/><text fill="#000000" font-family="sans-serif" font-size="13" lengthAdjust="spacing" textLength="347" x="1188" y="2062.5669">TaskExecutor representation of an Execution instance</text></g><!--reverse link AccessExecution to Execution--><g id="link_AccessExecution_Execution"><path d="M1114,1843.123 C1114,1866.536 1114,1870.419 1114,1885.96 " fill="none" id="AccessExecution-backto-Execution" style="stroke:#181818;stroke-width:1.0;stroke-dasharray:7.0,7.0;"/><polygon fill="none" points="1114,1825.123,1108,1843.123,1120,1843.123,1114,1825.123" style="stroke:#181818;stroke-width:1.0;"/></g><!--reverse link TaskInvokable to StreamTask--><g id="link_TaskInvokable_StreamTask"><path d="M1145.6887,2225.1886 C1144.6787,2243.1366 1144.31,2249.892 1143.3,2267.828 " fill="none" id="TaskInvokable-backto-StreamTask" style="stroke:#181818;stroke-width:1.0;stroke-dasharray:7.0,7.0;"/><polygon fill="none" points="1146.7,2207.217,1139.6982,2224.8515,1151.6792,2225.5257,1146.7,2207.217" style="stroke:#181818;stroke-width:1.0;"/></g><!--reverse link TaskInvokable to AbstractInvokable--><g id="link_TaskInvokable_AbstractInvokable"><path d="M1200.36,2216.7634 C1229.05,2234.7114 1253.3,2249.892 1281.97,2267.828 " fill="none" id="TaskInvokable-backto-AbstractInvokable" style="stroke:#181818;stroke-width:1.0;stroke-dasharray:7.0,7.0;"/><polygon fill="none" points="1185.1,2207.217,1197.1778,2221.85,1203.5421,2211.6767,1185.1,2207.217" style="stroke:#181818;stroke-width:1.0;"/></g><!--reverse link AbstractInvokable to BatchTask--><g id="link_AbstractInvokable_BatchTask"><path d="M1319,2334.217 C1319,2352.165 1319,2358.8918 1319,2376.8279 " fill="none" id="AbstractInvokable-backto-BatchTask" style="stroke:#181818;stroke-width:1.0;stroke-dasharray:7.0,7.0;"/><polygon fill="none" points="1319,2316.217,1313,2334.217,1325,2334.217,1319,2316.217" style="stroke:#181818;stroke-width:1.0;"/></g><!--link JobGraph to JobVertex--><g id="link_JobGraph_JobVertex"><path codeLine="150" d="M597.673,488.13 C606.459,549.88 614.6458,607.4298 621.6248,656.4798 " fill="none" id="JobGraph-to-JobVertex" style="stroke:#181818;stroke-width:1.0;stroke-dasharray:7.0,7.0;"/><polygon fill="#181818" points="622.47,662.42,625.1623,652.9463,621.7657,657.4699,617.2421,654.0732,622.47,662.42" style="stroke:#181818;stroke-width:1.0;"/><text fill="#000000" font-family="sans-serif" font-size="13" lengthAdjust="spacing" textLength="54" x="604" y="531.0669">contains</text></g><!--link ExecutionGraph to AccessExecutionGraph--><g id="link_ExecutionGraph_AccessExecutionGraph"><path codeLine="151" d="M1138,288.57 C1138,338.17 1138,441.07 1138,546.74 " fill="none" id="ExecutionGraph-to-AccessExecutionGraph" style="stroke:#181818;stroke-width:1.0;"/><polygon fill="none" points="1138,564.74,1144,546.74,1132,546.74,1138,564.74" style="stroke:#181818;stroke-width:1.0;"/></g><!--link AccessExecutionGraph to AccessExecutionJobVertex--><g id="link_AccessExecutionGraph_AccessExecutionJobVertex"><path codeLine="152" d="M1147.22,938.26 C1148.54,964.71 1149.542,985.0474 1150.732,1008.9774 " fill="none" id="AccessExecutionGraph-to-AccessExecutionJobVertex" style="stroke:#181818;stroke-width:1.0;stroke-dasharray:7.0,7.0;"/><polygon fill="#181818" points="1151.03,1014.97,1154.5781,1005.7824,1150.7817,1009.9762,1146.5879,1006.1798,1151.03,1014.97" style="stroke:#181818;stroke-width:1.0;"/><text fill="#000000" font-family="sans-serif" font-size="13" lengthAdjust="spacing" textLength="54" x="1150" y="981.0669">contains</text></g><!--link AccessExecutionJobVertex to AccessExecutionVertex--><g id="link_AccessExecutionJobVertex_AccessExecutionVertex"><path codeLine="153" d="M1136.57,1217.1 C1131.69,1242.21 1127.6126,1263.2098 1122.7826,1288.1098 " fill="none" id="AccessExecutionJobVertex-to-AccessExecutionVertex" style="stroke:#181818;stroke-width:1.0;stroke-dasharray:7.0,7.0;"/><polygon fill="#181818" points="1121.64,1294,1127.2806,1285.9264,1122.5921,1289.0915,1119.427,1284.403,1121.64,1294" style="stroke:#181818;stroke-width:1.0;"/><text fill="#000000" font-family="sans-serif" font-size="13" lengthAdjust="spacing" textLength="54" x="1130" y="1260.0669">contains</text></g><!--link AccessExecutionVertex to AccessExecution--><g id="link_AccessExecutionVertex_AccessExecution"><path codeLine="154" d="M1106.51,1488.385 C1107.4,1512.725 1108.1404,1533.256 1109.0804,1558.921 " fill="none" id="AccessExecutionVertex-to-AccessExecution" style="stroke:#181818;stroke-width:1.0;stroke-dasharray:7.0,7.0;"/><polygon fill="#181818" points="1109.3,1564.917,1112.9679,1555.7766,1109.117,1559.9204,1104.9733,1556.0694,1109.3,1564.917" style="stroke:#181818;stroke-width:1.0;"/><text fill="#000000" font-family="sans-serif" font-size="13" lengthAdjust="spacing" textLength="54" x="1109" y="1531.0669">contains</text></g><!--link Execution to Task--><g id="link_Execution_Task"><path codeLine="155" d="M1114,1934.134 C1114,1961.472 1114,2000.683 1114,2027.974 " fill="none" id="Execution-to-Task" style="stroke:#181818;stroke-width:1.0;stroke-dasharray:7.0,7.0;"/><polygon fill="#181818" points="1114,2033.974,1118,2024.974,1114,2028.974,1110,2024.974,1114,2033.974" style="stroke:#181818;stroke-width:1.0;"/><text fill="#000000" font-family="sans-serif" font-size="13" lengthAdjust="spacing" textLength="50" x="1115" y="1979.0669">deploys</text></g><!--link Task to TaskInvokable--><g id="link_Task_TaskInvokable"><path codeLine="156" d="M1120.4,2082.135 C1126.47,2104.126 1133.9612,2131.2289 1140.0312,2153.1849 " fill="none" id="Task-to-TaskInvokable" style="stroke:#181818;stroke-width:1.0;stroke-dasharray:7.0,7.0;"/><polygon fill="#181818" points="1141.63,2158.968,1143.0872,2149.2275,1140.2977,2154.1488,1135.3764,2151.3593,1141.63,2158.968" style="stroke:#181818;stroke-width:1.0;"/><text fill="#000000" font-family="sans-serif" font-size="13" lengthAdjust="spacing" textLength="28" x="1134" y="2125.0669">runs</text></g><!--link JobGraph to AccessExecutionGraph--><g id="link_JobGraph_AccessExecutionGraph"><path codeLine="158" d="M814.808,476.46 C849.455,505.84 880.2667,531.9696 914.3137,560.8396 " fill="none" id="JobGraph-to-AccessExecutionGraph" style="stroke:#181818;stroke-width:1.0;stroke-dasharray:7.0,7.0;"/><polygon fill="#181818" points="918.89,564.72,914.6125,555.8485,915.0764,561.4863,909.4386,561.9502,918.89,564.72" style="stroke:#181818;stroke-width:1.0;"/><text fill="#000000" font-family="sans-serif" font-size="13" lengthAdjust="spacing" textLength="69" x="871" y="531.0669">represents</text></g><!--link JobVertex to AccessExecutionJobVertex--><g id="link_JobVertex_AccessExecutionJobVertex"><path codeLine="159" d="M732.357,840.68 C769.61,872.78 813.205,908.41 855,938 C892.48,964.53 928.9809,987.7849 969.0569,1011.7049 " fill="none" id="JobVertex-to-AccessExecutionJobVertex" style="stroke:#181818;stroke-width:1.0;stroke-dasharray:7.0,7.0;"/><polygon fill="#181818" points="974.209,1014.78,968.531,1006.7326,969.9156,1012.2174,964.4308,1013.6021,974.209,1014.78" style="stroke:#181818;stroke-width:1.0;"/><text fill="#000000" font-family="sans-serif" font-size="13" lengthAdjust="spacing" textLength="69" x="919" y="981.0669">represents</text></g><!--SRC=[hLXDSzis4BthL-0MUoPHxXgFPcJPIUJ6jIToqqCc1uXSaOX1W0E0RjJM_xqBy0kW24bsweF7nBvT0BiFRm6_oOqfzUpz-v9JOQg2JnDPl4yurVfTocYcQ36Pb3Hvf1cG9MSW3FbdGl37OSYDt7nKjCoRGVkJWS7HrTNPEPaHzvTl-fqMu2nhevZ8EjDqEWZmi2kX3M7_zistz2ShgkAUAievSAOBXsJ2388ifTYoh5BKC2aS9XZnqSiSaiTIOemr68DBq-tilGL7MwFlkXBCCChhz7m2gim6g7bW1SZAk2XSUbj5ZpLz0XVn2sWZ5GHJnen1050u8_iRqkkVa5HsC_NEwWYTzIlb5LmCCFCk4jDNEq4BbZYtZPGSgF2imTQl1TrmI2FGHLagYMMX1ZxBXF8laCWdKBj3Nc7Hlu8oB84w2Ii3oZfUO06i0NxEnx0BlL2AxjfIrSXltplebecq7hpS8IKxoEegy0WOMXKRK7VRO3a-jS9LhxaqwvnQCdzKiYgR6eAv65g23IobpPAjoS1hO9WF6Bqsr5JwavIFjSjdfir5C3wFBFGF3Mg1MzhInDI-jxIyg8_XMtA5SHJRL0RI9Krok1P6xUP3_nkgBhdS_0OxR_PxK0KLIFt6DERbmwd9UqXEjOKaCWM4VM2yIRXFbMVtMqW3XCFM4BdjTAVdkYKBKL0gqBWKbq0BD3cG7t8pdOIYLPSzLArUibgEd29SQ3gYGwXMHn13fjJp30P3nNcIZtR7IxkXC_VxiwGfAATnzjE7tvLuc51ALbTU7Vh1UyfKNv5lq-dqEpaxFv3wEZz7Sq-xChtHn53zE9qyzzq4RRTKu5-gAGCc1HIo4yWYmNEdEzLwMOV1WGErkj5It6ElYvWNAidPqxYgHcoHuzPBvr9AbJ9XS-r5Es0Fg87fX4jC6OZqmBQyxeLXCAa7iLHam6Ls1BhNajrQsgJNWZDSQgLjszE65kLP1nhhW1yeuvM2bTXA5_5QAQGYViMdhratrF01LqObVS5veEPM-BmmRwD1HdlEWombPezXa-Exi5cT50TNqo76UzuWp316Z6WsstejQAbpQGOa2soHI3XjLLJS4X6l7XL71yS8jcLD0_U-zy1UrmrZwVuwijTsUjFTvWSaPZvK7SMotCdEc2RCo9S3eaF-oh6T4AXTH3Re1RtSx0bDiuZ3gXJf8ZslqjUqax0YlznPi3IoKWdSAxd5P3Z8O2n6XYnJaE61J_jZt-tT3KKS7r3e0rgFijbZIsnUTs7nQVHoCfv09A-THSZKLFbKDerkD-I8JP4bm9_CvEjgOrlZIgIeROVl5tlG-AqqhDIXuhKzfjVj4FWwyVQNy8dPPymkN4Gp6DEqIYciGuTU60D5QSReT3Z2GckM2KXRphTtQnV9bg6vWhJZfxAcfSo2b4rni1YOFe44Q6wTKRauOrEO1jH2Zx8_nqJWNSh9ByR4Zt52TTDjfNBp9H9th4ifKilEsEpdH-WQ4hN9UoDbmtA4YdOII_kOzJFhsEFgnUpLtNixx4SETItIqu0lEGnxaV-N0pGGnTVGEF84_3L5RHyWTxU0uAIvkBHVfnuVN3Go5X-Y5UMjf2Btw0OVeJZQgEyuySzmMOQLgCMqPf8c2HLa0wJ01n0niWaOKU9p_oNOqvuL6B50nT2H4_7ilrsyb0V_3hFZ7Nvmq1xSeMZURI6eTiRi0orS26yrWPiFNpJ9wcEUudL9JP8FvzWBDHafeNMgoLQd1cLdvCad_9ms4cKprrtAfjEvftmpb2rqH-HaS0jxz-xV-UYbRpBwEhHXeuhhpHB5Z0GuwXrt7TsO0xhSpqWA9PSxFN6VxNXVoXbH5Rg6QHlT-AolWfuSt8wVZzxdFm00]--></g></svg>