<?xml version="1.0" encoding="us-ascii" standalone="no"?><svg xmlns="http://www.w3.org/2000/svg" xmlns:xlink="http://www.w3.org/1999/xlink" contentStyleType="text/css" height="1423px" preserveAspectRatio="none" style="width:2234px;height:1423px;background:#FFFFFF;" version="1.1" viewBox="0 0 2234 1423" width="2234px" zoomAndPan="magnify"><defs/><g><!--class JobGraph--><g id="elem_JobGraph"><rect codeLine="3" fill="#F1F1F1" height="80.5938" id="JobGraph" rx="2.5" ry="2.5" style="stroke:#181818;stroke-width:0.5;" width="136" x="722" y="7"/><ellipse cx="753.65" cy="23" fill="#ADD1B2" rx="11" ry="11" style="stroke:#181818;stroke-width:1.0;"/><path d="M755.9938,18.6719 C755.0563,18.2344 754.4625,18.0938 753.5875,18.0938 C750.9625,18.0938 748.9625,20.1719 748.9625,22.8906 L748.9625,24.0156 C748.9625,26.5938 751.0719,28.4844 753.9625,28.4844 C755.1813,28.4844 756.3375,28.1875 757.0875,27.6406 C757.6656,27.2344 757.9938,26.7813 757.9938,26.3906 C757.9938,25.9375 757.6031,25.5469 757.1344,25.5469 C756.9156,25.5469 756.7125,25.625 756.525,25.8125 C756.0719,26.2969 756.0719,26.2969 755.8844,26.3906 C755.4625,26.6563 754.775,26.7813 754.0094,26.7813 C751.9625,26.7813 750.6656,25.6875 750.6656,23.9844 L750.6656,22.8906 C750.6656,21.1094 751.9156,19.7969 753.65,19.7969 C754.2281,19.7969 754.8375,19.9531 755.3063,20.2031 C755.7906,20.4844 755.9625,20.7031 756.0563,21.1094 C756.1188,21.5156 756.15,21.6406 756.2906,21.7656 C756.4313,21.9063 756.6656,22.0156 756.8844,22.0156 C757.15,22.0156 757.4156,21.875 757.5875,21.6563 C757.6969,21.5 757.7281,21.3125 757.7281,20.8906 L757.7281,19.4688 C757.7281,19.0313 757.7125,18.9063 757.6188,18.75 C757.4625,18.4844 757.1813,18.3438 756.8844,18.3438 C756.5875,18.3438 756.3844,18.4375 756.1656,18.75 L755.9938,18.6719 Z " fill="#000000"/><text fill="#000000" font-family="sans-serif" font-size="14" lengthAdjust="spacing" textLength="67" x="771.35" y="27.8467">JobGraph</text><line style="stroke:#181818;stroke-width:0.5;" x1="723" x2="857" y1="39" y2="39"/><line style="stroke:#181818;stroke-width:0.5;" x1="723" x2="857" y1="47" y2="47"/><text fill="#000000" font-family="sans-serif" font-size="14" lengthAdjust="spacing" textLength="124" x="728" y="63.9951">getJobID() : JobID</text><text fill="#000000" font-family="sans-serif" font-size="14" lengthAdjust="spacing" textLength="29" x="728" y="80.292">... ()</text></g><!--class JobVertex--><g id="elem_JobVertex"><rect codeLine="8" fill="#F1F1F1" height="178.375" id="JobVertex" rx="2.5" ry="2.5" style="stroke:#181818;stroke-width:0.5;" width="314" x="369" y="262.5"/><ellipse cx="485.75" cy="278.5" fill="#ADD1B2" rx="11" ry="11" style="stroke:#181818;stroke-width:1.0;"/><path d="M488.0938,274.1719 C487.1563,273.7344 486.5625,273.5938 485.6875,273.5938 C483.0625,273.5938 481.0625,275.6719 481.0625,278.3906 L481.0625,279.5156 C481.0625,282.0938 483.1719,283.9844 486.0625,283.9844 C487.2813,283.9844 488.4375,283.6875 489.1875,283.1406 C489.7656,282.7344 490.0938,282.2813 490.0938,281.8906 C490.0938,281.4375 489.7031,281.0469 489.2344,281.0469 C489.0156,281.0469 488.8125,281.125 488.625,281.3125 C488.1719,281.7969 488.1719,281.7969 487.9844,281.8906 C487.5625,282.1563 486.875,282.2813 486.1094,282.2813 C484.0625,282.2813 482.7656,281.1875 482.7656,279.4844 L482.7656,278.3906 C482.7656,276.6094 484.0156,275.2969 485.75,275.2969 C486.3281,275.2969 486.9375,275.4531 487.4063,275.7031 C487.8906,275.9844 488.0625,276.2031 488.1563,276.6094 C488.2188,277.0156 488.25,277.1406 488.3906,277.2656 C488.5313,277.4063 488.7656,277.5156 488.9844,277.5156 C489.25,277.5156 489.5156,277.375 489.6875,277.1563 C489.7969,277 489.8281,276.8125 489.8281,276.3906 L489.8281,274.9688 C489.8281,274.5313 489.8125,274.4063 489.7188,274.25 C489.5625,273.9844 489.2813,273.8438 488.9844,273.8438 C488.6875,273.8438 488.4844,273.9375 488.2656,274.25 L488.0938,274.1719 Z " fill="#000000"/><text fill="#000000" font-family="sans-serif" font-size="14" lengthAdjust="spacing" textLength="72" x="506.25" y="283.3467">JobVertex</text><line style="stroke:#181818;stroke-width:0.5;" x1="370" x2="682" y1="294.5" y2="294.5"/><line style="stroke:#181818;stroke-width:0.5;" x1="370" x2="682" y1="302.5" y2="302.5"/><text fill="#000000" font-family="sans-serif" font-size="14" lengthAdjust="spacing" textLength="150" x="375" y="319.4951">getID() : JobVertexID</text><text fill="#000000" font-family="sans-serif" font-size="14" lengthAdjust="spacing" textLength="133" x="375" y="335.792">getName() : String</text><text fill="#000000" font-family="sans-serif" font-size="14" lengthAdjust="spacing" textLength="145" x="375" y="352.0889">getParallelism() : int</text><text fill="#000000" font-family="sans-serif" font-size="14" lengthAdjust="spacing" textLength="173" x="375" y="368.3857">getMaxParallelism() : int</text><text fill="#000000" font-family="sans-serif" font-size="14" lengthAdjust="spacing" textLength="302" x="375" y="384.6826">getSlotSharingGroup() : SlotSharingGroup</text><text fill="#000000" font-family="sans-serif" font-size="14" lengthAdjust="spacing" textLength="275" x="375" y="400.9795">getInvokableClass(ClassLoader) : Class</text><text fill="#000000" font-family="sans-serif" font-size="14" lengthAdjust="spacing" textLength="292" x="375" y="417.2764">getOperatorIDs() : List&lt;OperatorIDPair&gt;</text><text fill="#000000" font-family="sans-serif" font-size="14" lengthAdjust="spacing" textLength="39" x="375" y="433.5732">[...] ()</text></g><g id="elem_GMN4"><path d="M6,339 L6,364.1328 A0,0 0 0 0 6,364.1328 L334,364.1328 A0,0 0 0 0 334,364.1328 L334,357 L368.952,351.5 L334,349 L334,349 L324,339 L6,339 A0,0 0 0 0 6,339 " fill="#FEFFDD" style="stroke:#181818;stroke-width:0.5;"/><path d="M324,339 L324,349 L334,349 L324,339 " fill="#FEFFDD" style="stroke:#181818;stroke-width:0.5;"/><text fill="#000000" font-family="sans-serif" font-size="13" lengthAdjust="spacing" textLength="307" x="12" y="356.0669">Serializable representation of a JobGraph's task.</text></g><!--class AccessExecutionGraph--><g id="elem_AccessExecutionGraph"><rect codeLine="20" fill="#F1F1F1" height="373.3438" id="AccessExecutionGraph" rx="2.5" ry="2.5" style="stroke:#181818;stroke-width:0.5;" width="499" x="718.5" y="165"/><ellipse cx="882.25" cy="181" fill="#B4A7E5" rx="11" ry="11" style="stroke:#181818;stroke-width:1.0;"/><path d="M883.2031,177.7813 L884.9219,177.7813 C885.3125,177.7813 885.5,177.75 885.625,177.6719 C885.8906,177.5156 886.0313,177.2344 886.0313,176.9375 C886.0313,176.6719 885.9219,176.4063 885.6875,176.2344 C885.5156,176.125 885.375,176.0938 884.9219,176.0938 L879.7813,176.0938 C879.3438,176.0938 879.2188,176.1094 879.0625,176.2031 C878.8125,176.3594 878.6563,176.6563 878.6563,176.9375 C878.6563,177.2188 878.7969,177.4688 879.0156,177.6406 C879.1719,177.75 879.3594,177.7813 879.7813,177.7813 L881.5,177.7813 L881.5,184.2969 L879.7813,184.2969 C879.3438,184.2969 879.2188,184.3125 879.0625,184.4219 C878.8125,184.5781 878.6563,184.8594 878.6563,185.1563 C878.6563,185.4063 878.7969,185.6719 879.0156,185.8281 C879.1719,185.9531 879.375,186 879.7813,186 L884.9219,186 C885.6719,186 886.0313,185.7188 886.0313,185.1563 C886.0313,184.875 885.9219,184.625 885.6875,184.4531 C885.5156,184.3281 885.375,184.2969 884.9219,184.2969 L883.2031,184.2969 L883.2031,177.7813 Z " fill="#000000"/><text fill="#000000" font-family="sans-serif" font-size="14" font-style="italic" lengthAdjust="spacing" textLength="163" x="902.75" y="185.8467">AccessExecutionGraph</text><line style="stroke:#181818;stroke-width:0.5;" x1="719.5" x2="1216.5" y1="197" y2="197"/><text fill="#000000" font-family="sans-serif" font-size="14" lengthAdjust="spacing" textLength="124" x="724.5" y="213.9951">getJobID() : JobID</text><text fill="#000000" font-family="sans-serif" font-size="14" lengthAdjust="spacing" textLength="156" x="724.5" y="230.292">getJobName() : String</text><text fill="#000000" font-family="sans-serif" font-size="14" lengthAdjust="spacing" textLength="151" x="724.5" y="246.5889">getJsonPlan() : String</text><text fill="#000000" font-family="sans-serif" font-size="14" lengthAdjust="spacing" textLength="410" x="724.5" y="262.8857">getArchivedExecutionConfig() : ArchivedExecutionConfig</text><line style="stroke:#181818;stroke-width:1.0;stroke-dasharray:1.0,2.0;" x1="719.5" x2="1216.5" y1="270.1875" y2="270.1875"/><text fill="#000000" font-family="sans-serif" font-size="14" lengthAdjust="spacing" textLength="482" x="724.5" y="287.1826">getCheckpointCoordinatorConfig() : CheckpointCoordinatorConfig</text><text fill="#000000" font-family="sans-serif" font-size="14" lengthAdjust="spacing" textLength="235" x="724.5" y="303.4795">getStateBackendName() : String</text><text fill="#000000" font-family="sans-serif" font-size="14" lengthAdjust="spacing" textLength="274" x="724.5" y="319.7764">getCheckpointStorageName() : String</text><text fill="#000000" font-family="sans-serif" font-size="14" lengthAdjust="spacing" textLength="266" x="724.5" y="336.0732">getChangelogStorageName() : String</text><line style="stroke:#181818;stroke-width:1.0;stroke-dasharray:1.0,2.0;" x1="719.5" x2="1216.5" y1="343.375" y2="343.375"/><text fill="#000000" font-family="sans-serif" font-size="14" lengthAdjust="spacing" textLength="180" x="724.5" y="360.3701">getJobState() : JobStatus</text><text fill="#000000" font-family="sans-serif" font-size="14" lengthAdjust="spacing" textLength="276" x="724.5" y="376.667">getStatusTimestamp(JobStatus) : long</text><text fill="#000000" font-family="sans-serif" font-size="14" lengthAdjust="spacing" textLength="187" x="724.5" y="392.9639">getFailureInfo() : ErrorInfo</text><line style="stroke:#181818;stroke-width:1.0;stroke-dasharray:1.0,2.0;" x1="719.5" x2="1216.5" y1="400.2656" y2="400.2656"/><text fill="#000000" font-family="sans-serif" font-size="14" lengthAdjust="spacing" textLength="399" x="724.5" y="417.2607">getJobVertex(JobVertexID) : AccessExecutionJobVertex</text><text fill="#000000" font-family="sans-serif" font-size="14" lengthAdjust="spacing" textLength="465" x="724.5" y="433.5576">getAllVertices() : Map&lt;JobVertexID, AccessExecutionJobVertex&gt;</text><text fill="#000000" font-family="sans-serif" font-size="14" lengthAdjust="spacing" textLength="474" x="724.5" y="449.8545">getVerticesTopologically() : Iterable&lt;AccessExecutionJobVertex&gt;</text><text fill="#000000" font-family="sans-serif" font-size="14" lengthAdjust="spacing" textLength="445" x="724.5" y="466.1514">getAllExecutionVertices() : Iterable&lt;AccessExecutionVertex&gt;</text><line style="stroke:#181818;stroke-width:1.0;stroke-dasharray:1.0,2.0;" x1="719.5" x2="1216.5" y1="473.4531" y2="473.4531"/><text fill="#000000" font-family="sans-serif" font-size="14" lengthAdjust="spacing" textLength="428" x="724.5" y="490.4482">getCheckpointStatsSnapshot() : CheckpointStatsSnapshot</text><line style="stroke:#181818;stroke-width:1.0;stroke-dasharray:1.0,2.0;" x1="719.5" x2="1216.5" y1="497.75" y2="497.75"/><text fill="#000000" font-family="sans-serif" font-size="14" lengthAdjust="spacing" textLength="487" x="724.5" y="514.7451">getAccumulatorResultsStringified() : StringifiedAccumulatorResult[]</text><text fill="#000000" font-family="sans-serif" font-size="14" lengthAdjust="spacing" textLength="438" x="724.5" y="531.042">getAccumulatorsSerialized() : Map&lt;String, SerializedObject&gt;</text></g><!--class AccessExecutionJobVertex--><g id="elem_AccessExecutionJobVertex"><rect codeLine="46" fill="#F1F1F1" height="194.375" id="AccessExecutionJobVertex" rx="2.5" ry="2.5" style="stroke:#181818;stroke-width:0.5;" width="570" x="503" y="615"/><ellipse cx="689.75" cy="631" fill="#B4A7E5" rx="11" ry="11" style="stroke:#181818;stroke-width:1.0;"/><path d="M690.7031,627.7813 L692.4219,627.7813 C692.8125,627.7813 693,627.75 693.125,627.6719 C693.3906,627.5156 693.5313,627.2344 693.5313,626.9375 C693.5313,626.6719 693.4219,626.4063 693.1875,626.2344 C693.0156,626.125 692.875,626.0938 692.4219,626.0938 L687.2813,626.0938 C686.8438,626.0938 686.7188,626.1094 686.5625,626.2031 C686.3125,626.3594 686.1563,626.6563 686.1563,626.9375 C686.1563,627.2188 686.2969,627.4688 686.5156,627.6406 C686.6719,627.75 686.8594,627.7813 687.2813,627.7813 L689,627.7813 L689,634.2969 L687.2813,634.2969 C686.8438,634.2969 686.7188,634.3125 686.5625,634.4219 C686.3125,634.5781 686.1563,634.8594 686.1563,635.1563 C686.1563,635.4063 686.2969,635.6719 686.5156,635.8281 C686.6719,635.9531 686.875,636 687.2813,636 L692.4219,636 C693.1719,636 693.5313,635.7188 693.5313,635.1563 C693.5313,634.875 693.4219,634.625 693.1875,634.4531 C693.0156,634.3281 692.875,634.2969 692.4219,634.2969 L690.7031,634.2969 L690.7031,627.7813 Z " fill="#000000"/><text fill="#000000" font-family="sans-serif" font-size="14" font-style="italic" lengthAdjust="spacing" textLength="188" x="710.25" y="635.8467">AccessExecutionJobVertex</text><line style="stroke:#181818;stroke-width:0.5;" x1="504" x2="1072" y1="647" y2="647"/><text fill="#000000" font-family="sans-serif" font-size="14" lengthAdjust="spacing" textLength="220" x="509" y="663.9951">getJobVertexId() : JobVertexID</text><text fill="#000000" font-family="sans-serif" font-size="14" lengthAdjust="spacing" textLength="133" x="509" y="680.292">getName() : String</text><text fill="#000000" font-family="sans-serif" font-size="14" lengthAdjust="spacing" textLength="145" x="509" y="696.5889">getParallelism() : int</text><text fill="#000000" font-family="sans-serif" font-size="14" lengthAdjust="spacing" textLength="173" x="509" y="712.8857">getMaxParallelism() : int</text><text fill="#000000" font-family="sans-serif" font-size="14" lengthAdjust="spacing" textLength="274" x="509" y="729.1826">getResourceProfile() : ResourceProfile</text><line style="stroke:#181818;stroke-width:1.0;stroke-dasharray:1.0,2.0;" x1="504" x2="1072" y1="736.4844" y2="736.4844"/><text fill="#000000" font-family="sans-serif" font-size="14" lengthAdjust="spacing" textLength="284" x="509" y="753.4795">getAggregatedState() : ExecutionState</text><line style="stroke:#181818;stroke-width:1.0;stroke-dasharray:1.0,2.0;" x1="504" x2="1072" y1="760.7813" y2="760.7813"/><text fill="#000000" font-family="sans-serif" font-size="14" lengthAdjust="spacing" textLength="320" x="509" y="777.7764">getTaskVertices() : AccessExecutionVertex[]</text><line style="stroke:#181818;stroke-width:1.0;stroke-dasharray:1.0,2.0;" x1="504" x2="1072" y1="785.0781" y2="785.0781"/><text fill="#000000" font-family="sans-serif" font-size="14" lengthAdjust="spacing" textLength="558" x="509" y="802.0732">getAggregatedUserAccumulatorsStringified() : StringifiedAccumulatorResult[]</text></g><!--class AccessExecutionVertex--><g id="elem_AccessExecutionVertex"><rect codeLine="60" fill="#F1F1F1" height="194.375" id="AccessExecutionVertex" rx="2.5" ry="2.5" style="stroke:#181818;stroke-width:0.5;" width="463" x="556.5" y="886"/><ellipse cx="700.75" cy="902" fill="#B4A7E5" rx="11" ry="11" style="stroke:#181818;stroke-width:1.0;"/><path d="M701.7031,898.7813 L703.4219,898.7813 C703.8125,898.7813 704,898.75 704.125,898.6719 C704.3906,898.5156 704.5313,898.2344 704.5313,897.9375 C704.5313,897.6719 704.4219,897.4063 704.1875,897.2344 C704.0156,897.125 703.875,897.0938 703.4219,897.0938 L698.2813,897.0938 C697.8438,897.0938 697.7188,897.1094 697.5625,897.2031 C697.3125,897.3594 697.1563,897.6563 697.1563,897.9375 C697.1563,898.2188 697.2969,898.4688 697.5156,898.6406 C697.6719,898.75 697.8594,898.7813 698.2813,898.7813 L700,898.7813 L700,905.2969 L698.2813,905.2969 C697.8438,905.2969 697.7188,905.3125 697.5625,905.4219 C697.3125,905.5781 697.1563,905.8594 697.1563,906.1563 C697.1563,906.4063 697.2969,906.6719 697.5156,906.8281 C697.6719,906.9531 697.875,907 698.2813,907 L703.4219,907 C704.1719,907 704.5313,906.7188 704.5313,906.1563 C704.5313,905.875 704.4219,905.625 704.1875,905.4531 C704.0156,905.3281 703.875,905.2969 703.4219,905.2969 L701.7031,905.2969 L701.7031,898.7813 Z " fill="#000000"/><text fill="#000000" font-family="sans-serif" font-size="14" font-style="italic" lengthAdjust="spacing" textLength="166" x="721.25" y="906.8467">AccessExecutionVertex</text><line style="stroke:#181818;stroke-width:0.5;" x1="557.5" x2="1018.5" y1="918" y2="918"/><text fill="#000000" font-family="sans-serif" font-size="14" lengthAdjust="spacing" textLength="297" x="562.5" y="934.9951">getTaskNameWithSubtaskIndex() : String</text><text fill="#000000" font-family="sans-serif" font-size="14" lengthAdjust="spacing" textLength="217" x="562.5" y="951.292">getParallelSubtaskIndex() : int</text><line style="stroke:#181818;stroke-width:1.0;stroke-dasharray:1.0,2.0;" x1="557.5" x2="1018.5" y1="958.5938" y2="958.5938"/><text fill="#000000" font-family="sans-serif" font-size="14" lengthAdjust="spacing" textLength="270" x="562.5" y="975.5889">getExecutionState() : ExecutionState</text><text fill="#000000" font-family="sans-serif" font-size="14" lengthAdjust="spacing" textLength="312" x="562.5" y="991.8857">getStateTimestamp(ExecutionState) : long</text><text fill="#000000" font-family="sans-serif" font-size="14" lengthAdjust="spacing" textLength="187" x="562.5" y="1008.1826">getFailureInfo() : ErrorInfo</text><text fill="#000000" font-family="sans-serif" font-size="14" lengthAdjust="spacing" textLength="292" x="562.5" y="1024.4795">getExecutionHistory() : ExecutionHistory</text><line style="stroke:#181818;stroke-width:1.0;stroke-dasharray:1.0,2.0;" x1="557.5" x2="1018.5" y1="1031.7813" y2="1031.7813"/><text fill="#000000" font-family="sans-serif" font-size="14" lengthAdjust="spacing" textLength="358" x="562.5" y="1048.7764">getCurrentExecutionAttempt() : AccessExecution</text><line style="stroke:#181818;stroke-width:1.0;stroke-dasharray:1.0,2.0;" x1="557.5" x2="1018.5" y1="1056.0781" y2="1056.0781"/><text fill="#000000" font-family="sans-serif" font-size="14" lengthAdjust="spacing" textLength="451" x="562.5" y="1073.0732">getCurrentAssignedResourceLocation() : TaskManagerLocation</text></g><!--class AccessExecution--><g id="elem_AccessExecution"><rect codeLine="74" fill="#F1F1F1" height="259.5625" id="AccessExecution" rx="2.5" ry="2.5" style="stroke:#181818;stroke-width:0.5;" width="485" x="545.5" y="1157"/><ellipse cx="724.25" cy="1173" fill="#B4A7E5" rx="11" ry="11" style="stroke:#181818;stroke-width:1.0;"/><path d="M725.2031,1169.7813 L726.9219,1169.7813 C727.3125,1169.7813 727.5,1169.75 727.625,1169.6719 C727.8906,1169.5156 728.0313,1169.2344 728.0313,1168.9375 C728.0313,1168.6719 727.9219,1168.4063 727.6875,1168.2344 C727.5156,1168.125 727.375,1168.0938 726.9219,1168.0938 L721.7813,1168.0938 C721.3438,1168.0938 721.2188,1168.1094 721.0625,1168.2031 C720.8125,1168.3594 720.6563,1168.6563 720.6563,1168.9375 C720.6563,1169.2188 720.7969,1169.4688 721.0156,1169.6406 C721.1719,1169.75 721.3594,1169.7813 721.7813,1169.7813 L723.5,1169.7813 L723.5,1176.2969 L721.7813,1176.2969 C721.3438,1176.2969 721.2188,1176.3125 721.0625,1176.4219 C720.8125,1176.5781 720.6563,1176.8594 720.6563,1177.1563 C720.6563,1177.4063 720.7969,1177.6719 721.0156,1177.8281 C721.1719,1177.9531 721.375,1178 721.7813,1178 L726.9219,1178 C727.6719,1178 728.0313,1177.7188 728.0313,1177.1563 C728.0313,1176.875 727.9219,1176.625 727.6875,1176.4531 C727.5156,1176.3281 727.375,1176.2969 726.9219,1176.2969 L725.2031,1176.2969 L725.2031,1169.7813 Z " fill="#000000"/><text fill="#000000" font-family="sans-serif" font-size="14" font-style="italic" lengthAdjust="spacing" textLength="119" x="744.75" y="1177.8467">AccessExecution</text><line style="stroke:#181818;stroke-width:0.5;" x1="546.5" x2="1029.5" y1="1189" y2="1189"/><text fill="#000000" font-family="sans-serif" font-size="14" lengthAdjust="spacing" textLength="275" x="551.5" y="1205.9951">getAttemptId() : ExecutionAttemptID</text><text fill="#000000" font-family="sans-serif" font-size="14" lengthAdjust="spacing" textLength="217" x="551.5" y="1222.292">getParallelSubtaskIndex() : int</text><text fill="#000000" font-family="sans-serif" font-size="14" lengthAdjust="spacing" textLength="189" x="551.5" y="1238.5889">getAttemptNumber() : int</text><line style="stroke:#181818;stroke-width:1.0;stroke-dasharray:1.0,2.0;" x1="546.5" x2="1029.5" y1="1245.8906" y2="1245.8906"/><text fill="#000000" font-family="sans-serif" font-size="14" lengthAdjust="spacing" textLength="199" x="551.5" y="1262.8857">getState() : ExecutionState</text><text fill="#000000" font-family="sans-serif" font-size="14" lengthAdjust="spacing" textLength="218" x="551.5" y="1279.1826">getStateTimestamps() : long[]</text><text fill="#000000" font-family="sans-serif" font-size="14" lengthAdjust="spacing" textLength="245" x="551.5" y="1295.4795">getStateEndTimestamps() : long[]</text><text fill="#000000" font-family="sans-serif" font-size="14" lengthAdjust="spacing" textLength="312" x="551.5" y="1311.7764">getStateTimestamp(ExecutionState) : long</text><text fill="#000000" font-family="sans-serif" font-size="14" lengthAdjust="spacing" textLength="339" x="551.5" y="1328.0732">getStateEndTimestamp(ExecutionState) : long</text><text fill="#000000" font-family="sans-serif" font-size="14" lengthAdjust="spacing" textLength="187" x="551.5" y="1344.3701">getFailureInfo() : ErrorInfo</text><line style="stroke:#181818;stroke-width:1.0;stroke-dasharray:1.0,2.0;" x1="546.5" x2="1029.5" y1="1351.6719" y2="1351.6719"/><text fill="#000000" font-family="sans-serif" font-size="14" lengthAdjust="spacing" textLength="396" x="551.5" y="1368.667">getAssignedResourceLocation() : TaskManagerLocation</text><line style="stroke:#181818;stroke-width:1.0;stroke-dasharray:1.0,2.0;" x1="546.5" x2="1029.5" y1="1375.9688" y2="1375.9688"/><text fill="#000000" font-family="sans-serif" font-size="14" lengthAdjust="spacing" textLength="473" x="551.5" y="1392.9639">getUserAccumulatorsStringified() : StringifiedAccumulatorResult[]</text><text fill="#000000" font-family="sans-serif" font-size="14" lengthAdjust="spacing" textLength="184" x="551.5" y="1409.2607">getIOMetrics() : IOMetrics</text></g><g id="elem_GMN11"><path d="M427,35 L427,60.1328 A0,0 0 0 0 427,60.1328 L687,60.1328 A0,0 0 0 0 687,60.1328 L687,53 L721.703,47.5 L687,45 L687,45 L677,35 L427,35 A0,0 0 0 0 427,35 " fill="#FEFFDD" style="stroke:#181818;stroke-width:0.5;"/><path d="M677,35 L677,45 L687,45 L677,35 " fill="#FEFFDD" style="stroke:#181818;stroke-width:0.5;"/><text fill="#000000" font-family="sans-serif" font-size="13" lengthAdjust="spacing" textLength="239" x="433" y="52.0669">Serializable representation of the job.</text></g><g id="elem_GMN14"><path d="M1252.5,339 L1252.5,347.5 L1217.54,351.5 L1252.5,355.5 L1252.5,364.1328 A0,0 0 0 0 1252.5,364.1328 L1619.5,364.1328 A0,0 0 0 0 1619.5,364.1328 L1619.5,349 L1609.5,339 L1252.5,339 A0,0 0 0 0 1252.5,339 " fill="#FEFFDD" style="stroke:#181818;stroke-width:0.5;"/><path d="M1609.5,339 L1609.5,349 L1619.5,349 L1609.5,339 " fill="#FEFFDD" style="stroke:#181818;stroke-width:0.5;"/><text fill="#000000" font-family="sans-serif" font-size="13" lengthAdjust="spacing" textLength="346" x="1258.5" y="356.0669">Representation of a JobGraph while executing the job.</text></g><g id="elem_GMN17"><path d="M1108.5,699.5 L1108.5,708 L1073.12,712 L1108.5,716 L1108.5,724.6328 A0,0 0 0 0 1108.5,724.6328 L1479.5,724.6328 A0,0 0 0 0 1479.5,724.6328 L1479.5,709.5 L1469.5,699.5 L1108.5,699.5 A0,0 0 0 0 1108.5,699.5 " fill="#FEFFDD" style="stroke:#181818;stroke-width:0.5;"/><path d="M1469.5,699.5 L1469.5,709.5 L1479.5,709.5 L1469.5,699.5 " fill="#FEFFDD" style="stroke:#181818;stroke-width:0.5;"/><text fill="#000000" font-family="sans-serif" font-size="13" lengthAdjust="spacing" textLength="350" x="1114.5" y="716.5669">Representation of a JobVertex while executing the job.</text></g><g id="elem_GMN20"><path d="M1054.5,970.5 L1054.5,979 L1019.58,983 L1054.5,987 L1054.5,995.6328 A0,0 0 0 0 1054.5,995.6328 L2227.5,995.6328 A0,0 0 0 0 2227.5,995.6328 L2227.5,980.5 L2217.5,970.5 L1054.5,970.5 A0,0 0 0 0 1054.5,970.5 " fill="#FEFFDD" style="stroke:#181818;stroke-width:0.5;"/><path d="M2217.5,970.5 L2217.5,980.5 L2227.5,980.5 L2217.5,970.5 " fill="#FEFFDD" style="stroke:#181818;stroke-width:0.5;"/><text fill="#000000" font-family="sans-serif" font-size="13" lengthAdjust="spacing" textLength="1152" x="1060.5" y="987.5669">A parallel instance of the AccessExecutionJobVertex (i.e. a JobVertex of parallelism n results in n AccessExecutionVertex instance for the corresponding AccessExecutionJobVertex)</text></g><g id="elem_GMN23"><path d="M1065.5,1274.5 L1065.5,1283 L1030.68,1287 L1065.5,1291 L1065.5,1299.6328 A0,0 0 0 0 1065.5,1299.6328 L1912.5,1299.6328 A0,0 0 0 0 1912.5,1299.6328 L1912.5,1284.5 L1902.5,1274.5 L1065.5,1274.5 A0,0 0 0 0 1065.5,1274.5 " fill="#FEFFDD" style="stroke:#181818;stroke-width:0.5;"/><path d="M1902.5,1274.5 L1902.5,1284.5 L1912.5,1284.5 L1902.5,1274.5 " fill="#FEFFDD" style="stroke:#181818;stroke-width:0.5;"/><text fill="#000000" font-family="sans-serif" font-size="13" lengthAdjust="spacing" textLength="826" x="1071.5" y="1291.5669">The actual execution abstraction of AccessExecutionVertex (multiple attempts can be made to execute AccessExecutionVertex)</text></g><!--link JobGraph to JobVertex--><g id="link_JobGraph_JobVertex"><path codeLine="99" d="M755.215,88.29 C716.711,132.34 657.3917,200.1925 607.0697,257.7625 " fill="none" id="JobGraph-to-JobVertex" style="stroke:#181818;stroke-width:1.0;stroke-dasharray:7.0,7.0;"/><polygon fill="#181818" points="603.121,262.28,612.0557,258.1363,606.4116,258.5154,606.0324,252.8713,603.121,262.28" style="stroke:#181818;stroke-width:1.0;"/><text fill="#000000" font-family="sans-serif" font-size="13" lengthAdjust="spacing" textLength="54" x="727" y="131.0669">contains</text></g><!--link AccessExecutionGraph to AccessExecutionJobVertex--><g id="link_AccessExecutionGraph_AccessExecutionJobVertex"><path codeLine="100" d="M874.837,538.051 C861.54,564.533 851.0284,585.469 839.0784,609.268 " fill="none" id="AccessExecutionGraph-to-AccessExecutionJobVertex" style="stroke:#181818;stroke-width:1.0;stroke-dasharray:7.0,7.0;"/><polygon fill="#181818" points="836.386,614.63,843.9992,608.3819,838.6296,610.1617,836.8499,604.7921,836.386,614.63" style="stroke:#181818;stroke-width:1.0;"/><text fill="#000000" font-family="sans-serif" font-size="13" lengthAdjust="spacing" textLength="54" x="857" y="581.0669">contains</text></g><!--link AccessExecutionJobVertex to AccessExecutionVertex--><g id="link_AccessExecutionJobVertex_AccessExecutionVertex"><path codeLine="101" d="M788,809.355 C788,834.23 788,855.002 788,879.866 " fill="none" id="AccessExecutionJobVertex-to-AccessExecutionVertex" style="stroke:#181818;stroke-width:1.0;stroke-dasharray:7.0,7.0;"/><polygon fill="#181818" points="788,885.866,792,876.866,788,880.866,784,876.866,788,885.866" style="stroke:#181818;stroke-width:1.0;"/><text fill="#000000" font-family="sans-serif" font-size="13" lengthAdjust="spacing" textLength="54" x="789" y="852.0669">contains</text></g><!--link AccessExecutionVertex to AccessExecution--><g id="link_AccessExecutionVertex_AccessExecution"><path codeLine="102" d="M788,1080.385 C788,1104.725 788,1125.252 788,1150.917 " fill="none" id="AccessExecutionVertex-to-AccessExecution" style="stroke:#181818;stroke-width:1.0;stroke-dasharray:7.0,7.0;"/><polygon fill="#181818" points="788,1156.917,792,1147.917,788,1151.917,784,1147.917,788,1156.917" style="stroke:#181818;stroke-width:1.0;"/><text fill="#000000" font-family="sans-serif" font-size="13" lengthAdjust="spacing" textLength="54" x="789" y="1123.0669">contains</text></g><!--link JobGraph to AccessExecutionGraph--><g id="link_JobGraph_AccessExecutionGraph"><path codeLine="104" d="M813.453,88.29 C825.679,109.03 838.5604,130.891 855.5354,159.691 " fill="none" id="JobGraph-to-AccessExecutionGraph" style="stroke:#181818;stroke-width:1.0;stroke-dasharray:7.0,7.0;"/><polygon fill="#181818" points="858.582,164.86,857.458,155.0755,856.0431,160.5525,850.5661,159.1377,858.582,164.86" style="stroke:#181818;stroke-width:1.0;"/><text fill="#000000" font-family="sans-serif" font-size="13" lengthAdjust="spacing" textLength="69" x="838" y="131.0669">represents</text></g><!--link JobVertex to AccessExecutionJobVertex--><g id="link_JobVertex_AccessExecutionJobVertex"><path codeLine="105" d="M590.428,440.658 C629.064,493.525 674.6828,555.9458 714.2988,610.1538 " fill="none" id="JobVertex-to-AccessExecutionJobVertex" style="stroke:#181818;stroke-width:1.0;stroke-dasharray:7.0,7.0;"/><polygon fill="#181818" points="717.839,614.998,715.7581,605.3715,714.8888,610.9611,709.2991,610.0918,717.839,614.998" style="stroke:#181818;stroke-width:1.0;"/><text fill="#000000" font-family="sans-serif" font-size="13" lengthAdjust="spacing" textLength="69" x="696" y="581.0669">represents</text></g><!--SRC=[lLPBRzGm4BxdL_Z6LYhflQegBQN0Lds9BN107BpEREBMiIFRWGBYlpDs7axIU9U2H0-hnZFppSmt3_j5OMrbZe-EAa6bhKkHCbKUCK6DUPbnccjQ9ed_91TgyrRJgY0_4u9_ELWyMRrU791Zul_pnscQaiL1ycjWzH6qXSTW5cmQIMk9acjQWfUjhUOoxuvlgQP2WE2cz58kRIUweeyxf6kXxBgW3kkjLdNLO4yE-x3aL_L0DmBENE0B_tkfQ0RQMVdFJlMc0asjqglNnaDUScDFmk4jvVhKwtv6EhuqV4XbWGZOMgAs8NSC1pIdWlzmdec6IeC1QQdbIZfDslF-mX1BpKEQ99WXw2rbG9QCWJ7dZy1gP_07zMcE8qHV62LliH5cH4lD2luLijxNcP9RddlDYApjXmxXh03sK2aC_amfdN7fo1gWx93tzKHUu1Lb3o2pI0e1POtcD8Ue7fKv29NlK0kn8sNUTqUc-wZDCApQtF4IZALbjUWLdBPGmUaRoaMjOIMtoYETQutzWbzFtJNjiHWCYMTwNEzUsbT927V0KSixkABLoG3YC0fmsY5qvdUgKiWEPpXRtptM2flEDUd9NWoCefUEmeb13Etd6iQnQTQILgPGTj8i8za40TtKPIrS8xq7KmjKzDNbMmxPeDh- -udovoypEAQRrnR0CTo0798WkjdS0xEdRWr6XtLcCuPIPVzhHMAggjOCRhNQSj50JywcfEQvXXo78GiZqIVbZoO6TxYrHcqmM_sMxJa_7mpeKGcULyHTHPXMmCNgAFx4RR6kDsxXhcI6WnYd_8bQnsv8PKnFZB5kmOL5CbPwtZOPkds7zvFItyUEsyFfqDLQu_tJQosjXRAoStMRjrmQmtC9MTT4buhvoymZE7glgCHzgxlpdUK9XMdZQ0TZ6bwOZxrL2LZNTRa17IdPyohLzBKhJbWQNkDSPlkL_hJWJn3_gK46a_RSaetD_t4yk-VNpHMW8cjlYkxBjSVqwUIVENjVJhO0SgysQMklULvuWBatazjvyPSN-LRW6YJGcCWyGEz47Zpo8kZjzlax-0vxIQgsvx6DiIqaZb6RVlJ6MV0Kqb4CQ565Mu989DHVc8Y97_DRitUtLThxOmfNWAcKp5mQCUy7k_F2baCeocnDHKSASaOtnceyRVcRZsY1pMLvXMpIPiODOLII3P0I7_B4gXOmSWyS94bVypGz7T1pZBbXzJ3ZPFRDxRIZRCUDWyuCm5xhkEdGQ9pIRFJ7ONnCiZEcOLB1vZS0]--></g></svg>