<?xml version="1.0" encoding="us-ascii" standalone="no"?><svg xmlns="http://www.w3.org/2000/svg" xmlns:xlink="http://www.w3.org/1999/xlink" contentStyleType="text/css" height="1797px" preserveAspectRatio="none" style="width:2234px;height:1797px;background:#FFFFFF;" version="1.1" viewBox="0 0 2234 1797" width="2234px" zoomAndPan="magnify"><defs/><g><!--class JobGraph--><g id="elem_JobGraph"><rect codeLine="3" fill="#F1F1F1" height="446.8281" id="JobGraph" rx="2.5" ry="2.5" style="stroke:#181818;stroke-width:0.5;" width="497" x="541.5" y="7"/><ellipse cx="752.25" cy="23" fill="#ADD1B2" rx="11" ry="11" style="stroke:#181818;stroke-width:1.0;"/><path d="M754.5938,18.6719 C753.6563,18.2344 753.0625,18.0938 752.1875,18.0938 C749.5625,18.0938 747.5625,20.1719 747.5625,22.8906 L747.5625,24.0156 C747.5625,26.5938 749.6719,28.4844 752.5625,28.4844 C753.7813,28.4844 754.9375,28.1875 755.6875,27.6406 C756.2656,27.2344 756.5938,26.7813 756.5938,26.3906 C756.5938,25.9375 756.2031,25.5469 755.7344,25.5469 C755.5156,25.5469 755.3125,25.625 755.125,25.8125 C754.6719,26.2969 754.6719,26.2969 754.4844,26.3906 C754.0625,26.6563 753.375,26.7813 752.6094,26.7813 C750.5625,26.7813 749.2656,25.6875 749.2656,23.9844 L749.2656,22.8906 C749.2656,21.1094 750.5156,19.7969 752.25,19.7969 C752.8281,19.7969 753.4375,19.9531 753.9063,20.2031 C754.3906,20.4844 754.5625,20.7031 754.6563,21.1094 C754.7188,21.5156 754.75,21.6406 754.8906,21.7656 C755.0313,21.9063 755.2656,22.0156 755.4844,22.0156 C755.75,22.0156 756.0156,21.875 756.1875,21.6563 C756.2969,21.5 756.3281,21.3125 756.3281,20.8906 L756.3281,19.4688 C756.3281,19.0313 756.3125,18.9063 756.2188,18.75 C756.0625,18.4844 755.7813,18.3438 755.4844,18.3438 C755.1875,18.3438 754.9844,18.4375 754.7656,18.75 L754.5938,18.6719 Z " fill="#000000"/><text fill="#000000" font-family="sans-serif" font-size="14" lengthAdjust="spacing" textLength="67" x="772.75" y="27.8467">JobGraph</text><line style="stroke:#181818;stroke-width:0.5;" x1="542.5" x2="1037.5" y1="39" y2="39"/><text fill="#000000" font-family="sans-serif" font-size="14" lengthAdjust="spacing" textLength="124" x="547.5" y="55.9951">getJobID() : JobID</text><text fill="#000000" font-family="sans-serif" font-size="14" lengthAdjust="spacing" textLength="133" x="547.5" y="72.292">getName() : String</text><line style="stroke:#181818;stroke-width:1.0;stroke-dasharray:1.0,2.0;" x1="542.5" x2="1037.5" y1="79.5938" y2="79.5938"/><text fill="#000000" font-family="sans-serif" font-size="14" lengthAdjust="spacing" textLength="166" x="547.5" y="96.5889">getJobType() : JobType</text><text fill="#000000" font-family="sans-serif" font-size="14" lengthAdjust="spacing" textLength="213" x="547.5" y="112.8857">getMaximumParallelism() : int</text><text fill="#000000" font-family="sans-serif" font-size="14" lengthAdjust="spacing" textLength="267" x="547.5" y="129.1826">getJobConfiguration() : Configuration</text><text fill="#000000" font-family="sans-serif" font-size="14" lengthAdjust="spacing" textLength="383" x="547.5" y="145.4795">getCheckpointSettings() : JobCheckpointingSettings</text><text fill="#000000" font-family="sans-serif" font-size="14" lengthAdjust="spacing" textLength="296" x="547.5" y="161.7764">getInitialClientHeartbeatTimeout() : long</text><text fill="#000000" font-family="sans-serif" font-size="14" lengthAdjust="spacing" textLength="430" x="547.5" y="178.0732">getSavepointRestoreSettings() : SavepointRestoreSettings</text><text fill="#000000" font-family="sans-serif" font-size="14" lengthAdjust="spacing" textLength="485" x="547.5" y="194.3701">getSerializedExecutionConfig() : SerializedValue&lt;ExecutionConfig&gt;</text><text fill="#000000" font-family="sans-serif" font-size="14" lengthAdjust="spacing" textLength="154" x="547.5" y="210.667">isDynamic() : boolean</text><text fill="#000000" font-family="sans-serif" font-size="14" lengthAdjust="spacing" textLength="256" x="547.5" y="226.9639">isCheckpointingEnabled() : boolean</text><text fill="#000000" font-family="sans-serif" font-size="14" lengthAdjust="spacing" textLength="349" x="547.5" y="243.2607">isApproximateLocalRecoveryEnabled() : boolean</text><line style="stroke:#181818;stroke-width:1.0;stroke-dasharray:1.0,2.0;" x1="542.5" x2="1037.5" y1="250.5625" y2="250.5625"/><text fill="#000000" font-family="sans-serif" font-size="14" lengthAdjust="spacing" textLength="259" x="547.5" y="267.5576">getVertices() : Iterable&lt;JobVertex&gt;</text><text fill="#000000" font-family="sans-serif" font-size="14" lengthAdjust="spacing" textLength="245" x="547.5" y="283.8545">getVerticesAsArray() : JobVertex[]</text><text fill="#000000" font-family="sans-serif" font-size="14" lengthAdjust="spacing" textLength="292" x="547.5" y="300.1514">findVertexByID(JobVertexID) : JobVertex</text><text fill="#000000" font-family="sans-serif" font-size="14" lengthAdjust="spacing" textLength="202" x="547.5" y="316.4482">getNumberOfVertices() : int</text><line style="stroke:#181818;stroke-width:1.0;stroke-dasharray:1.0,2.0;" x1="542.5" x2="1037.5" y1="323.75" y2="323.75"/><text fill="#000000" font-family="sans-serif" font-size="14" lengthAdjust="spacing" textLength="356" x="547.5" y="340.7451">getSlotSharingGroups() : Set&lt;SlotSharingGroup&gt;</text><text fill="#000000" font-family="sans-serif" font-size="14" lengthAdjust="spacing" textLength="352" x="547.5" y="357.042">getCoLocationGroups() : Set&lt;CoLocationGroup&gt;</text><text fill="#000000" font-family="sans-serif" font-size="14" lengthAdjust="spacing" textLength="315" x="547.5" y="373.3389">getJobStatusHooks() : List&lt;JobStatusHook&gt;</text><line style="stroke:#181818;stroke-width:1.0;stroke-dasharray:1.0,2.0;" x1="542.5" x2="1037.5" y1="380.6406" y2="380.6406"/><text fill="#000000" font-family="sans-serif" font-size="14" lengthAdjust="spacing" textLength="411" x="547.5" y="397.6357">getUserArtifacts() : Map&lt;String, DistributedCacheEntry&gt;</text><text fill="#000000" font-family="sans-serif" font-size="14" lengthAdjust="spacing" textLength="352" x="547.5" y="413.9326">getUserJarBlobKeys() : List&lt;PermanentBlobKey&gt;</text><text fill="#000000" font-family="sans-serif" font-size="14" lengthAdjust="spacing" textLength="185" x="547.5" y="430.2295">getUserJars() : List&lt;Path&gt;</text><text fill="#000000" font-family="sans-serif" font-size="14" lengthAdjust="spacing" textLength="221" x="547.5" y="446.5264">hasUsercodeJarFiles() : boolean</text></g><!--class JobVertex--><g id="elem_JobVertex"><rect codeLine="33" fill="#F1F1F1" height="178.375" id="JobVertex" rx="2.5" ry="2.5" style="stroke:#181818;stroke-width:0.5;" width="314" x="369" y="628.5"/><ellipse cx="485.75" cy="644.5" fill="#ADD1B2" rx="11" ry="11" style="stroke:#181818;stroke-width:1.0;"/><path d="M488.0938,640.1719 C487.1563,639.7344 486.5625,639.5938 485.6875,639.5938 C483.0625,639.5938 481.0625,641.6719 481.0625,644.3906 L481.0625,645.5156 C481.0625,648.0938 483.1719,649.9844 486.0625,649.9844 C487.2813,649.9844 488.4375,649.6875 489.1875,649.1406 C489.7656,648.7344 490.0938,648.2813 490.0938,647.8906 C490.0938,647.4375 489.7031,647.0469 489.2344,647.0469 C489.0156,647.0469 488.8125,647.125 488.625,647.3125 C488.1719,647.7969 488.1719,647.7969 487.9844,647.8906 C487.5625,648.1563 486.875,648.2813 486.1094,648.2813 C484.0625,648.2813 482.7656,647.1875 482.7656,645.4844 L482.7656,644.3906 C482.7656,642.6094 484.0156,641.2969 485.75,641.2969 C486.3281,641.2969 486.9375,641.4531 487.4063,641.7031 C487.8906,641.9844 488.0625,642.2031 488.1563,642.6094 C488.2188,643.0156 488.25,643.1406 488.3906,643.2656 C488.5313,643.4063 488.7656,643.5156 488.9844,643.5156 C489.25,643.5156 489.5156,643.375 489.6875,643.1563 C489.7969,643 489.8281,642.8125 489.8281,642.3906 L489.8281,640.9688 C489.8281,640.5313 489.8125,640.4063 489.7188,640.25 C489.5625,639.9844 489.2813,639.8438 488.9844,639.8438 C488.6875,639.8438 488.4844,639.9375 488.2656,640.25 L488.0938,640.1719 Z " fill="#000000"/><text fill="#000000" font-family="sans-serif" font-size="14" lengthAdjust="spacing" textLength="72" x="506.25" y="649.3467">JobVertex</text><line style="stroke:#181818;stroke-width:0.5;" x1="370" x2="682" y1="660.5" y2="660.5"/><line style="stroke:#181818;stroke-width:0.5;" x1="370" x2="682" y1="668.5" y2="668.5"/><text fill="#000000" font-family="sans-serif" font-size="14" lengthAdjust="spacing" textLength="150" x="375" y="685.4951">getID() : JobVertexID</text><text fill="#000000" font-family="sans-serif" font-size="14" lengthAdjust="spacing" textLength="133" x="375" y="701.792">getName() : String</text><text fill="#000000" font-family="sans-serif" font-size="14" lengthAdjust="spacing" textLength="145" x="375" y="718.0889">getParallelism() : int</text><text fill="#000000" font-family="sans-serif" font-size="14" lengthAdjust="spacing" textLength="173" x="375" y="734.3857">getMaxParallelism() : int</text><text fill="#000000" font-family="sans-serif" font-size="14" lengthAdjust="spacing" textLength="302" x="375" y="750.6826">getSlotSharingGroup() : SlotSharingGroup</text><text fill="#000000" font-family="sans-serif" font-size="14" lengthAdjust="spacing" textLength="275" x="375" y="766.9795">getInvokableClass(ClassLoader) : Class</text><text fill="#000000" font-family="sans-serif" font-size="14" lengthAdjust="spacing" textLength="292" x="375" y="783.2764">getOperatorIDs() : List&lt;OperatorIDPair&gt;</text><text fill="#000000" font-family="sans-serif" font-size="14" lengthAdjust="spacing" textLength="39" x="375" y="799.5732">[...] ()</text></g><g id="elem_GMN4"><path d="M6,705 L6,730.1328 A0,0 0 0 0 6,730.1328 L334,730.1328 A0,0 0 0 0 334,730.1328 L334,723 L368.952,717.5 L334,715 L334,715 L324,705 L6,705 A0,0 0 0 0 6,705 " fill="#FEFFDD" style="stroke:#181818;stroke-width:0.5;"/><path d="M324,705 L324,715 L334,715 L324,705 " fill="#FEFFDD" style="stroke:#181818;stroke-width:0.5;"/><text fill="#000000" font-family="sans-serif" font-size="13" lengthAdjust="spacing" textLength="307" x="12" y="722.0669">Serializable representation of a JobGraph's task.</text></g><!--class AccessExecutionGraph--><g id="elem_AccessExecutionGraph"><rect codeLine="45" fill="#F1F1F1" height="373.3438" id="AccessExecutionGraph" rx="2.5" ry="2.5" style="stroke:#181818;stroke-width:0.5;" width="499" x="718.5" y="531"/><ellipse cx="882.25" cy="547" fill="#B4A7E5" rx="11" ry="11" style="stroke:#181818;stroke-width:1.0;"/><path d="M883.2031,543.7813 L884.9219,543.7813 C885.3125,543.7813 885.5,543.75 885.625,543.6719 C885.8906,543.5156 886.0313,543.2344 886.0313,542.9375 C886.0313,542.6719 885.9219,542.4063 885.6875,542.2344 C885.5156,542.125 885.375,542.0938 884.9219,542.0938 L879.7813,542.0938 C879.3438,542.0938 879.2188,542.1094 879.0625,542.2031 C878.8125,542.3594 878.6563,542.6563 878.6563,542.9375 C878.6563,543.2188 878.7969,543.4688 879.0156,543.6406 C879.1719,543.75 879.3594,543.7813 879.7813,543.7813 L881.5,543.7813 L881.5,550.2969 L879.7813,550.2969 C879.3438,550.2969 879.2188,550.3125 879.0625,550.4219 C878.8125,550.5781 878.6563,550.8594 878.6563,551.1563 C878.6563,551.4063 878.7969,551.6719 879.0156,551.8281 C879.1719,551.9531 879.375,552 879.7813,552 L884.9219,552 C885.6719,552 886.0313,551.7188 886.0313,551.1563 C886.0313,550.875 885.9219,550.625 885.6875,550.4531 C885.5156,550.3281 885.375,550.2969 884.9219,550.2969 L883.2031,550.2969 L883.2031,543.7813 Z " fill="#000000"/><text fill="#000000" font-family="sans-serif" font-size="14" font-style="italic" lengthAdjust="spacing" textLength="163" x="902.75" y="551.8467">AccessExecutionGraph</text><line style="stroke:#181818;stroke-width:0.5;" x1="719.5" x2="1216.5" y1="563" y2="563"/><text fill="#000000" font-family="sans-serif" font-size="14" lengthAdjust="spacing" textLength="124" x="724.5" y="579.9951">getJobID() : JobID</text><text fill="#000000" font-family="sans-serif" font-size="14" lengthAdjust="spacing" textLength="156" x="724.5" y="596.292">getJobName() : String</text><text fill="#000000" font-family="sans-serif" font-size="14" lengthAdjust="spacing" textLength="151" x="724.5" y="612.5889">getJsonPlan() : String</text><text fill="#000000" font-family="sans-serif" font-size="14" lengthAdjust="spacing" textLength="410" x="724.5" y="628.8857">getArchivedExecutionConfig() : ArchivedExecutionConfig</text><line style="stroke:#181818;stroke-width:1.0;stroke-dasharray:1.0,2.0;" x1="719.5" x2="1216.5" y1="636.1875" y2="636.1875"/><text fill="#000000" font-family="sans-serif" font-size="14" lengthAdjust="spacing" textLength="482" x="724.5" y="653.1826">getCheckpointCoordinatorConfig() : CheckpointCoordinatorConfig</text><text fill="#000000" font-family="sans-serif" font-size="14" lengthAdjust="spacing" textLength="235" x="724.5" y="669.4795">getStateBackendName() : String</text><text fill="#000000" font-family="sans-serif" font-size="14" lengthAdjust="spacing" textLength="274" x="724.5" y="685.7764">getCheckpointStorageName() : String</text><text fill="#000000" font-family="sans-serif" font-size="14" lengthAdjust="spacing" textLength="266" x="724.5" y="702.0732">getChangelogStorageName() : String</text><line style="stroke:#181818;stroke-width:1.0;stroke-dasharray:1.0,2.0;" x1="719.5" x2="1216.5" y1="709.375" y2="709.375"/><text fill="#000000" font-family="sans-serif" font-size="14" lengthAdjust="spacing" textLength="180" x="724.5" y="726.3701">getJobState() : JobStatus</text><text fill="#000000" font-family="sans-serif" font-size="14" lengthAdjust="spacing" textLength="276" x="724.5" y="742.667">getStatusTimestamp(JobStatus) : long</text><text fill="#000000" font-family="sans-serif" font-size="14" lengthAdjust="spacing" textLength="187" x="724.5" y="758.9639">getFailureInfo() : ErrorInfo</text><line style="stroke:#181818;stroke-width:1.0;stroke-dasharray:1.0,2.0;" x1="719.5" x2="1216.5" y1="766.2656" y2="766.2656"/><text fill="#000000" font-family="sans-serif" font-size="14" lengthAdjust="spacing" textLength="399" x="724.5" y="783.2607">getJobVertex(JobVertexID) : AccessExecutionJobVertex</text><text fill="#000000" font-family="sans-serif" font-size="14" lengthAdjust="spacing" textLength="465" x="724.5" y="799.5576">getAllVertices() : Map&lt;JobVertexID, AccessExecutionJobVertex&gt;</text><text fill="#000000" font-family="sans-serif" font-size="14" lengthAdjust="spacing" textLength="474" x="724.5" y="815.8545">getVerticesTopologically() : Iterable&lt;AccessExecutionJobVertex&gt;</text><text fill="#000000" font-family="sans-serif" font-size="14" lengthAdjust="spacing" textLength="445" x="724.5" y="832.1514">getAllExecutionVertices() : Iterable&lt;AccessExecutionVertex&gt;</text><line style="stroke:#181818;stroke-width:1.0;stroke-dasharray:1.0,2.0;" x1="719.5" x2="1216.5" y1="839.4531" y2="839.4531"/><text fill="#000000" font-family="sans-serif" font-size="14" lengthAdjust="spacing" textLength="428" x="724.5" y="856.4482">getCheckpointStatsSnapshot() : CheckpointStatsSnapshot</text><line style="stroke:#181818;stroke-width:1.0;stroke-dasharray:1.0,2.0;" x1="719.5" x2="1216.5" y1="863.75" y2="863.75"/><text fill="#000000" font-family="sans-serif" font-size="14" lengthAdjust="spacing" textLength="487" x="724.5" y="880.7451">getAccumulatorResultsStringified() : StringifiedAccumulatorResult[]</text><text fill="#000000" font-family="sans-serif" font-size="14" lengthAdjust="spacing" textLength="438" x="724.5" y="897.042">getAccumulatorsSerialized() : Map&lt;String, SerializedObject&gt;</text></g><!--class AccessExecutionJobVertex--><g id="elem_AccessExecutionJobVertex"><rect codeLine="71" fill="#F1F1F1" height="202.375" id="AccessExecutionJobVertex" rx="2.5" ry="2.5" style="stroke:#181818;stroke-width:0.5;" width="570" x="503" y="981"/><ellipse cx="689.75" cy="997" fill="#B4A7E5" rx="11" ry="11" style="stroke:#181818;stroke-width:1.0;"/><path d="M690.7031,993.7813 L692.4219,993.7813 C692.8125,993.7813 693,993.75 693.125,993.6719 C693.3906,993.5156 693.5313,993.2344 693.5313,992.9375 C693.5313,992.6719 693.4219,992.4063 693.1875,992.2344 C693.0156,992.125 692.875,992.0938 692.4219,992.0938 L687.2813,992.0938 C686.8438,992.0938 686.7188,992.1094 686.5625,992.2031 C686.3125,992.3594 686.1563,992.6563 686.1563,992.9375 C686.1563,993.2188 686.2969,993.4688 686.5156,993.6406 C686.6719,993.75 686.8594,993.7813 687.2813,993.7813 L689,993.7813 L689,1000.2969 L687.2813,1000.2969 C686.8438,1000.2969 686.7188,1000.3125 686.5625,1000.4219 C686.3125,1000.5781 686.1563,1000.8594 686.1563,1001.1563 C686.1563,1001.4063 686.2969,1001.6719 686.5156,1001.8281 C686.6719,1001.9531 686.875,1002 687.2813,1002 L692.4219,1002 C693.1719,1002 693.5313,1001.7188 693.5313,1001.1563 C693.5313,1000.875 693.4219,1000.625 693.1875,1000.4531 C693.0156,1000.3281 692.875,1000.2969 692.4219,1000.2969 L690.7031,1000.2969 L690.7031,993.7813 Z " fill="#000000"/><text fill="#000000" font-family="sans-serif" font-size="14" font-style="italic" lengthAdjust="spacing" textLength="188" x="710.25" y="1001.8467">AccessExecutionJobVertex</text><line style="stroke:#181818;stroke-width:0.5;" x1="504" x2="1072" y1="1013" y2="1013"/><text fill="#000000" font-family="sans-serif" font-size="14" lengthAdjust="spacing" textLength="220" x="509" y="1029.9951">getJobVertexId() : JobVertexID</text><text fill="#000000" font-family="sans-serif" font-size="14" lengthAdjust="spacing" textLength="133" x="509" y="1046.292">getName() : String</text><line style="stroke:#181818;stroke-width:1.0;stroke-dasharray:1.0,2.0;" x1="504" x2="1072" y1="1053.5938" y2="1053.5938"/><text fill="#000000" font-family="sans-serif" font-size="14" lengthAdjust="spacing" textLength="145" x="509" y="1070.5889">getParallelism() : int</text><text fill="#000000" font-family="sans-serif" font-size="14" lengthAdjust="spacing" textLength="173" x="509" y="1086.8857">getMaxParallelism() : int</text><text fill="#000000" font-family="sans-serif" font-size="14" lengthAdjust="spacing" textLength="274" x="509" y="1103.1826">getResourceProfile() : ResourceProfile</text><line style="stroke:#181818;stroke-width:1.0;stroke-dasharray:1.0,2.0;" x1="504" x2="1072" y1="1110.4844" y2="1110.4844"/><text fill="#000000" font-family="sans-serif" font-size="14" lengthAdjust="spacing" textLength="284" x="509" y="1127.4795">getAggregatedState() : ExecutionState</text><line style="stroke:#181818;stroke-width:1.0;stroke-dasharray:1.0,2.0;" x1="504" x2="1072" y1="1134.7813" y2="1134.7813"/><text fill="#000000" font-family="sans-serif" font-size="14" lengthAdjust="spacing" textLength="320" x="509" y="1151.7764">getTaskVertices() : AccessExecutionVertex[]</text><line style="stroke:#181818;stroke-width:1.0;stroke-dasharray:1.0,2.0;" x1="504" x2="1072" y1="1159.0781" y2="1159.0781"/><text fill="#000000" font-family="sans-serif" font-size="14" lengthAdjust="spacing" textLength="558" x="509" y="1176.0732">getAggregatedUserAccumulatorsStringified() : StringifiedAccumulatorResult[]</text></g><!--class AccessExecutionVertex--><g id="elem_AccessExecutionVertex"><rect codeLine="86" fill="#F1F1F1" height="194.375" id="AccessExecutionVertex" rx="2.5" ry="2.5" style="stroke:#181818;stroke-width:0.5;" width="463" x="556.5" y="1260"/><ellipse cx="700.75" cy="1276" fill="#B4A7E5" rx="11" ry="11" style="stroke:#181818;stroke-width:1.0;"/><path d="M701.7031,1272.7813 L703.4219,1272.7813 C703.8125,1272.7813 704,1272.75 704.125,1272.6719 C704.3906,1272.5156 704.5313,1272.2344 704.5313,1271.9375 C704.5313,1271.6719 704.4219,1271.4063 704.1875,1271.2344 C704.0156,1271.125 703.875,1271.0938 703.4219,1271.0938 L698.2813,1271.0938 C697.8438,1271.0938 697.7188,1271.1094 697.5625,1271.2031 C697.3125,1271.3594 697.1563,1271.6563 697.1563,1271.9375 C697.1563,1272.2188 697.2969,1272.4688 697.5156,1272.6406 C697.6719,1272.75 697.8594,1272.7813 698.2813,1272.7813 L700,1272.7813 L700,1279.2969 L698.2813,1279.2969 C697.8438,1279.2969 697.7188,1279.3125 697.5625,1279.4219 C697.3125,1279.5781 697.1563,1279.8594 697.1563,1280.1563 C697.1563,1280.4063 697.2969,1280.6719 697.5156,1280.8281 C697.6719,1280.9531 697.875,1281 698.2813,1281 L703.4219,1281 C704.1719,1281 704.5313,1280.7188 704.5313,1280.1563 C704.5313,1279.875 704.4219,1279.625 704.1875,1279.4531 C704.0156,1279.3281 703.875,1279.2969 703.4219,1279.2969 L701.7031,1279.2969 L701.7031,1272.7813 Z " fill="#000000"/><text fill="#000000" font-family="sans-serif" font-size="14" font-style="italic" lengthAdjust="spacing" textLength="166" x="721.25" y="1280.8467">AccessExecutionVertex</text><line style="stroke:#181818;stroke-width:0.5;" x1="557.5" x2="1018.5" y1="1292" y2="1292"/><text fill="#000000" font-family="sans-serif" font-size="14" lengthAdjust="spacing" textLength="297" x="562.5" y="1308.9951">getTaskNameWithSubtaskIndex() : String</text><text fill="#000000" font-family="sans-serif" font-size="14" lengthAdjust="spacing" textLength="217" x="562.5" y="1325.292">getParallelSubtaskIndex() : int</text><line style="stroke:#181818;stroke-width:1.0;stroke-dasharray:1.0,2.0;" x1="557.5" x2="1018.5" y1="1332.5938" y2="1332.5938"/><text fill="#000000" font-family="sans-serif" font-size="14" lengthAdjust="spacing" textLength="270" x="562.5" y="1349.5889">getExecutionState() : ExecutionState</text><text fill="#000000" font-family="sans-serif" font-size="14" lengthAdjust="spacing" textLength="312" x="562.5" y="1365.8857">getStateTimestamp(ExecutionState) : long</text><text fill="#000000" font-family="sans-serif" font-size="14" lengthAdjust="spacing" textLength="187" x="562.5" y="1382.1826">getFailureInfo() : ErrorInfo</text><text fill="#000000" font-family="sans-serif" font-size="14" lengthAdjust="spacing" textLength="292" x="562.5" y="1398.4795">getExecutionHistory() : ExecutionHistory</text><line style="stroke:#181818;stroke-width:1.0;stroke-dasharray:1.0,2.0;" x1="557.5" x2="1018.5" y1="1405.7813" y2="1405.7813"/><text fill="#000000" font-family="sans-serif" font-size="14" lengthAdjust="spacing" textLength="358" x="562.5" y="1422.7764">getCurrentExecutionAttempt() : AccessExecution</text><line style="stroke:#181818;stroke-width:1.0;stroke-dasharray:1.0,2.0;" x1="557.5" x2="1018.5" y1="1430.0781" y2="1430.0781"/><text fill="#000000" font-family="sans-serif" font-size="14" lengthAdjust="spacing" textLength="451" x="562.5" y="1447.0732">getCurrentAssignedResourceLocation() : TaskManagerLocation</text></g><!--class AccessExecution--><g id="elem_AccessExecution"><rect codeLine="100" fill="#F1F1F1" height="259.5625" id="AccessExecution" rx="2.5" ry="2.5" style="stroke:#181818;stroke-width:0.5;" width="485" x="545.5" y="1531"/><ellipse cx="724.25" cy="1547" fill="#B4A7E5" rx="11" ry="11" style="stroke:#181818;stroke-width:1.0;"/><path d="M725.2031,1543.7813 L726.9219,1543.7813 C727.3125,1543.7813 727.5,1543.75 727.625,1543.6719 C727.8906,1543.5156 728.0313,1543.2344 728.0313,1542.9375 C728.0313,1542.6719 727.9219,1542.4063 727.6875,1542.2344 C727.5156,1542.125 727.375,1542.0938 726.9219,1542.0938 L721.7813,1542.0938 C721.3438,1542.0938 721.2188,1542.1094 721.0625,1542.2031 C720.8125,1542.3594 720.6563,1542.6563 720.6563,1542.9375 C720.6563,1543.2188 720.7969,1543.4688 721.0156,1543.6406 C721.1719,1543.75 721.3594,1543.7813 721.7813,1543.7813 L723.5,1543.7813 L723.5,1550.2969 L721.7813,1550.2969 C721.3438,1550.2969 721.2188,1550.3125 721.0625,1550.4219 C720.8125,1550.5781 720.6563,1550.8594 720.6563,1551.1563 C720.6563,1551.4063 720.7969,1551.6719 721.0156,1551.8281 C721.1719,1551.9531 721.375,1552 721.7813,1552 L726.9219,1552 C727.6719,1552 728.0313,1551.7188 728.0313,1551.1563 C728.0313,1550.875 727.9219,1550.625 727.6875,1550.4531 C727.5156,1550.3281 727.375,1550.2969 726.9219,1550.2969 L725.2031,1550.2969 L725.2031,1543.7813 Z " fill="#000000"/><text fill="#000000" font-family="sans-serif" font-size="14" font-style="italic" lengthAdjust="spacing" textLength="119" x="744.75" y="1551.8467">AccessExecution</text><line style="stroke:#181818;stroke-width:0.5;" x1="546.5" x2="1029.5" y1="1563" y2="1563"/><text fill="#000000" font-family="sans-serif" font-size="14" lengthAdjust="spacing" textLength="275" x="551.5" y="1579.9951">getAttemptId() : ExecutionAttemptID</text><text fill="#000000" font-family="sans-serif" font-size="14" lengthAdjust="spacing" textLength="217" x="551.5" y="1596.292">getParallelSubtaskIndex() : int</text><text fill="#000000" font-family="sans-serif" font-size="14" lengthAdjust="spacing" textLength="189" x="551.5" y="1612.5889">getAttemptNumber() : int</text><line style="stroke:#181818;stroke-width:1.0;stroke-dasharray:1.0,2.0;" x1="546.5" x2="1029.5" y1="1619.8906" y2="1619.8906"/><text fill="#000000" font-family="sans-serif" font-size="14" lengthAdjust="spacing" textLength="199" x="551.5" y="1636.8857">getState() : ExecutionState</text><text fill="#000000" font-family="sans-serif" font-size="14" lengthAdjust="spacing" textLength="218" x="551.5" y="1653.1826">getStateTimestamps() : long[]</text><text fill="#000000" font-family="sans-serif" font-size="14" lengthAdjust="spacing" textLength="245" x="551.5" y="1669.4795">getStateEndTimestamps() : long[]</text><text fill="#000000" font-family="sans-serif" font-size="14" lengthAdjust="spacing" textLength="312" x="551.5" y="1685.7764">getStateTimestamp(ExecutionState) : long</text><text fill="#000000" font-family="sans-serif" font-size="14" lengthAdjust="spacing" textLength="339" x="551.5" y="1702.0732">getStateEndTimestamp(ExecutionState) : long</text><text fill="#000000" font-family="sans-serif" font-size="14" lengthAdjust="spacing" textLength="187" x="551.5" y="1718.3701">getFailureInfo() : ErrorInfo</text><line style="stroke:#181818;stroke-width:1.0;stroke-dasharray:1.0,2.0;" x1="546.5" x2="1029.5" y1="1725.6719" y2="1725.6719"/><text fill="#000000" font-family="sans-serif" font-size="14" lengthAdjust="spacing" textLength="396" x="551.5" y="1742.667">getAssignedResourceLocation() : TaskManagerLocation</text><line style="stroke:#181818;stroke-width:1.0;stroke-dasharray:1.0,2.0;" x1="546.5" x2="1029.5" y1="1749.9688" y2="1749.9688"/><text fill="#000000" font-family="sans-serif" font-size="14" lengthAdjust="spacing" textLength="473" x="551.5" y="1766.9639">getUserAccumulatorsStringified() : StringifiedAccumulatorResult[]</text><text fill="#000000" font-family="sans-serif" font-size="14" lengthAdjust="spacing" textLength="184" x="551.5" y="1783.2607">getIOMetrics() : IOMetrics</text></g><g id="elem_GMN11"><path d="M246,218 L246,243.1328 A0,0 0 0 0 246,243.1328 L506,243.1328 A0,0 0 0 0 506,243.1328 L506,236 L541.383,230.5 L506,228 L506,228 L496,218 L246,218 A0,0 0 0 0 246,218 " fill="#FEFFDD" style="stroke:#181818;stroke-width:0.5;"/><path d="M496,218 L496,228 L506,228 L496,218 " fill="#FEFFDD" style="stroke:#181818;stroke-width:0.5;"/><text fill="#000000" font-family="sans-serif" font-size="13" lengthAdjust="spacing" textLength="239" x="252" y="235.0669">Serializable representation of the job.</text></g><g id="elem_GMN14"><path d="M1252.5,705 L1252.5,713.5 L1217.54,717.5 L1252.5,721.5 L1252.5,730.1328 A0,0 0 0 0 1252.5,730.1328 L1619.5,730.1328 A0,0 0 0 0 1619.5,730.1328 L1619.5,715 L1609.5,705 L1252.5,705 A0,0 0 0 0 1252.5,705 " fill="#FEFFDD" style="stroke:#181818;stroke-width:0.5;"/><path d="M1609.5,705 L1609.5,715 L1619.5,715 L1609.5,705 " fill="#FEFFDD" style="stroke:#181818;stroke-width:0.5;"/><text fill="#000000" font-family="sans-serif" font-size="13" lengthAdjust="spacing" textLength="346" x="1258.5" y="722.0669">Representation of a JobGraph while executing the job.</text></g><g id="elem_GMN17"><path d="M1108.5,1069.5 L1108.5,1078 L1073.12,1082 L1108.5,1086 L1108.5,1094.6328 A0,0 0 0 0 1108.5,1094.6328 L1479.5,1094.6328 A0,0 0 0 0 1479.5,1094.6328 L1479.5,1079.5 L1469.5,1069.5 L1108.5,1069.5 A0,0 0 0 0 1108.5,1069.5 " fill="#FEFFDD" style="stroke:#181818;stroke-width:0.5;"/><path d="M1469.5,1069.5 L1469.5,1079.5 L1479.5,1079.5 L1469.5,1069.5 " fill="#FEFFDD" style="stroke:#181818;stroke-width:0.5;"/><text fill="#000000" font-family="sans-serif" font-size="13" lengthAdjust="spacing" textLength="350" x="1114.5" y="1086.5669">Representation of a JobVertex while executing the job.</text></g><g id="elem_GMN20"><path d="M1054.5,1344.5 L1054.5,1353 L1019.58,1357 L1054.5,1361 L1054.5,1369.6328 A0,0 0 0 0 1054.5,1369.6328 L2227.5,1369.6328 A0,0 0 0 0 2227.5,1369.6328 L2227.5,1354.5 L2217.5,1344.5 L1054.5,1344.5 A0,0 0 0 0 1054.5,1344.5 " fill="#FEFFDD" style="stroke:#181818;stroke-width:0.5;"/><path d="M2217.5,1344.5 L2217.5,1354.5 L2227.5,1354.5 L2217.5,1344.5 " fill="#FEFFDD" style="stroke:#181818;stroke-width:0.5;"/><text fill="#000000" font-family="sans-serif" font-size="13" lengthAdjust="spacing" textLength="1152" x="1060.5" y="1361.5669">A parallel instance of the AccessExecutionJobVertex (i.e. a JobVertex of parallelism n results in n AccessExecutionVertex instance for the corresponding AccessExecutionJobVertex)</text></g><g id="elem_GMN23"><path d="M1065.5,1648.5 L1065.5,1657 L1030.68,1661 L1065.5,1665 L1065.5,1673.6328 A0,0 0 0 0 1065.5,1673.6328 L1912.5,1673.6328 A0,0 0 0 0 1912.5,1673.6328 L1912.5,1658.5 L1902.5,1648.5 L1065.5,1648.5 A0,0 0 0 0 1065.5,1648.5 " fill="#FEFFDD" style="stroke:#181818;stroke-width:0.5;"/><path d="M1902.5,1648.5 L1902.5,1658.5 L1912.5,1658.5 L1902.5,1648.5 " fill="#FEFFDD" style="stroke:#181818;stroke-width:0.5;"/><text fill="#000000" font-family="sans-serif" font-size="13" lengthAdjust="spacing" textLength="826" x="1071.5" y="1665.5669">The actual execution abstraction of AccessExecutionVertex (multiple attempts can be made to execute AccessExecutionVertex)</text></g><!--link JobGraph to JobVertex--><g id="link_JobGraph_JobVertex"><path codeLine="125" d="M668.817,454.13 C635.201,515.88 603.5117,574.1002 576.8107,623.1502 " fill="none" id="JobGraph-to-JobVertex" style="stroke:#181818;stroke-width:1.0;stroke-dasharray:7.0,7.0;"/><polygon fill="#181818" points="573.942,628.42,581.7582,622.4278,576.3326,624.0285,574.7318,618.6029,573.942,628.42" style="stroke:#181818;stroke-width:1.0;"/><text fill="#000000" font-family="sans-serif" font-size="13" lengthAdjust="spacing" textLength="54" x="651" y="497.0669">contains</text></g><!--link AccessExecutionGraph to AccessExecutionJobVertex--><g id="link_AccessExecutionGraph_AccessExecutionJobVertex"><path codeLine="126" d="M875.759,904.263 C862.625,930.713 852.2235,951.6621 840.3365,975.6001 " fill="none" id="AccessExecutionGraph-to-AccessExecutionJobVertex" style="stroke:#181818;stroke-width:1.0;stroke-dasharray:7.0,7.0;"/><polygon fill="#181818" points="837.668,980.974,845.2534,974.6922,839.8918,976.4957,838.0882,971.1341,837.668,980.974" style="stroke:#181818;stroke-width:1.0;"/><text fill="#000000" font-family="sans-serif" font-size="13" lengthAdjust="spacing" textLength="54" x="857" y="947.0669">contains</text></g><!--link AccessExecutionJobVertex to AccessExecutionVertex--><g id="link_AccessExecutionJobVertex_AccessExecutionVertex"><path codeLine="127" d="M788,1183.105 C788,1208.214 788,1229.095 788,1253.999 " fill="none" id="AccessExecutionJobVertex-to-AccessExecutionVertex" style="stroke:#181818;stroke-width:1.0;stroke-dasharray:7.0,7.0;"/><polygon fill="#181818" points="788,1259.999,792,1250.999,788,1254.999,784,1250.999,788,1259.999" style="stroke:#181818;stroke-width:1.0;"/><text fill="#000000" font-family="sans-serif" font-size="13" lengthAdjust="spacing" textLength="54" x="789" y="1226.0669">contains</text></g><!--link AccessExecutionVertex to AccessExecution--><g id="link_AccessExecutionVertex_AccessExecution"><path codeLine="128" d="M788,1454.385 C788,1478.725 788,1499.252 788,1524.917 " fill="none" id="AccessExecutionVertex-to-AccessExecution" style="stroke:#181818;stroke-width:1.0;stroke-dasharray:7.0,7.0;"/><polygon fill="#181818" points="788,1530.917,792,1521.917,788,1525.917,784,1521.917,788,1530.917" style="stroke:#181818;stroke-width:1.0;"/><text fill="#000000" font-family="sans-serif" font-size="13" lengthAdjust="spacing" textLength="54" x="789" y="1497.0669">contains</text></g><!--link JobGraph to AccessExecutionGraph--><g id="link_JobGraph_AccessExecutionGraph"><path codeLine="130" d="M871.706,454.13 C881.12,479.78 888.5758,500.0873 897.7838,525.1773 " fill="none" id="JobGraph-to-AccessExecutionGraph" style="stroke:#181818;stroke-width:1.0;stroke-dasharray:7.0,7.0;"/><polygon fill="#181818" points="899.851,530.81,900.5053,520.9829,898.1284,526.1161,892.9951,523.7391,899.851,530.81" style="stroke:#181818;stroke-width:1.0;"/><text fill="#000000" font-family="sans-serif" font-size="13" lengthAdjust="spacing" textLength="69" x="885" y="497.0669">represents</text></g><!--link JobVertex to AccessExecutionJobVertex--><g id="link_JobVertex_AccessExecutionJobVertex"><path codeLine="131" d="M589.757,806.714 C627.776,859.317 672.6484,921.4001 712.0994,975.9851 " fill="none" id="JobVertex-to-AccessExecutionJobVertex" style="stroke:#181818;stroke-width:1.0;stroke-dasharray:7.0,7.0;"/><polygon fill="#181818" points="715.614,980.848,713.584,971.2106,712.6852,976.7956,707.1002,975.8968,715.614,980.848" style="stroke:#181818;stroke-width:1.0;"/><text fill="#000000" font-family="sans-serif" font-size="13" lengthAdjust="spacing" textLength="69" x="689" y="947.0669">represents</text></g><!--SRC=[fLTBK-Cu4BxdL_WseMhMt2agLI4mGrXOg0axUvYQGyVks1faoIN9BDcj_U_JaX-o5JiCB0SAz_lvgVcG6rFgizFJaeCmLS7ZH1Qd2GUjVqiPP0gAsSnzHZTo-rb1cKV_pYBwoT0GPNqvFudE8lTNI_u32dJKZL5CP8uSnpsbnts9hPhzksNTmGihgk81572EdEd2IJ5XUiehANOignGO9eNZ3oYjv2h7vAcKfBj1OoWCtNhq7AAsp5PjBPXXm5USeJ3N2Cfi4SmZAr1MnbdWiac9f3VmZCxI5zH6AXoucc9sogZ84_i7qwiNJ2eRV9r9hTrnlmAly3oGMJWhJ5_k1HGiSIfRAJc2Q3Y3DAy4R3cc8sBBibIIoWu6RsK2_0icyXdLVah3D_8hAiCIh9DT6rHMuPmAR1duiWZbbdgf5EpRDjHItxuxiHqJQKsusDD8TUprvK2wcx2gsAAwtmr2QCV4HxZXqcnoi4FuMScgRFg2vZpaTC6kfAs2hNEW4J0MlOdS632LlfRogHQ_PTgS3-YB8B0_DQebXRw3nDGwTr2Ur-loCReaVSMsbS5q1KcELyAe_QAlUmFgWiljxxZlUNn0LO2WiMrOeKPV54nUitFGbft854da4-DDCTkM_zVR_he7VltzxhVDEeO0H3wosBJwHxXXkshR0T6lyBDyihEuie7FtUzR2Iag1nRsinMzBsbgQJVNbxtYUE83C5MNwLiSnz-Z-GdLGqY34SUTYUJEv-uNrdgE59OADVN2JOoLX0u_F-Z8W7wAPpFA41ND04RBXAPOTpl-QpXB7nE5lj5IF12WZx2MAidPypZcJF22uVN0if9IfKpOOlMi7E5t_QIwu0KaJoZIYHHw-4tgaE6a78WCkSoEY0qU7-UxBMQzelsmAct1NXieodad4EB-9s2yKhWME-aiNIb5yq9VX-xgyGWHBUZt0S0jEHzWcuM7decFamOEKFTHbfAgmmZQ-Nu8rQ_Qe2WwxZZQ1oRw-cC3OwkfDm9AdKiJ3Ck05rWWDrLHSJj8z9XMd0HTTzcEDKzKx_j0k7bZXdQqVs0F0DYpxhS_C34B2uEJopg2ZBvLwLiWqYVyRgIaZ6Mb4dnGSaTWxjW1BQnjbYdCQ2TIlnbTReuKA3mIU0scONG8cgAF-N6lNxyJR-lbiLw4ZR2nsah_nKo-gROMTzSYfNsSVfmEn0xlYc5vfYhMufp7aw7Gsq2bx_QQsODoFtJS4CFTgvIYPwYJMXg3HMd6-ZQkkTIQPGBJTeZQAyXPiEMz0q6mgrhwqVRunZHnDFiHXkVNvDMkU5lrKJXr2hwfKxgxz3rsE8ahaRukzAiDFx3ulmQajsblRTd8SVh-zMoliFix9C6aUJ3QBpiUuGNbhfrN3oYJO_H3RkD6Nx4iTmR6JYUBUTC7MFHtJZ0OOQqYCc_wgENUhJTXlK6VzvblRI-Zifbv6cCQ2q5hrAG_-V3CMOpn80RIAFqh4Gagg7itoIPzZADcvsudbVENI880NKgHsZIcl9ySpuj6ZapHFpeLyBOeL3FOqZyvH6tgDnxHd8RBi9Ag2VMEwoW14MqnAkYUZuni34wy0oUpMTVpE5xqodD6kL7tAEFPwEbjfIUhFQtiPKOClAezhTfN6gOq6lsPNnyzEnfJFoclynC0]--></g></svg>