<?xml version="1.0" encoding="us-ascii" standalone="no"?><svg xmlns="http://www.w3.org/2000/svg" xmlns:xlink="http://www.w3.org/1999/xlink" contentStyleType="text/css" height="2728px" preserveAspectRatio="none" style="width:2587px;height:2728px;background:#FFFFFF;" version="1.1" viewBox="0 0 2587 2728" width="2587px" zoomAndPan="magnify"><defs/><g><!--cluster Client--><g id="cluster_Client"><path d="M8.5,6 L56.5,6 A3.75,3.75 0 0 1 59,8.5 L66,28.2969 L849.5,28.2969 A2.5,2.5 0 0 1 852,30.7969 L852,1134 A2.5,2.5 0 0 1 849.5,1136.5 L8.5,1136.5 A2.5,2.5 0 0 1 6,1134 L6,8.5 A2.5,2.5 0 0 1 8.5,6 " fill="none" style="stroke:#000000;stroke-width:1.5;"/><line style="stroke:#000000;stroke-width:1.5;" x1="6" x2="66" y1="28.2969" y2="28.2969"/><text fill="#000000" font-family="sans-serif" font-size="14" font-weight="bold" lengthAdjust="spacing" textLength="47" x="10" y="20.9951">Client</text></g><!--cluster JobManager--><g id="cluster_JobManager"><path d="M878.5,485.5 L974.5,485.5 A3.75,3.75 0 0 1 977,488 L984,507.7969 L2577.5,507.7969 A2.5,2.5 0 0 1 2580,510.2969 L2580,2227.5 A2.5,2.5 0 0 1 2577.5,2230 L878.5,2230 A2.5,2.5 0 0 1 876,2227.5 L876,488 A2.5,2.5 0 0 1 878.5,485.5 " fill="none" style="stroke:#000000;stroke-width:1.5;"/><line style="stroke:#000000;stroke-width:1.5;" x1="876" x2="984" y1="507.7969" y2="507.7969"/><text fill="#000000" font-family="sans-serif" font-size="14" font-weight="bold" lengthAdjust="spacing" textLength="95" x="880" y="500.4951">JobManager</text></g><!--cluster TaskManager--><g id="cluster_TaskManager"><path d="M1088.5,2279 L1198.5,2279 A3.75,3.75 0 0 1 1201,2281.5 L1208,2301.2969 L1584.5,2301.2969 A2.5,2.5 0 0 1 1587,2303.7969 L1587,2718.5 A2.5,2.5 0 0 1 1584.5,2721 L1088.5,2721 A2.5,2.5 0 0 1 1086,2718.5 L1086,2281.5 A2.5,2.5 0 0 1 1088.5,2279 " fill="none" style="stroke:#000000;stroke-width:1.5;"/><line style="stroke:#000000;stroke-width:1.5;" x1="1086" x2="1208" y1="2301.2969" y2="2301.2969"/><text fill="#000000" font-family="sans-serif" font-size="14" font-weight="bold" lengthAdjust="spacing" textLength="109" x="1090" y="2293.9951">TaskManager</text></g><!--class StreamGraph--><g id="elem_StreamGraph"><rect codeLine="23" fill="#F1F1F1" height="202.6719" id="StreamGraph" rx="2.5" ry="2.5" style="stroke:#181818;stroke-width:0.5;" width="513" x="22.5" y="41"/><ellipse cx="226.25" cy="57" fill="#ADD1B2" rx="11" ry="11" style="stroke:#181818;stroke-width:1.0;"/><path d="M228.5938,52.6719 C227.6563,52.2344 227.0625,52.0938 226.1875,52.0938 C223.5625,52.0938 221.5625,54.1719 221.5625,56.8906 L221.5625,58.0156 C221.5625,60.5938 223.6719,62.4844 226.5625,62.4844 C227.7813,62.4844 228.9375,62.1875 229.6875,61.6406 C230.2656,61.2344 230.5938,60.7813 230.5938,60.3906 C230.5938,59.9375 230.2031,59.5469 229.7344,59.5469 C229.5156,59.5469 229.3125,59.625 229.125,59.8125 C228.6719,60.2969 228.6719,60.2969 228.4844,60.3906 C228.0625,60.6563 227.375,60.7813 226.6094,60.7813 C224.5625,60.7813 223.2656,59.6875 223.2656,57.9844 L223.2656,56.8906 C223.2656,55.1094 224.5156,53.7969 226.25,53.7969 C226.8281,53.7969 227.4375,53.9531 227.9063,54.2031 C228.3906,54.4844 228.5625,54.7031 228.6563,55.1094 C228.7188,55.5156 228.75,55.6406 228.8906,55.7656 C229.0313,55.9063 229.2656,56.0156 229.4844,56.0156 C229.75,56.0156 230.0156,55.875 230.1875,55.6563 C230.2969,55.5 230.3281,55.3125 230.3281,54.8906 L230.3281,53.4688 C230.3281,53.0313 230.3125,52.9063 230.2188,52.75 C230.0625,52.4844 229.7813,52.3438 229.4844,52.3438 C229.1875,52.3438 228.9844,52.4375 228.7656,52.75 L228.5938,52.6719 Z " fill="#000000"/><text fill="#000000" font-family="sans-serif" font-size="14" lengthAdjust="spacing" textLength="97" x="246.75" y="61.8467">StreamGraph</text><line style="stroke:#181818;stroke-width:0.5;" x1="23.5" x2="534.5" y1="73" y2="73"/><text fill="#000000" font-family="sans-serif" font-size="14" lengthAdjust="spacing" textLength="311" x="28.5" y="89.9951">streamNodes : Map&lt;Integer, StreamNode&gt;</text><text fill="#000000" font-family="sans-serif" font-size="14" lengthAdjust="spacing" textLength="163" x="28.5" y="106.292">sources: Set&lt;Integer&gt;</text><text fill="#000000" font-family="sans-serif" font-size="14" lengthAdjust="spacing" textLength="145" x="28.5" y="122.5889">sinks: Set&lt;Integer&gt;</text><text fill="#000000" font-family="sans-serif" font-size="14" lengthAdjust="spacing" textLength="501" x="28.5" y="138.8857">virtualSideOutputNodes: Map&lt;Integer, Tuple2&lt;Integer, OutputTag&gt;&gt;</text><line style="stroke:#181818;stroke-width:0.5;" x1="23.5" x2="534.5" y1="146.1875" y2="146.1875"/><text fill="#000000" font-family="sans-serif" font-size="14" lengthAdjust="spacing" textLength="156" x="28.5" y="163.1826">getJobName() : String</text><text fill="#000000" font-family="sans-serif" font-size="14" lengthAdjust="spacing" textLength="166" x="28.5" y="179.4795">getJobType() : JobType</text><line style="stroke:#181818;stroke-width:1.0;stroke-dasharray:1.0,2.0;" x1="23.5" x2="534.5" y1="186.7813" y2="186.7813"/><text fill="#000000" font-family="sans-serif" font-size="14" lengthAdjust="spacing" textLength="155" x="28.5" y="203.7764">addOperator(..) : void</text><text fill="#000000" font-family="sans-serif" font-size="14" lengthAdjust="spacing" textLength="138" x="28.5" y="220.0732">addSource(..) : void</text><text fill="#000000" font-family="sans-serif" font-size="14" lengthAdjust="spacing" textLength="120" x="28.5" y="236.3701">addSink(..) : void</text></g><g id="elem_GMN4"><path d="M570.5,130 L570.5,138.5 L535.719,142.5 L570.5,146.5 L570.5,155.1328 A0,0 0 0 0 570.5,155.1328 L835.5,155.1328 A0,0 0 0 0 835.5,155.1328 L835.5,140 L825.5,130 L570.5,130 A0,0 0 0 0 570.5,130 " fill="#FEFFDD" style="stroke:#181818;stroke-width:0.5;"/><path d="M825.5,130 L825.5,140 L835.5,140 L825.5,130 " fill="#FEFFDD" style="stroke:#181818;stroke-width:0.5;"/><text fill="#000000" font-family="sans-serif" font-size="13" lengthAdjust="spacing" textLength="244" x="576.5" y="147.0669">Unserialized representation of the job.</text></g><!--class JobGraph--><g id="elem_JobGraph"><rect codeLine="38" fill="#F1F1F1" height="446.8281" id="JobGraph" rx="2.5" ry="2.5" style="stroke:#181818;stroke-width:0.5;" width="497" x="338.5" y="321"/><ellipse cx="549.25" cy="337" fill="#ADD1B2" rx="11" ry="11" style="stroke:#181818;stroke-width:1.0;"/><path d="M551.5938,332.6719 C550.6563,332.2344 550.0625,332.0938 549.1875,332.0938 C546.5625,332.0938 544.5625,334.1719 544.5625,336.8906 L544.5625,338.0156 C544.5625,340.5938 546.6719,342.4844 549.5625,342.4844 C550.7813,342.4844 551.9375,342.1875 552.6875,341.6406 C553.2656,341.2344 553.5938,340.7813 553.5938,340.3906 C553.5938,339.9375 553.2031,339.5469 552.7344,339.5469 C552.5156,339.5469 552.3125,339.625 552.125,339.8125 C551.6719,340.2969 551.6719,340.2969 551.4844,340.3906 C551.0625,340.6563 550.375,340.7813 549.6094,340.7813 C547.5625,340.7813 546.2656,339.6875 546.2656,337.9844 L546.2656,336.8906 C546.2656,335.1094 547.5156,333.7969 549.25,333.7969 C549.8281,333.7969 550.4375,333.9531 550.9063,334.2031 C551.3906,334.4844 551.5625,334.7031 551.6563,335.1094 C551.7188,335.5156 551.75,335.6406 551.8906,335.7656 C552.0313,335.9063 552.2656,336.0156 552.4844,336.0156 C552.75,336.0156 553.0156,335.875 553.1875,335.6563 C553.2969,335.5 553.3281,335.3125 553.3281,334.8906 L553.3281,333.4688 C553.3281,333.0313 553.3125,332.9063 553.2188,332.75 C553.0625,332.4844 552.7813,332.3438 552.4844,332.3438 C552.1875,332.3438 551.9844,332.4375 551.7656,332.75 L551.5938,332.6719 Z " fill="#000000"/><text fill="#000000" font-family="sans-serif" font-size="14" lengthAdjust="spacing" textLength="67" x="569.75" y="341.8467">JobGraph</text><line style="stroke:#181818;stroke-width:0.5;" x1="339.5" x2="834.5" y1="353" y2="353"/><text fill="#000000" font-family="sans-serif" font-size="14" lengthAdjust="spacing" textLength="124" x="344.5" y="369.9951">getJobID() : JobID</text><text fill="#000000" font-family="sans-serif" font-size="14" lengthAdjust="spacing" textLength="133" x="344.5" y="386.292">getName() : String</text><line style="stroke:#181818;stroke-width:1.0;stroke-dasharray:1.0,2.0;" x1="339.5" x2="834.5" y1="393.5938" y2="393.5938"/><text fill="#000000" font-family="sans-serif" font-size="14" lengthAdjust="spacing" textLength="166" x="344.5" y="410.5889">getJobType() : JobType</text><text fill="#000000" font-family="sans-serif" font-size="14" lengthAdjust="spacing" textLength="213" x="344.5" y="426.8857">getMaximumParallelism() : int</text><text fill="#000000" font-family="sans-serif" font-size="14" lengthAdjust="spacing" textLength="267" x="344.5" y="443.1826">getJobConfiguration() : Configuration</text><text fill="#000000" font-family="sans-serif" font-size="14" lengthAdjust="spacing" textLength="383" x="344.5" y="459.4795">getCheckpointSettings() : JobCheckpointingSettings</text><text fill="#000000" font-family="sans-serif" font-size="14" lengthAdjust="spacing" textLength="296" x="344.5" y="475.7764">getInitialClientHeartbeatTimeout() : long</text><text fill="#000000" font-family="sans-serif" font-size="14" lengthAdjust="spacing" textLength="430" x="344.5" y="492.0732">getSavepointRestoreSettings() : SavepointRestoreSettings</text><text fill="#000000" font-family="sans-serif" font-size="14" lengthAdjust="spacing" textLength="485" x="344.5" y="508.3701">getSerializedExecutionConfig() : SerializedValue&lt;ExecutionConfig&gt;</text><text fill="#000000" font-family="sans-serif" font-size="14" lengthAdjust="spacing" textLength="154" x="344.5" y="524.667">isDynamic() : boolean</text><text fill="#000000" font-family="sans-serif" font-size="14" lengthAdjust="spacing" textLength="256" x="344.5" y="540.9639">isCheckpointingEnabled() : boolean</text><text fill="#000000" font-family="sans-serif" font-size="14" lengthAdjust="spacing" textLength="349" x="344.5" y="557.2607">isApproximateLocalRecoveryEnabled() : boolean</text><line style="stroke:#181818;stroke-width:1.0;stroke-dasharray:1.0,2.0;" x1="339.5" x2="834.5" y1="564.5625" y2="564.5625"/><text fill="#000000" font-family="sans-serif" font-size="14" lengthAdjust="spacing" textLength="259" x="344.5" y="581.5576">getVertices() : Iterable&lt;JobVertex&gt;</text><text fill="#000000" font-family="sans-serif" font-size="14" lengthAdjust="spacing" textLength="245" x="344.5" y="597.8545">getVerticesAsArray() : JobVertex[]</text><text fill="#000000" font-family="sans-serif" font-size="14" lengthAdjust="spacing" textLength="292" x="344.5" y="614.1514">findVertexByID(JobVertexID) : JobVertex</text><text fill="#000000" font-family="sans-serif" font-size="14" lengthAdjust="spacing" textLength="202" x="344.5" y="630.4482">getNumberOfVertices() : int</text><line style="stroke:#181818;stroke-width:1.0;stroke-dasharray:1.0,2.0;" x1="339.5" x2="834.5" y1="637.75" y2="637.75"/><text fill="#000000" font-family="sans-serif" font-size="14" lengthAdjust="spacing" textLength="356" x="344.5" y="654.7451">getSlotSharingGroups() : Set&lt;SlotSharingGroup&gt;</text><text fill="#000000" font-family="sans-serif" font-size="14" lengthAdjust="spacing" textLength="352" x="344.5" y="671.042">getCoLocationGroups() : Set&lt;CoLocationGroup&gt;</text><text fill="#000000" font-family="sans-serif" font-size="14" lengthAdjust="spacing" textLength="315" x="344.5" y="687.3389">getJobStatusHooks() : List&lt;JobStatusHook&gt;</text><line style="stroke:#181818;stroke-width:1.0;stroke-dasharray:1.0,2.0;" x1="339.5" x2="834.5" y1="694.6406" y2="694.6406"/><text fill="#000000" font-family="sans-serif" font-size="14" lengthAdjust="spacing" textLength="411" x="344.5" y="711.6357">getUserArtifacts() : Map&lt;String, DistributedCacheEntry&gt;</text><text fill="#000000" font-family="sans-serif" font-size="14" lengthAdjust="spacing" textLength="352" x="344.5" y="727.9326">getUserJarBlobKeys() : List&lt;PermanentBlobKey&gt;</text><text fill="#000000" font-family="sans-serif" font-size="14" lengthAdjust="spacing" textLength="185" x="344.5" y="744.2295">getUserJars() : List&lt;Path&gt;</text><text fill="#000000" font-family="sans-serif" font-size="14" lengthAdjust="spacing" textLength="221" x="344.5" y="760.5264">hasUsercodeJarFiles() : boolean</text></g><g id="elem_GMN8"><path d="M43,532 L43,557.1328 A0,0 0 0 0 43,557.1328 L303,557.1328 A0,0 0 0 0 303,557.1328 L303,550 L338.383,544.5 L303,542 L303,542 L293,532 L43,532 A0,0 0 0 0 43,532 " fill="#FEFFDD" style="stroke:#181818;stroke-width:0.5;"/><path d="M293,532 L293,542 L303,542 L293,532 " fill="#FEFFDD" style="stroke:#181818;stroke-width:0.5;"/><text fill="#000000" font-family="sans-serif" font-size="13" lengthAdjust="spacing" textLength="239" x="49" y="549.0669">Serializable representation of the job.</text></g><!--class JobVertex--><g id="elem_JobVertex"><rect codeLine="69" fill="#F1F1F1" height="178.375" id="JobVertex" rx="2.5" ry="2.5" style="stroke:#181818;stroke-width:0.5;" width="314" x="499" y="942.5"/><ellipse cx="615.75" cy="958.5" fill="#ADD1B2" rx="11" ry="11" style="stroke:#181818;stroke-width:1.0;"/><path d="M618.0938,954.1719 C617.1563,953.7344 616.5625,953.5938 615.6875,953.5938 C613.0625,953.5938 611.0625,955.6719 611.0625,958.3906 L611.0625,959.5156 C611.0625,962.0938 613.1719,963.9844 616.0625,963.9844 C617.2813,963.9844 618.4375,963.6875 619.1875,963.1406 C619.7656,962.7344 620.0938,962.2813 620.0938,961.8906 C620.0938,961.4375 619.7031,961.0469 619.2344,961.0469 C619.0156,961.0469 618.8125,961.125 618.625,961.3125 C618.1719,961.7969 618.1719,961.7969 617.9844,961.8906 C617.5625,962.1563 616.875,962.2813 616.1094,962.2813 C614.0625,962.2813 612.7656,961.1875 612.7656,959.4844 L612.7656,958.3906 C612.7656,956.6094 614.0156,955.2969 615.75,955.2969 C616.3281,955.2969 616.9375,955.4531 617.4063,955.7031 C617.8906,955.9844 618.0625,956.2031 618.1563,956.6094 C618.2188,957.0156 618.25,957.1406 618.3906,957.2656 C618.5313,957.4063 618.7656,957.5156 618.9844,957.5156 C619.25,957.5156 619.5156,957.375 619.6875,957.1563 C619.7969,957 619.8281,956.8125 619.8281,956.3906 L619.8281,954.9688 C619.8281,954.5313 619.8125,954.4063 619.7188,954.25 C619.5625,953.9844 619.2813,953.8438 618.9844,953.8438 C618.6875,953.8438 618.4844,953.9375 618.2656,954.25 L618.0938,954.1719 Z " fill="#000000"/><text fill="#000000" font-family="sans-serif" font-size="14" lengthAdjust="spacing" textLength="72" x="636.25" y="963.3467">JobVertex</text><line style="stroke:#181818;stroke-width:0.5;" x1="500" x2="812" y1="974.5" y2="974.5"/><line style="stroke:#181818;stroke-width:0.5;" x1="500" x2="812" y1="982.5" y2="982.5"/><text fill="#000000" font-family="sans-serif" font-size="14" lengthAdjust="spacing" textLength="150" x="505" y="999.4951">getID() : JobVertexID</text><text fill="#000000" font-family="sans-serif" font-size="14" lengthAdjust="spacing" textLength="133" x="505" y="1015.792">getName() : String</text><text fill="#000000" font-family="sans-serif" font-size="14" lengthAdjust="spacing" textLength="145" x="505" y="1032.0889">getParallelism() : int</text><text fill="#000000" font-family="sans-serif" font-size="14" lengthAdjust="spacing" textLength="173" x="505" y="1048.3857">getMaxParallelism() : int</text><text fill="#000000" font-family="sans-serif" font-size="14" lengthAdjust="spacing" textLength="302" x="505" y="1064.6826">getSlotSharingGroup() : SlotSharingGroup</text><text fill="#000000" font-family="sans-serif" font-size="14" lengthAdjust="spacing" textLength="275" x="505" y="1080.9795">getInvokableClass(ClassLoader) : Class</text><text fill="#000000" font-family="sans-serif" font-size="14" lengthAdjust="spacing" textLength="292" x="505" y="1097.2764">getOperatorIDs() : List&lt;OperatorIDPair&gt;</text><text fill="#000000" font-family="sans-serif" font-size="14" lengthAdjust="spacing" textLength="39" x="505" y="1113.5732">[...] ()</text></g><g id="elem_GMN12"><path d="M136,1019 L136,1044.1328 A0,0 0 0 0 136,1044.1328 L464,1044.1328 A0,0 0 0 0 464,1044.1328 L464,1037 L498.952,1031.5 L464,1029 L464,1029 L454,1019 L136,1019 A0,0 0 0 0 136,1019 " fill="#FEFFDD" style="stroke:#181818;stroke-width:0.5;"/><path d="M454,1019 L454,1029 L464,1029 L454,1019 " fill="#FEFFDD" style="stroke:#181818;stroke-width:0.5;"/><text fill="#000000" font-family="sans-serif" font-size="13" lengthAdjust="spacing" textLength="307" x="142" y="1036.0669">Serializable representation of a JobGraph's task.</text></g><!--class AccessExecutionGraph--><g id="elem_AccessExecutionGraph"><rect codeLine="83" fill="#F1F1F1" height="373.3438" id="AccessExecutionGraph" rx="2.5" ry="2.5" style="stroke:#181818;stroke-width:0.5;" width="499" x="909.5" y="845"/><ellipse cx="1073.25" cy="861" fill="#B4A7E5" rx="11" ry="11" style="stroke:#181818;stroke-width:1.0;"/><path d="M1074.2031,857.7813 L1075.9219,857.7813 C1076.3125,857.7813 1076.5,857.75 1076.625,857.6719 C1076.8906,857.5156 1077.0313,857.2344 1077.0313,856.9375 C1077.0313,856.6719 1076.9219,856.4063 1076.6875,856.2344 C1076.5156,856.125 1076.375,856.0938 1075.9219,856.0938 L1070.7813,856.0938 C1070.3438,856.0938 1070.2188,856.1094 1070.0625,856.2031 C1069.8125,856.3594 1069.6563,856.6563 1069.6563,856.9375 C1069.6563,857.2188 1069.7969,857.4688 1070.0156,857.6406 C1070.1719,857.75 1070.3594,857.7813 1070.7813,857.7813 L1072.5,857.7813 L1072.5,864.2969 L1070.7813,864.2969 C1070.3438,864.2969 1070.2188,864.3125 1070.0625,864.4219 C1069.8125,864.5781 1069.6563,864.8594 1069.6563,865.1563 C1069.6563,865.4063 1069.7969,865.6719 1070.0156,865.8281 C1070.1719,865.9531 1070.375,866 1070.7813,866 L1075.9219,866 C1076.6719,866 1077.0313,865.7188 1077.0313,865.1563 C1077.0313,864.875 1076.9219,864.625 1076.6875,864.4531 C1076.5156,864.3281 1076.375,864.2969 1075.9219,864.2969 L1074.2031,864.2969 L1074.2031,857.7813 Z " fill="#000000"/><text fill="#000000" font-family="sans-serif" font-size="14" font-style="italic" lengthAdjust="spacing" textLength="163" x="1093.75" y="865.8467">AccessExecutionGraph</text><line style="stroke:#181818;stroke-width:0.5;" x1="910.5" x2="1407.5" y1="877" y2="877"/><text fill="#000000" font-family="sans-serif" font-size="14" lengthAdjust="spacing" textLength="124" x="915.5" y="893.9951">getJobID() : JobID</text><text fill="#000000" font-family="sans-serif" font-size="14" lengthAdjust="spacing" textLength="156" x="915.5" y="910.292">getJobName() : String</text><text fill="#000000" font-family="sans-serif" font-size="14" lengthAdjust="spacing" textLength="151" x="915.5" y="926.5889">getJsonPlan() : String</text><text fill="#000000" font-family="sans-serif" font-size="14" lengthAdjust="spacing" textLength="410" x="915.5" y="942.8857">getArchivedExecutionConfig() : ArchivedExecutionConfig</text><line style="stroke:#181818;stroke-width:1.0;stroke-dasharray:1.0,2.0;" x1="910.5" x2="1407.5" y1="950.1875" y2="950.1875"/><text fill="#000000" font-family="sans-serif" font-size="14" lengthAdjust="spacing" textLength="482" x="915.5" y="967.1826">getCheckpointCoordinatorConfig() : CheckpointCoordinatorConfig</text><text fill="#000000" font-family="sans-serif" font-size="14" lengthAdjust="spacing" textLength="235" x="915.5" y="983.4795">getStateBackendName() : String</text><text fill="#000000" font-family="sans-serif" font-size="14" lengthAdjust="spacing" textLength="274" x="915.5" y="999.7764">getCheckpointStorageName() : String</text><text fill="#000000" font-family="sans-serif" font-size="14" lengthAdjust="spacing" textLength="266" x="915.5" y="1016.0732">getChangelogStorageName() : String</text><line style="stroke:#181818;stroke-width:1.0;stroke-dasharray:1.0,2.0;" x1="910.5" x2="1407.5" y1="1023.375" y2="1023.375"/><text fill="#000000" font-family="sans-serif" font-size="14" lengthAdjust="spacing" textLength="180" x="915.5" y="1040.3701">getJobState() : JobStatus</text><text fill="#000000" font-family="sans-serif" font-size="14" lengthAdjust="spacing" textLength="276" x="915.5" y="1056.667">getStatusTimestamp(JobStatus) : long</text><text fill="#000000" font-family="sans-serif" font-size="14" lengthAdjust="spacing" textLength="187" x="915.5" y="1072.9639">getFailureInfo() : ErrorInfo</text><line style="stroke:#181818;stroke-width:1.0;stroke-dasharray:1.0,2.0;" x1="910.5" x2="1407.5" y1="1080.2656" y2="1080.2656"/><text fill="#000000" font-family="sans-serif" font-size="14" lengthAdjust="spacing" textLength="399" x="915.5" y="1097.2607">getJobVertex(JobVertexID) : AccessExecutionJobVertex</text><text fill="#000000" font-family="sans-serif" font-size="14" lengthAdjust="spacing" textLength="465" x="915.5" y="1113.5576">getAllVertices() : Map&lt;JobVertexID, AccessExecutionJobVertex&gt;</text><text fill="#000000" font-family="sans-serif" font-size="14" lengthAdjust="spacing" textLength="474" x="915.5" y="1129.8545">getVerticesTopologically() : Iterable&lt;AccessExecutionJobVertex&gt;</text><text fill="#000000" font-family="sans-serif" font-size="14" lengthAdjust="spacing" textLength="445" x="915.5" y="1146.1514">getAllExecutionVertices() : Iterable&lt;AccessExecutionVertex&gt;</text><line style="stroke:#181818;stroke-width:1.0;stroke-dasharray:1.0,2.0;" x1="910.5" x2="1407.5" y1="1153.4531" y2="1153.4531"/><text fill="#000000" font-family="sans-serif" font-size="14" lengthAdjust="spacing" textLength="428" x="915.5" y="1170.4482">getCheckpointStatsSnapshot() : CheckpointStatsSnapshot</text><line style="stroke:#181818;stroke-width:1.0;stroke-dasharray:1.0,2.0;" x1="910.5" x2="1407.5" y1="1177.75" y2="1177.75"/><text fill="#000000" font-family="sans-serif" font-size="14" lengthAdjust="spacing" textLength="487" x="915.5" y="1194.7451">getAccumulatorResultsStringified() : StringifiedAccumulatorResult[]</text><text fill="#000000" font-family="sans-serif" font-size="14" lengthAdjust="spacing" textLength="438" x="915.5" y="1211.042">getAccumulatorsSerialized() : Map&lt;String, SerializedObject&gt;</text></g><g id="elem_GMN17"><path d="M1443.5,1019 L1443.5,1027.5 L1408.54,1031.5 L1443.5,1035.5 L1443.5,1044.1328 A0,0 0 0 0 1443.5,1044.1328 L1810.5,1044.1328 A0,0 0 0 0 1810.5,1044.1328 L1810.5,1029 L1800.5,1019 L1443.5,1019 A0,0 0 0 0 1443.5,1019 " fill="#FEFFDD" style="stroke:#181818;stroke-width:0.5;"/><path d="M1800.5,1019 L1800.5,1029 L1810.5,1029 L1800.5,1019 " fill="#FEFFDD" style="stroke:#181818;stroke-width:0.5;"/><text fill="#000000" font-family="sans-serif" font-size="13" lengthAdjust="spacing" textLength="346" x="1449.5" y="1036.0669">Representation of a JobGraph while executing the job.</text></g><!--class ExecutionGraph--><g id="elem_ExecutionGraph"><rect codeLine="110" fill="#F1F1F1" height="48" id="ExecutionGraph" rx="2.5" ry="2.5" style="stroke:#181818;stroke-width:0.5;" width="146" x="1086" y="520.5"/><ellipse cx="1101" cy="536.5" fill="#B4A7E5" rx="11" ry="11" style="stroke:#181818;stroke-width:1.0;"/><path d="M1101.9531,533.2813 L1103.6719,533.2813 C1104.0625,533.2813 1104.25,533.25 1104.375,533.1719 C1104.6406,533.0156 1104.7813,532.7344 1104.7813,532.4375 C1104.7813,532.1719 1104.6719,531.9063 1104.4375,531.7344 C1104.2656,531.625 1104.125,531.5938 1103.6719,531.5938 L1098.5313,531.5938 C1098.0938,531.5938 1097.9688,531.6094 1097.8125,531.7031 C1097.5625,531.8594 1097.4063,532.1563 1097.4063,532.4375 C1097.4063,532.7188 1097.5469,532.9688 1097.7656,533.1406 C1097.9219,533.25 1098.1094,533.2813 1098.5313,533.2813 L1100.25,533.2813 L1100.25,539.7969 L1098.5313,539.7969 C1098.0938,539.7969 1097.9688,539.8125 1097.8125,539.9219 C1097.5625,540.0781 1097.4063,540.3594 1097.4063,540.6563 C1097.4063,540.9063 1097.5469,541.1719 1097.7656,541.3281 C1097.9219,541.4531 1098.125,541.5 1098.5313,541.5 L1103.6719,541.5 C1104.4219,541.5 1104.7813,541.2188 1104.7813,540.6563 C1104.7813,540.375 1104.6719,540.125 1104.4375,539.9531 C1104.2656,539.8281 1104.125,539.7969 1103.6719,539.7969 L1101.9531,539.7969 L1101.9531,533.2813 Z " fill="#000000"/><text fill="#000000" font-family="sans-serif" font-size="14" font-style="italic" lengthAdjust="spacing" textLength="114" x="1115" y="541.3467">ExecutionGraph</text><line style="stroke:#181818;stroke-width:0.5;" x1="1087" x2="1231" y1="552.5" y2="552.5"/><line style="stroke:#181818;stroke-width:0.5;" x1="1087" x2="1231" y1="560.5" y2="560.5"/></g><!--class AccessExecutionJobVertex--><g id="elem_AccessExecutionJobVertex"><rect codeLine="114" fill="#F1F1F1" height="202.375" id="AccessExecutionJobVertex" rx="2.5" ry="2.5" style="stroke:#181818;stroke-width:0.5;" width="570" x="892" y="1295"/><ellipse cx="1078.75" cy="1311" fill="#B4A7E5" rx="11" ry="11" style="stroke:#181818;stroke-width:1.0;"/><path d="M1079.7031,1307.7813 L1081.4219,1307.7813 C1081.8125,1307.7813 1082,1307.75 1082.125,1307.6719 C1082.3906,1307.5156 1082.5313,1307.2344 1082.5313,1306.9375 C1082.5313,1306.6719 1082.4219,1306.4063 1082.1875,1306.2344 C1082.0156,1306.125 1081.875,1306.0938 1081.4219,1306.0938 L1076.2813,1306.0938 C1075.8438,1306.0938 1075.7188,1306.1094 1075.5625,1306.2031 C1075.3125,1306.3594 1075.1563,1306.6563 1075.1563,1306.9375 C1075.1563,1307.2188 1075.2969,1307.4688 1075.5156,1307.6406 C1075.6719,1307.75 1075.8594,1307.7813 1076.2813,1307.7813 L1078,1307.7813 L1078,1314.2969 L1076.2813,1314.2969 C1075.8438,1314.2969 1075.7188,1314.3125 1075.5625,1314.4219 C1075.3125,1314.5781 1075.1563,1314.8594 1075.1563,1315.1563 C1075.1563,1315.4063 1075.2969,1315.6719 1075.5156,1315.8281 C1075.6719,1315.9531 1075.875,1316 1076.2813,1316 L1081.4219,1316 C1082.1719,1316 1082.5313,1315.7188 1082.5313,1315.1563 C1082.5313,1314.875 1082.4219,1314.625 1082.1875,1314.4531 C1082.0156,1314.3281 1081.875,1314.2969 1081.4219,1314.2969 L1079.7031,1314.2969 L1079.7031,1307.7813 Z " fill="#000000"/><text fill="#000000" font-family="sans-serif" font-size="14" font-style="italic" lengthAdjust="spacing" textLength="188" x="1099.25" y="1315.8467">AccessExecutionJobVertex</text><line style="stroke:#181818;stroke-width:0.5;" x1="893" x2="1461" y1="1327" y2="1327"/><text fill="#000000" font-family="sans-serif" font-size="14" lengthAdjust="spacing" textLength="220" x="898" y="1343.9951">getJobVertexId() : JobVertexID</text><text fill="#000000" font-family="sans-serif" font-size="14" lengthAdjust="spacing" textLength="133" x="898" y="1360.292">getName() : String</text><line style="stroke:#181818;stroke-width:1.0;stroke-dasharray:1.0,2.0;" x1="893" x2="1461" y1="1367.5938" y2="1367.5938"/><text fill="#000000" font-family="sans-serif" font-size="14" lengthAdjust="spacing" textLength="145" x="898" y="1384.5889">getParallelism() : int</text><text fill="#000000" font-family="sans-serif" font-size="14" lengthAdjust="spacing" textLength="173" x="898" y="1400.8857">getMaxParallelism() : int</text><text fill="#000000" font-family="sans-serif" font-size="14" lengthAdjust="spacing" textLength="274" x="898" y="1417.1826">getResourceProfile() : ResourceProfile</text><line style="stroke:#181818;stroke-width:1.0;stroke-dasharray:1.0,2.0;" x1="893" x2="1461" y1="1424.4844" y2="1424.4844"/><text fill="#000000" font-family="sans-serif" font-size="14" lengthAdjust="spacing" textLength="284" x="898" y="1441.4795">getAggregatedState() : ExecutionState</text><line style="stroke:#181818;stroke-width:1.0;stroke-dasharray:1.0,2.0;" x1="893" x2="1461" y1="1448.7813" y2="1448.7813"/><text fill="#000000" font-family="sans-serif" font-size="14" lengthAdjust="spacing" textLength="320" x="898" y="1465.7764">getTaskVertices() : AccessExecutionVertex[]</text><line style="stroke:#181818;stroke-width:1.0;stroke-dasharray:1.0,2.0;" x1="893" x2="1461" y1="1473.0781" y2="1473.0781"/><text fill="#000000" font-family="sans-serif" font-size="14" lengthAdjust="spacing" textLength="558" x="898" y="1490.0732">getAggregatedUserAccumulatorsStringified() : StringifiedAccumulatorResult[]</text></g><g id="elem_GMN22"><path d="M1497.5,1383.5 L1497.5,1392 L1462.12,1396 L1497.5,1400 L1497.5,1408.6328 A0,0 0 0 0 1497.5,1408.6328 L1868.5,1408.6328 A0,0 0 0 0 1868.5,1408.6328 L1868.5,1393.5 L1858.5,1383.5 L1497.5,1383.5 A0,0 0 0 0 1497.5,1383.5 " fill="#FEFFDD" style="stroke:#181818;stroke-width:0.5;"/><path d="M1858.5,1383.5 L1858.5,1393.5 L1868.5,1393.5 L1858.5,1383.5 " fill="#FEFFDD" style="stroke:#181818;stroke-width:0.5;"/><text fill="#000000" font-family="sans-serif" font-size="13" lengthAdjust="spacing" textLength="350" x="1503.5" y="1400.5669">Representation of a JobVertex while executing the job.</text></g><!--class AccessExecutionVertex--><g id="elem_AccessExecutionVertex"><rect codeLine="130" fill="#F1F1F1" height="194.375" id="AccessExecutionVertex" rx="2.5" ry="2.5" style="stroke:#181818;stroke-width:0.5;" width="463" x="892.5" y="1574"/><ellipse cx="1036.75" cy="1590" fill="#B4A7E5" rx="11" ry="11" style="stroke:#181818;stroke-width:1.0;"/><path d="M1037.7031,1586.7813 L1039.4219,1586.7813 C1039.8125,1586.7813 1040,1586.75 1040.125,1586.6719 C1040.3906,1586.5156 1040.5313,1586.2344 1040.5313,1585.9375 C1040.5313,1585.6719 1040.4219,1585.4063 1040.1875,1585.2344 C1040.0156,1585.125 1039.875,1585.0938 1039.4219,1585.0938 L1034.2813,1585.0938 C1033.8438,1585.0938 1033.7188,1585.1094 1033.5625,1585.2031 C1033.3125,1585.3594 1033.1563,1585.6563 1033.1563,1585.9375 C1033.1563,1586.2188 1033.2969,1586.4688 1033.5156,1586.6406 C1033.6719,1586.75 1033.8594,1586.7813 1034.2813,1586.7813 L1036,1586.7813 L1036,1593.2969 L1034.2813,1593.2969 C1033.8438,1593.2969 1033.7188,1593.3125 1033.5625,1593.4219 C1033.3125,1593.5781 1033.1563,1593.8594 1033.1563,1594.1563 C1033.1563,1594.4063 1033.2969,1594.6719 1033.5156,1594.8281 C1033.6719,1594.9531 1033.875,1595 1034.2813,1595 L1039.4219,1595 C1040.1719,1595 1040.5313,1594.7188 1040.5313,1594.1563 C1040.5313,1593.875 1040.4219,1593.625 1040.1875,1593.4531 C1040.0156,1593.3281 1039.875,1593.2969 1039.4219,1593.2969 L1037.7031,1593.2969 L1037.7031,1586.7813 Z " fill="#000000"/><text fill="#000000" font-family="sans-serif" font-size="14" font-style="italic" lengthAdjust="spacing" textLength="166" x="1057.25" y="1594.8467">AccessExecutionVertex</text><line style="stroke:#181818;stroke-width:0.5;" x1="893.5" x2="1354.5" y1="1606" y2="1606"/><text fill="#000000" font-family="sans-serif" font-size="14" lengthAdjust="spacing" textLength="297" x="898.5" y="1622.9951">getTaskNameWithSubtaskIndex() : String</text><text fill="#000000" font-family="sans-serif" font-size="14" lengthAdjust="spacing" textLength="217" x="898.5" y="1639.292">getParallelSubtaskIndex() : int</text><line style="stroke:#181818;stroke-width:1.0;stroke-dasharray:1.0,2.0;" x1="893.5" x2="1354.5" y1="1646.5938" y2="1646.5938"/><text fill="#000000" font-family="sans-serif" font-size="14" lengthAdjust="spacing" textLength="270" x="898.5" y="1663.5889">getExecutionState() : ExecutionState</text><text fill="#000000" font-family="sans-serif" font-size="14" lengthAdjust="spacing" textLength="312" x="898.5" y="1679.8857">getStateTimestamp(ExecutionState) : long</text><text fill="#000000" font-family="sans-serif" font-size="14" lengthAdjust="spacing" textLength="187" x="898.5" y="1696.1826">getFailureInfo() : ErrorInfo</text><text fill="#000000" font-family="sans-serif" font-size="14" lengthAdjust="spacing" textLength="292" x="898.5" y="1712.4795">getExecutionHistory() : ExecutionHistory</text><line style="stroke:#181818;stroke-width:1.0;stroke-dasharray:1.0,2.0;" x1="893.5" x2="1354.5" y1="1719.7813" y2="1719.7813"/><text fill="#000000" font-family="sans-serif" font-size="14" lengthAdjust="spacing" textLength="358" x="898.5" y="1736.7764">getCurrentExecutionAttempt() : AccessExecution</text><line style="stroke:#181818;stroke-width:1.0;stroke-dasharray:1.0,2.0;" x1="893.5" x2="1354.5" y1="1744.0781" y2="1744.0781"/><text fill="#000000" font-family="sans-serif" font-size="14" lengthAdjust="spacing" textLength="451" x="898.5" y="1761.0732">getCurrentAssignedResourceLocation() : TaskManagerLocation</text></g><g id="elem_GMN26"><path d="M1390.5,1658.5 L1390.5,1667 L1355.58,1671 L1390.5,1675 L1390.5,1683.6328 A0,0 0 0 0 1390.5,1683.6328 L2563.5,1683.6328 A0,0 0 0 0 2563.5,1683.6328 L2563.5,1668.5 L2553.5,1658.5 L1390.5,1658.5 A0,0 0 0 0 1390.5,1658.5 " fill="#FEFFDD" style="stroke:#181818;stroke-width:0.5;"/><path d="M2553.5,1658.5 L2553.5,1668.5 L2563.5,1668.5 L2553.5,1658.5 " fill="#FEFFDD" style="stroke:#181818;stroke-width:0.5;"/><text fill="#000000" font-family="sans-serif" font-size="13" lengthAdjust="spacing" textLength="1152" x="1396.5" y="1675.5669">A parallel instance of the AccessExecutionJobVertex (i.e. a JobVertex of parallelism n results in n AccessExecutionVertex instance for the corresponding AccessExecutionJobVertex)</text></g><!--class AccessExecution--><g id="elem_AccessExecution"><rect codeLine="145" fill="#F1F1F1" height="259.5625" id="AccessExecution" rx="2.5" ry="2.5" style="stroke:#181818;stroke-width:0.5;" width="485" x="892.5" y="1845"/><ellipse cx="1071.25" cy="1861" fill="#B4A7E5" rx="11" ry="11" style="stroke:#181818;stroke-width:1.0;"/><path d="M1072.2031,1857.7813 L1073.9219,1857.7813 C1074.3125,1857.7813 1074.5,1857.75 1074.625,1857.6719 C1074.8906,1857.5156 1075.0313,1857.2344 1075.0313,1856.9375 C1075.0313,1856.6719 1074.9219,1856.4063 1074.6875,1856.2344 C1074.5156,1856.125 1074.375,1856.0938 1073.9219,1856.0938 L1068.7813,1856.0938 C1068.3438,1856.0938 1068.2188,1856.1094 1068.0625,1856.2031 C1067.8125,1856.3594 1067.6563,1856.6563 1067.6563,1856.9375 C1067.6563,1857.2188 1067.7969,1857.4688 1068.0156,1857.6406 C1068.1719,1857.75 1068.3594,1857.7813 1068.7813,1857.7813 L1070.5,1857.7813 L1070.5,1864.2969 L1068.7813,1864.2969 C1068.3438,1864.2969 1068.2188,1864.3125 1068.0625,1864.4219 C1067.8125,1864.5781 1067.6563,1864.8594 1067.6563,1865.1563 C1067.6563,1865.4063 1067.7969,1865.6719 1068.0156,1865.8281 C1068.1719,1865.9531 1068.375,1866 1068.7813,1866 L1073.9219,1866 C1074.6719,1866 1075.0313,1865.7188 1075.0313,1865.1563 C1075.0313,1864.875 1074.9219,1864.625 1074.6875,1864.4531 C1074.5156,1864.3281 1074.375,1864.2969 1073.9219,1864.2969 L1072.2031,1864.2969 L1072.2031,1857.7813 Z " fill="#000000"/><text fill="#000000" font-family="sans-serif" font-size="14" font-style="italic" lengthAdjust="spacing" textLength="119" x="1091.75" y="1865.8467">AccessExecution</text><line style="stroke:#181818;stroke-width:0.5;" x1="893.5" x2="1376.5" y1="1877" y2="1877"/><text fill="#000000" font-family="sans-serif" font-size="14" lengthAdjust="spacing" textLength="275" x="898.5" y="1893.9951">getAttemptId() : ExecutionAttemptID</text><text fill="#000000" font-family="sans-serif" font-size="14" lengthAdjust="spacing" textLength="217" x="898.5" y="1910.292">getParallelSubtaskIndex() : int</text><text fill="#000000" font-family="sans-serif" font-size="14" lengthAdjust="spacing" textLength="189" x="898.5" y="1926.5889">getAttemptNumber() : int</text><line style="stroke:#181818;stroke-width:1.0;stroke-dasharray:1.0,2.0;" x1="893.5" x2="1376.5" y1="1933.8906" y2="1933.8906"/><text fill="#000000" font-family="sans-serif" font-size="14" lengthAdjust="spacing" textLength="199" x="898.5" y="1950.8857">getState() : ExecutionState</text><text fill="#000000" font-family="sans-serif" font-size="14" lengthAdjust="spacing" textLength="218" x="898.5" y="1967.1826">getStateTimestamps() : long[]</text><text fill="#000000" font-family="sans-serif" font-size="14" lengthAdjust="spacing" textLength="245" x="898.5" y="1983.4795">getStateEndTimestamps() : long[]</text><text fill="#000000" font-family="sans-serif" font-size="14" lengthAdjust="spacing" textLength="312" x="898.5" y="1999.7764">getStateTimestamp(ExecutionState) : long</text><text fill="#000000" font-family="sans-serif" font-size="14" lengthAdjust="spacing" textLength="339" x="898.5" y="2016.0732">getStateEndTimestamp(ExecutionState) : long</text><text fill="#000000" font-family="sans-serif" font-size="14" lengthAdjust="spacing" textLength="187" x="898.5" y="2032.3701">getFailureInfo() : ErrorInfo</text><line style="stroke:#181818;stroke-width:1.0;stroke-dasharray:1.0,2.0;" x1="893.5" x2="1376.5" y1="2039.6719" y2="2039.6719"/><text fill="#000000" font-family="sans-serif" font-size="14" lengthAdjust="spacing" textLength="396" x="898.5" y="2056.667">getAssignedResourceLocation() : TaskManagerLocation</text><line style="stroke:#181818;stroke-width:1.0;stroke-dasharray:1.0,2.0;" x1="893.5" x2="1376.5" y1="2063.9688" y2="2063.9688"/><text fill="#000000" font-family="sans-serif" font-size="14" lengthAdjust="spacing" textLength="473" x="898.5" y="2080.9639">getUserAccumulatorsStringified() : StringifiedAccumulatorResult[]</text><text fill="#000000" font-family="sans-serif" font-size="14" lengthAdjust="spacing" textLength="184" x="898.5" y="2097.2607">getIOMetrics() : IOMetrics</text></g><g id="elem_GMN30"><path d="M1412.5,1962.5 L1412.5,1971 L1377.68,1975 L1412.5,1979 L1412.5,1987.6328 A0,0 0 0 0 1412.5,1987.6328 L2259.5,1987.6328 A0,0 0 0 0 2259.5,1987.6328 L2259.5,1972.5 L2249.5,1962.5 L1412.5,1962.5 A0,0 0 0 0 1412.5,1962.5 " fill="#FEFFDD" style="stroke:#181818;stroke-width:0.5;"/><path d="M2249.5,1962.5 L2249.5,1972.5 L2259.5,1972.5 L2249.5,1962.5 " fill="#FEFFDD" style="stroke:#181818;stroke-width:0.5;"/><text fill="#000000" font-family="sans-serif" font-size="13" lengthAdjust="spacing" textLength="826" x="1418.5" y="1979.5669">The actual execution abstraction of AccessExecutionVertex (multiple attempts can be made to execute AccessExecutionVertex)</text></g><!--class Execution--><g id="elem_Execution"><rect codeLine="164" fill="#F1F1F1" height="48" id="Execution" rx="2.5" ry="2.5" style="stroke:#181818;stroke-width:0.5;" width="103" x="1083.5" y="2166"/><ellipse cx="1098.5" cy="2182" fill="#ADD1B2" rx="11" ry="11" style="stroke:#181818;stroke-width:1.0;"/><path d="M1100.8438,2177.6719 C1099.9063,2177.2344 1099.3125,2177.0938 1098.4375,2177.0938 C1095.8125,2177.0938 1093.8125,2179.1719 1093.8125,2181.8906 L1093.8125,2183.0156 C1093.8125,2185.5938 1095.9219,2187.4844 1098.8125,2187.4844 C1100.0313,2187.4844 1101.1875,2187.1875 1101.9375,2186.6406 C1102.5156,2186.2344 1102.8438,2185.7813 1102.8438,2185.3906 C1102.8438,2184.9375 1102.4531,2184.5469 1101.9844,2184.5469 C1101.7656,2184.5469 1101.5625,2184.625 1101.375,2184.8125 C1100.9219,2185.2969 1100.9219,2185.2969 1100.7344,2185.3906 C1100.3125,2185.6563 1099.625,2185.7813 1098.8594,2185.7813 C1096.8125,2185.7813 1095.5156,2184.6875 1095.5156,2182.9844 L1095.5156,2181.8906 C1095.5156,2180.1094 1096.7656,2178.7969 1098.5,2178.7969 C1099.0781,2178.7969 1099.6875,2178.9531 1100.1563,2179.2031 C1100.6406,2179.4844 1100.8125,2179.7031 1100.9063,2180.1094 C1100.9688,2180.5156 1101,2180.6406 1101.1406,2180.7656 C1101.2813,2180.9063 1101.5156,2181.0156 1101.7344,2181.0156 C1102,2181.0156 1102.2656,2180.875 1102.4375,2180.6563 C1102.5469,2180.5 1102.5781,2180.3125 1102.5781,2179.8906 L1102.5781,2178.4688 C1102.5781,2178.0313 1102.5625,2177.9063 1102.4688,2177.75 C1102.3125,2177.4844 1102.0313,2177.3438 1101.7344,2177.3438 C1101.4375,2177.3438 1101.2344,2177.4375 1101.0156,2177.75 L1100.8438,2177.6719 Z " fill="#000000"/><text fill="#000000" font-family="sans-serif" font-size="14" lengthAdjust="spacing" textLength="71" x="1112.5" y="2186.8467">Execution</text><line style="stroke:#181818;stroke-width:0.5;" x1="1084.5" x2="1185.5" y1="2198" y2="2198"/><line style="stroke:#181818;stroke-width:0.5;" x1="1084.5" x2="1185.5" y1="2206" y2="2206"/></g><!--class Task--><g id="elem_Task"><rect codeLine="169" fill="#F1F1F1" height="48" id="Task" rx="2.5" ry="2.5" style="stroke:#181818;stroke-width:0.5;" width="65" x="1102.5" y="2314"/><ellipse cx="1117.5" cy="2330" fill="#ADD1B2" rx="11" ry="11" style="stroke:#181818;stroke-width:1.0;"/><path d="M1119.8438,2325.6719 C1118.9063,2325.2344 1118.3125,2325.0938 1117.4375,2325.0938 C1114.8125,2325.0938 1112.8125,2327.1719 1112.8125,2329.8906 L1112.8125,2331.0156 C1112.8125,2333.5938 1114.9219,2335.4844 1117.8125,2335.4844 C1119.0313,2335.4844 1120.1875,2335.1875 1120.9375,2334.6406 C1121.5156,2334.2344 1121.8438,2333.7813 1121.8438,2333.3906 C1121.8438,2332.9375 1121.4531,2332.5469 1120.9844,2332.5469 C1120.7656,2332.5469 1120.5625,2332.625 1120.375,2332.8125 C1119.9219,2333.2969 1119.9219,2333.2969 1119.7344,2333.3906 C1119.3125,2333.6563 1118.625,2333.7813 1117.8594,2333.7813 C1115.8125,2333.7813 1114.5156,2332.6875 1114.5156,2330.9844 L1114.5156,2329.8906 C1114.5156,2328.1094 1115.7656,2326.7969 1117.5,2326.7969 C1118.0781,2326.7969 1118.6875,2326.9531 1119.1563,2327.2031 C1119.6406,2327.4844 1119.8125,2327.7031 1119.9063,2328.1094 C1119.9688,2328.5156 1120,2328.6406 1120.1406,2328.7656 C1120.2813,2328.9063 1120.5156,2329.0156 1120.7344,2329.0156 C1121,2329.0156 1121.2656,2328.875 1121.4375,2328.6563 C1121.5469,2328.5 1121.5781,2328.3125 1121.5781,2327.8906 L1121.5781,2326.4688 C1121.5781,2326.0313 1121.5625,2325.9063 1121.4688,2325.75 C1121.3125,2325.4844 1121.0313,2325.3438 1120.7344,2325.3438 C1120.4375,2325.3438 1120.2344,2325.4375 1120.0156,2325.75 L1119.8438,2325.6719 Z " fill="#000000"/><text fill="#000000" font-family="sans-serif" font-size="14" lengthAdjust="spacing" textLength="33" x="1131.5" y="2334.8467">Task</text><line style="stroke:#181818;stroke-width:0.5;" x1="1103.5" x2="1166.5" y1="2346" y2="2346"/><line style="stroke:#181818;stroke-width:0.5;" x1="1103.5" x2="1166.5" y1="2354" y2="2354"/></g><!--class TaskInvokable--><g id="elem_TaskInvokable"><rect codeLine="172" fill="#F1F1F1" height="48" id="TaskInvokable" rx="2.5" ry="2.5" style="stroke:#181818;stroke-width:0.5;" width="134" x="1102" y="2439"/><ellipse cx="1117" cy="2455" fill="#B4A7E5" rx="11" ry="11" style="stroke:#181818;stroke-width:1.0;"/><path d="M1117.9531,2451.7813 L1119.6719,2451.7813 C1120.0625,2451.7813 1120.25,2451.75 1120.375,2451.6719 C1120.6406,2451.5156 1120.7813,2451.2344 1120.7813,2450.9375 C1120.7813,2450.6719 1120.6719,2450.4063 1120.4375,2450.2344 C1120.2656,2450.125 1120.125,2450.0938 1119.6719,2450.0938 L1114.5313,2450.0938 C1114.0938,2450.0938 1113.9688,2450.1094 1113.8125,2450.2031 C1113.5625,2450.3594 1113.4063,2450.6563 1113.4063,2450.9375 C1113.4063,2451.2188 1113.5469,2451.4688 1113.7656,2451.6406 C1113.9219,2451.75 1114.1094,2451.7813 1114.5313,2451.7813 L1116.25,2451.7813 L1116.25,2458.2969 L1114.5313,2458.2969 C1114.0938,2458.2969 1113.9688,2458.3125 1113.8125,2458.4219 C1113.5625,2458.5781 1113.4063,2458.8594 1113.4063,2459.1563 C1113.4063,2459.4063 1113.5469,2459.6719 1113.7656,2459.8281 C1113.9219,2459.9531 1114.125,2460 1114.5313,2460 L1119.6719,2460 C1120.4219,2460 1120.7813,2459.7188 1120.7813,2459.1563 C1120.7813,2458.875 1120.6719,2458.625 1120.4375,2458.4531 C1120.2656,2458.3281 1120.125,2458.2969 1119.6719,2458.2969 L1117.9531,2458.2969 L1117.9531,2451.7813 Z " fill="#000000"/><text fill="#000000" font-family="sans-serif" font-size="14" font-style="italic" lengthAdjust="spacing" textLength="102" x="1131" y="2459.8467">TaskInvokable</text><line style="stroke:#181818;stroke-width:0.5;" x1="1103" x2="1235" y1="2471" y2="2471"/><line style="stroke:#181818;stroke-width:0.5;" x1="1103" x2="1235" y1="2479" y2="2479"/></g><!--class StreamTask--><g id="elem_StreamTask"><rect codeLine="175" fill="#F1F1F1" height="48" id="StreamTask" rx="2.5" ry="2.5" style="stroke:#181818;stroke-width:0.5;" width="118" x="1104" y="2548"/><ellipse cx="1119" cy="2564" fill="#ADD1B2" rx="11" ry="11" style="stroke:#181818;stroke-width:1.0;"/><path d="M1121.3438,2559.6719 C1120.4063,2559.2344 1119.8125,2559.0938 1118.9375,2559.0938 C1116.3125,2559.0938 1114.3125,2561.1719 1114.3125,2563.8906 L1114.3125,2565.0156 C1114.3125,2567.5938 1116.4219,2569.4844 1119.3125,2569.4844 C1120.5313,2569.4844 1121.6875,2569.1875 1122.4375,2568.6406 C1123.0156,2568.2344 1123.3438,2567.7813 1123.3438,2567.3906 C1123.3438,2566.9375 1122.9531,2566.5469 1122.4844,2566.5469 C1122.2656,2566.5469 1122.0625,2566.625 1121.875,2566.8125 C1121.4219,2567.2969 1121.4219,2567.2969 1121.2344,2567.3906 C1120.8125,2567.6563 1120.125,2567.7813 1119.3594,2567.7813 C1117.3125,2567.7813 1116.0156,2566.6875 1116.0156,2564.9844 L1116.0156,2563.8906 C1116.0156,2562.1094 1117.2656,2560.7969 1119,2560.7969 C1119.5781,2560.7969 1120.1875,2560.9531 1120.6563,2561.2031 C1121.1406,2561.4844 1121.3125,2561.7031 1121.4063,2562.1094 C1121.4688,2562.5156 1121.5,2562.6406 1121.6406,2562.7656 C1121.7813,2562.9063 1122.0156,2563.0156 1122.2344,2563.0156 C1122.5,2563.0156 1122.7656,2562.875 1122.9375,2562.6563 C1123.0469,2562.5 1123.0781,2562.3125 1123.0781,2561.8906 L1123.0781,2560.4688 C1123.0781,2560.0313 1123.0625,2559.9063 1122.9688,2559.75 C1122.8125,2559.4844 1122.5313,2559.3438 1122.2344,2559.3438 C1121.9375,2559.3438 1121.7344,2559.4375 1121.5156,2559.75 L1121.3438,2559.6719 Z " fill="#000000"/><text fill="#000000" font-family="sans-serif" font-size="14" lengthAdjust="spacing" textLength="86" x="1133" y="2568.8467">StreamTask</text><line style="stroke:#181818;stroke-width:0.5;" x1="1105" x2="1221" y1="2580" y2="2580"/><line style="stroke:#181818;stroke-width:0.5;" x1="1105" x2="1221" y1="2588" y2="2588"/></g><!--class AbstractInvokable--><g id="elem_AbstractInvokable"><rect codeLine="177" fill="#F1F1F1" height="48" id="AbstractInvokable" rx="2.5" ry="2.5" style="stroke:#181818;stroke-width:0.5;" width="165" x="1257.5" y="2548"/><ellipse cx="1272.5" cy="2564" fill="#ADD1B2" rx="11" ry="11" style="stroke:#181818;stroke-width:1.0;"/><path d="M1274.8438,2559.6719 C1273.9063,2559.2344 1273.3125,2559.0938 1272.4375,2559.0938 C1269.8125,2559.0938 1267.8125,2561.1719 1267.8125,2563.8906 L1267.8125,2565.0156 C1267.8125,2567.5938 1269.9219,2569.4844 1272.8125,2569.4844 C1274.0313,2569.4844 1275.1875,2569.1875 1275.9375,2568.6406 C1276.5156,2568.2344 1276.8438,2567.7813 1276.8438,2567.3906 C1276.8438,2566.9375 1276.4531,2566.5469 1275.9844,2566.5469 C1275.7656,2566.5469 1275.5625,2566.625 1275.375,2566.8125 C1274.9219,2567.2969 1274.9219,2567.2969 1274.7344,2567.3906 C1274.3125,2567.6563 1273.625,2567.7813 1272.8594,2567.7813 C1270.8125,2567.7813 1269.5156,2566.6875 1269.5156,2564.9844 L1269.5156,2563.8906 C1269.5156,2562.1094 1270.7656,2560.7969 1272.5,2560.7969 C1273.0781,2560.7969 1273.6875,2560.9531 1274.1563,2561.2031 C1274.6406,2561.4844 1274.8125,2561.7031 1274.9063,2562.1094 C1274.9688,2562.5156 1275,2562.6406 1275.1406,2562.7656 C1275.2813,2562.9063 1275.5156,2563.0156 1275.7344,2563.0156 C1276,2563.0156 1276.2656,2562.875 1276.4375,2562.6563 C1276.5469,2562.5 1276.5781,2562.3125 1276.5781,2561.8906 L1276.5781,2560.4688 C1276.5781,2560.0313 1276.5625,2559.9063 1276.4688,2559.75 C1276.3125,2559.4844 1276.0313,2559.3438 1275.7344,2559.3438 C1275.4375,2559.3438 1275.2344,2559.4375 1275.0156,2559.75 L1274.8438,2559.6719 Z " fill="#000000"/><text fill="#000000" font-family="sans-serif" font-size="14" lengthAdjust="spacing" textLength="133" x="1286.5" y="2568.8467">AbstractInvokable</text><line style="stroke:#181818;stroke-width:0.5;" x1="1258.5" x2="1421.5" y1="2580" y2="2580"/><line style="stroke:#181818;stroke-width:0.5;" x1="1258.5" x2="1421.5" y1="2588" y2="2588"/></g><!--class BatchTask--><g id="elem_BatchTask"><rect codeLine="179" fill="#F1F1F1" height="48" id="BatchTask" rx="2.5" ry="2.5" style="stroke:#181818;stroke-width:0.5;" width="107" x="1286.5" y="2657"/><ellipse cx="1301.5" cy="2673" fill="#ADD1B2" rx="11" ry="11" style="stroke:#181818;stroke-width:1.0;"/><path d="M1303.8438,2668.6719 C1302.9063,2668.2344 1302.3125,2668.0938 1301.4375,2668.0938 C1298.8125,2668.0938 1296.8125,2670.1719 1296.8125,2672.8906 L1296.8125,2674.0156 C1296.8125,2676.5938 1298.9219,2678.4844 1301.8125,2678.4844 C1303.0313,2678.4844 1304.1875,2678.1875 1304.9375,2677.6406 C1305.5156,2677.2344 1305.8438,2676.7813 1305.8438,2676.3906 C1305.8438,2675.9375 1305.4531,2675.5469 1304.9844,2675.5469 C1304.7656,2675.5469 1304.5625,2675.625 1304.375,2675.8125 C1303.9219,2676.2969 1303.9219,2676.2969 1303.7344,2676.3906 C1303.3125,2676.6563 1302.625,2676.7813 1301.8594,2676.7813 C1299.8125,2676.7813 1298.5156,2675.6875 1298.5156,2673.9844 L1298.5156,2672.8906 C1298.5156,2671.1094 1299.7656,2669.7969 1301.5,2669.7969 C1302.0781,2669.7969 1302.6875,2669.9531 1303.1563,2670.2031 C1303.6406,2670.4844 1303.8125,2670.7031 1303.9063,2671.1094 C1303.9688,2671.5156 1304,2671.6406 1304.1406,2671.7656 C1304.2813,2671.9063 1304.5156,2672.0156 1304.7344,2672.0156 C1305,2672.0156 1305.2656,2671.875 1305.4375,2671.6563 C1305.5469,2671.5 1305.5781,2671.3125 1305.5781,2670.8906 L1305.5781,2669.4688 C1305.5781,2669.0313 1305.5625,2668.9063 1305.4688,2668.75 C1305.3125,2668.4844 1305.0313,2668.3438 1304.7344,2668.3438 C1304.4375,2668.3438 1304.2344,2668.4375 1304.0156,2668.75 L1303.8438,2668.6719 Z " fill="#000000"/><text fill="#000000" font-family="sans-serif" font-size="14" lengthAdjust="spacing" textLength="75" x="1315.5" y="2677.8467">BatchTask</text><line style="stroke:#181818;stroke-width:0.5;" x1="1287.5" x2="1392.5" y1="2689" y2="2689"/><line style="stroke:#181818;stroke-width:0.5;" x1="1287.5" x2="1392.5" y1="2697" y2="2697"/></g><g id="elem_GMN44"><path d="M1203,2325.5 L1203,2334 L1167.98,2338 L1203,2342 L1203,2350.6328 A0,0 0 0 0 1203,2350.6328 L1571,2350.6328 A0,0 0 0 0 1571,2350.6328 L1571,2335.5 L1561,2325.5 L1203,2325.5 A0,0 0 0 0 1203,2325.5 " fill="#FEFFDD" style="stroke:#181818;stroke-width:0.5;"/><path d="M1561,2325.5 L1561,2335.5 L1571,2335.5 L1561,2325.5 " fill="#FEFFDD" style="stroke:#181818;stroke-width:0.5;"/><text fill="#000000" font-family="sans-serif" font-size="13" lengthAdjust="spacing" textLength="347" x="1209" y="2342.5669">TaskExecutor representation of an Execution instance</text></g><!--reverse link AccessExecution to Execution--><g id="link_AccessExecution_Execution"><path d="M1135,2123.123 C1135,2146.536 1135,2150.419 1135,2165.96 " fill="none" id="AccessExecution-backto-Execution" style="stroke:#181818;stroke-width:1.0;stroke-dasharray:7.0,7.0;"/><polygon fill="none" points="1135,2105.123,1129,2123.123,1141,2123.123,1135,2105.123" style="stroke:#181818;stroke-width:1.0;"/></g><!--reverse link TaskInvokable to StreamTask--><g id="link_TaskInvokable_StreamTask"><path d="M1166.6887,2505.1886 C1165.6787,2523.1366 1165.31,2529.892 1164.3,2547.828 " fill="none" id="TaskInvokable-backto-StreamTask" style="stroke:#181818;stroke-width:1.0;stroke-dasharray:7.0,7.0;"/><polygon fill="none" points="1167.7,2487.217,1160.6982,2504.8515,1172.6792,2505.5257,1167.7,2487.217" style="stroke:#181818;stroke-width:1.0;"/></g><!--reverse link TaskInvokable to AbstractInvokable--><g id="link_TaskInvokable_AbstractInvokable"><path d="M1221.36,2496.7634 C1250.05,2514.7114 1274.3,2529.892 1302.97,2547.828 " fill="none" id="TaskInvokable-backto-AbstractInvokable" style="stroke:#181818;stroke-width:1.0;stroke-dasharray:7.0,7.0;"/><polygon fill="none" points="1206.1,2487.217,1218.1778,2501.85,1224.5421,2491.6767,1206.1,2487.217" style="stroke:#181818;stroke-width:1.0;"/></g><!--reverse link AbstractInvokable to BatchTask--><g id="link_AbstractInvokable_BatchTask"><path d="M1340,2614.217 C1340,2632.165 1340,2638.8918 1340,2656.8279 " fill="none" id="AbstractInvokable-backto-BatchTask" style="stroke:#181818;stroke-width:1.0;stroke-dasharray:7.0,7.0;"/><polygon fill="none" points="1340,2596.217,1334,2614.217,1346,2614.217,1340,2596.217" style="stroke:#181818;stroke-width:1.0;"/></g><!--link StreamGraph to JobGraph--><g id="link_StreamGraph_JobGraph"><path codeLine="184" d="M356.523,244.18 C374.788,267.9 391.3178,289.3658 411.9278,316.1358 " fill="none" id="StreamGraph-to-JobGraph" style="stroke:#181818;stroke-width:1.0;stroke-dasharray:7.0,7.0;"/><polygon fill="#181818" points="415.588,320.89,413.2671,311.3185,412.5378,316.9281,406.9282,316.1988,415.588,320.89" style="stroke:#181818;stroke-width:1.0;"/><text fill="#000000" font-family="sans-serif" font-size="13" lengthAdjust="spacing" textLength="85" x="389" y="287.0669">compiles into</text></g><!--link JobGraph to JobVertex--><g id="link_JobGraph_JobVertex"><path codeLine="185" d="M618.673,768.13 C627.459,829.88 635.6458,887.4298 642.6248,936.4798 " fill="none" id="JobGraph-to-JobVertex" style="stroke:#181818;stroke-width:1.0;stroke-dasharray:7.0,7.0;"/><polygon fill="#181818" points="643.47,942.42,646.1623,932.9463,642.7657,937.4699,638.2421,934.0732,643.47,942.42" style="stroke:#181818;stroke-width:1.0;"/><text fill="#000000" font-family="sans-serif" font-size="13" lengthAdjust="spacing" textLength="54" x="625" y="811.0669">contains</text></g><!--link ExecutionGraph to AccessExecutionGraph--><g id="link_ExecutionGraph_AccessExecutionGraph"><path codeLine="186" d="M1159,568.57 C1159,618.17 1159,721.07 1159,826.74 " fill="none" id="ExecutionGraph-to-AccessExecutionGraph" style="stroke:#181818;stroke-width:1.0;"/><polygon fill="none" points="1159,844.74,1165,826.74,1153,826.74,1159,844.74" style="stroke:#181818;stroke-width:1.0;"/></g><!--link AccessExecutionGraph to AccessExecutionJobVertex--><g id="link_AccessExecutionGraph_AccessExecutionJobVertex"><path codeLine="187" d="M1168.22,1218.26 C1169.54,1244.71 1170.542,1265.0474 1171.732,1288.9774 " fill="none" id="AccessExecutionGraph-to-AccessExecutionJobVertex" style="stroke:#181818;stroke-width:1.0;stroke-dasharray:7.0,7.0;"/><polygon fill="#181818" points="1172.03,1294.97,1175.5781,1285.7824,1171.7817,1289.9762,1167.5879,1286.1798,1172.03,1294.97" style="stroke:#181818;stroke-width:1.0;"/><text fill="#000000" font-family="sans-serif" font-size="13" lengthAdjust="spacing" textLength="54" x="1171" y="1261.0669">contains</text></g><!--link AccessExecutionJobVertex to AccessExecutionVertex--><g id="link_AccessExecutionJobVertex_AccessExecutionVertex"><path codeLine="188" d="M1157.57,1497.1 C1152.69,1522.21 1148.6126,1543.2098 1143.7826,1568.1098 " fill="none" id="AccessExecutionJobVertex-to-AccessExecutionVertex" style="stroke:#181818;stroke-width:1.0;stroke-dasharray:7.0,7.0;"/><polygon fill="#181818" points="1142.64,1574,1148.2806,1565.9264,1143.5921,1569.0915,1140.427,1564.403,1142.64,1574" style="stroke:#181818;stroke-width:1.0;"/><text fill="#000000" font-family="sans-serif" font-size="13" lengthAdjust="spacing" textLength="54" x="1151" y="1540.0669">contains</text></g><!--link AccessExecutionVertex to AccessExecution--><g id="link_AccessExecutionVertex_AccessExecution"><path codeLine="189" d="M1127.51,1768.385 C1128.4,1792.725 1129.1404,1813.256 1130.0804,1838.921 " fill="none" id="AccessExecutionVertex-to-AccessExecution" style="stroke:#181818;stroke-width:1.0;stroke-dasharray:7.0,7.0;"/><polygon fill="#181818" points="1130.3,1844.917,1133.9679,1835.7766,1130.117,1839.9204,1125.9733,1836.0694,1130.3,1844.917" style="stroke:#181818;stroke-width:1.0;"/><text fill="#000000" font-family="sans-serif" font-size="13" lengthAdjust="spacing" textLength="54" x="1130" y="1811.0669">contains</text></g><!--link Execution to Task--><g id="link_Execution_Task"><path codeLine="190" d="M1135,2214.134 C1135,2241.472 1135,2280.683 1135,2307.974 " fill="none" id="Execution-to-Task" style="stroke:#181818;stroke-width:1.0;stroke-dasharray:7.0,7.0;"/><polygon fill="#181818" points="1135,2313.974,1139,2304.974,1135,2308.974,1131,2304.974,1135,2313.974" style="stroke:#181818;stroke-width:1.0;"/><text fill="#000000" font-family="sans-serif" font-size="13" lengthAdjust="spacing" textLength="50" x="1136" y="2259.0669">deploys</text></g><!--link Task to TaskInvokable--><g id="link_Task_TaskInvokable"><path codeLine="191" d="M1141.4,2362.135 C1147.47,2384.126 1154.9612,2411.2289 1161.0312,2433.1849 " fill="none" id="Task-to-TaskInvokable" style="stroke:#181818;stroke-width:1.0;stroke-dasharray:7.0,7.0;"/><polygon fill="#181818" points="1162.63,2438.968,1164.0872,2429.2275,1161.2977,2434.1488,1156.3764,2431.3593,1162.63,2438.968" style="stroke:#181818;stroke-width:1.0;"/><text fill="#000000" font-family="sans-serif" font-size="13" lengthAdjust="spacing" textLength="28" x="1155" y="2405.0669">runs</text></g><!--link JobGraph to AccessExecutionGraph--><g id="link_JobGraph_AccessExecutionGraph"><path codeLine="193" d="M835.808,756.46 C870.455,785.84 901.2667,811.9696 935.3137,840.8396 " fill="none" id="JobGraph-to-AccessExecutionGraph" style="stroke:#181818;stroke-width:1.0;stroke-dasharray:7.0,7.0;"/><polygon fill="#181818" points="939.89,844.72,935.6125,835.8485,936.0764,841.4863,930.4386,841.9502,939.89,844.72" style="stroke:#181818;stroke-width:1.0;"/><text fill="#000000" font-family="sans-serif" font-size="13" lengthAdjust="spacing" textLength="69" x="892" y="811.0669">represents</text></g><!--link JobVertex to AccessExecutionJobVertex--><g id="link_JobVertex_AccessExecutionJobVertex"><path codeLine="194" d="M753.357,1120.68 C790.61,1152.78 834.205,1188.41 876,1218 C913.48,1244.53 949.9809,1267.785 990.0579,1291.705 " fill="none" id="JobVertex-to-AccessExecutionJobVertex" style="stroke:#181818;stroke-width:1.0;stroke-dasharray:7.0,7.0;"/><polygon fill="#181818" points="995.21,1294.78,989.5319,1286.7327,990.9166,1292.2175,985.4318,1293.6022,995.21,1294.78" style="stroke:#181818;stroke-width:1.0;"/><text fill="#000000" font-family="sans-serif" font-size="13" lengthAdjust="spacing" textLength="69" x="940" y="1261.0669">represents</text></g><!--SRC=[hLbRRzis57xtho3wKWT8bM6FNc70SP9LMse7aTjY68g2bcYP2qLg91N7s_hVTqZTI5cotMvzI2EU2y_bupaypDNh4NgDxcbCk289qWBfBK6p7CVmNoGsUeSbGNUYu0dML70qdaLt5mW-YKI24oCj9Ce4SCM2QqdNXOO5Lcf4E9M4P8Hh5I0K4MBLBvQhS7wBDfHP-OIgKWuCs56z1Hwgq4x89xG1LJX9gDaQCqGvB6JM42CeIOfbGdaAM-TxITEjHcB7YLHRciD-A-DAT5SReqh5zRRWwruKbIkErrKmBj57K6HS_Z7u0Os1mGYzggYlBdwoqXdU8ouqAXHfjIFo4fDSWxbWM9OpYdbifIllcZt0njyg9MAjCV1ZwmeI6vSDOGtIHW7yssgTJwwkThjTWAt1WP3fLUtYrJr4TX7TlW6ZAvaFd16b85X_5bH2YDTxX7CmAiPhC9NXdKcWpPFDFnYnan1mdbuYLG6WcwKsPhM5uBdB05737BsQHIYCNg7hMHH6bqR9ft3rRlbXXJxD7XzdYrLu6w7b8vel5pVXAbmkuEiEpHQ_eL_3nSqb8X0ks8UyvD9u06PI4qsI14PNZQRQ18CLywro4jCDZS4rdXOu9IWLpqHoWvESo8mgarK51YP63QCPrHPIwj0liz7LQ3HwRQAk8EmvADL5nW98x5NCi59l4Wh1mzbe1DbuCjlDmKIkqTyZaoxBWo8j2Sv-bZZVLklcdxAh2v40D2VeFSxVXboJbCZBIi2GfYsxA6HCr0GyrpMdGwNyQOZsJAKkC8jeGfQ5pWjjz-nikIfoHdvilqlE5KwdhQ8lNvfVKw9_4Ui5piZu0gm7Wo707UfgdvVKwlU670JDht2ybv0M35LZ70I6-LdGn2L7rkyX8hZT9NsrF-5O4bGLXOsRWGaS2KKanOp-1LYLnC0BCbOMkEhe_I7MmSZ987ZGJL_fOtXJUnZUkAIXo3YkdmWIaD_Z5veLsGEMc372gCei9-MwesGk-8QcXRG-M1vlnUMURqdyb0lG0LWnvrpLkxSKMAs9hcZ8eJ1WLWBy7S5IhmdMAveHKMYhXGaV115-9bRZ8r6GOU9jEKJq53I9kdqXSM6SAJqhDJJKZvWLv6s7fmKkLJTxZZCQMx6r48nWxb0zrs-vAOt90EiipwM0j61DxaMCsIE9JNtP7vFoamwDHKDzAOCGQW0_2Bw511W2UPdsySxKJ4gyhrDLSlx-kM7TK9wKYzTxW6J34jvu4Xv2YsnDv7BZcUD2oxSwOa97Msp0_BCKHLxb4EfDb-8vC1ScIYOd7QaEOTf1T0JdiL3lX7WgHUwXlRprrgS3Xdw0mpq3bpOurgMigNFbCRn4DssRcflsUGkNblsqA_yBbjTCh7ybUsVt1-WUc0FqArAVbCkEzRPbsM9bM6AelC1s1zS4TG0Lft0nih5rgwuxBTPjspwxQ9LfzwjMMx9gZ9nJk81qeWv1jJh1qKLAkKzdqQyup-B9U3mt3etjptk1eKtR6cS-NVQwauGtJXxQnGTCdQxuUn04dz7uuaZeo_YSZ3rkqlGQBfbOFGMZh-rz06ZlCOVVP9K620gHW4wuSiPmxbHJjRwjmvnelqhm1xYj391dCjxIv_wgEa0RE6vjwPmBOQxZ9jQEjYDq3neGJd8D8ICyEUAMqxr03GJrA2_S00aJwGdMWvPiRQc3NXQShgc5CcrFQPpbuuQfhmFUOSeAIK8ONQp6Moa1Yl0rl7s9kcuDxs2bjwJF6FEgkIbyZfhBGIMzFMSbSW7HWqc1iRtVhCxI0zOq7FqzhwEcgsC8Q2RQAk8uLrkXEo3pQ0EQODiYAvW18bmz2WO25X4mDbGDtFa-O7QwhgzBjTUHWxRJafRhFqYifuCtrRwQC46FHueEsctBgTEAm9ZZzuAst1mKcig8urLfe8kqk4g-fvtu6VdFdGLIOyU41odC26vPEcj3O4XJyv00zu7ss3U-swK1mHKKUW_MlMXsq3Aqhxsmk33wTZ2U0IIddGs0gShokMZgTTV7Y0cH0S0dcEIZOcrQOmWpzik9-yK1w_2jrC_KiUJLFQQjspxZznLlruHtr8mnUz-8Qd6efXLIGXuQxfdM9Cjr7voEQvWfHLDEaXhpzTtQQZ9fgAuWzVgvgAaXCqDvbHn81eIF0m2gM-TWkHZJW0GUj40YRyynud2NikNNl3hn0K0rszKFFB40ZrKkk7tw6zhzuWHSVQ1MSQzAMJSTVaKx2wMjpdBCEZLSVJDwLJDl-_t8Sjtov3p6RpaC1vh_bmFKAOhV0-E14V2_LTHw05c-9y0SLnUN-klSupEnZz0mY1QOrINLF8wkOGY5rQhwzWD_36PfcZFp_ckHf52CELeJbC40PDvgIuK3bVZ2dGHRs9idrF95Vk14V7Ld5oVateEcMM_uEmTjPGz5DRVvJEvhg5NXMEE9kUopAbYjpdEahh6Ejzqz3bIDUb9eX4gmbQ61ijCpyd4tfbM9Cf5pdtg3ODfUqYRsZm5cxZUn4gE6K75LMP_OlwDWK3dgNDVUlFbdsdix7FMEaKRjO6bsTXdawL5mKdfOjDSnosYJD449oPdOgv7zhDVRd4-GB43K3rkluvCsNMfqr1qt7gtClm00]--></g></svg>