<?xml version="1.0" encoding="us-ascii" standalone="no"?><svg xmlns="http://www.w3.org/2000/svg" xmlns:xlink="http://www.w3.org/1999/xlink" contentStyleType="text/css" height="3000px" preserveAspectRatio="none" style="width:2917px;height:3000px;background:#FFFFFF;" version="1.1" viewBox="0 0 2917 3000" width="2917px" zoomAndPan="magnify"><defs/><g><!--cluster Client--><g id="cluster_Client"><path d="M8.5,6 L56.5,6 A3.75,3.75 0 0 1 59,8.5 L66,28.2969 L1179.5,28.2969 A2.5,2.5 0 0 1 1182,30.7969 L1182,1406 A2.5,2.5 0 0 1 1179.5,1408.5 L8.5,1408.5 A2.5,2.5 0 0 1 6,1406 L6,8.5 A2.5,2.5 0 0 1 8.5,6 " fill="none" style="stroke:#000000;stroke-width:1.5;"/><line style="stroke:#000000;stroke-width:1.5;" x1="6" x2="66" y1="28.2969" y2="28.2969"/><text fill="#000000" font-family="sans-serif" font-size="14" font-weight="bold" lengthAdjust="spacing" textLength="47" x="10" y="20.9951">Client</text></g><!--cluster JobManager--><g id="cluster_JobManager"><path d="M1208.5,757.5 L1304.5,757.5 A3.75,3.75 0 0 1 1307,760 L1314,779.7969 L2907.5,779.7969 A2.5,2.5 0 0 1 2910,782.2969 L2910,2499.5 A2.5,2.5 0 0 1 2907.5,2502 L1208.5,2502 A2.5,2.5 0 0 1 1206,2499.5 L1206,760 A2.5,2.5 0 0 1 1208.5,757.5 " fill="none" style="stroke:#000000;stroke-width:1.5;"/><line style="stroke:#000000;stroke-width:1.5;" x1="1206" x2="1314" y1="779.7969" y2="779.7969"/><text fill="#000000" font-family="sans-serif" font-size="14" font-weight="bold" lengthAdjust="spacing" textLength="95" x="1210" y="772.4951">JobManager</text></g><!--cluster TaskManager--><g id="cluster_TaskManager"><path d="M1418.5,2551 L1528.5,2551 A3.75,3.75 0 0 1 1531,2553.5 L1538,2573.2969 L1914.5,2573.2969 A2.5,2.5 0 0 1 1917,2575.7969 L1917,2990.5 A2.5,2.5 0 0 1 1914.5,2993 L1418.5,2993 A2.5,2.5 0 0 1 1416,2990.5 L1416,2553.5 A2.5,2.5 0 0 1 1418.5,2551 " fill="none" style="stroke:#000000;stroke-width:1.5;"/><line style="stroke:#000000;stroke-width:1.5;" x1="1416" x2="1538" y1="2573.2969" y2="2573.2969"/><text fill="#000000" font-family="sans-serif" font-size="14" font-weight="bold" lengthAdjust="spacing" textLength="109" x="1420" y="2565.9951">TaskManager</text></g><!--class StreamGraph--><g id="elem_StreamGraph"><rect codeLine="23" fill="#F1F1F1" height="202.6719" id="StreamGraph" rx="2.5" ry="2.5" style="stroke:#181818;stroke-width:0.5;" width="513" x="382.5" y="41"/><ellipse cx="586.25" cy="57" fill="#ADD1B2" rx="11" ry="11" style="stroke:#181818;stroke-width:1.0;"/><path d="M588.5938,52.6719 C587.6563,52.2344 587.0625,52.0938 586.1875,52.0938 C583.5625,52.0938 581.5625,54.1719 581.5625,56.8906 L581.5625,58.0156 C581.5625,60.5938 583.6719,62.4844 586.5625,62.4844 C587.7813,62.4844 588.9375,62.1875 589.6875,61.6406 C590.2656,61.2344 590.5938,60.7813 590.5938,60.3906 C590.5938,59.9375 590.2031,59.5469 589.7344,59.5469 C589.5156,59.5469 589.3125,59.625 589.125,59.8125 C588.6719,60.2969 588.6719,60.2969 588.4844,60.3906 C588.0625,60.6563 587.375,60.7813 586.6094,60.7813 C584.5625,60.7813 583.2656,59.6875 583.2656,57.9844 L583.2656,56.8906 C583.2656,55.1094 584.5156,53.7969 586.25,53.7969 C586.8281,53.7969 587.4375,53.9531 587.9063,54.2031 C588.3906,54.4844 588.5625,54.7031 588.6563,55.1094 C588.7188,55.5156 588.75,55.6406 588.8906,55.7656 C589.0313,55.9063 589.2656,56.0156 589.4844,56.0156 C589.75,56.0156 590.0156,55.875 590.1875,55.6563 C590.2969,55.5 590.3281,55.3125 590.3281,54.8906 L590.3281,53.4688 C590.3281,53.0313 590.3125,52.9063 590.2188,52.75 C590.0625,52.4844 589.7813,52.3438 589.4844,52.3438 C589.1875,52.3438 588.9844,52.4375 588.7656,52.75 L588.5938,52.6719 Z " fill="#000000"/><text fill="#000000" font-family="sans-serif" font-size="14" lengthAdjust="spacing" textLength="97" x="606.75" y="61.8467">StreamGraph</text><line style="stroke:#181818;stroke-width:0.5;" x1="383.5" x2="894.5" y1="73" y2="73"/><text fill="#000000" font-family="sans-serif" font-size="14" lengthAdjust="spacing" textLength="311" x="388.5" y="89.9951">streamNodes : Map&lt;Integer, StreamNode&gt;</text><text fill="#000000" font-family="sans-serif" font-size="14" lengthAdjust="spacing" textLength="163" x="388.5" y="106.292">sources: Set&lt;Integer&gt;</text><text fill="#000000" font-family="sans-serif" font-size="14" lengthAdjust="spacing" textLength="145" x="388.5" y="122.5889">sinks: Set&lt;Integer&gt;</text><text fill="#000000" font-family="sans-serif" font-size="14" lengthAdjust="spacing" textLength="501" x="388.5" y="138.8857">virtualSideOutputNodes: Map&lt;Integer, Tuple2&lt;Integer, OutputTag&gt;&gt;</text><line style="stroke:#181818;stroke-width:0.5;" x1="383.5" x2="894.5" y1="146.1875" y2="146.1875"/><text fill="#000000" font-family="sans-serif" font-size="14" lengthAdjust="spacing" textLength="156" x="388.5" y="163.1826">getJobName() : String</text><text fill="#000000" font-family="sans-serif" font-size="14" lengthAdjust="spacing" textLength="166" x="388.5" y="179.4795">getJobType() : JobType</text><line style="stroke:#181818;stroke-width:1.0;stroke-dasharray:1.0,2.0;" x1="383.5" x2="894.5" y1="186.7813" y2="186.7813"/><text fill="#000000" font-family="sans-serif" font-size="14" lengthAdjust="spacing" textLength="155" x="388.5" y="203.7764">addOperator(..) : void</text><text fill="#000000" font-family="sans-serif" font-size="14" lengthAdjust="spacing" textLength="138" x="388.5" y="220.0732">addSource(..) : void</text><text fill="#000000" font-family="sans-serif" font-size="14" lengthAdjust="spacing" textLength="120" x="388.5" y="236.3701">addSink(..) : void</text></g><g id="elem_GMN4"><path d="M82.5,130 L82.5,155.1328 A0,0 0 0 0 82.5,155.1328 L347.5,155.1328 A0,0 0 0 0 347.5,155.1328 L347.5,148 L382.31,142.5 L347.5,140 L347.5,140 L337.5,130 L82.5,130 A0,0 0 0 0 82.5,130 " fill="#FEFFDD" style="stroke:#181818;stroke-width:0.5;"/><path d="M337.5,130 L337.5,140 L347.5,140 L337.5,130 " fill="#FEFFDD" style="stroke:#181818;stroke-width:0.5;"/><text fill="#000000" font-family="sans-serif" font-size="13" lengthAdjust="spacing" textLength="244" x="88.5" y="147.0669">Unserialized representation of the job.</text></g><!--class StreamNode--><g id="elem_StreamNode"><rect codeLine="38" fill="#F1F1F1" height="292.1563" id="StreamNode" rx="2.5" ry="2.5" style="stroke:#181818;stroke-width:0.5;" width="316" x="850" y="670.5"/><ellipse cx="958.75" cy="686.5" fill="#ADD1B2" rx="11" ry="11" style="stroke:#181818;stroke-width:1.0;"/><path d="M961.0938,682.1719 C960.1563,681.7344 959.5625,681.5938 958.6875,681.5938 C956.0625,681.5938 954.0625,683.6719 954.0625,686.3906 L954.0625,687.5156 C954.0625,690.0938 956.1719,691.9844 959.0625,691.9844 C960.2813,691.9844 961.4375,691.6875 962.1875,691.1406 C962.7656,690.7344 963.0938,690.2813 963.0938,689.8906 C963.0938,689.4375 962.7031,689.0469 962.2344,689.0469 C962.0156,689.0469 961.8125,689.125 961.625,689.3125 C961.1719,689.7969 961.1719,689.7969 960.9844,689.8906 C960.5625,690.1563 959.875,690.2813 959.1094,690.2813 C957.0625,690.2813 955.7656,689.1875 955.7656,687.4844 L955.7656,686.3906 C955.7656,684.6094 957.0156,683.2969 958.75,683.2969 C959.3281,683.2969 959.9375,683.4531 960.4063,683.7031 C960.8906,683.9844 961.0625,684.2031 961.1563,684.6094 C961.2188,685.0156 961.25,685.1406 961.3906,685.2656 C961.5313,685.4063 961.7656,685.5156 961.9844,685.5156 C962.25,685.5156 962.5156,685.375 962.6875,685.1563 C962.7969,685 962.8281,684.8125 962.8281,684.3906 L962.8281,682.9688 C962.8281,682.5313 962.8125,682.4063 962.7188,682.25 C962.5625,681.9844 962.2813,681.8438 961.9844,681.8438 C961.6875,681.8438 961.4844,681.9375 961.2656,682.25 L961.0938,682.1719 Z " fill="#000000"/><text fill="#000000" font-family="sans-serif" font-size="14" lengthAdjust="spacing" textLength="90" x="979.25" y="691.3467">StreamNode</text><line style="stroke:#181818;stroke-width:0.5;" x1="851" x2="1165" y1="702.5" y2="702.5"/><text fill="#000000" font-family="sans-serif" font-size="14" lengthAdjust="spacing" textLength="46" x="856" y="719.4951">id : int</text><text fill="#000000" font-family="sans-serif" font-size="14" lengthAdjust="spacing" textLength="199" x="856" y="735.792">transformationUUID : String</text><text fill="#000000" font-family="sans-serif" font-size="14" lengthAdjust="spacing" textLength="121" x="856" y="752.0889">userHash : String</text><line style="stroke:#181818;stroke-width:1.0;stroke-dasharray:1.0,2.0;" x1="851" x2="1165" y1="759.3906" y2="759.3906"/><text fill="#000000" font-family="sans-serif" font-size="14" lengthAdjust="spacing" textLength="215" x="856" y="776.3857">minResources : ResourceSpec</text><text fill="#000000" font-family="sans-serif" font-size="14" lengthAdjust="spacing" textLength="249" x="856" y="792.6826">preferredResources ResourceSpec</text><line style="stroke:#181818;stroke-width:1.0;stroke-dasharray:1.0,2.0;" x1="851" x2="1165" y1="799.9844" y2="799.9844"/><text fill="#000000" font-family="sans-serif" font-size="14" lengthAdjust="spacing" textLength="182" x="856" y="816.9795">slotSharingGroup : String</text><text fill="#000000" font-family="sans-serif" font-size="14" lengthAdjust="spacing" textLength="180" x="856" y="833.2764">coLocationGroup : String</text><line style="stroke:#181818;stroke-width:1.0;stroke-dasharray:1.0,2.0;" x1="851" x2="1165" y1="840.5781" y2="840.5781"/><text fill="#000000" font-family="sans-serif" font-size="14" lengthAdjust="spacing" textLength="304" x="856" y="857.5732">operatorFactory : StreamOperatorFactory</text><text fill="#000000" font-family="sans-serif" font-size="14" lengthAdjust="spacing" textLength="259" x="856" y="873.8701">typeSerializerIn : TypeSerializer&lt;?&gt;</text><text fill="#000000" font-family="sans-serif" font-size="14" lengthAdjust="spacing" textLength="272" x="856" y="890.167">typeSerializerOut : TypeSerializer&lt;?&gt;</text><text fill="#000000" font-family="sans-serif" font-size="14" lengthAdjust="spacing" textLength="206" x="856" y="906.4639">inEdges : List&lt;StreamEdge&gt;</text><text fill="#000000" font-family="sans-serif" font-size="14" lengthAdjust="spacing" textLength="210" x="856" y="922.7607">outEdge : List&lt;StreamEdge&gt;</text><text fill="#000000" font-family="sans-serif" font-size="14" lengthAdjust="spacing" textLength="193" x="856" y="939.0576">inputFormat : InputFormat</text><text fill="#000000" font-family="sans-serif" font-size="14" lengthAdjust="spacing" textLength="217" x="856" y="955.3545">outputFormat : OutputFormat</text></g><!--class StreamEdge--><g id="elem_StreamEdge"><rect codeLine="58" fill="#F1F1F1" height="194.6719" id="StreamEdge" rx="2.5" ry="2.5" style="stroke:#181818;stroke-width:0.5;" width="435" x="730.5" y="321"/><ellipse cx="899.25" cy="337" fill="#ADD1B2" rx="11" ry="11" style="stroke:#181818;stroke-width:1.0;"/><path d="M901.5938,332.6719 C900.6563,332.2344 900.0625,332.0938 899.1875,332.0938 C896.5625,332.0938 894.5625,334.1719 894.5625,336.8906 L894.5625,338.0156 C894.5625,340.5938 896.6719,342.4844 899.5625,342.4844 C900.7813,342.4844 901.9375,342.1875 902.6875,341.6406 C903.2656,341.2344 903.5938,340.7813 903.5938,340.3906 C903.5938,339.9375 903.2031,339.5469 902.7344,339.5469 C902.5156,339.5469 902.3125,339.625 902.125,339.8125 C901.6719,340.2969 901.6719,340.2969 901.4844,340.3906 C901.0625,340.6563 900.375,340.7813 899.6094,340.7813 C897.5625,340.7813 896.2656,339.6875 896.2656,337.9844 L896.2656,336.8906 C896.2656,335.1094 897.5156,333.7969 899.25,333.7969 C899.8281,333.7969 900.4375,333.9531 900.9063,334.2031 C901.3906,334.4844 901.5625,334.7031 901.6563,335.1094 C901.7188,335.5156 901.75,335.6406 901.8906,335.7656 C902.0313,335.9063 902.2656,336.0156 902.4844,336.0156 C902.75,336.0156 903.0156,335.875 903.1875,335.6563 C903.2969,335.5 903.3281,335.3125 903.3281,334.8906 L903.3281,333.4688 C903.3281,333.0313 903.3125,332.9063 903.2188,332.75 C903.0625,332.4844 902.7813,332.3438 902.4844,332.3438 C902.1875,332.3438 901.9844,332.4375 901.7656,332.75 L901.5938,332.6719 Z " fill="#000000"/><text fill="#000000" font-family="sans-serif" font-size="14" lengthAdjust="spacing" textLength="89" x="919.75" y="341.8467">StreamEdge</text><line style="stroke:#181818;stroke-width:0.5;" x1="731.5" x2="1164.5" y1="353" y2="353"/><text fill="#000000" font-family="sans-serif" font-size="14" lengthAdjust="spacing" textLength="106" x="736.5" y="369.9951">edgeId : String</text><text fill="#000000" font-family="sans-serif" font-size="14" lengthAdjust="spacing" textLength="93" x="736.5" y="386.292">sourceId : int</text><text fill="#000000" font-family="sans-serif" font-size="14" lengthAdjust="spacing" textLength="211" x="736.5" y="402.5889">sourceOperatorName : String</text><text fill="#000000" font-family="sans-serif" font-size="14" lengthAdjust="spacing" textLength="92" x="736.5" y="418.8857">targetId : int</text><text fill="#000000" font-family="sans-serif" font-size="14" lengthAdjust="spacing" textLength="210" x="736.5" y="435.1826">targetOperatorName : String</text><text fill="#000000" font-family="sans-serif" font-size="14" lengthAdjust="spacing" textLength="165" x="736.5" y="451.4795">outputTag : OutputTag</text><text fill="#000000" font-family="sans-serif" font-size="14" lengthAdjust="spacing" textLength="271" x="736.5" y="467.7764">outputPartitioner : StreamPartitioner</text><text fill="#000000" font-family="sans-serif" font-size="14" lengthAdjust="spacing" textLength="282" x="736.5" y="484.0732">exchangeMode : StreamExchangeMode</text><text fill="#000000" font-family="sans-serif" font-size="14" lengthAdjust="spacing" textLength="423" x="736.5" y="500.3701">intermediateDatasetIdToProduce : IntermediateDataSetID</text><line style="stroke:#181818;stroke-width:0.5;" x1="731.5" x2="1164.5" y1="507.6719" y2="507.6719"/></g><!--class JobGraph--><g id="elem_JobGraph"><rect codeLine="70" fill="#F1F1F1" height="446.8281" id="JobGraph" rx="2.5" ry="2.5" style="stroke:#181818;stroke-width:0.5;" width="497" x="317.5" y="593"/><ellipse cx="528.25" cy="609" fill="#ADD1B2" rx="11" ry="11" style="stroke:#181818;stroke-width:1.0;"/><path d="M530.5938,604.6719 C529.6563,604.2344 529.0625,604.0938 528.1875,604.0938 C525.5625,604.0938 523.5625,606.1719 523.5625,608.8906 L523.5625,610.0156 C523.5625,612.5938 525.6719,614.4844 528.5625,614.4844 C529.7813,614.4844 530.9375,614.1875 531.6875,613.6406 C532.2656,613.2344 532.5938,612.7813 532.5938,612.3906 C532.5938,611.9375 532.2031,611.5469 531.7344,611.5469 C531.5156,611.5469 531.3125,611.625 531.125,611.8125 C530.6719,612.2969 530.6719,612.2969 530.4844,612.3906 C530.0625,612.6563 529.375,612.7813 528.6094,612.7813 C526.5625,612.7813 525.2656,611.6875 525.2656,609.9844 L525.2656,608.8906 C525.2656,607.1094 526.5156,605.7969 528.25,605.7969 C528.8281,605.7969 529.4375,605.9531 529.9063,606.2031 C530.3906,606.4844 530.5625,606.7031 530.6563,607.1094 C530.7188,607.5156 530.75,607.6406 530.8906,607.7656 C531.0313,607.9063 531.2656,608.0156 531.4844,608.0156 C531.75,608.0156 532.0156,607.875 532.1875,607.6563 C532.2969,607.5 532.3281,607.3125 532.3281,606.8906 L532.3281,605.4688 C532.3281,605.0313 532.3125,604.9063 532.2188,604.75 C532.0625,604.4844 531.7813,604.3438 531.4844,604.3438 C531.1875,604.3438 530.9844,604.4375 530.7656,604.75 L530.5938,604.6719 Z " fill="#000000"/><text fill="#000000" font-family="sans-serif" font-size="14" lengthAdjust="spacing" textLength="67" x="548.75" y="613.8467">JobGraph</text><line style="stroke:#181818;stroke-width:0.5;" x1="318.5" x2="813.5" y1="625" y2="625"/><text fill="#000000" font-family="sans-serif" font-size="14" lengthAdjust="spacing" textLength="124" x="323.5" y="641.9951">getJobID() : JobID</text><text fill="#000000" font-family="sans-serif" font-size="14" lengthAdjust="spacing" textLength="133" x="323.5" y="658.292">getName() : String</text><line style="stroke:#181818;stroke-width:1.0;stroke-dasharray:1.0,2.0;" x1="318.5" x2="813.5" y1="665.5938" y2="665.5938"/><text fill="#000000" font-family="sans-serif" font-size="14" lengthAdjust="spacing" textLength="166" x="323.5" y="682.5889">getJobType() : JobType</text><text fill="#000000" font-family="sans-serif" font-size="14" lengthAdjust="spacing" textLength="213" x="323.5" y="698.8857">getMaximumParallelism() : int</text><text fill="#000000" font-family="sans-serif" font-size="14" lengthAdjust="spacing" textLength="267" x="323.5" y="715.1826">getJobConfiguration() : Configuration</text><text fill="#000000" font-family="sans-serif" font-size="14" lengthAdjust="spacing" textLength="383" x="323.5" y="731.4795">getCheckpointSettings() : JobCheckpointingSettings</text><text fill="#000000" font-family="sans-serif" font-size="14" lengthAdjust="spacing" textLength="296" x="323.5" y="747.7764">getInitialClientHeartbeatTimeout() : long</text><text fill="#000000" font-family="sans-serif" font-size="14" lengthAdjust="spacing" textLength="430" x="323.5" y="764.0732">getSavepointRestoreSettings() : SavepointRestoreSettings</text><text fill="#000000" font-family="sans-serif" font-size="14" lengthAdjust="spacing" textLength="485" x="323.5" y="780.3701">getSerializedExecutionConfig() : SerializedValue&lt;ExecutionConfig&gt;</text><text fill="#000000" font-family="sans-serif" font-size="14" lengthAdjust="spacing" textLength="154" x="323.5" y="796.667">isDynamic() : boolean</text><text fill="#000000" font-family="sans-serif" font-size="14" lengthAdjust="spacing" textLength="256" x="323.5" y="812.9639">isCheckpointingEnabled() : boolean</text><text fill="#000000" font-family="sans-serif" font-size="14" lengthAdjust="spacing" textLength="349" x="323.5" y="829.2607">isApproximateLocalRecoveryEnabled() : boolean</text><line style="stroke:#181818;stroke-width:1.0;stroke-dasharray:1.0,2.0;" x1="318.5" x2="813.5" y1="836.5625" y2="836.5625"/><text fill="#000000" font-family="sans-serif" font-size="14" lengthAdjust="spacing" textLength="259" x="323.5" y="853.5576">getVertices() : Iterable&lt;JobVertex&gt;</text><text fill="#000000" font-family="sans-serif" font-size="14" lengthAdjust="spacing" textLength="245" x="323.5" y="869.8545">getVerticesAsArray() : JobVertex[]</text><text fill="#000000" font-family="sans-serif" font-size="14" lengthAdjust="spacing" textLength="292" x="323.5" y="886.1514">findVertexByID(JobVertexID) : JobVertex</text><text fill="#000000" font-family="sans-serif" font-size="14" lengthAdjust="spacing" textLength="202" x="323.5" y="902.4482">getNumberOfVertices() : int</text><line style="stroke:#181818;stroke-width:1.0;stroke-dasharray:1.0,2.0;" x1="318.5" x2="813.5" y1="909.75" y2="909.75"/><text fill="#000000" font-family="sans-serif" font-size="14" lengthAdjust="spacing" textLength="356" x="323.5" y="926.7451">getSlotSharingGroups() : Set&lt;SlotSharingGroup&gt;</text><text fill="#000000" font-family="sans-serif" font-size="14" lengthAdjust="spacing" textLength="352" x="323.5" y="943.042">getCoLocationGroups() : Set&lt;CoLocationGroup&gt;</text><text fill="#000000" font-family="sans-serif" font-size="14" lengthAdjust="spacing" textLength="315" x="323.5" y="959.3389">getJobStatusHooks() : List&lt;JobStatusHook&gt;</text><line style="stroke:#181818;stroke-width:1.0;stroke-dasharray:1.0,2.0;" x1="318.5" x2="813.5" y1="966.6406" y2="966.6406"/><text fill="#000000" font-family="sans-serif" font-size="14" lengthAdjust="spacing" textLength="411" x="323.5" y="983.6357">getUserArtifacts() : Map&lt;String, DistributedCacheEntry&gt;</text><text fill="#000000" font-family="sans-serif" font-size="14" lengthAdjust="spacing" textLength="352" x="323.5" y="999.9326">getUserJarBlobKeys() : List&lt;PermanentBlobKey&gt;</text><text fill="#000000" font-family="sans-serif" font-size="14" lengthAdjust="spacing" textLength="185" x="323.5" y="1016.2295">getUserJars() : List&lt;Path&gt;</text><text fill="#000000" font-family="sans-serif" font-size="14" lengthAdjust="spacing" textLength="221" x="323.5" y="1032.5264">hasUsercodeJarFiles() : boolean</text></g><g id="elem_GMN10"><path d="M22,804 L22,829.1328 A0,0 0 0 0 22,829.1328 L282,829.1328 A0,0 0 0 0 282,829.1328 L282,822 L317.383,816.5 L282,814 L282,814 L272,804 L22,804 A0,0 0 0 0 22,804 " fill="#FEFFDD" style="stroke:#181818;stroke-width:0.5;"/><path d="M272,804 L272,814 L282,814 L272,804 " fill="#FEFFDD" style="stroke:#181818;stroke-width:0.5;"/><text fill="#000000" font-family="sans-serif" font-size="13" lengthAdjust="spacing" textLength="239" x="28" y="821.0669">Serializable representation of the job.</text></g><!--class JobVertex--><g id="elem_JobVertex"><rect codeLine="101" fill="#F1F1F1" height="178.375" id="JobVertex" rx="2.5" ry="2.5" style="stroke:#181818;stroke-width:0.5;" width="314" x="741" y="1214.5"/><ellipse cx="857.75" cy="1230.5" fill="#ADD1B2" rx="11" ry="11" style="stroke:#181818;stroke-width:1.0;"/><path d="M860.0938,1226.1719 C859.1563,1225.7344 858.5625,1225.5938 857.6875,1225.5938 C855.0625,1225.5938 853.0625,1227.6719 853.0625,1230.3906 L853.0625,1231.5156 C853.0625,1234.0938 855.1719,1235.9844 858.0625,1235.9844 C859.2813,1235.9844 860.4375,1235.6875 861.1875,1235.1406 C861.7656,1234.7344 862.0938,1234.2813 862.0938,1233.8906 C862.0938,1233.4375 861.7031,1233.0469 861.2344,1233.0469 C861.0156,1233.0469 860.8125,1233.125 860.625,1233.3125 C860.1719,1233.7969 860.1719,1233.7969 859.9844,1233.8906 C859.5625,1234.1563 858.875,1234.2813 858.1094,1234.2813 C856.0625,1234.2813 854.7656,1233.1875 854.7656,1231.4844 L854.7656,1230.3906 C854.7656,1228.6094 856.0156,1227.2969 857.75,1227.2969 C858.3281,1227.2969 858.9375,1227.4531 859.4063,1227.7031 C859.8906,1227.9844 860.0625,1228.2031 860.1563,1228.6094 C860.2188,1229.0156 860.25,1229.1406 860.3906,1229.2656 C860.5313,1229.4063 860.7656,1229.5156 860.9844,1229.5156 C861.25,1229.5156 861.5156,1229.375 861.6875,1229.1563 C861.7969,1229 861.8281,1228.8125 861.8281,1228.3906 L861.8281,1226.9688 C861.8281,1226.5313 861.8125,1226.4063 861.7188,1226.25 C861.5625,1225.9844 861.2813,1225.8438 860.9844,1225.8438 C860.6875,1225.8438 860.4844,1225.9375 860.2656,1226.25 L860.0938,1226.1719 Z " fill="#000000"/><text fill="#000000" font-family="sans-serif" font-size="14" lengthAdjust="spacing" textLength="72" x="878.25" y="1235.3467">JobVertex</text><line style="stroke:#181818;stroke-width:0.5;" x1="742" x2="1054" y1="1246.5" y2="1246.5"/><line style="stroke:#181818;stroke-width:0.5;" x1="742" x2="1054" y1="1254.5" y2="1254.5"/><text fill="#000000" font-family="sans-serif" font-size="14" lengthAdjust="spacing" textLength="150" x="747" y="1271.4951">getID() : JobVertexID</text><text fill="#000000" font-family="sans-serif" font-size="14" lengthAdjust="spacing" textLength="133" x="747" y="1287.792">getName() : String</text><text fill="#000000" font-family="sans-serif" font-size="14" lengthAdjust="spacing" textLength="145" x="747" y="1304.0889">getParallelism() : int</text><text fill="#000000" font-family="sans-serif" font-size="14" lengthAdjust="spacing" textLength="173" x="747" y="1320.3857">getMaxParallelism() : int</text><text fill="#000000" font-family="sans-serif" font-size="14" lengthAdjust="spacing" textLength="302" x="747" y="1336.6826">getSlotSharingGroup() : SlotSharingGroup</text><text fill="#000000" font-family="sans-serif" font-size="14" lengthAdjust="spacing" textLength="275" x="747" y="1352.9795">getInvokableClass(ClassLoader) : Class</text><text fill="#000000" font-family="sans-serif" font-size="14" lengthAdjust="spacing" textLength="292" x="747" y="1369.2764">getOperatorIDs() : List&lt;OperatorIDPair&gt;</text><text fill="#000000" font-family="sans-serif" font-size="14" lengthAdjust="spacing" textLength="39" x="747" y="1385.5732">[...] ()</text></g><g id="elem_GMN14"><path d="M378,1291 L378,1316.1328 A0,0 0 0 0 378,1316.1328 L706,1316.1328 A0,0 0 0 0 706,1316.1328 L706,1309 L740.952,1303.5 L706,1301 L706,1301 L696,1291 L378,1291 A0,0 0 0 0 378,1291 " fill="#FEFFDD" style="stroke:#181818;stroke-width:0.5;"/><path d="M696,1291 L696,1301 L706,1301 L696,1291 " fill="#FEFFDD" style="stroke:#181818;stroke-width:0.5;"/><text fill="#000000" font-family="sans-serif" font-size="13" lengthAdjust="spacing" textLength="307" x="384" y="1308.0669">Serializable representation of a JobGraph's task.</text></g><!--class AccessExecutionGraph--><g id="elem_AccessExecutionGraph"><rect codeLine="115" fill="#F1F1F1" height="373.3438" id="AccessExecutionGraph" rx="2.5" ry="2.5" style="stroke:#181818;stroke-width:0.5;" width="499" x="1239.5" y="1117"/><ellipse cx="1403.25" cy="1133" fill="#B4A7E5" rx="11" ry="11" style="stroke:#181818;stroke-width:1.0;"/><path d="M1404.2031,1129.7813 L1405.9219,1129.7813 C1406.3125,1129.7813 1406.5,1129.75 1406.625,1129.6719 C1406.8906,1129.5156 1407.0313,1129.2344 1407.0313,1128.9375 C1407.0313,1128.6719 1406.9219,1128.4063 1406.6875,1128.2344 C1406.5156,1128.125 1406.375,1128.0938 1405.9219,1128.0938 L1400.7813,1128.0938 C1400.3438,1128.0938 1400.2188,1128.1094 1400.0625,1128.2031 C1399.8125,1128.3594 1399.6563,1128.6563 1399.6563,1128.9375 C1399.6563,1129.2188 1399.7969,1129.4688 1400.0156,1129.6406 C1400.1719,1129.75 1400.3594,1129.7813 1400.7813,1129.7813 L1402.5,1129.7813 L1402.5,1136.2969 L1400.7813,1136.2969 C1400.3438,1136.2969 1400.2188,1136.3125 1400.0625,1136.4219 C1399.8125,1136.5781 1399.6563,1136.8594 1399.6563,1137.1563 C1399.6563,1137.4063 1399.7969,1137.6719 1400.0156,1137.8281 C1400.1719,1137.9531 1400.375,1138 1400.7813,1138 L1405.9219,1138 C1406.6719,1138 1407.0313,1137.7188 1407.0313,1137.1563 C1407.0313,1136.875 1406.9219,1136.625 1406.6875,1136.4531 C1406.5156,1136.3281 1406.375,1136.2969 1405.9219,1136.2969 L1404.2031,1136.2969 L1404.2031,1129.7813 Z " fill="#000000"/><text fill="#000000" font-family="sans-serif" font-size="14" font-style="italic" lengthAdjust="spacing" textLength="163" x="1423.75" y="1137.8467">AccessExecutionGraph</text><line style="stroke:#181818;stroke-width:0.5;" x1="1240.5" x2="1737.5" y1="1149" y2="1149"/><text fill="#000000" font-family="sans-serif" font-size="14" lengthAdjust="spacing" textLength="124" x="1245.5" y="1165.9951">getJobID() : JobID</text><text fill="#000000" font-family="sans-serif" font-size="14" lengthAdjust="spacing" textLength="156" x="1245.5" y="1182.292">getJobName() : String</text><text fill="#000000" font-family="sans-serif" font-size="14" lengthAdjust="spacing" textLength="151" x="1245.5" y="1198.5889">getJsonPlan() : String</text><text fill="#000000" font-family="sans-serif" font-size="14" lengthAdjust="spacing" textLength="410" x="1245.5" y="1214.8857">getArchivedExecutionConfig() : ArchivedExecutionConfig</text><line style="stroke:#181818;stroke-width:1.0;stroke-dasharray:1.0,2.0;" x1="1240.5" x2="1737.5" y1="1222.1875" y2="1222.1875"/><text fill="#000000" font-family="sans-serif" font-size="14" lengthAdjust="spacing" textLength="482" x="1245.5" y="1239.1826">getCheckpointCoordinatorConfig() : CheckpointCoordinatorConfig</text><text fill="#000000" font-family="sans-serif" font-size="14" lengthAdjust="spacing" textLength="235" x="1245.5" y="1255.4795">getStateBackendName() : String</text><text fill="#000000" font-family="sans-serif" font-size="14" lengthAdjust="spacing" textLength="274" x="1245.5" y="1271.7764">getCheckpointStorageName() : String</text><text fill="#000000" font-family="sans-serif" font-size="14" lengthAdjust="spacing" textLength="266" x="1245.5" y="1288.0732">getChangelogStorageName() : String</text><line style="stroke:#181818;stroke-width:1.0;stroke-dasharray:1.0,2.0;" x1="1240.5" x2="1737.5" y1="1295.375" y2="1295.375"/><text fill="#000000" font-family="sans-serif" font-size="14" lengthAdjust="spacing" textLength="180" x="1245.5" y="1312.3701">getJobState() : JobStatus</text><text fill="#000000" font-family="sans-serif" font-size="14" lengthAdjust="spacing" textLength="276" x="1245.5" y="1328.667">getStatusTimestamp(JobStatus) : long</text><text fill="#000000" font-family="sans-serif" font-size="14" lengthAdjust="spacing" textLength="187" x="1245.5" y="1344.9639">getFailureInfo() : ErrorInfo</text><line style="stroke:#181818;stroke-width:1.0;stroke-dasharray:1.0,2.0;" x1="1240.5" x2="1737.5" y1="1352.2656" y2="1352.2656"/><text fill="#000000" font-family="sans-serif" font-size="14" lengthAdjust="spacing" textLength="399" x="1245.5" y="1369.2607">getJobVertex(JobVertexID) : AccessExecutionJobVertex</text><text fill="#000000" font-family="sans-serif" font-size="14" lengthAdjust="spacing" textLength="465" x="1245.5" y="1385.5576">getAllVertices() : Map&lt;JobVertexID, AccessExecutionJobVertex&gt;</text><text fill="#000000" font-family="sans-serif" font-size="14" lengthAdjust="spacing" textLength="474" x="1245.5" y="1401.8545">getVerticesTopologically() : Iterable&lt;AccessExecutionJobVertex&gt;</text><text fill="#000000" font-family="sans-serif" font-size="14" lengthAdjust="spacing" textLength="445" x="1245.5" y="1418.1514">getAllExecutionVertices() : Iterable&lt;AccessExecutionVertex&gt;</text><line style="stroke:#181818;stroke-width:1.0;stroke-dasharray:1.0,2.0;" x1="1240.5" x2="1737.5" y1="1425.4531" y2="1425.4531"/><text fill="#000000" font-family="sans-serif" font-size="14" lengthAdjust="spacing" textLength="428" x="1245.5" y="1442.4482">getCheckpointStatsSnapshot() : CheckpointStatsSnapshot</text><line style="stroke:#181818;stroke-width:1.0;stroke-dasharray:1.0,2.0;" x1="1240.5" x2="1737.5" y1="1449.75" y2="1449.75"/><text fill="#000000" font-family="sans-serif" font-size="14" lengthAdjust="spacing" textLength="487" x="1245.5" y="1466.7451">getAccumulatorResultsStringified() : StringifiedAccumulatorResult[]</text><text fill="#000000" font-family="sans-serif" font-size="14" lengthAdjust="spacing" textLength="438" x="1245.5" y="1483.042">getAccumulatorsSerialized() : Map&lt;String, SerializedObject&gt;</text></g><g id="elem_GMN19"><path d="M1773.5,1291 L1773.5,1299.5 L1738.54,1303.5 L1773.5,1307.5 L1773.5,1316.1328 A0,0 0 0 0 1773.5,1316.1328 L2140.5,1316.1328 A0,0 0 0 0 2140.5,1316.1328 L2140.5,1301 L2130.5,1291 L1773.5,1291 A0,0 0 0 0 1773.5,1291 " fill="#FEFFDD" style="stroke:#181818;stroke-width:0.5;"/><path d="M2130.5,1291 L2130.5,1301 L2140.5,1301 L2130.5,1291 " fill="#FEFFDD" style="stroke:#181818;stroke-width:0.5;"/><text fill="#000000" font-family="sans-serif" font-size="13" lengthAdjust="spacing" textLength="346" x="1779.5" y="1308.0669">Representation of a JobGraph while executing the job.</text></g><!--class ExecutionGraph--><g id="elem_ExecutionGraph"><rect codeLine="142" fill="#F1F1F1" height="48" id="ExecutionGraph" rx="2.5" ry="2.5" style="stroke:#181818;stroke-width:0.5;" width="146" x="1416" y="792.5"/><ellipse cx="1431" cy="808.5" fill="#B4A7E5" rx="11" ry="11" style="stroke:#181818;stroke-width:1.0;"/><path d="M1431.9531,805.2813 L1433.6719,805.2813 C1434.0625,805.2813 1434.25,805.25 1434.375,805.1719 C1434.6406,805.0156 1434.7813,804.7344 1434.7813,804.4375 C1434.7813,804.1719 1434.6719,803.9063 1434.4375,803.7344 C1434.2656,803.625 1434.125,803.5938 1433.6719,803.5938 L1428.5313,803.5938 C1428.0938,803.5938 1427.9688,803.6094 1427.8125,803.7031 C1427.5625,803.8594 1427.4063,804.1563 1427.4063,804.4375 C1427.4063,804.7188 1427.5469,804.9688 1427.7656,805.1406 C1427.9219,805.25 1428.1094,805.2813 1428.5313,805.2813 L1430.25,805.2813 L1430.25,811.7969 L1428.5313,811.7969 C1428.0938,811.7969 1427.9688,811.8125 1427.8125,811.9219 C1427.5625,812.0781 1427.4063,812.3594 1427.4063,812.6563 C1427.4063,812.9063 1427.5469,813.1719 1427.7656,813.3281 C1427.9219,813.4531 1428.125,813.5 1428.5313,813.5 L1433.6719,813.5 C1434.4219,813.5 1434.7813,813.2188 1434.7813,812.6563 C1434.7813,812.375 1434.6719,812.125 1434.4375,811.9531 C1434.2656,811.8281 1434.125,811.7969 1433.6719,811.7969 L1431.9531,811.7969 L1431.9531,805.2813 Z " fill="#000000"/><text fill="#000000" font-family="sans-serif" font-size="14" font-style="italic" lengthAdjust="spacing" textLength="114" x="1445" y="813.3467">ExecutionGraph</text><line style="stroke:#181818;stroke-width:0.5;" x1="1417" x2="1561" y1="824.5" y2="824.5"/><line style="stroke:#181818;stroke-width:0.5;" x1="1417" x2="1561" y1="832.5" y2="832.5"/></g><!--class AccessExecutionJobVertex--><g id="elem_AccessExecutionJobVertex"><rect codeLine="146" fill="#F1F1F1" height="202.375" id="AccessExecutionJobVertex" rx="2.5" ry="2.5" style="stroke:#181818;stroke-width:0.5;" width="570" x="1222" y="1567"/><ellipse cx="1408.75" cy="1583" fill="#B4A7E5" rx="11" ry="11" style="stroke:#181818;stroke-width:1.0;"/><path d="M1409.7031,1579.7813 L1411.4219,1579.7813 C1411.8125,1579.7813 1412,1579.75 1412.125,1579.6719 C1412.3906,1579.5156 1412.5313,1579.2344 1412.5313,1578.9375 C1412.5313,1578.6719 1412.4219,1578.4063 1412.1875,1578.2344 C1412.0156,1578.125 1411.875,1578.0938 1411.4219,1578.0938 L1406.2813,1578.0938 C1405.8438,1578.0938 1405.7188,1578.1094 1405.5625,1578.2031 C1405.3125,1578.3594 1405.1563,1578.6563 1405.1563,1578.9375 C1405.1563,1579.2188 1405.2969,1579.4688 1405.5156,1579.6406 C1405.6719,1579.75 1405.8594,1579.7813 1406.2813,1579.7813 L1408,1579.7813 L1408,1586.2969 L1406.2813,1586.2969 C1405.8438,1586.2969 1405.7188,1586.3125 1405.5625,1586.4219 C1405.3125,1586.5781 1405.1563,1586.8594 1405.1563,1587.1563 C1405.1563,1587.4063 1405.2969,1587.6719 1405.5156,1587.8281 C1405.6719,1587.9531 1405.875,1588 1406.2813,1588 L1411.4219,1588 C1412.1719,1588 1412.5313,1587.7188 1412.5313,1587.1563 C1412.5313,1586.875 1412.4219,1586.625 1412.1875,1586.4531 C1412.0156,1586.3281 1411.875,1586.2969 1411.4219,1586.2969 L1409.7031,1586.2969 L1409.7031,1579.7813 Z " fill="#000000"/><text fill="#000000" font-family="sans-serif" font-size="14" font-style="italic" lengthAdjust="spacing" textLength="188" x="1429.25" y="1587.8467">AccessExecutionJobVertex</text><line style="stroke:#181818;stroke-width:0.5;" x1="1223" x2="1791" y1="1599" y2="1599"/><text fill="#000000" font-family="sans-serif" font-size="14" lengthAdjust="spacing" textLength="220" x="1228" y="1615.9951">getJobVertexId() : JobVertexID</text><text fill="#000000" font-family="sans-serif" font-size="14" lengthAdjust="spacing" textLength="133" x="1228" y="1632.292">getName() : String</text><line style="stroke:#181818;stroke-width:1.0;stroke-dasharray:1.0,2.0;" x1="1223" x2="1791" y1="1639.5938" y2="1639.5938"/><text fill="#000000" font-family="sans-serif" font-size="14" lengthAdjust="spacing" textLength="145" x="1228" y="1656.5889">getParallelism() : int</text><text fill="#000000" font-family="sans-serif" font-size="14" lengthAdjust="spacing" textLength="173" x="1228" y="1672.8857">getMaxParallelism() : int</text><text fill="#000000" font-family="sans-serif" font-size="14" lengthAdjust="spacing" textLength="274" x="1228" y="1689.1826">getResourceProfile() : ResourceProfile</text><line style="stroke:#181818;stroke-width:1.0;stroke-dasharray:1.0,2.0;" x1="1223" x2="1791" y1="1696.4844" y2="1696.4844"/><text fill="#000000" font-family="sans-serif" font-size="14" lengthAdjust="spacing" textLength="284" x="1228" y="1713.4795">getAggregatedState() : ExecutionState</text><line style="stroke:#181818;stroke-width:1.0;stroke-dasharray:1.0,2.0;" x1="1223" x2="1791" y1="1720.7813" y2="1720.7813"/><text fill="#000000" font-family="sans-serif" font-size="14" lengthAdjust="spacing" textLength="320" x="1228" y="1737.7764">getTaskVertices() : AccessExecutionVertex[]</text><line style="stroke:#181818;stroke-width:1.0;stroke-dasharray:1.0,2.0;" x1="1223" x2="1791" y1="1745.0781" y2="1745.0781"/><text fill="#000000" font-family="sans-serif" font-size="14" lengthAdjust="spacing" textLength="558" x="1228" y="1762.0732">getAggregatedUserAccumulatorsStringified() : StringifiedAccumulatorResult[]</text></g><g id="elem_GMN24"><path d="M1827.5,1655.5 L1827.5,1664 L1792.12,1668 L1827.5,1672 L1827.5,1680.6328 A0,0 0 0 0 1827.5,1680.6328 L2198.5,1680.6328 A0,0 0 0 0 2198.5,1680.6328 L2198.5,1665.5 L2188.5,1655.5 L1827.5,1655.5 A0,0 0 0 0 1827.5,1655.5 " fill="#FEFFDD" style="stroke:#181818;stroke-width:0.5;"/><path d="M2188.5,1655.5 L2188.5,1665.5 L2198.5,1665.5 L2188.5,1655.5 " fill="#FEFFDD" style="stroke:#181818;stroke-width:0.5;"/><text fill="#000000" font-family="sans-serif" font-size="13" lengthAdjust="spacing" textLength="350" x="1833.5" y="1672.5669">Representation of a JobVertex while executing the job.</text></g><!--class AccessExecutionVertex--><g id="elem_AccessExecutionVertex"><rect codeLine="162" fill="#F1F1F1" height="194.375" id="AccessExecutionVertex" rx="2.5" ry="2.5" style="stroke:#181818;stroke-width:0.5;" width="463" x="1222.5" y="1846"/><ellipse cx="1366.75" cy="1862" fill="#B4A7E5" rx="11" ry="11" style="stroke:#181818;stroke-width:1.0;"/><path d="M1367.7031,1858.7813 L1369.4219,1858.7813 C1369.8125,1858.7813 1370,1858.75 1370.125,1858.6719 C1370.3906,1858.5156 1370.5313,1858.2344 1370.5313,1857.9375 C1370.5313,1857.6719 1370.4219,1857.4063 1370.1875,1857.2344 C1370.0156,1857.125 1369.875,1857.0938 1369.4219,1857.0938 L1364.2813,1857.0938 C1363.8438,1857.0938 1363.7188,1857.1094 1363.5625,1857.2031 C1363.3125,1857.3594 1363.1563,1857.6563 1363.1563,1857.9375 C1363.1563,1858.2188 1363.2969,1858.4688 1363.5156,1858.6406 C1363.6719,1858.75 1363.8594,1858.7813 1364.2813,1858.7813 L1366,1858.7813 L1366,1865.2969 L1364.2813,1865.2969 C1363.8438,1865.2969 1363.7188,1865.3125 1363.5625,1865.4219 C1363.3125,1865.5781 1363.1563,1865.8594 1363.1563,1866.1563 C1363.1563,1866.4063 1363.2969,1866.6719 1363.5156,1866.8281 C1363.6719,1866.9531 1363.875,1867 1364.2813,1867 L1369.4219,1867 C1370.1719,1867 1370.5313,1866.7188 1370.5313,1866.1563 C1370.5313,1865.875 1370.4219,1865.625 1370.1875,1865.4531 C1370.0156,1865.3281 1369.875,1865.2969 1369.4219,1865.2969 L1367.7031,1865.2969 L1367.7031,1858.7813 Z " fill="#000000"/><text fill="#000000" font-family="sans-serif" font-size="14" font-style="italic" lengthAdjust="spacing" textLength="166" x="1387.25" y="1866.8467">AccessExecutionVertex</text><line style="stroke:#181818;stroke-width:0.5;" x1="1223.5" x2="1684.5" y1="1878" y2="1878"/><text fill="#000000" font-family="sans-serif" font-size="14" lengthAdjust="spacing" textLength="297" x="1228.5" y="1894.9951">getTaskNameWithSubtaskIndex() : String</text><text fill="#000000" font-family="sans-serif" font-size="14" lengthAdjust="spacing" textLength="217" x="1228.5" y="1911.292">getParallelSubtaskIndex() : int</text><line style="stroke:#181818;stroke-width:1.0;stroke-dasharray:1.0,2.0;" x1="1223.5" x2="1684.5" y1="1918.5938" y2="1918.5938"/><text fill="#000000" font-family="sans-serif" font-size="14" lengthAdjust="spacing" textLength="270" x="1228.5" y="1935.5889">getExecutionState() : ExecutionState</text><text fill="#000000" font-family="sans-serif" font-size="14" lengthAdjust="spacing" textLength="312" x="1228.5" y="1951.8857">getStateTimestamp(ExecutionState) : long</text><text fill="#000000" font-family="sans-serif" font-size="14" lengthAdjust="spacing" textLength="187" x="1228.5" y="1968.1826">getFailureInfo() : ErrorInfo</text><text fill="#000000" font-family="sans-serif" font-size="14" lengthAdjust="spacing" textLength="292" x="1228.5" y="1984.4795">getExecutionHistory() : ExecutionHistory</text><line style="stroke:#181818;stroke-width:1.0;stroke-dasharray:1.0,2.0;" x1="1223.5" x2="1684.5" y1="1991.7813" y2="1991.7813"/><text fill="#000000" font-family="sans-serif" font-size="14" lengthAdjust="spacing" textLength="358" x="1228.5" y="2008.7764">getCurrentExecutionAttempt() : AccessExecution</text><line style="stroke:#181818;stroke-width:1.0;stroke-dasharray:1.0,2.0;" x1="1223.5" x2="1684.5" y1="2016.0781" y2="2016.0781"/><text fill="#000000" font-family="sans-serif" font-size="14" lengthAdjust="spacing" textLength="451" x="1228.5" y="2033.0732">getCurrentAssignedResourceLocation() : TaskManagerLocation</text></g><g id="elem_GMN28"><path d="M1720.5,1930.5 L1720.5,1939 L1685.58,1943 L1720.5,1947 L1720.5,1955.6328 A0,0 0 0 0 1720.5,1955.6328 L2893.5,1955.6328 A0,0 0 0 0 2893.5,1955.6328 L2893.5,1940.5 L2883.5,1930.5 L1720.5,1930.5 A0,0 0 0 0 1720.5,1930.5 " fill="#FEFFDD" style="stroke:#181818;stroke-width:0.5;"/><path d="M2883.5,1930.5 L2883.5,1940.5 L2893.5,1940.5 L2883.5,1930.5 " fill="#FEFFDD" style="stroke:#181818;stroke-width:0.5;"/><text fill="#000000" font-family="sans-serif" font-size="13" lengthAdjust="spacing" textLength="1152" x="1726.5" y="1947.5669">A parallel instance of the AccessExecutionJobVertex (i.e. a JobVertex of parallelism n results in n AccessExecutionVertex instance for the corresponding AccessExecutionJobVertex)</text></g><!--class AccessExecution--><g id="elem_AccessExecution"><rect codeLine="177" fill="#F1F1F1" height="259.5625" id="AccessExecution" rx="2.5" ry="2.5" style="stroke:#181818;stroke-width:0.5;" width="485" x="1222.5" y="2117"/><ellipse cx="1401.25" cy="2133" fill="#B4A7E5" rx="11" ry="11" style="stroke:#181818;stroke-width:1.0;"/><path d="M1402.2031,2129.7813 L1403.9219,2129.7813 C1404.3125,2129.7813 1404.5,2129.75 1404.625,2129.6719 C1404.8906,2129.5156 1405.0313,2129.2344 1405.0313,2128.9375 C1405.0313,2128.6719 1404.9219,2128.4063 1404.6875,2128.2344 C1404.5156,2128.125 1404.375,2128.0938 1403.9219,2128.0938 L1398.7813,2128.0938 C1398.3438,2128.0938 1398.2188,2128.1094 1398.0625,2128.2031 C1397.8125,2128.3594 1397.6563,2128.6563 1397.6563,2128.9375 C1397.6563,2129.2188 1397.7969,2129.4688 1398.0156,2129.6406 C1398.1719,2129.75 1398.3594,2129.7813 1398.7813,2129.7813 L1400.5,2129.7813 L1400.5,2136.2969 L1398.7813,2136.2969 C1398.3438,2136.2969 1398.2188,2136.3125 1398.0625,2136.4219 C1397.8125,2136.5781 1397.6563,2136.8594 1397.6563,2137.1563 C1397.6563,2137.4063 1397.7969,2137.6719 1398.0156,2137.8281 C1398.1719,2137.9531 1398.375,2138 1398.7813,2138 L1403.9219,2138 C1404.6719,2138 1405.0313,2137.7188 1405.0313,2137.1563 C1405.0313,2136.875 1404.9219,2136.625 1404.6875,2136.4531 C1404.5156,2136.3281 1404.375,2136.2969 1403.9219,2136.2969 L1402.2031,2136.2969 L1402.2031,2129.7813 Z " fill="#000000"/><text fill="#000000" font-family="sans-serif" font-size="14" font-style="italic" lengthAdjust="spacing" textLength="119" x="1421.75" y="2137.8467">AccessExecution</text><line style="stroke:#181818;stroke-width:0.5;" x1="1223.5" x2="1706.5" y1="2149" y2="2149"/><text fill="#000000" font-family="sans-serif" font-size="14" lengthAdjust="spacing" textLength="275" x="1228.5" y="2165.9951">getAttemptId() : ExecutionAttemptID</text><text fill="#000000" font-family="sans-serif" font-size="14" lengthAdjust="spacing" textLength="217" x="1228.5" y="2182.292">getParallelSubtaskIndex() : int</text><text fill="#000000" font-family="sans-serif" font-size="14" lengthAdjust="spacing" textLength="189" x="1228.5" y="2198.5889">getAttemptNumber() : int</text><line style="stroke:#181818;stroke-width:1.0;stroke-dasharray:1.0,2.0;" x1="1223.5" x2="1706.5" y1="2205.8906" y2="2205.8906"/><text fill="#000000" font-family="sans-serif" font-size="14" lengthAdjust="spacing" textLength="199" x="1228.5" y="2222.8857">getState() : ExecutionState</text><text fill="#000000" font-family="sans-serif" font-size="14" lengthAdjust="spacing" textLength="218" x="1228.5" y="2239.1826">getStateTimestamps() : long[]</text><text fill="#000000" font-family="sans-serif" font-size="14" lengthAdjust="spacing" textLength="245" x="1228.5" y="2255.4795">getStateEndTimestamps() : long[]</text><text fill="#000000" font-family="sans-serif" font-size="14" lengthAdjust="spacing" textLength="312" x="1228.5" y="2271.7764">getStateTimestamp(ExecutionState) : long</text><text fill="#000000" font-family="sans-serif" font-size="14" lengthAdjust="spacing" textLength="339" x="1228.5" y="2288.0732">getStateEndTimestamp(ExecutionState) : long</text><text fill="#000000" font-family="sans-serif" font-size="14" lengthAdjust="spacing" textLength="187" x="1228.5" y="2304.3701">getFailureInfo() : ErrorInfo</text><line style="stroke:#181818;stroke-width:1.0;stroke-dasharray:1.0,2.0;" x1="1223.5" x2="1706.5" y1="2311.6719" y2="2311.6719"/><text fill="#000000" font-family="sans-serif" font-size="14" lengthAdjust="spacing" textLength="396" x="1228.5" y="2328.667">getAssignedResourceLocation() : TaskManagerLocation</text><line style="stroke:#181818;stroke-width:1.0;stroke-dasharray:1.0,2.0;" x1="1223.5" x2="1706.5" y1="2335.9688" y2="2335.9688"/><text fill="#000000" font-family="sans-serif" font-size="14" lengthAdjust="spacing" textLength="473" x="1228.5" y="2352.9639">getUserAccumulatorsStringified() : StringifiedAccumulatorResult[]</text><text fill="#000000" font-family="sans-serif" font-size="14" lengthAdjust="spacing" textLength="184" x="1228.5" y="2369.2607">getIOMetrics() : IOMetrics</text></g><g id="elem_GMN32"><path d="M1742.5,2234.5 L1742.5,2243 L1707.68,2247 L1742.5,2251 L1742.5,2259.6328 A0,0 0 0 0 1742.5,2259.6328 L2589.5,2259.6328 A0,0 0 0 0 2589.5,2259.6328 L2589.5,2244.5 L2579.5,2234.5 L1742.5,2234.5 A0,0 0 0 0 1742.5,2234.5 " fill="#FEFFDD" style="stroke:#181818;stroke-width:0.5;"/><path d="M2579.5,2234.5 L2579.5,2244.5 L2589.5,2244.5 L2579.5,2234.5 " fill="#FEFFDD" style="stroke:#181818;stroke-width:0.5;"/><text fill="#000000" font-family="sans-serif" font-size="13" lengthAdjust="spacing" textLength="826" x="1748.5" y="2251.5669">The actual execution abstraction of AccessExecutionVertex (multiple attempts can be made to execute AccessExecutionVertex)</text></g><!--class Execution--><g id="elem_Execution"><rect codeLine="196" fill="#F1F1F1" height="48" id="Execution" rx="2.5" ry="2.5" style="stroke:#181818;stroke-width:0.5;" width="103" x="1413.5" y="2438"/><ellipse cx="1428.5" cy="2454" fill="#ADD1B2" rx="11" ry="11" style="stroke:#181818;stroke-width:1.0;"/><path d="M1430.8438,2449.6719 C1429.9063,2449.2344 1429.3125,2449.0938 1428.4375,2449.0938 C1425.8125,2449.0938 1423.8125,2451.1719 1423.8125,2453.8906 L1423.8125,2455.0156 C1423.8125,2457.5938 1425.9219,2459.4844 1428.8125,2459.4844 C1430.0313,2459.4844 1431.1875,2459.1875 1431.9375,2458.6406 C1432.5156,2458.2344 1432.8438,2457.7813 1432.8438,2457.3906 C1432.8438,2456.9375 1432.4531,2456.5469 1431.9844,2456.5469 C1431.7656,2456.5469 1431.5625,2456.625 1431.375,2456.8125 C1430.9219,2457.2969 1430.9219,2457.2969 1430.7344,2457.3906 C1430.3125,2457.6563 1429.625,2457.7813 1428.8594,2457.7813 C1426.8125,2457.7813 1425.5156,2456.6875 1425.5156,2454.9844 L1425.5156,2453.8906 C1425.5156,2452.1094 1426.7656,2450.7969 1428.5,2450.7969 C1429.0781,2450.7969 1429.6875,2450.9531 1430.1563,2451.2031 C1430.6406,2451.4844 1430.8125,2451.7031 1430.9063,2452.1094 C1430.9688,2452.5156 1431,2452.6406 1431.1406,2452.7656 C1431.2813,2452.9063 1431.5156,2453.0156 1431.7344,2453.0156 C1432,2453.0156 1432.2656,2452.875 1432.4375,2452.6563 C1432.5469,2452.5 1432.5781,2452.3125 1432.5781,2451.8906 L1432.5781,2450.4688 C1432.5781,2450.0313 1432.5625,2449.9063 1432.4688,2449.75 C1432.3125,2449.4844 1432.0313,2449.3438 1431.7344,2449.3438 C1431.4375,2449.3438 1431.2344,2449.4375 1431.0156,2449.75 L1430.8438,2449.6719 Z " fill="#000000"/><text fill="#000000" font-family="sans-serif" font-size="14" lengthAdjust="spacing" textLength="71" x="1442.5" y="2458.8467">Execution</text><line style="stroke:#181818;stroke-width:0.5;" x1="1414.5" x2="1515.5" y1="2470" y2="2470"/><line style="stroke:#181818;stroke-width:0.5;" x1="1414.5" x2="1515.5" y1="2478" y2="2478"/></g><!--class Task--><g id="elem_Task"><rect codeLine="201" fill="#F1F1F1" height="48" id="Task" rx="2.5" ry="2.5" style="stroke:#181818;stroke-width:0.5;" width="65" x="1432.5" y="2586"/><ellipse cx="1447.5" cy="2602" fill="#ADD1B2" rx="11" ry="11" style="stroke:#181818;stroke-width:1.0;"/><path d="M1449.8438,2597.6719 C1448.9063,2597.2344 1448.3125,2597.0938 1447.4375,2597.0938 C1444.8125,2597.0938 1442.8125,2599.1719 1442.8125,2601.8906 L1442.8125,2603.0156 C1442.8125,2605.5938 1444.9219,2607.4844 1447.8125,2607.4844 C1449.0313,2607.4844 1450.1875,2607.1875 1450.9375,2606.6406 C1451.5156,2606.2344 1451.8438,2605.7813 1451.8438,2605.3906 C1451.8438,2604.9375 1451.4531,2604.5469 1450.9844,2604.5469 C1450.7656,2604.5469 1450.5625,2604.625 1450.375,2604.8125 C1449.9219,2605.2969 1449.9219,2605.2969 1449.7344,2605.3906 C1449.3125,2605.6563 1448.625,2605.7813 1447.8594,2605.7813 C1445.8125,2605.7813 1444.5156,2604.6875 1444.5156,2602.9844 L1444.5156,2601.8906 C1444.5156,2600.1094 1445.7656,2598.7969 1447.5,2598.7969 C1448.0781,2598.7969 1448.6875,2598.9531 1449.1563,2599.2031 C1449.6406,2599.4844 1449.8125,2599.7031 1449.9063,2600.1094 C1449.9688,2600.5156 1450,2600.6406 1450.1406,2600.7656 C1450.2813,2600.9063 1450.5156,2601.0156 1450.7344,2601.0156 C1451,2601.0156 1451.2656,2600.875 1451.4375,2600.6563 C1451.5469,2600.5 1451.5781,2600.3125 1451.5781,2599.8906 L1451.5781,2598.4688 C1451.5781,2598.0313 1451.5625,2597.9063 1451.4688,2597.75 C1451.3125,2597.4844 1451.0313,2597.3438 1450.7344,2597.3438 C1450.4375,2597.3438 1450.2344,2597.4375 1450.0156,2597.75 L1449.8438,2597.6719 Z " fill="#000000"/><text fill="#000000" font-family="sans-serif" font-size="14" lengthAdjust="spacing" textLength="33" x="1461.5" y="2606.8467">Task</text><line style="stroke:#181818;stroke-width:0.5;" x1="1433.5" x2="1496.5" y1="2618" y2="2618"/><line style="stroke:#181818;stroke-width:0.5;" x1="1433.5" x2="1496.5" y1="2626" y2="2626"/></g><!--class TaskInvokable--><g id="elem_TaskInvokable"><rect codeLine="204" fill="#F1F1F1" height="48" id="TaskInvokable" rx="2.5" ry="2.5" style="stroke:#181818;stroke-width:0.5;" width="134" x="1432" y="2711"/><ellipse cx="1447" cy="2727" fill="#B4A7E5" rx="11" ry="11" style="stroke:#181818;stroke-width:1.0;"/><path d="M1447.9531,2723.7813 L1449.6719,2723.7813 C1450.0625,2723.7813 1450.25,2723.75 1450.375,2723.6719 C1450.6406,2723.5156 1450.7813,2723.2344 1450.7813,2722.9375 C1450.7813,2722.6719 1450.6719,2722.4063 1450.4375,2722.2344 C1450.2656,2722.125 1450.125,2722.0938 1449.6719,2722.0938 L1444.5313,2722.0938 C1444.0938,2722.0938 1443.9688,2722.1094 1443.8125,2722.2031 C1443.5625,2722.3594 1443.4063,2722.6563 1443.4063,2722.9375 C1443.4063,2723.2188 1443.5469,2723.4688 1443.7656,2723.6406 C1443.9219,2723.75 1444.1094,2723.7813 1444.5313,2723.7813 L1446.25,2723.7813 L1446.25,2730.2969 L1444.5313,2730.2969 C1444.0938,2730.2969 1443.9688,2730.3125 1443.8125,2730.4219 C1443.5625,2730.5781 1443.4063,2730.8594 1443.4063,2731.1563 C1443.4063,2731.4063 1443.5469,2731.6719 1443.7656,2731.8281 C1443.9219,2731.9531 1444.125,2732 1444.5313,2732 L1449.6719,2732 C1450.4219,2732 1450.7813,2731.7188 1450.7813,2731.1563 C1450.7813,2730.875 1450.6719,2730.625 1450.4375,2730.4531 C1450.2656,2730.3281 1450.125,2730.2969 1449.6719,2730.2969 L1447.9531,2730.2969 L1447.9531,2723.7813 Z " fill="#000000"/><text fill="#000000" font-family="sans-serif" font-size="14" font-style="italic" lengthAdjust="spacing" textLength="102" x="1461" y="2731.8467">TaskInvokable</text><line style="stroke:#181818;stroke-width:0.5;" x1="1433" x2="1565" y1="2743" y2="2743"/><line style="stroke:#181818;stroke-width:0.5;" x1="1433" x2="1565" y1="2751" y2="2751"/></g><!--class StreamTask--><g id="elem_StreamTask"><rect codeLine="207" fill="#F1F1F1" height="48" id="StreamTask" rx="2.5" ry="2.5" style="stroke:#181818;stroke-width:0.5;" width="118" x="1434" y="2820"/><ellipse cx="1449" cy="2836" fill="#ADD1B2" rx="11" ry="11" style="stroke:#181818;stroke-width:1.0;"/><path d="M1451.3438,2831.6719 C1450.4063,2831.2344 1449.8125,2831.0938 1448.9375,2831.0938 C1446.3125,2831.0938 1444.3125,2833.1719 1444.3125,2835.8906 L1444.3125,2837.0156 C1444.3125,2839.5938 1446.4219,2841.4844 1449.3125,2841.4844 C1450.5313,2841.4844 1451.6875,2841.1875 1452.4375,2840.6406 C1453.0156,2840.2344 1453.3438,2839.7813 1453.3438,2839.3906 C1453.3438,2838.9375 1452.9531,2838.5469 1452.4844,2838.5469 C1452.2656,2838.5469 1452.0625,2838.625 1451.875,2838.8125 C1451.4219,2839.2969 1451.4219,2839.2969 1451.2344,2839.3906 C1450.8125,2839.6563 1450.125,2839.7813 1449.3594,2839.7813 C1447.3125,2839.7813 1446.0156,2838.6875 1446.0156,2836.9844 L1446.0156,2835.8906 C1446.0156,2834.1094 1447.2656,2832.7969 1449,2832.7969 C1449.5781,2832.7969 1450.1875,2832.9531 1450.6563,2833.2031 C1451.1406,2833.4844 1451.3125,2833.7031 1451.4063,2834.1094 C1451.4688,2834.5156 1451.5,2834.6406 1451.6406,2834.7656 C1451.7813,2834.9063 1452.0156,2835.0156 1452.2344,2835.0156 C1452.5,2835.0156 1452.7656,2834.875 1452.9375,2834.6563 C1453.0469,2834.5 1453.0781,2834.3125 1453.0781,2833.8906 L1453.0781,2832.4688 C1453.0781,2832.0313 1453.0625,2831.9063 1452.9688,2831.75 C1452.8125,2831.4844 1452.5313,2831.3438 1452.2344,2831.3438 C1451.9375,2831.3438 1451.7344,2831.4375 1451.5156,2831.75 L1451.3438,2831.6719 Z " fill="#000000"/><text fill="#000000" font-family="sans-serif" font-size="14" lengthAdjust="spacing" textLength="86" x="1463" y="2840.8467">StreamTask</text><line style="stroke:#181818;stroke-width:0.5;" x1="1435" x2="1551" y1="2852" y2="2852"/><line style="stroke:#181818;stroke-width:0.5;" x1="1435" x2="1551" y1="2860" y2="2860"/></g><!--class AbstractInvokable--><g id="elem_AbstractInvokable"><rect codeLine="209" fill="#F1F1F1" height="48" id="AbstractInvokable" rx="2.5" ry="2.5" style="stroke:#181818;stroke-width:0.5;" width="165" x="1587.5" y="2820"/><ellipse cx="1602.5" cy="2836" fill="#ADD1B2" rx="11" ry="11" style="stroke:#181818;stroke-width:1.0;"/><path d="M1604.8438,2831.6719 C1603.9063,2831.2344 1603.3125,2831.0938 1602.4375,2831.0938 C1599.8125,2831.0938 1597.8125,2833.1719 1597.8125,2835.8906 L1597.8125,2837.0156 C1597.8125,2839.5938 1599.9219,2841.4844 1602.8125,2841.4844 C1604.0313,2841.4844 1605.1875,2841.1875 1605.9375,2840.6406 C1606.5156,2840.2344 1606.8438,2839.7813 1606.8438,2839.3906 C1606.8438,2838.9375 1606.4531,2838.5469 1605.9844,2838.5469 C1605.7656,2838.5469 1605.5625,2838.625 1605.375,2838.8125 C1604.9219,2839.2969 1604.9219,2839.2969 1604.7344,2839.3906 C1604.3125,2839.6563 1603.625,2839.7813 1602.8594,2839.7813 C1600.8125,2839.7813 1599.5156,2838.6875 1599.5156,2836.9844 L1599.5156,2835.8906 C1599.5156,2834.1094 1600.7656,2832.7969 1602.5,2832.7969 C1603.0781,2832.7969 1603.6875,2832.9531 1604.1563,2833.2031 C1604.6406,2833.4844 1604.8125,2833.7031 1604.9063,2834.1094 C1604.9688,2834.5156 1605,2834.6406 1605.1406,2834.7656 C1605.2813,2834.9063 1605.5156,2835.0156 1605.7344,2835.0156 C1606,2835.0156 1606.2656,2834.875 1606.4375,2834.6563 C1606.5469,2834.5 1606.5781,2834.3125 1606.5781,2833.8906 L1606.5781,2832.4688 C1606.5781,2832.0313 1606.5625,2831.9063 1606.4688,2831.75 C1606.3125,2831.4844 1606.0313,2831.3438 1605.7344,2831.3438 C1605.4375,2831.3438 1605.2344,2831.4375 1605.0156,2831.75 L1604.8438,2831.6719 Z " fill="#000000"/><text fill="#000000" font-family="sans-serif" font-size="14" lengthAdjust="spacing" textLength="133" x="1616.5" y="2840.8467">AbstractInvokable</text><line style="stroke:#181818;stroke-width:0.5;" x1="1588.5" x2="1751.5" y1="2852" y2="2852"/><line style="stroke:#181818;stroke-width:0.5;" x1="1588.5" x2="1751.5" y1="2860" y2="2860"/></g><!--class BatchTask--><g id="elem_BatchTask"><rect codeLine="211" fill="#F1F1F1" height="48" id="BatchTask" rx="2.5" ry="2.5" style="stroke:#181818;stroke-width:0.5;" width="107" x="1616.5" y="2929"/><ellipse cx="1631.5" cy="2945" fill="#ADD1B2" rx="11" ry="11" style="stroke:#181818;stroke-width:1.0;"/><path d="M1633.8438,2940.6719 C1632.9063,2940.2344 1632.3125,2940.0938 1631.4375,2940.0938 C1628.8125,2940.0938 1626.8125,2942.1719 1626.8125,2944.8906 L1626.8125,2946.0156 C1626.8125,2948.5938 1628.9219,2950.4844 1631.8125,2950.4844 C1633.0313,2950.4844 1634.1875,2950.1875 1634.9375,2949.6406 C1635.5156,2949.2344 1635.8438,2948.7813 1635.8438,2948.3906 C1635.8438,2947.9375 1635.4531,2947.5469 1634.9844,2947.5469 C1634.7656,2947.5469 1634.5625,2947.625 1634.375,2947.8125 C1633.9219,2948.2969 1633.9219,2948.2969 1633.7344,2948.3906 C1633.3125,2948.6563 1632.625,2948.7813 1631.8594,2948.7813 C1629.8125,2948.7813 1628.5156,2947.6875 1628.5156,2945.9844 L1628.5156,2944.8906 C1628.5156,2943.1094 1629.7656,2941.7969 1631.5,2941.7969 C1632.0781,2941.7969 1632.6875,2941.9531 1633.1563,2942.2031 C1633.6406,2942.4844 1633.8125,2942.7031 1633.9063,2943.1094 C1633.9688,2943.5156 1634,2943.6406 1634.1406,2943.7656 C1634.2813,2943.9063 1634.5156,2944.0156 1634.7344,2944.0156 C1635,2944.0156 1635.2656,2943.875 1635.4375,2943.6563 C1635.5469,2943.5 1635.5781,2943.3125 1635.5781,2942.8906 L1635.5781,2941.4688 C1635.5781,2941.0313 1635.5625,2940.9063 1635.4688,2940.75 C1635.3125,2940.4844 1635.0313,2940.3438 1634.7344,2940.3438 C1634.4375,2940.3438 1634.2344,2940.4375 1634.0156,2940.75 L1633.8438,2940.6719 Z " fill="#000000"/><text fill="#000000" font-family="sans-serif" font-size="14" lengthAdjust="spacing" textLength="75" x="1645.5" y="2949.8467">BatchTask</text><line style="stroke:#181818;stroke-width:0.5;" x1="1617.5" x2="1722.5" y1="2961" y2="2961"/><line style="stroke:#181818;stroke-width:0.5;" x1="1617.5" x2="1722.5" y1="2969" y2="2969"/></g><g id="elem_GMN46"><path d="M1533,2597.5 L1533,2606 L1497.98,2610 L1533,2614 L1533,2622.6328 A0,0 0 0 0 1533,2622.6328 L1901,2622.6328 A0,0 0 0 0 1901,2622.6328 L1901,2607.5 L1891,2597.5 L1533,2597.5 A0,0 0 0 0 1533,2597.5 " fill="#FEFFDD" style="stroke:#181818;stroke-width:0.5;"/><path d="M1891,2597.5 L1891,2607.5 L1901,2607.5 L1891,2597.5 " fill="#FEFFDD" style="stroke:#181818;stroke-width:0.5;"/><text fill="#000000" font-family="sans-serif" font-size="13" lengthAdjust="spacing" textLength="347" x="1539" y="2614.5669">TaskExecutor representation of an Execution instance</text></g><!--reverse link AccessExecution to Execution--><g id="link_AccessExecution_Execution"><path d="M1465,2395.123 C1465,2418.536 1465,2422.419 1465,2437.96 " fill="none" id="AccessExecution-backto-Execution" style="stroke:#181818;stroke-width:1.0;stroke-dasharray:7.0,7.0;"/><polygon fill="none" points="1465,2377.123,1459,2395.123,1471,2395.123,1465,2377.123" style="stroke:#181818;stroke-width:1.0;"/></g><!--reverse link TaskInvokable to StreamTask--><g id="link_TaskInvokable_StreamTask"><path d="M1496.6887,2777.1886 C1495.6787,2795.1366 1495.31,2801.892 1494.3,2819.828 " fill="none" id="TaskInvokable-backto-StreamTask" style="stroke:#181818;stroke-width:1.0;stroke-dasharray:7.0,7.0;"/><polygon fill="none" points="1497.7,2759.217,1490.6982,2776.8515,1502.6792,2777.5257,1497.7,2759.217" style="stroke:#181818;stroke-width:1.0;"/></g><!--reverse link TaskInvokable to AbstractInvokable--><g id="link_TaskInvokable_AbstractInvokable"><path d="M1551.36,2768.7634 C1580.05,2786.7114 1604.3,2801.892 1632.97,2819.828 " fill="none" id="TaskInvokable-backto-AbstractInvokable" style="stroke:#181818;stroke-width:1.0;stroke-dasharray:7.0,7.0;"/><polygon fill="none" points="1536.1,2759.217,1548.1778,2773.85,1554.5421,2763.6767,1536.1,2759.217" style="stroke:#181818;stroke-width:1.0;"/></g><!--reverse link AbstractInvokable to BatchTask--><g id="link_AbstractInvokable_BatchTask"><path d="M1670,2886.217 C1670,2904.165 1670,2910.8918 1670,2928.8279 " fill="none" id="AbstractInvokable-backto-BatchTask" style="stroke:#181818;stroke-width:1.0;stroke-dasharray:7.0,7.0;"/><polygon fill="none" points="1670,2868.217,1664,2886.217,1676,2886.217,1670,2868.217" style="stroke:#181818;stroke-width:1.0;"/></g><!--link StreamGraph to JobGraph--><g id="link_StreamGraph_JobGraph"><path codeLine="216" d="M548.629,244.34 C532.355,267.97 517.786,294.13 509,321 C480.728,407.45 484.2981,500.4908 499.5311,587.0508 " fill="none" id="StreamGraph-to-JobGraph" style="stroke:#181818;stroke-width:1.0;stroke-dasharray:7.0,7.0;"/><polygon fill="#181818" points="500.571,592.96,502.9506,583.4029,499.7044,588.0357,495.0717,584.7895,500.571,592.96" style="stroke:#181818;stroke-width:1.0;"/><text fill="#000000" font-family="sans-serif" font-size="13" lengthAdjust="spacing" textLength="85" x="510" y="423.0669">compiles into</text></g><!--link StreamGraph to StreamNode--><g id="link_StreamGraph_StreamNode"><path codeLine="217" d="M616.922,244.29 C605.179,324.88 602.713,437.04 657,516 C705.14,586.02 764.769,541.03 832,593 C860.349,614.91 882.9614,637.7286 906.3024,665.7686 " fill="none" id="StreamGraph-to-StreamNode" style="stroke:#181818;stroke-width:1.0;stroke-dasharray:7.0,7.0;"/><polygon fill="#181818" points="910.141,670.38,907.4573,660.9038,906.9422,666.5372,901.3088,666.022,910.141,670.38" style="stroke:#181818;stroke-width:1.0;"/><text fill="#000000" font-family="sans-serif" font-size="13" lengthAdjust="spacing" textLength="54" x="658" y="423.0669">contains</text></g><!--link StreamGraph to StreamEdge--><g id="link_StreamGraph_StreamEdge"><path codeLine="218" d="M752.744,244.36 C780.965,269.39 806.6523,292.1586 834.6343,316.9786 " fill="none" id="StreamGraph-to-StreamEdge" style="stroke:#181818;stroke-width:1.0;stroke-dasharray:7.0,7.0;"/><polygon fill="#181818" points="839.123,320.96,835.0443,311.9954,835.3824,317.6421,829.7357,317.9803,839.123,320.96" style="stroke:#181818;stroke-width:1.0;"/><text fill="#000000" font-family="sans-serif" font-size="13" lengthAdjust="spacing" textLength="54" x="804" y="287.0669">contains</text></g><!--link StreamEdge to StreamNode--><g id="link_StreamEdge_StreamNode"><path codeLine="219" d="M962.639,516.12 C969.664,562.48 977.3292,613.0677 985.1152,664.4577 " fill="none" id="StreamEdge-to-StreamNode" style="stroke:#181818;stroke-width:1.0;stroke-dasharray:7.0,7.0;"/><polygon fill="#181818" points="986.014,670.39,988.6207,660.8924,985.265,665.4464,980.7109,662.0907,986.014,670.39" style="stroke:#181818;stroke-width:1.0;"/><text fill="#000000" font-family="sans-serif" font-size="13" lengthAdjust="spacing" textLength="67" x="971" y="559.0669">: connects</text></g><!--link JobGraph to JobVertex--><g id="link_JobGraph_JobVertex"><path codeLine="220" d="M718.396,1040.13 C760.671,1101.88 800.7417,1160.419 834.3197,1209.469 " fill="none" id="JobGraph-to-JobVertex" style="stroke:#181818;stroke-width:1.0;stroke-dasharray:7.0,7.0;"/><polygon fill="#181818" points="837.709,1214.42,835.9257,1204.7339,834.8846,1210.2941,829.3244,1209.253,837.709,1214.42" style="stroke:#181818;stroke-width:1.0;"/><text fill="#000000" font-family="sans-serif" font-size="13" lengthAdjust="spacing" textLength="54" x="743" y="1083.0669">contains</text></g><!--link ExecutionGraph to AccessExecutionGraph--><g id="link_ExecutionGraph_AccessExecutionGraph"><path codeLine="221" d="M1489,840.57 C1489,890.17 1489,993.07 1489,1098.74 " fill="none" id="ExecutionGraph-to-AccessExecutionGraph" style="stroke:#181818;stroke-width:1.0;"/><polygon fill="none" points="1489,1116.74,1495,1098.74,1483,1098.74,1489,1116.74" style="stroke:#181818;stroke-width:1.0;"/></g><!--link AccessExecutionGraph to AccessExecutionJobVertex--><g id="link_AccessExecutionGraph_AccessExecutionJobVertex"><path codeLine="222" d="M1498.22,1490.26 C1499.54,1516.71 1500.542,1537.0474 1501.732,1560.9774 " fill="none" id="AccessExecutionGraph-to-AccessExecutionJobVertex" style="stroke:#181818;stroke-width:1.0;stroke-dasharray:7.0,7.0;"/><polygon fill="#181818" points="1502.03,1566.97,1505.5781,1557.7824,1501.7817,1561.9762,1497.5879,1558.1798,1502.03,1566.97" style="stroke:#181818;stroke-width:1.0;"/><text fill="#000000" font-family="sans-serif" font-size="13" lengthAdjust="spacing" textLength="54" x="1501" y="1533.0669">contains</text></g><!--link AccessExecutionJobVertex to AccessExecutionVertex--><g id="link_AccessExecutionJobVertex_AccessExecutionVertex"><path codeLine="223" d="M1487.57,1769.1 C1482.69,1794.21 1478.6126,1815.2098 1473.7826,1840.1098 " fill="none" id="AccessExecutionJobVertex-to-AccessExecutionVertex" style="stroke:#181818;stroke-width:1.0;stroke-dasharray:7.0,7.0;"/><polygon fill="#181818" points="1472.64,1846,1478.2806,1837.9264,1473.5921,1841.0915,1470.427,1836.403,1472.64,1846" style="stroke:#181818;stroke-width:1.0;"/><text fill="#000000" font-family="sans-serif" font-size="13" lengthAdjust="spacing" textLength="54" x="1481" y="1812.0669">contains</text></g><!--link AccessExecutionVertex to AccessExecution--><g id="link_AccessExecutionVertex_AccessExecution"><path codeLine="224" d="M1457.51,2040.385 C1458.4,2064.725 1459.1404,2085.256 1460.0804,2110.921 " fill="none" id="AccessExecutionVertex-to-AccessExecution" style="stroke:#181818;stroke-width:1.0;stroke-dasharray:7.0,7.0;"/><polygon fill="#181818" points="1460.3,2116.917,1463.9679,2107.7766,1460.117,2111.9204,1455.9733,2108.0694,1460.3,2116.917" style="stroke:#181818;stroke-width:1.0;"/><text fill="#000000" font-family="sans-serif" font-size="13" lengthAdjust="spacing" textLength="54" x="1460" y="2083.0669">contains</text></g><!--link Execution to Task--><g id="link_Execution_Task"><path codeLine="225" d="M1465,2486.134 C1465,2513.472 1465,2552.683 1465,2579.974 " fill="none" id="Execution-to-Task" style="stroke:#181818;stroke-width:1.0;stroke-dasharray:7.0,7.0;"/><polygon fill="#181818" points="1465,2585.974,1469,2576.974,1465,2580.974,1461,2576.974,1465,2585.974" style="stroke:#181818;stroke-width:1.0;"/><text fill="#000000" font-family="sans-serif" font-size="13" lengthAdjust="spacing" textLength="50" x="1466" y="2531.0669">deploys</text></g><!--link Task to TaskInvokable--><g id="link_Task_TaskInvokable"><path codeLine="226" d="M1471.4,2634.135 C1477.47,2656.126 1484.9612,2683.2289 1491.0312,2705.1849 " fill="none" id="Task-to-TaskInvokable" style="stroke:#181818;stroke-width:1.0;stroke-dasharray:7.0,7.0;"/><polygon fill="#181818" points="1492.63,2710.968,1494.0872,2701.2275,1491.2977,2706.1488,1486.3764,2703.3593,1492.63,2710.968" style="stroke:#181818;stroke-width:1.0;"/><text fill="#000000" font-family="sans-serif" font-size="13" lengthAdjust="spacing" textLength="28" x="1485" y="2677.0669">runs</text></g><!--link JobGraph to AccessExecutionGraph--><g id="link_JobGraph_AccessExecutionGraph"><path codeLine="228" d="M814.637,1031 C820.4,1034.14 826.191,1037.15 832,1040 C974.961,1110.22 1034.09,1057.92 1182,1117 C1201.08,1124.62 1214.9733,1130.697 1234.0533,1140.147 " fill="none" id="JobGraph-to-AccessExecutionGraph" style="stroke:#181818;stroke-width:1.0;stroke-dasharray:7.0,7.0;"/><polygon fill="#181818" points="1239.43,1142.81,1233.1403,1135.2311,1234.9494,1140.5909,1229.5897,1142.4,1239.43,1142.81" style="stroke:#181818;stroke-width:1.0;"/><text fill="#000000" font-family="sans-serif" font-size="13" lengthAdjust="spacing" textLength="69" x="1063" y="1083.0669">represents</text></g><!--link JobVertex to AccessExecutionJobVertex--><g id="link_JobVertex_AccessExecutionJobVertex"><path codeLine="229" d="M1043.52,1392.57 C1094.8,1423.49 1152.9,1458.4 1206,1490 C1248.07,1515.04 1288.3684,1538.8478 1330.9184,1563.8778 " fill="none" id="JobVertex-to-AccessExecutionJobVertex" style="stroke:#181818;stroke-width:1.0;stroke-dasharray:7.0,7.0;"/><polygon fill="#181818" points="1336.09,1566.92,1330.3608,1558.909,1331.7804,1564.3849,1326.3045,1565.8045,1336.09,1566.92" style="stroke:#181818;stroke-width:1.0;"/><text fill="#000000" font-family="sans-serif" font-size="13" lengthAdjust="spacing" textLength="69" x="1281" y="1533.0669">represents</text></g><!--SRC=[hLbTR-Cs5dttho3cPH8Wuopwc1ruuSHEepQ9WyZfe2YAWfPecur4QaagZhix_tqFgIzAbfpCTESXOv7tNjwFmyDBwVpZY7majpnYGhEO64dCbf5fHYFy5ygrsL75oBNCHKmDbuASJCFhKu97feWKp6fBHL89gKWAe_WgDnX82ek4RXHZAHD6Zma96NFcxnVBu6fErZnn-Z7NXHuSs76pXGpNP2VLCrd358rZRfUc2U420wbpn2egjg4gvcA3fREzufkj8N8dcD9Rdc6zfGqblAwSqONXQbd4kfTv6OeNTPcCC_8B3DcGVnZ_Wvn0m2fzA6S_dFxJQQTqJuGq9DUiiKxOQyGo0tVXM9ebd8h8QPVHrMl0nrzB8t9bAEIf2uN8jIz6g86sDO1_MsEoY_FptMutfixXiLIRyoh4yrjazZwSVuBJfSwJI9ZMIDQ_SwwGujMUq0nEHNG5LnEwimLqTNBrXnCxXOIBpHdH9G2wLMfoLdc8o7q1P8qAyc4QaY3yG2wdOH2UMIDVWkNDucb9lamV7wVtos0UaiKZkLhSpu9biBZ7qpMPtlzAVWxkPsU48LrOXxrcoaO0DxdD9el7rbQ5fie5YnNxh3CMyJMF49hOv7J3o4Q-C2KiJZAcKgvjLJKSZAsPXAVSE4ZfmxZiGkUZqUYZpRf6sZCODNcQZ57OyoYXMd-AEP97qz48rNYsort1HM78VqQsN4w6X4OnclweQBOjn-q_xKRlPGneNf0xcdqEX64RfivA1JirQSHbhYAcBn2vgIIzMIwUX-PUk38vJK8UiqLkijouDJjBBlCiOJyqpuNaacucZQ4__gX_RfZvIQxkQSfEJk4z74Q2ExFBVLRCbh_hwV6u_edjlK1PA5ZZP3osmY-In_vqwE8UcaJOtQclxY-s9U3DriRk9gy05zWHcYbE4_uNeAgOHHSALl1RkVF-bAlnwA20DcrU_NYCLRamzO1HLEYQefwUWjbXPi0KweRgxU6CbvIKYqTMrXk2rUyGqAvbuFQQAUpeHh9NpZEh4sd2BRMh_gXadXtw4CbR6Jdl1mGyQx8ispMDy7TVo29BY_PuanqW8AmIhm81XMLhwFE_9WF2mE9HQIxcySQbwXOizBdmmmur8Z8tTk2O21S0_BKh7yI2viatueiilCSIUGUOSOisc65u3EB3l1Q52xg8AeQhZDhTTgXggC9sEr0jXe-hocgFry7WTsVsWIhZ3c1GOrLYRwo9x3NQWd7PdTqabU3S6_JoRC333CHfs8mQggttI_cWP9n7pAM-BG1I2sQ72GQhT2cru9rWLh5EgLPE3R6L1-etY0lJT_ILfxbD0KqIbd2TEaa_zOMHAodMV9ChjvsSJ6l4bxxQikWvax21KEtPgwlLcncCLfE-QY1G29eKXyuDGs5MZ9ebJndAvwmaiatC8NrXpYBe0iXWhIM79bi6QlQSlx8ejy4KaHKMwjbVQ9AppnqPRxlfsLxGb4TERILbmgZmPbkXpuLjL-81qMcMAOco02-Mlv975japVtzCgrrqD7i6PtwHX03miugVKG0xmLudVR9JFLMAxgjI5PA__LwBhhc8Yy7BFI1PYmIpbaOBeNcw0jsjM-xuq6fx7NO8lQmXUe3kJ2k0gpRBDrgTYKa7qI4EoLpVIFbSg3WcROrF1XnzmgatHKXhd0c5hkqzYcruHcPDwtXbMzevBXBxILV_9wek4xdwcUszrHz055G0-kLKdvOlJiss4TbIRKKYa1F4hj6wwmEez3GJ5UyqM7UjzFiwYRhiRTPgAAl2o7k82rDly13OwWs9BbAATJg3RSPvaSysuYiRq8dxUoifMcV7SVRH5wzEe63crQ4PVA3SwrH_6u_7lvEJqoEfB_BpPkvfNQQFkFXH_JmUVMrwTCpTKO5VgYo3EvE0Jbm38-mxNRFMjvqmRxJ4Mee7t206fgSgslANVbOTc1lORWrrNabfhyWsrvwr8_CjQ22Tx18fOo8-4fPtUi4CadfKrhO3YToy8Nfm93jVggGNXDDrDTVssDE6fjb9BTHt0bvJdkIA1M8jdSMvKe0YdeQNBr3NvV0ELdefVPeaBJQtnEUPEHiqqdlcB6KcaJtStfDatpwitcK7tjGI_MTUnqpNnX3GRBPrA6Ycjz9qGDQQ6x24PVCqJomGqNha2HGS8d2LBmzmx_b0s3jrsxPqquuS73lDr6Br9ulCfCiwvIkbTIyds6lPCEcGtRPu4-HKnAPp5ZHqSq0qVfyxo4e3fqY3g_XxZfDsHVxsoL9THz7OszTYJgGpDWI6pSQ-t4C_q6pxEdOtDA2u1D6tODsBPWyjG-kwXiM7qRU3yHr0yewp0J2LLNulcdh3RMF4fiW2u0itsp1VsQCn436uxNX_SI0wt9MsAtMiUDKPq_1sM_3xoDjtuORRQyo-xKGvECHfkLAeGoqzDOQbcUc3qt4BKwtvHZGlQAhUsbcoPIXRa6hylQYf83CbMLaS50Ff4m10sNKEqiK97xDn2rhGo9fzJ0HwAKU_zasm601KlLprqZMIY5XdKhZNyKEhdxu1rpPGoxoNLDOjHvlHteNIncPnpNhhSlNDwDNrVRjz7ZcfkOZV9_Wjc-70ylzb0tL8yNjWF705_7kCMbr05dSCmb7Pk5HFxzq-5-x342wYEKqgIhKVB5QuX6AqPDz-u9_0BSEpn7wJSKZI9AA2h1X9SG6otqyAWmDCVEhV11lOsyyQnLUoWHtnrR-xU2blVMImuxLyPwCjtQOexsrj8VzbfJFXUTDIyyMdPR8Qc-_HkgGcsdRNE30rwYcXLIh0LgG6jDDpvHD-JakAifdpFx_WWZbfkhGBzuNENlnjicH7SkA_zxzm7pWfx0v8bQ-NEr9kj6lAIGcqd7fKkrBwLGBDizFf43zz-k-ajo4TzTvShTd1qy1RPL2cny2RsiEglO4vGOUB2nApB95xFNAFrNW3imkYSgYsqzOR-4M349VbOP_yV3Gw_mC0]--></g></svg>