<?xml version="1.0" encoding="UTF-8" standalone="no"?><svg xmlns="http://www.w3.org/2000/svg" xmlns:xlink="http://www.w3.org/1999/xlink" contentStyleType="text/css" height="439px" preserveAspectRatio="none" style="width:1958px;height:439px;background:#FFFFFF;" version="1.1" viewBox="0 0 1958 439" width="1958px" zoomAndPan="magnify"><defs/><g><!--MD5=[cf23bcdb1cdd7b700fd476ef473d16ce]
cluster Receiver--><g id="cluster_Receiver"><rect fill="none" height="331" rx="2.5" ry="2.5" style="stroke:#181818;stroke-width:1.0;" width="618" x="7" y="7"/><path d="M85,7 L85,16.2969 L75,26.2969 L7,26.2969 " fill="none" style="stroke:#181818;stroke-width:1.0;"/><text fill="#000000" font-family="sans-serif" font-size="14" font-weight="bold" lengthAdjust="spacing" textLength="68" x="10" y="20.9951">Receiver</text></g><!--MD5=[30d251c4d41fe85c8ec758fe14067892]
cluster Sender--><g id="cluster_Sender"><rect fill="none" height="201" rx="2.5" ry="2.5" style="stroke:#181818;stroke-width:1.0;" width="441" x="1511" y="137"/><path d="M1576,137 L1576,146.2969 L1566,156.2969 L1511,156.2969 " fill="none" style="stroke:#181818;stroke-width:1.0;"/><text fill="#000000" font-family="sans-serif" font-size="14" font-weight="bold" lengthAdjust="spacing" textLength="55" x="1514" y="150.9951">Sender</text></g><!--MD5=[0c32f742e4393f99f23758f33c9f4ec5]
cluster Endpoints--><g id="cluster_Endpoints"><rect fill="none" height="182" rx="2.5" ry="2.5" style="stroke:#181818;stroke-width:1.0;" width="584" x="903" y="251"/><path d="M994,251 L994,260.2969 L984,270.2969 L903,270.2969 " fill="none" style="stroke:#181818;stroke-width:1.0;"/><text fill="#000000" font-family="sans-serif" font-size="14" font-weight="bold" lengthAdjust="spacing" textLength="81" x="906" y="264.9951">Endpoints</text></g><!--MD5=[c9b685892a9ae09e1f2a43cb371e50a6]
class AbstractActor--><g id="elem_AbstractActor"><rect codeLine="9" fill="#F1F1F1" height="40.2656" id="AbstractActor" rx="2.5" ry="2.5" style="stroke:#181818;stroke-width:0.5;" width="135" x="471.5" y="282"/><ellipse cx="486.5" cy="302.1328" fill="#ADD1B2" rx="11" ry="11" style="stroke:#181818;stroke-width:1.0;"/><path d="M488.8438,297.8047 C487.9063,297.3672 487.3125,297.2266 486.4375,297.2266 C483.8125,297.2266 481.8125,299.3047 481.8125,302.0234 L481.8125,303.1484 C481.8125,305.7266 483.9219,307.6172 486.8125,307.6172 C488.0313,307.6172 489.1875,307.3203 489.9375,306.7734 C490.5156,306.3672 490.8438,305.9141 490.8438,305.5234 C490.8438,305.0703 490.4531,304.6797 489.9844,304.6797 C489.7656,304.6797 489.5625,304.7578 489.375,304.9453 C488.9219,305.4297 488.9219,305.4297 488.7344,305.5234 C488.3125,305.7891 487.625,305.9141 486.8594,305.9141 C484.8125,305.9141 483.5156,304.8203 483.5156,303.1172 L483.5156,302.0234 C483.5156,300.2422 484.7656,298.9297 486.5,298.9297 C487.0781,298.9297 487.6875,299.0859 488.1563,299.3359 C488.6406,299.6172 488.8125,299.8359 488.9063,300.2422 C488.9688,300.6484 489,300.7734 489.1406,300.8984 C489.2813,301.0391 489.5156,301.1484 489.7344,301.1484 C490,301.1484 490.2656,301.0078 490.4375,300.7891 C490.5469,300.6328 490.5781,300.4453 490.5781,300.0234 L490.5781,298.6016 C490.5781,298.1641 490.5625,298.0391 490.4688,297.8828 C490.3125,297.6172 490.0313,297.4766 489.7344,297.4766 C489.4375,297.4766 489.2344,297.5703 489.0156,297.8828 L488.8438,297.8047 Z " fill="#000000"/><text fill="#000000" font-family="sans-serif" font-size="12" font-style="italic" lengthAdjust="spacing" textLength="42" x="531" y="298.1387">«akka»</text><text fill="#000000" font-family="sans-serif" font-size="14" lengthAdjust="spacing" textLength="103" x="500.5" y="313.9639">AbstractActor</text></g><!--MD5=[802205ae2df9e1d0da008729515a049e]
class AkkaRpcActor--><g id="elem_AkkaRpcActor"><rect codeLine="10" fill="#F1F1F1" height="32" id="AkkaRpcActor" rx="2.5" ry="2.5" style="stroke:#181818;stroke-width:0.5;" width="136" x="473" y="172"/><ellipse cx="488" cy="188" fill="#ADD1B2" rx="11" ry="11" style="stroke:#181818;stroke-width:1.0;"/><path d="M490.3438,183.6719 C489.4063,183.2344 488.8125,183.0938 487.9375,183.0938 C485.3125,183.0938 483.3125,185.1719 483.3125,187.8906 L483.3125,189.0156 C483.3125,191.5938 485.4219,193.4844 488.3125,193.4844 C489.5313,193.4844 490.6875,193.1875 491.4375,192.6406 C492.0156,192.2344 492.3438,191.7813 492.3438,191.3906 C492.3438,190.9375 491.9531,190.5469 491.4844,190.5469 C491.2656,190.5469 491.0625,190.625 490.875,190.8125 C490.4219,191.2969 490.4219,191.2969 490.2344,191.3906 C489.8125,191.6563 489.125,191.7813 488.3594,191.7813 C486.3125,191.7813 485.0156,190.6875 485.0156,188.9844 L485.0156,187.8906 C485.0156,186.1094 486.2656,184.7969 488,184.7969 C488.5781,184.7969 489.1875,184.9531 489.6563,185.2031 C490.1406,185.4844 490.3125,185.7031 490.4063,186.1094 C490.4688,186.5156 490.5,186.6406 490.6406,186.7656 C490.7813,186.9063 491.0156,187.0156 491.2344,187.0156 C491.5,187.0156 491.7656,186.875 491.9375,186.6563 C492.0469,186.5 492.0781,186.3125 492.0781,185.8906 L492.0781,184.4688 C492.0781,184.0313 492.0625,183.9063 491.9688,183.75 C491.8125,183.4844 491.5313,183.3438 491.2344,183.3438 C490.9375,183.3438 490.7344,183.4375 490.5156,183.75 L490.3438,183.6719 Z " fill="#000000"/><text fill="#000000" font-family="sans-serif" font-size="14" lengthAdjust="spacing" textLength="104" x="502" y="192.8467">AkkaRpcActor</text></g><!--MD5=[40376e5d780b5b867bf5b76c7ca83650]
class AkkaRpcService--><g id="elem_AkkaRpcService"><rect codeLine="11" fill="#F1F1F1" height="32" id="AkkaRpcService" rx="2.5" ry="2.5" style="stroke:#181818;stroke-width:0.5;" width="149" x="257.5" y="172"/><ellipse cx="272.5" cy="188" fill="#ADD1B2" rx="11" ry="11" style="stroke:#181818;stroke-width:1.0;"/><path d="M274.8438,183.6719 C273.9063,183.2344 273.3125,183.0938 272.4375,183.0938 C269.8125,183.0938 267.8125,185.1719 267.8125,187.8906 L267.8125,189.0156 C267.8125,191.5938 269.9219,193.4844 272.8125,193.4844 C274.0313,193.4844 275.1875,193.1875 275.9375,192.6406 C276.5156,192.2344 276.8438,191.7813 276.8438,191.3906 C276.8438,190.9375 276.4531,190.5469 275.9844,190.5469 C275.7656,190.5469 275.5625,190.625 275.375,190.8125 C274.9219,191.2969 274.9219,191.2969 274.7344,191.3906 C274.3125,191.6563 273.625,191.7813 272.8594,191.7813 C270.8125,191.7813 269.5156,190.6875 269.5156,188.9844 L269.5156,187.8906 C269.5156,186.1094 270.7656,184.7969 272.5,184.7969 C273.0781,184.7969 273.6875,184.9531 274.1563,185.2031 C274.6406,185.4844 274.8125,185.7031 274.9063,186.1094 C274.9688,186.5156 275,186.6406 275.1406,186.7656 C275.2813,186.9063 275.5156,187.0156 275.7344,187.0156 C276,187.0156 276.2656,186.875 276.4375,186.6563 C276.5469,186.5 276.5781,186.3125 276.5781,185.8906 L276.5781,184.4688 C276.5781,184.0313 276.5625,183.9063 276.4688,183.75 C276.3125,183.4844 276.0313,183.3438 275.7344,183.3438 C275.4375,183.3438 275.2344,183.4375 275.0156,183.75 L274.8438,183.6719 Z " fill="#000000"/><text fill="#000000" font-family="sans-serif" font-size="14" lengthAdjust="spacing" textLength="117" x="286.5" y="192.8467">AkkaRpcService</text></g><!--MD5=[aff7a7f4a6655a5dc0a79b0cf31acc4a]
class RpcService--><g id="elem_RpcService"><rect fill="#F1F1F1" height="32" id="RpcService" rx="2.5" ry="2.5" style="stroke:#181818;stroke-width:0.5;" width="112" x="276" y="42"/><ellipse cx="291" cy="58" fill="#B4A7E5" rx="11" ry="11" style="stroke:#181818;stroke-width:1.0;"/><path d="M291.9531,54.7813 L293.6719,54.7813 C294.0625,54.7813 294.25,54.75 294.375,54.6719 C294.6406,54.5156 294.7813,54.2344 294.7813,53.9375 C294.7813,53.6719 294.6719,53.4063 294.4375,53.2344 C294.2656,53.125 294.125,53.0938 293.6719,53.0938 L288.5313,53.0938 C288.0938,53.0938 287.9688,53.1094 287.8125,53.2031 C287.5625,53.3594 287.4063,53.6563 287.4063,53.9375 C287.4063,54.2188 287.5469,54.4688 287.7656,54.6406 C287.9219,54.75 288.1094,54.7813 288.5313,54.7813 L290.25,54.7813 L290.25,61.2969 L288.5313,61.2969 C288.0938,61.2969 287.9688,61.3125 287.8125,61.4219 C287.5625,61.5781 287.4063,61.8594 287.4063,62.1563 C287.4063,62.4063 287.5469,62.6719 287.7656,62.8281 C287.9219,62.9531 288.125,63 288.5313,63 L293.6719,63 C294.4219,63 294.7813,62.7188 294.7813,62.1563 C294.7813,61.875 294.6719,61.625 294.4375,61.4531 C294.2656,61.3281 294.125,61.2969 293.6719,61.2969 L291.9531,61.2969 L291.9531,54.7813 Z " fill="#000000"/><text fill="#000000" font-family="sans-serif" font-size="14" font-style="italic" lengthAdjust="spacing" textLength="80" x="305" y="62.8467">RpcService</text></g><!--MD5=[c8a839832e35913b7d2ef21e64c1ae85]
class AkkaRpcSystem--><g id="elem_AkkaRpcSystem"><rect codeLine="12" fill="#F1F1F1" height="32" id="AkkaRpcSystem" rx="2.5" ry="2.5" style="stroke:#181818;stroke-width:0.5;" width="150" x="23" y="172"/><ellipse cx="38" cy="188" fill="#ADD1B2" rx="11" ry="11" style="stroke:#181818;stroke-width:1.0;"/><path d="M40.3438,183.6719 C39.4063,183.2344 38.8125,183.0938 37.9375,183.0938 C35.3125,183.0938 33.3125,185.1719 33.3125,187.8906 L33.3125,189.0156 C33.3125,191.5938 35.4219,193.4844 38.3125,193.4844 C39.5313,193.4844 40.6875,193.1875 41.4375,192.6406 C42.0156,192.2344 42.3438,191.7813 42.3438,191.3906 C42.3438,190.9375 41.9531,190.5469 41.4844,190.5469 C41.2656,190.5469 41.0625,190.625 40.875,190.8125 C40.4219,191.2969 40.4219,191.2969 40.2344,191.3906 C39.8125,191.6563 39.125,191.7813 38.3594,191.7813 C36.3125,191.7813 35.0156,190.6875 35.0156,188.9844 L35.0156,187.8906 C35.0156,186.1094 36.2656,184.7969 38,184.7969 C38.5781,184.7969 39.1875,184.9531 39.6563,185.2031 C40.1406,185.4844 40.3125,185.7031 40.4063,186.1094 C40.4688,186.5156 40.5,186.6406 40.6406,186.7656 C40.7813,186.9063 41.0156,187.0156 41.2344,187.0156 C41.5,187.0156 41.7656,186.875 41.9375,186.6563 C42.0469,186.5 42.0781,186.3125 42.0781,185.8906 L42.0781,184.4688 C42.0781,184.0313 42.0625,183.9063 41.9688,183.75 C41.8125,183.4844 41.5313,183.3438 41.2344,183.3438 C40.9375,183.3438 40.7344,183.4375 40.5156,183.75 L40.3438,183.6719 Z " fill="#000000"/><text fill="#000000" font-family="sans-serif" font-size="14" lengthAdjust="spacing" textLength="118" x="52" y="192.8467">AkkaRpcSystem</text></g><!--MD5=[94b621c28f4d033a8762823330b05b90]
class RpcSystem--><g id="elem_RpcSystem"><rect fill="#F1F1F1" height="32" id="RpcSystem" rx="2.5" ry="2.5" style="stroke:#181818;stroke-width:0.5;" width="111" x="70.5" y="42"/><ellipse cx="85.5" cy="58" fill="#B4A7E5" rx="11" ry="11" style="stroke:#181818;stroke-width:1.0;"/><path d="M86.4531,54.7813 L88.1719,54.7813 C88.5625,54.7813 88.75,54.75 88.875,54.6719 C89.1406,54.5156 89.2813,54.2344 89.2813,53.9375 C89.2813,53.6719 89.1719,53.4063 88.9375,53.2344 C88.7656,53.125 88.625,53.0938 88.1719,53.0938 L83.0313,53.0938 C82.5938,53.0938 82.4688,53.1094 82.3125,53.2031 C82.0625,53.3594 81.9063,53.6563 81.9063,53.9375 C81.9063,54.2188 82.0469,54.4688 82.2656,54.6406 C82.4219,54.75 82.6094,54.7813 83.0313,54.7813 L84.75,54.7813 L84.75,61.2969 L83.0313,61.2969 C82.5938,61.2969 82.4688,61.3125 82.3125,61.4219 C82.0625,61.5781 81.9063,61.8594 81.9063,62.1563 C81.9063,62.4063 82.0469,62.6719 82.2656,62.8281 C82.4219,62.9531 82.625,63 83.0313,63 L88.1719,63 C88.9219,63 89.2813,62.7188 89.2813,62.1563 C89.2813,61.875 89.1719,61.625 88.9375,61.4531 C88.7656,61.3281 88.625,61.2969 88.1719,61.2969 L86.4531,61.2969 L86.4531,54.7813 Z " fill="#000000"/><text fill="#000000" font-family="sans-serif" font-size="14" font-style="italic" lengthAdjust="spacing" textLength="79" x="99.5" y="62.8467">RpcSystem</text></g><!--MD5=[6c96b193ebefdf5e53500d3e2a156c12]
class RpcServer--><g id="elem_RpcServer"><rect codeLine="28" fill="#F1F1F1" height="32" id="RpcServer" rx="2.5" ry="2.5" style="stroke:#181818;stroke-width:0.5;" width="106" x="1527" y="172"/><ellipse cx="1542" cy="188" fill="#B4A7E5" rx="11" ry="11" style="stroke:#181818;stroke-width:1.0;"/><path d="M1542.9531,184.7813 L1544.6719,184.7813 C1545.0625,184.7813 1545.25,184.75 1545.375,184.6719 C1545.6406,184.5156 1545.7813,184.2344 1545.7813,183.9375 C1545.7813,183.6719 1545.6719,183.4063 1545.4375,183.2344 C1545.2656,183.125 1545.125,183.0938 1544.6719,183.0938 L1539.5313,183.0938 C1539.0938,183.0938 1538.9688,183.1094 1538.8125,183.2031 C1538.5625,183.3594 1538.4063,183.6563 1538.4063,183.9375 C1538.4063,184.2188 1538.5469,184.4688 1538.7656,184.6406 C1538.9219,184.75 1539.1094,184.7813 1539.5313,184.7813 L1541.25,184.7813 L1541.25,191.2969 L1539.5313,191.2969 C1539.0938,191.2969 1538.9688,191.3125 1538.8125,191.4219 C1538.5625,191.5781 1538.4063,191.8594 1538.4063,192.1563 C1538.4063,192.4063 1538.5469,192.6719 1538.7656,192.8281 C1538.9219,192.9531 1539.125,193 1539.5313,193 L1544.6719,193 C1545.4219,193 1545.7813,192.7188 1545.7813,192.1563 C1545.7813,191.875 1545.6719,191.625 1545.4375,191.4531 C1545.2656,191.3281 1545.125,191.2969 1544.6719,191.2969 L1542.9531,191.2969 L1542.9531,184.7813 Z " fill="#000000"/><text fill="#000000" font-family="sans-serif" font-size="14" font-style="italic" lengthAdjust="spacing" textLength="74" x="1556" y="192.8467">RpcServer</text></g><!--MD5=[9c639101024087ad84c18844edd7a6d5]
class AkkaInvocationHandler--><g id="elem_AkkaInvocationHandler"><rect codeLine="30" fill="#F1F1F1" height="32" id="AkkaInvocationHandler" rx="2.5" ry="2.5" style="stroke:#181818;stroke-width:0.5;" width="198" x="1527" y="286"/><ellipse cx="1542" cy="302" fill="#ADD1B2" rx="11" ry="11" style="stroke:#181818;stroke-width:1.0;"/><path d="M1544.3438,297.6719 C1543.4063,297.2344 1542.8125,297.0938 1541.9375,297.0938 C1539.3125,297.0938 1537.3125,299.1719 1537.3125,301.8906 L1537.3125,303.0156 C1537.3125,305.5938 1539.4219,307.4844 1542.3125,307.4844 C1543.5313,307.4844 1544.6875,307.1875 1545.4375,306.6406 C1546.0156,306.2344 1546.3438,305.7813 1546.3438,305.3906 C1546.3438,304.9375 1545.9531,304.5469 1545.4844,304.5469 C1545.2656,304.5469 1545.0625,304.625 1544.875,304.8125 C1544.4219,305.2969 1544.4219,305.2969 1544.2344,305.3906 C1543.8125,305.6563 1543.125,305.7813 1542.3594,305.7813 C1540.3125,305.7813 1539.0156,304.6875 1539.0156,302.9844 L1539.0156,301.8906 C1539.0156,300.1094 1540.2656,298.7969 1542,298.7969 C1542.5781,298.7969 1543.1875,298.9531 1543.6563,299.2031 C1544.1406,299.4844 1544.3125,299.7031 1544.4063,300.1094 C1544.4688,300.5156 1544.5,300.6406 1544.6406,300.7656 C1544.7813,300.9063 1545.0156,301.0156 1545.2344,301.0156 C1545.5,301.0156 1545.7656,300.875 1545.9375,300.6563 C1546.0469,300.5 1546.0781,300.3125 1546.0781,299.8906 L1546.0781,298.4688 C1546.0781,298.0313 1546.0625,297.9063 1545.9688,297.75 C1545.8125,297.4844 1545.5313,297.3438 1545.2344,297.3438 C1544.9375,297.3438 1544.7344,297.4375 1544.5156,297.75 L1544.3438,297.6719 Z " fill="#000000"/><text fill="#000000" font-family="sans-serif" font-size="14" lengthAdjust="spacing" textLength="166" x="1556" y="306.8467">AkkaInvocationHandler</text></g><g id="elem_GMN28"><path d="M1760,282 L1760,298 L1725.29,302 L1760,306 L1760,322.2656 A0,0 0 0 0 1760,322.2656 L1936,322.2656 A0,0 0 0 0 1936,322.2656 L1936,292 L1926,282 L1760,282 A0,0 0 0 0 1760,282 " fill="#FEFFDD" style="stroke:#181818;stroke-width:0.5;"/><path d="M1926,282 L1926,292 L1936,292 L1926,282 " fill="#FEFFDD" style="stroke:#181818;stroke-width:0.5;"/><text fill="#000000" font-family="sans-serif" font-size="13" lengthAdjust="spacing" textLength="146" x="1766" y="299.0669">Server sends RPC calls</text><text fill="#000000" font-family="sans-serif" font-size="13" lengthAdjust="spacing" textLength="155" x="1766" y="314.1997">to the Akka RPC system</text></g><!--MD5=[f1a375cc0ebc9f2bec7aa9b05864ef19]
class TaskExecutor--><g id="elem_TaskExecutor"><rect codeLine="42" fill="#F1F1F1" height="32" id="TaskExecutor" rx="2.5" ry="2.5" style="stroke:#181818;stroke-width:0.5;" width="129" x="919.5" y="286"/><ellipse cx="934.5" cy="302" fill="#ADD1B2" rx="11" ry="11" style="stroke:#181818;stroke-width:1.0;"/><path d="M936.8438,297.6719 C935.9063,297.2344 935.3125,297.0938 934.4375,297.0938 C931.8125,297.0938 929.8125,299.1719 929.8125,301.8906 L929.8125,303.0156 C929.8125,305.5938 931.9219,307.4844 934.8125,307.4844 C936.0313,307.4844 937.1875,307.1875 937.9375,306.6406 C938.5156,306.2344 938.8438,305.7813 938.8438,305.3906 C938.8438,304.9375 938.4531,304.5469 937.9844,304.5469 C937.7656,304.5469 937.5625,304.625 937.375,304.8125 C936.9219,305.2969 936.9219,305.2969 936.7344,305.3906 C936.3125,305.6563 935.625,305.7813 934.8594,305.7813 C932.8125,305.7813 931.5156,304.6875 931.5156,302.9844 L931.5156,301.8906 C931.5156,300.1094 932.7656,298.7969 934.5,298.7969 C935.0781,298.7969 935.6875,298.9531 936.1563,299.2031 C936.6406,299.4844 936.8125,299.7031 936.9063,300.1094 C936.9688,300.5156 937,300.6406 937.1406,300.7656 C937.2813,300.9063 937.5156,301.0156 937.7344,301.0156 C938,301.0156 938.2656,300.875 938.4375,300.6563 C938.5469,300.5 938.5781,300.3125 938.5781,299.8906 L938.5781,298.4688 C938.5781,298.0313 938.5625,297.9063 938.4688,297.75 C938.3125,297.4844 938.0313,297.3438 937.7344,297.3438 C937.4375,297.3438 937.2344,297.4375 937.0156,297.75 L936.8438,297.6719 Z " fill="#000000"/><text fill="#000000" font-family="sans-serif" font-size="14" lengthAdjust="spacing" textLength="97" x="948.5" y="306.8467">TaskExecutor</text></g><!--MD5=[f6862d5f331455964f45cbfe7d0b918d]
class FencedRpcEndpoint--><g id="elem_FencedRpcEndpoint"><rect codeLine="43" fill="#F1F1F1" height="32" id="FencedRpcEndpoint" rx="2.5" ry="2.5" style="stroke:#181818;stroke-width:0.5;" width="178" x="1084" y="286"/><ellipse cx="1099" cy="302" fill="#ADD1B2" rx="11" ry="11" style="stroke:#181818;stroke-width:1.0;"/><path d="M1101.3438,297.6719 C1100.4063,297.2344 1099.8125,297.0938 1098.9375,297.0938 C1096.3125,297.0938 1094.3125,299.1719 1094.3125,301.8906 L1094.3125,303.0156 C1094.3125,305.5938 1096.4219,307.4844 1099.3125,307.4844 C1100.5313,307.4844 1101.6875,307.1875 1102.4375,306.6406 C1103.0156,306.2344 1103.3438,305.7813 1103.3438,305.3906 C1103.3438,304.9375 1102.9531,304.5469 1102.4844,304.5469 C1102.2656,304.5469 1102.0625,304.625 1101.875,304.8125 C1101.4219,305.2969 1101.4219,305.2969 1101.2344,305.3906 C1100.8125,305.6563 1100.125,305.7813 1099.3594,305.7813 C1097.3125,305.7813 1096.0156,304.6875 1096.0156,302.9844 L1096.0156,301.8906 C1096.0156,300.1094 1097.2656,298.7969 1099,298.7969 C1099.5781,298.7969 1100.1875,298.9531 1100.6563,299.2031 C1101.1406,299.4844 1101.3125,299.7031 1101.4063,300.1094 C1101.4688,300.5156 1101.5,300.6406 1101.6406,300.7656 C1101.7813,300.9063 1102.0156,301.0156 1102.2344,301.0156 C1102.5,301.0156 1102.7656,300.875 1102.9375,300.6563 C1103.0469,300.5 1103.0781,300.3125 1103.0781,299.8906 L1103.0781,298.4688 C1103.0781,298.0313 1103.0625,297.9063 1102.9688,297.75 C1102.8125,297.4844 1102.5313,297.3438 1102.2344,297.3438 C1101.9375,297.3438 1101.7344,297.4375 1101.5156,297.75 L1101.3438,297.6719 Z " fill="#000000"/><text fill="#000000" font-family="sans-serif" font-size="14" lengthAdjust="spacing" textLength="146" x="1113" y="306.8467">FencedRpcEndpoint</text></g><!--MD5=[a96d951d64068847de7dd4c8a3a68b72]
class MetricQueryService--><g id="elem_MetricQueryService"><rect codeLine="44" fill="#F1F1F1" height="32" id="MetricQueryService" rx="2.5" ry="2.5" style="stroke:#181818;stroke-width:0.5;" width="173" x="1297.5" y="286"/><ellipse cx="1312.5" cy="302" fill="#ADD1B2" rx="11" ry="11" style="stroke:#181818;stroke-width:1.0;"/><path d="M1314.8438,297.6719 C1313.9063,297.2344 1313.3125,297.0938 1312.4375,297.0938 C1309.8125,297.0938 1307.8125,299.1719 1307.8125,301.8906 L1307.8125,303.0156 C1307.8125,305.5938 1309.9219,307.4844 1312.8125,307.4844 C1314.0313,307.4844 1315.1875,307.1875 1315.9375,306.6406 C1316.5156,306.2344 1316.8438,305.7813 1316.8438,305.3906 C1316.8438,304.9375 1316.4531,304.5469 1315.9844,304.5469 C1315.7656,304.5469 1315.5625,304.625 1315.375,304.8125 C1314.9219,305.2969 1314.9219,305.2969 1314.7344,305.3906 C1314.3125,305.6563 1313.625,305.7813 1312.8594,305.7813 C1310.8125,305.7813 1309.5156,304.6875 1309.5156,302.9844 L1309.5156,301.8906 C1309.5156,300.1094 1310.7656,298.7969 1312.5,298.7969 C1313.0781,298.7969 1313.6875,298.9531 1314.1563,299.2031 C1314.6406,299.4844 1314.8125,299.7031 1314.9063,300.1094 C1314.9688,300.5156 1315,300.6406 1315.1406,300.7656 C1315.2813,300.9063 1315.5156,301.0156 1315.7344,301.0156 C1316,301.0156 1316.2656,300.875 1316.4375,300.6563 C1316.5469,300.5 1316.5781,300.3125 1316.5781,299.8906 L1316.5781,298.4688 C1316.5781,298.0313 1316.5625,297.9063 1316.4688,297.75 C1316.3125,297.4844 1316.0313,297.3438 1315.7344,297.3438 C1315.4375,297.3438 1315.2344,297.4375 1315.0156,297.75 L1314.8438,297.6719 Z " fill="#000000"/><text fill="#000000" font-family="sans-serif" font-size="14" lengthAdjust="spacing" textLength="141" x="1326.5" y="306.8467">MetricQueryService</text></g><!--MD5=[0c7624888451d2039aaef18036130ed9]
class Dispatcher--><g id="elem_Dispatcher"><rect codeLine="45" fill="#F1F1F1" height="32" id="Dispatcher" rx="2.5" ry="2.5" style="stroke:#181818;stroke-width:0.5;" width="111" x="947.5" y="385"/><ellipse cx="962.5" cy="401" fill="#ADD1B2" rx="11" ry="11" style="stroke:#181818;stroke-width:1.0;"/><path d="M964.8438,396.6719 C963.9063,396.2344 963.3125,396.0938 962.4375,396.0938 C959.8125,396.0938 957.8125,398.1719 957.8125,400.8906 L957.8125,402.0156 C957.8125,404.5938 959.9219,406.4844 962.8125,406.4844 C964.0313,406.4844 965.1875,406.1875 965.9375,405.6406 C966.5156,405.2344 966.8438,404.7813 966.8438,404.3906 C966.8438,403.9375 966.4531,403.5469 965.9844,403.5469 C965.7656,403.5469 965.5625,403.625 965.375,403.8125 C964.9219,404.2969 964.9219,404.2969 964.7344,404.3906 C964.3125,404.6563 963.625,404.7813 962.8594,404.7813 C960.8125,404.7813 959.5156,403.6875 959.5156,401.9844 L959.5156,400.8906 C959.5156,399.1094 960.7656,397.7969 962.5,397.7969 C963.0781,397.7969 963.6875,397.9531 964.1563,398.2031 C964.6406,398.4844 964.8125,398.7031 964.9063,399.1094 C964.9688,399.5156 965,399.6406 965.1406,399.7656 C965.2813,399.9063 965.5156,400.0156 965.7344,400.0156 C966,400.0156 966.2656,399.875 966.4375,399.6563 C966.5469,399.5 966.5781,399.3125 966.5781,398.8906 L966.5781,397.4688 C966.5781,397.0313 966.5625,396.9063 966.4688,396.75 C966.3125,396.4844 966.0313,396.3438 965.7344,396.3438 C965.4375,396.3438 965.2344,396.4375 965.0156,396.75 L964.8438,396.6719 Z " fill="#000000"/><text fill="#000000" font-family="sans-serif" font-size="14" lengthAdjust="spacing" textLength="79" x="976.5" y="405.8467">Dispatcher</text></g><!--MD5=[41e8030464447de9caaa30e39cb8dfb0]
class ResourceManager--><g id="elem_ResourceManager"><rect codeLine="46" fill="#F1F1F1" height="32" id="ResourceManager" rx="2.5" ry="2.5" style="stroke:#181818;stroke-width:0.5;" width="159" x="1093.5" y="385"/><ellipse cx="1108.5" cy="401" fill="#ADD1B2" rx="11" ry="11" style="stroke:#181818;stroke-width:1.0;"/><path d="M1110.8438,396.6719 C1109.9063,396.2344 1109.3125,396.0938 1108.4375,396.0938 C1105.8125,396.0938 1103.8125,398.1719 1103.8125,400.8906 L1103.8125,402.0156 C1103.8125,404.5938 1105.9219,406.4844 1108.8125,406.4844 C1110.0313,406.4844 1111.1875,406.1875 1111.9375,405.6406 C1112.5156,405.2344 1112.8438,404.7813 1112.8438,404.3906 C1112.8438,403.9375 1112.4531,403.5469 1111.9844,403.5469 C1111.7656,403.5469 1111.5625,403.625 1111.375,403.8125 C1110.9219,404.2969 1110.9219,404.2969 1110.7344,404.3906 C1110.3125,404.6563 1109.625,404.7813 1108.8594,404.7813 C1106.8125,404.7813 1105.5156,403.6875 1105.5156,401.9844 L1105.5156,400.8906 C1105.5156,399.1094 1106.7656,397.7969 1108.5,397.7969 C1109.0781,397.7969 1109.6875,397.9531 1110.1563,398.2031 C1110.6406,398.4844 1110.8125,398.7031 1110.9063,399.1094 C1110.9688,399.5156 1111,399.6406 1111.1406,399.7656 C1111.2813,399.9063 1111.5156,400.0156 1111.7344,400.0156 C1112,400.0156 1112.2656,399.875 1112.4375,399.6563 C1112.5469,399.5 1112.5781,399.3125 1112.5781,398.8906 L1112.5781,397.4688 C1112.5781,397.0313 1112.5625,396.9063 1112.4688,396.75 C1112.3125,396.4844 1112.0313,396.3438 1111.7344,396.3438 C1111.4375,396.3438 1111.2344,396.4375 1111.0156,396.75 L1110.8438,396.6719 Z " fill="#000000"/><text fill="#000000" font-family="sans-serif" font-size="14" lengthAdjust="spacing" textLength="127" x="1122.5" y="405.8467">ResourceManager</text></g><!--MD5=[108e9ca68922fa7d6f3dd34256b3ca7f]
class JobMaster--><g id="elem_JobMaster"><rect codeLine="47" fill="#F1F1F1" height="32" id="JobMaster" rx="2.5" ry="2.5" style="stroke:#181818;stroke-width:0.5;" width="104" x="1288" y="385"/><ellipse cx="1303" cy="401" fill="#ADD1B2" rx="11" ry="11" style="stroke:#181818;stroke-width:1.0;"/><path d="M1305.3438,396.6719 C1304.4063,396.2344 1303.8125,396.0938 1302.9375,396.0938 C1300.3125,396.0938 1298.3125,398.1719 1298.3125,400.8906 L1298.3125,402.0156 C1298.3125,404.5938 1300.4219,406.4844 1303.3125,406.4844 C1304.5313,406.4844 1305.6875,406.1875 1306.4375,405.6406 C1307.0156,405.2344 1307.3438,404.7813 1307.3438,404.3906 C1307.3438,403.9375 1306.9531,403.5469 1306.4844,403.5469 C1306.2656,403.5469 1306.0625,403.625 1305.875,403.8125 C1305.4219,404.2969 1305.4219,404.2969 1305.2344,404.3906 C1304.8125,404.6563 1304.125,404.7813 1303.3594,404.7813 C1301.3125,404.7813 1300.0156,403.6875 1300.0156,401.9844 L1300.0156,400.8906 C1300.0156,399.1094 1301.2656,397.7969 1303,397.7969 C1303.5781,397.7969 1304.1875,397.9531 1304.6563,398.2031 C1305.1406,398.4844 1305.3125,398.7031 1305.4063,399.1094 C1305.4688,399.5156 1305.5,399.6406 1305.6406,399.7656 C1305.7813,399.9063 1306.0156,400.0156 1306.2344,400.0156 C1306.5,400.0156 1306.7656,399.875 1306.9375,399.6563 C1307.0469,399.5 1307.0781,399.3125 1307.0781,398.8906 L1307.0781,397.4688 C1307.0781,397.0313 1307.0625,396.9063 1306.9688,396.75 C1306.8125,396.4844 1306.5313,396.3438 1306.2344,396.3438 C1305.9375,396.3438 1305.7344,396.4375 1305.5156,396.75 L1305.3438,396.6719 Z " fill="#000000"/><text fill="#000000" font-family="sans-serif" font-size="14" lengthAdjust="spacing" textLength="72" x="1317" y="405.8467">JobMaster</text></g><!--MD5=[c9c2f2c72cf5567dfd7495b3b4d195a4]
class RpcGateway--><g id="elem_RpcGateway"><rect codeLine="5" fill="#F1F1F1" height="32" id="RpcGateway" rx="2.5" ry="2.5" style="stroke:#181818;stroke-width:0.5;" width="121" x="1315.5" y="42"/><ellipse cx="1330.5" cy="58" fill="#B4A7E5" rx="11" ry="11" style="stroke:#181818;stroke-width:1.0;"/><path d="M1331.4531,54.7813 L1333.1719,54.7813 C1333.5625,54.7813 1333.75,54.75 1333.875,54.6719 C1334.1406,54.5156 1334.2813,54.2344 1334.2813,53.9375 C1334.2813,53.6719 1334.1719,53.4063 1333.9375,53.2344 C1333.7656,53.125 1333.625,53.0938 1333.1719,53.0938 L1328.0313,53.0938 C1327.5938,53.0938 1327.4688,53.1094 1327.3125,53.2031 C1327.0625,53.3594 1326.9063,53.6563 1326.9063,53.9375 C1326.9063,54.2188 1327.0469,54.4688 1327.2656,54.6406 C1327.4219,54.75 1327.6094,54.7813 1328.0313,54.7813 L1329.75,54.7813 L1329.75,61.2969 L1328.0313,61.2969 C1327.5938,61.2969 1327.4688,61.3125 1327.3125,61.4219 C1327.0625,61.5781 1326.9063,61.8594 1326.9063,62.1563 C1326.9063,62.4063 1327.0469,62.6719 1327.2656,62.8281 C1327.4219,62.9531 1327.625,63 1328.0313,63 L1333.1719,63 C1333.9219,63 1334.2813,62.7188 1334.2813,62.1563 C1334.2813,61.875 1334.1719,61.625 1333.9375,61.4531 C1333.7656,61.3281 1333.625,61.2969 1333.1719,61.2969 L1331.4531,61.2969 L1331.4531,54.7813 Z " fill="#000000"/><text fill="#000000" font-family="sans-serif" font-size="14" font-style="italic" lengthAdjust="spacing" textLength="89" x="1344.5" y="62.8467">RpcGateway</text></g><!--MD5=[59865b99f25df7b1c0f903a44caa7406]
class RpcEndpoint--><g id="elem_RpcEndpoint"><rect codeLine="29" fill="#F1F1F1" height="32" id="RpcEndpoint" rx="2.5" ry="2.5" style="stroke:#181818;stroke-width:0.5;" width="126" x="1110" y="172"/><ellipse cx="1125" cy="188" fill="#ADD1B2" rx="11" ry="11" style="stroke:#181818;stroke-width:1.0;"/><path d="M1127.3438,183.6719 C1126.4063,183.2344 1125.8125,183.0938 1124.9375,183.0938 C1122.3125,183.0938 1120.3125,185.1719 1120.3125,187.8906 L1120.3125,189.0156 C1120.3125,191.5938 1122.4219,193.4844 1125.3125,193.4844 C1126.5313,193.4844 1127.6875,193.1875 1128.4375,192.6406 C1129.0156,192.2344 1129.3438,191.7813 1129.3438,191.3906 C1129.3438,190.9375 1128.9531,190.5469 1128.4844,190.5469 C1128.2656,190.5469 1128.0625,190.625 1127.875,190.8125 C1127.4219,191.2969 1127.4219,191.2969 1127.2344,191.3906 C1126.8125,191.6563 1126.125,191.7813 1125.3594,191.7813 C1123.3125,191.7813 1122.0156,190.6875 1122.0156,188.9844 L1122.0156,187.8906 C1122.0156,186.1094 1123.2656,184.7969 1125,184.7969 C1125.5781,184.7969 1126.1875,184.9531 1126.6563,185.2031 C1127.1406,185.4844 1127.3125,185.7031 1127.4063,186.1094 C1127.4688,186.5156 1127.5,186.6406 1127.6406,186.7656 C1127.7813,186.9063 1128.0156,187.0156 1128.2344,187.0156 C1128.5,187.0156 1128.7656,186.875 1128.9375,186.6563 C1129.0469,186.5 1129.0781,186.3125 1129.0781,185.8906 L1129.0781,184.4688 C1129.0781,184.0313 1129.0625,183.9063 1128.9688,183.75 C1128.8125,183.4844 1128.5313,183.3438 1128.2344,183.3438 C1127.9375,183.3438 1127.7344,183.4375 1127.5156,183.75 L1127.3438,183.6719 Z " fill="#000000"/><text fill="#000000" font-family="sans-serif" font-size="14" lengthAdjust="spacing" textLength="94" x="1139" y="192.8467">RpcEndpoint</text></g><g id="elem_GMN19"><path d="M641.5,282 L641.5,322.2656 A0,0 0 0 0 641.5,322.2656 L884.5,322.2656 A0,0 0 0 0 884.5,322.2656 L884.5,292 L874.5,282 L729.004,282 L570.94,204.105 L721.004,282 L641.5,282 A0,0 0 0 0 641.5,282 " fill="#FEFFDD" style="stroke:#181818;stroke-width:0.5;"/><path d="M874.5,282 L874.5,292 L884.5,292 L874.5,282 " fill="#FEFFDD" style="stroke:#181818;stroke-width:0.5;"/><text fill="#000000" font-family="sans-serif" font-size="13" lengthAdjust="spacing" textLength="190" x="647.5" y="299.0669">Receiver of RPC calls that are</text><text fill="#000000" font-family="sans-serif" font-size="13" lengthAdjust="spacing" textLength="222" x="647.5" y="314.1997">translated into actual method calls</text></g><!--MD5=[c28918147a831c3cfb75f42a5d0bd4d7]
reverse link RpcService to AkkaRpcService--><g id="link_RpcService_AkkaRpcService"><path d="M332,94.422 C332,119.863 332,152.886 332,171.834 " fill="none" id="RpcService-backto-AkkaRpcService" style="stroke:#181818;stroke-width:1.0;stroke-dasharray:7.0,7.0;"/><polygon fill="none" points="325,94.186,332,74.186,339,94.186,325,94.186" style="stroke:#181818;stroke-width:1.0;"/></g><!--MD5=[d5cb79629fcdf804156e35862d067047]
reverse link RpcSystem to AkkaRpcSystem--><g id="link_RpcSystem_AkkaRpcSystem"><path d="M118.336,94.035 C112.76,119.528 105.483,152.79 101.318,171.834 " fill="none" id="RpcSystem-backto-AkkaRpcSystem" style="stroke:#181818;stroke-width:1.0;stroke-dasharray:7.0,7.0;"/><polygon fill="none" points="111.566,92.228,122.678,74.186,125.242,95.22,111.566,92.228" style="stroke:#181818;stroke-width:1.0;"/></g><!--MD5=[1620f91c31b683b92e4668c848b82fab]
link RpcSystem to RpcService--><g id="link_RpcSystem_RpcService"><path codeLine="13" d="M181.747,58 C209.229,58 242.442,58 270.646,58 " fill="none" id="RpcSystem-to-RpcService" style="stroke:#181818;stroke-width:1.0;"/><polygon fill="#181818" points="275.851,58,266.851,54,270.851,58,266.851,62,275.851,58" style="stroke:#181818;stroke-width:1.0;"/><text fill="#000000" font-family="sans-serif" font-size="13" lengthAdjust="spacing" textLength="48" x="204.75" y="51.0669">creates</text></g><!--MD5=[18506ba95f1f51d49107684792668721]
link AkkaRpcSystem to AkkaRpcService--><g id="link_AkkaRpcSystem_AkkaRpcService"><path codeLine="14" d="M173.005,188 C198.32,188 226.66,188 252.324,188 " fill="none" id="AkkaRpcSystem-to-AkkaRpcService" style="stroke:#181818;stroke-width:1.0;"/><polygon fill="#181818" points="257.419,188,248.419,184,252.419,188,248.419,192,257.419,188" style="stroke:#181818;stroke-width:1.0;"/><text fill="#000000" font-family="sans-serif" font-size="13" lengthAdjust="spacing" textLength="48" x="191.25" y="181.0669">creates</text></g><!--MD5=[50b11efb9d376d93bf508f4b35a21558]
link RpcEndpoint to RpcService--><g id="link_RpcEndpoint_RpcService"><path codeLine="15" d="M1109.91,177.397 C953.187,153.545 547.7,91.83 393.105,68.3 " fill="none" id="RpcEndpoint-to-RpcService" style="stroke:#181818;stroke-width:1.0;"/><polygon fill="#181818" points="388.159,67.547,396.4541,72.8566,393.102,68.2999,397.6587,64.9478,388.159,67.547" style="stroke:#181818;stroke-width:1.0;"/><text fill="#000000" font-family="sans-serif" font-size="13" lengthAdjust="spacing" textLength="74" x="729" y="117.0669">starts actor</text></g><!--MD5=[8b480b465646c92ff9091310a700bf7f]
link AkkaRpcActor to AbstractActor--><g id="link_AkkaRpcActor_AbstractActor"><path codeLine="17" d="M540.73,204.105 C540.469,218.76 540.06,241.63 539.706,261.473 " fill="none" id="AkkaRpcActor-to-AbstractActor" style="stroke:#181818;stroke-width:1.0;"/><polygon fill="none" points="546.702,261.763,539.346,281.635,532.704,261.513,546.702,261.763" style="stroke:#181818;stroke-width:1.0;"/></g><!--MD5=[e6d3b72a550c7ce4ffa3c4461090a11d]
link AkkaRpcService to AkkaRpcActor--><g id="link_AkkaRpcService_AkkaRpcActor"><path codeLine="18" d="M406.569,188 C426.454,188 447.918,188 467.733,188 " fill="none" id="AkkaRpcService-to-AkkaRpcActor" style="stroke:#181818;stroke-width:1.0;"/><polygon fill="#181818" points="472.733,188,463.733,184,467.733,188,463.733,192,472.733,188" style="stroke:#181818;stroke-width:1.0;"/><text fill="#000000" font-family="sans-serif" font-size="13" lengthAdjust="spacing" textLength="30" x="424.75" y="181.0669">uses</text></g><!--MD5=[33c38f098998e88f39e3244f5bfc923f]
link AkkaRpcActor to RpcEndpoint--><g id="link_AkkaRpcActor_RpcEndpoint"><path codeLine="19" d="M609.236,188 C730.635,188 982.779,188 1104.42,188 " fill="none" id="AkkaRpcActor-to-RpcEndpoint" style="stroke:#181818;stroke-width:1.0;"/><polygon fill="#181818" points="1109.76,188,1100.76,184,1104.76,188,1100.76,192,1109.76,188" style="stroke:#181818;stroke-width:1.0;"/><text fill="#000000" font-family="sans-serif" font-size="13" lengthAdjust="spacing" textLength="126" x="796.5" y="181.0669">translates RPC calls</text></g><!--MD5=[79d41e1b35412d493fc139a3a8d686a9]
reverse link RpcGateway to RpcServer--><g id="link_RpcGateway_RpcServer"><path d="M1417.39,84.971 C1459,111.079 1521.72,150.434 1555.83,171.834 " fill="none" id="RpcGateway-backto-RpcServer" style="stroke:#181818;stroke-width:1.0;"/><polygon fill="none" points="1413.42,90.745,1400.2,74.186,1420.86,78.886,1413.42,90.745" style="stroke:#181818;stroke-width:1.0;"/></g><!--MD5=[f876e77d95450cb53d272c664aaa8eb5]
reverse link RpcGateway to RpcEndpoint--><g id="link_RpcGateway_RpcEndpoint"><path d="M1334.81,84.971 C1293.41,111.079 1230.99,150.434 1197.05,171.834 " fill="none" id="RpcGateway-backto-RpcEndpoint" style="stroke:#181818;stroke-width:1.0;stroke-dasharray:7.0,7.0;"/><polygon fill="none" points="1331.26,78.932,1351.92,74.186,1338.73,90.774,1331.26,78.932" style="stroke:#181818;stroke-width:1.0;"/></g><!--MD5=[8ce7831532726111fee76ebb2d73b6ef]
reverse link RpcServer to AkkaInvocationHandler--><g id="link_RpcServer_AkkaInvocationHandler"><path d="M1593.91,222.869 C1602.52,243.82 1613.14,269.697 1619.75,285.777 " fill="none" id="RpcServer-backto-AkkaInvocationHandler" style="stroke:#181818;stroke-width:1.0;stroke-dasharray:7.0,7.0;"/><polygon fill="none" points="1587.33,225.265,1586.2,204.105,1600.28,219.946,1587.33,225.265" style="stroke:#181818;stroke-width:1.0;"/></g><!--MD5=[9503a2420b7ad77fa36207799ca2c3c5]
link RpcEndpoint to RpcServer--><g id="link_RpcEndpoint_RpcServer"><path codeLine="39" d="M1236.15,188 C1314.1,188 1445.62,188 1521.41,188 " fill="none" id="RpcEndpoint-to-RpcServer" style="stroke:#181818;stroke-width:1.0;"/><polygon fill="#181818" points="1526.77,188,1517.77,184,1521.77,188,1517.77,192,1526.77,188" style="stroke:#181818;stroke-width:1.0;"/><text fill="#000000" font-family="sans-serif" font-size="13" lengthAdjust="spacing" textLength="30" x="1366.5" y="181.0669">uses</text></g><!--MD5=[b65436dd5f2c1af375f7adc7a0f6521c]
reverse link RpcEndpoint to TaskExecutor--><g id="link_RpcEndpoint_TaskExecutor"><path d="M1121.91,212.859 C1103.92,221.76 1083.77,232.311 1066,243 C1043.88,256.302 1019.93,273.608 1003.66,285.844 " fill="none" id="RpcEndpoint-backto-TaskExecutor" style="stroke:#181818;stroke-width:1.0;"/><polygon fill="none" points="1118.97,206.507,1140.02,204.084,1125.07,219.105,1118.97,206.507" style="stroke:#181818;stroke-width:1.0;"/></g><!--MD5=[638eb7176bd21f79b332bd0c3a2b6635]
reverse link RpcEndpoint to FencedRpcEndpoint--><g id="link_RpcEndpoint_FencedRpcEndpoint"><path d="M1173,224.185 C1173,244.894 1173,270.032 1173,285.777 " fill="none" id="RpcEndpoint-backto-FencedRpcEndpoint" style="stroke:#181818;stroke-width:1.0;"/><polygon fill="none" points="1166,224.105,1173,204.105,1180,224.105,1166,224.105" style="stroke:#181818;stroke-width:1.0;"/></g><!--MD5=[c6169cd3c9d8ef97e39a98c5efb9a4cf]
reverse link RpcEndpoint to MetricQueryService--><g id="link_RpcEndpoint_MetricQueryService"><path d="M1221.4,213.225 C1239.53,222.417 1260.28,233.064 1279,243 C1305.86,257.254 1336.23,274.114 1357.38,285.972 " fill="none" id="RpcEndpoint-backto-MetricQueryService" style="stroke:#181818;stroke-width:1.0;"/><polygon fill="none" points="1218,219.352,1203.29,204.095,1224.3,206.852,1218,219.352" style="stroke:#181818;stroke-width:1.0;"/></g><!--MD5=[1872a8e5c599ec3557a89e15b1bc0887]
reverse link FencedRpcEndpoint to Dispatcher--><g id="link_FencedRpcEndpoint_Dispatcher"><path d="M1128.74,328.254 C1097.21,346.245 1055.88,369.8276 1029.38,384.9502 " fill="none" id="FencedRpcEndpoint-backto-Dispatcher" style="stroke:#181818;stroke-width:1.0;"/><polygon fill="none" points="1125.6,321.988,1146.44,318.156,1132.54,334.148,1125.6,321.988" style="stroke:#181818;stroke-width:1.0;"/></g><!--MD5=[ca07a65c65342ca7e41c79ff7cbb2640]
reverse link FencedRpcEndpoint to ResourceManager--><g id="link_FencedRpcEndpoint_ResourceManager"><path d="M1173,338.337 C1173,354.3905 1173,372.5255 1173,384.9502 " fill="none" id="FencedRpcEndpoint-backto-ResourceManager" style="stroke:#181818;stroke-width:1.0;"/><polygon fill="none" points="1166,338.156,1173,318.156,1180,338.156,1166,338.156" style="stroke:#181818;stroke-width:1.0;"/></g><!--MD5=[a309485ea9f9e46952454a1ba51fad4f]
reverse link FencedRpcEndpoint to JobMaster--><g id="link_FencedRpcEndpoint_JobMaster"><path d="M1216.48,328.254 C1247.45,346.245 1288.05,369.8276 1314.09,384.9502 " fill="none" id="FencedRpcEndpoint-backto-JobMaster" style="stroke:#181818;stroke-width:1.0;"/><polygon fill="none" points="1212.87,334.255,1199.09,318.156,1219.9,322.148,1212.87,334.255" style="stroke:#181818;stroke-width:1.0;"/></g><!--MD5=[8d9fb4bd1067c0e4969b19a6422c9fa0]
@startuml
'https://plantuml.com/class-diagram

hide members

interface RpcGateway
class RpcEndpoint

package Receiver <<Frame>> {
    class AbstractActor <<akka>>
    class AkkaRpcActor
    class AkkaRpcService implements RpcService
    class AkkaRpcSystem implements RpcSystem
    RpcSystem -> RpcService : creates
    AkkaRpcSystem -> AkkaRpcService : creates
    RpcEndpoint -> RpcService : starts actor

    AkkaRpcActor -down-|> AbstractActor
    AkkaRpcService -> AkkaRpcActor : uses
    AkkaRpcActor -> RpcEndpoint : translates RPC calls
}

note bottom of AkkaRpcActor
    Receiver of RPC calls that are
    translated into actual method calls
end note

package Sender <<Frame>> {
    interface RpcServer extends RpcGateway
    class RpcEndpoint implements RpcGateway
    class AkkaInvocationHandler implements RpcServer

    note right of AkkaInvocationHandler
        Server sends RPC calls
        to the Akka RPC system
    end note

}

RpcEndpoint -> RpcServer : uses

package Endpoints <<Frame>> {
    class TaskExecutor extends RpcEndpoint
    class FencedRpcEndpoint extends RpcEndpoint
    class MetricQueryService extends RpcEndpoint
    class Dispatcher extends FencedRpcEndpoint
    class ResourceManager extends FencedRpcEndpoint
    class JobMaster extends FencedRpcEndpoint
}
@enduml

@startuml

hide members

interface RpcGateway
class RpcEndpoint

package Receiver <<Frame>> {
    class AbstractActor <<akka>>
    class AkkaRpcActor
    class AkkaRpcService implements RpcService
    class AkkaRpcSystem implements RpcSystem
    RpcSystem -> RpcService : creates
    AkkaRpcSystem -> AkkaRpcService : creates
    RpcEndpoint -> RpcService : starts actor

    AkkaRpcActor -down-|> AbstractActor
    AkkaRpcService -> AkkaRpcActor : uses
    AkkaRpcActor -> RpcEndpoint : translates RPC calls
}

note bottom of AkkaRpcActor
    Receiver of RPC calls that are
    translated into actual method calls
end note

package Sender <<Frame>> {
    interface RpcServer extends RpcGateway
    class RpcEndpoint implements RpcGateway
    class AkkaInvocationHandler implements RpcServer

    note right of AkkaInvocationHandler
        Server sends RPC calls
        to the Akka RPC system
    end note

}

RpcEndpoint -> RpcServer : uses

package Endpoints <<Frame>> {
    class TaskExecutor extends RpcEndpoint
    class FencedRpcEndpoint extends RpcEndpoint
    class MetricQueryService extends RpcEndpoint
    class Dispatcher extends FencedRpcEndpoint
    class ResourceManager extends FencedRpcEndpoint
    class JobMaster extends FencedRpcEndpoint
}
@enduml

PlantUML version 1.2022.8beta9(Unknown compile time)
(GPL source distribution)
Java Runtime: Java(TM) SE Runtime Environment
JVM: Java HotSpot(TM) 64-Bit Server VM
Default Encoding: UTF-8
Language: en
Country: US
--></g></svg>