<?xml version="1.0" encoding="us-ascii" standalone="no"?><svg xmlns="http://www.w3.org/2000/svg" xmlns:xlink="http://www.w3.org/1999/xlink" contentStyleType="text/css" height="665px" preserveAspectRatio="none" style="width:2099px;height:665px;background:#FFFFFF;" version="1.1" viewBox="0 0 2099 665" width="2099px" zoomAndPan="magnify"><defs/><g><!--cluster Conceptual--><g id="cluster_Conceptual"><rect fill="none" height="408" rx="2.5" ry="2.5" style="stroke:#181818;stroke-width:1.0;" width="881" x="7" y="7"/><path d="M108,7 L108,16.2969 L98,26.2969 L7,26.2969 " fill="none" style="stroke:#181818;stroke-width:1.0;"/><text fill="#000000" font-family="sans-serif" font-size="14" font-weight="bold" lengthAdjust="spacing" textLength="91" x="10" y="20.9951">Conceptual</text></g><!--cluster Akka--><g id="cluster_Akka"><rect fill="none" height="479" rx="2.5" ry="2.5" style="stroke:#181818;stroke-width:1.0;" width="1165" x="928" y="180"/><path d="M977,180 L977,189.2969 L967,199.2969 L928,199.2969 " fill="none" style="stroke:#181818;stroke-width:1.0;"/><text fill="#000000" font-family="sans-serif" font-size="14" font-weight="bold" lengthAdjust="spacing" textLength="39" x="931" y="193.9951">Akka</text></g><!--class UserC--><g id="elem_UserC"><rect codeLine="25" fill="#F1F1F1" height="32" id="UserC" rx="2.5" ry="2.5" style="stroke:#181818;stroke-width:0.5;" width="73" x="31.5" y="359"/><ellipse cx="46.5" cy="375" fill="#ADD1B2" rx="11" ry="11" style="stroke:#181818;stroke-width:1.0;"/><path d="M48.8438,370.6719 C47.9063,370.2344 47.3125,370.0938 46.4375,370.0938 C43.8125,370.0938 41.8125,372.1719 41.8125,374.8906 L41.8125,376.0156 C41.8125,378.5938 43.9219,380.4844 46.8125,380.4844 C48.0313,380.4844 49.1875,380.1875 49.9375,379.6406 C50.5156,379.2344 50.8438,378.7813 50.8438,378.3906 C50.8438,377.9375 50.4531,377.5469 49.9844,377.5469 C49.7656,377.5469 49.5625,377.625 49.375,377.8125 C48.9219,378.2969 48.9219,378.2969 48.7344,378.3906 C48.3125,378.6563 47.625,378.7813 46.8594,378.7813 C44.8125,378.7813 43.5156,377.6875 43.5156,375.9844 L43.5156,374.8906 C43.5156,373.1094 44.7656,371.7969 46.5,371.7969 C47.0781,371.7969 47.6875,371.9531 48.1563,372.2031 C48.6406,372.4844 48.8125,372.7031 48.9063,373.1094 C48.9688,373.5156 49,373.6406 49.1406,373.7656 C49.2813,373.9063 49.5156,374.0156 49.7344,374.0156 C50,374.0156 50.2656,373.875 50.4375,373.6563 C50.5469,373.5 50.5781,373.3125 50.5781,372.8906 L50.5781,371.4688 C50.5781,371.0313 50.5625,370.9063 50.4688,370.75 C50.3125,370.4844 50.0313,370.3438 49.7344,370.3438 C49.4375,370.3438 49.2344,370.4375 49.0156,370.75 L48.8438,370.6719 Z " fill="#000000"/><text fill="#000000" font-family="sans-serif" font-size="14" lengthAdjust="spacing" textLength="41" x="60.5" y="379.8467">UserC</text></g><!--class RpcGateway--><g id="elem_RpcGateway"><rect codeLine="26" fill="#F1F1F1" height="32" id="RpcGateway" rx="2.5" ry="2.5" style="stroke:#181818;stroke-width:0.5;" width="121" x="171.5" y="359"/><ellipse cx="186.5" cy="375" fill="#B4A7E5" rx="11" ry="11" style="stroke:#181818;stroke-width:1.0;"/><path d="M187.4531,371.7813 L189.1719,371.7813 C189.5625,371.7813 189.75,371.75 189.875,371.6719 C190.1406,371.5156 190.2813,371.2344 190.2813,370.9375 C190.2813,370.6719 190.1719,370.4063 189.9375,370.2344 C189.7656,370.125 189.625,370.0938 189.1719,370.0938 L184.0313,370.0938 C183.5938,370.0938 183.4688,370.1094 183.3125,370.2031 C183.0625,370.3594 182.9063,370.6563 182.9063,370.9375 C182.9063,371.2188 183.0469,371.4688 183.2656,371.6406 C183.4219,371.75 183.6094,371.7813 184.0313,371.7813 L185.75,371.7813 L185.75,378.2969 L184.0313,378.2969 C183.5938,378.2969 183.4688,378.3125 183.3125,378.4219 C183.0625,378.5781 182.9063,378.8594 182.9063,379.1563 C182.9063,379.4063 183.0469,379.6719 183.2656,379.8281 C183.4219,379.9531 183.625,380 184.0313,380 L189.1719,380 C189.9219,380 190.2813,379.7188 190.2813,379.1563 C190.2813,378.875 190.1719,378.625 189.9375,378.4531 C189.7656,378.3281 189.625,378.2969 189.1719,378.2969 L187.4531,378.2969 L187.4531,371.7813 Z " fill="#000000"/><text fill="#000000" font-family="sans-serif" font-size="14" font-style="italic" lengthAdjust="spacing" textLength="89" x="200.5" y="379.8467">RpcGateway</text></g><!--class RpcServer--><g id="elem_RpcServer"><rect codeLine="28" fill="#F1F1F1" height="32" id="RpcServer" rx="2.5" ry="2.5" style="stroke:#181818;stroke-width:0.5;" width="107" x="455.5" y="359"/><ellipse cx="470.5" cy="375" fill="#ADD1B2" rx="11" ry="11" style="stroke:#181818;stroke-width:1.0;"/><path d="M472.8438,370.6719 C471.9063,370.2344 471.3125,370.0938 470.4375,370.0938 C467.8125,370.0938 465.8125,372.1719 465.8125,374.8906 L465.8125,376.0156 C465.8125,378.5938 467.9219,380.4844 470.8125,380.4844 C472.0313,380.4844 473.1875,380.1875 473.9375,379.6406 C474.5156,379.2344 474.8438,378.7813 474.8438,378.3906 C474.8438,377.9375 474.4531,377.5469 473.9844,377.5469 C473.7656,377.5469 473.5625,377.625 473.375,377.8125 C472.9219,378.2969 472.9219,378.2969 472.7344,378.3906 C472.3125,378.6563 471.625,378.7813 470.8594,378.7813 C468.8125,378.7813 467.5156,377.6875 467.5156,375.9844 L467.5156,374.8906 C467.5156,373.1094 468.7656,371.7969 470.5,371.7969 C471.0781,371.7969 471.6875,371.9531 472.1563,372.2031 C472.6406,372.4844 472.8125,372.7031 472.9063,373.1094 C472.9688,373.5156 473,373.6406 473.1406,373.7656 C473.2813,373.9063 473.5156,374.0156 473.7344,374.0156 C474,374.0156 474.2656,373.875 474.4375,373.6563 C474.5469,373.5 474.5781,373.3125 474.5781,372.8906 L474.5781,371.4688 C474.5781,371.0313 474.5625,370.9063 474.4688,370.75 C474.3125,370.4844 474.0313,370.3438 473.7344,370.3438 C473.4375,370.3438 473.2344,370.4375 473.0156,370.75 L472.8438,370.6719 Z " fill="#000000"/><text fill="#000000" font-family="sans-serif" font-size="14" lengthAdjust="spacing" textLength="75" x="484.5" y="379.8467">RpcServer</text></g><!--class RpcEndpoint--><g id="elem_RpcEndpoint"><rect codeLine="29" fill="#F1F1F1" height="32" id="RpcEndpoint" rx="2.5" ry="2.5" style="stroke:#181818;stroke-width:0.5;" width="126" x="730" y="359"/><ellipse cx="745" cy="375" fill="#ADD1B2" rx="11" ry="11" style="stroke:#181818;stroke-width:1.0;"/><path d="M747.3438,370.6719 C746.4063,370.2344 745.8125,370.0938 744.9375,370.0938 C742.3125,370.0938 740.3125,372.1719 740.3125,374.8906 L740.3125,376.0156 C740.3125,378.5938 742.4219,380.4844 745.3125,380.4844 C746.5313,380.4844 747.6875,380.1875 748.4375,379.6406 C749.0156,379.2344 749.3438,378.7813 749.3438,378.3906 C749.3438,377.9375 748.9531,377.5469 748.4844,377.5469 C748.2656,377.5469 748.0625,377.625 747.875,377.8125 C747.4219,378.2969 747.4219,378.2969 747.2344,378.3906 C746.8125,378.6563 746.125,378.7813 745.3594,378.7813 C743.3125,378.7813 742.0156,377.6875 742.0156,375.9844 L742.0156,374.8906 C742.0156,373.1094 743.2656,371.7969 745,371.7969 C745.5781,371.7969 746.1875,371.9531 746.6563,372.2031 C747.1406,372.4844 747.3125,372.7031 747.4063,373.1094 C747.4688,373.5156 747.5,373.6406 747.6406,373.7656 C747.7813,373.9063 748.0156,374.0156 748.2344,374.0156 C748.5,374.0156 748.7656,373.875 748.9375,373.6563 C749.0469,373.5 749.0781,373.3125 749.0781,372.8906 L749.0781,371.4688 C749.0781,371.0313 749.0625,370.9063 748.9688,370.75 C748.8125,370.4844 748.5313,370.3438 748.2344,370.3438 C747.9375,370.3438 747.7344,370.4375 747.5156,370.75 L747.3438,370.6719 Z " fill="#000000"/><text fill="#000000" font-family="sans-serif" font-size="14" lengthAdjust="spacing" textLength="94" x="759" y="379.8467">RpcEndpoint</text></g><!--class RpcSystem--><g id="elem_RpcSystem"><rect codeLine="31" fill="#F1F1F1" height="32" id="RpcSystem" rx="2.5" ry="2.5" style="stroke:#181818;stroke-width:0.5;" width="111" x="314.5" y="73"/><ellipse cx="329.5" cy="89" fill="#B4A7E5" rx="11" ry="11" style="stroke:#181818;stroke-width:1.0;"/><path d="M330.4531,85.7813 L332.1719,85.7813 C332.5625,85.7813 332.75,85.75 332.875,85.6719 C333.1406,85.5156 333.2813,85.2344 333.2813,84.9375 C333.2813,84.6719 333.1719,84.4063 332.9375,84.2344 C332.7656,84.125 332.625,84.0938 332.1719,84.0938 L327.0313,84.0938 C326.5938,84.0938 326.4688,84.1094 326.3125,84.2031 C326.0625,84.3594 325.9063,84.6563 325.9063,84.9375 C325.9063,85.2188 326.0469,85.4688 326.2656,85.6406 C326.4219,85.75 326.6094,85.7813 327.0313,85.7813 L328.75,85.7813 L328.75,92.2969 L327.0313,92.2969 C326.5938,92.2969 326.4688,92.3125 326.3125,92.4219 C326.0625,92.5781 325.9063,92.8594 325.9063,93.1563 C325.9063,93.4063 326.0469,93.6719 326.2656,93.8281 C326.4219,93.9531 326.625,94 327.0313,94 L332.1719,94 C332.9219,94 333.2813,93.7188 333.2813,93.1563 C333.2813,92.875 333.1719,92.625 332.9375,92.4531 C332.7656,92.3281 332.625,92.2969 332.1719,92.2969 L330.4531,92.2969 L330.4531,85.7813 Z " fill="#000000"/><text fill="#000000" font-family="sans-serif" font-size="14" font-style="italic" lengthAdjust="spacing" textLength="79" x="343.5" y="93.8467">RpcSystem</text></g><!--class RpcService--><g id="elem_RpcService"><rect codeLine="32" fill="#F1F1F1" height="32" id="RpcService" rx="2.5" ry="2.5" style="stroke:#181818;stroke-width:0.5;" width="112" x="314" y="242"/><ellipse cx="329" cy="258" fill="#B4A7E5" rx="11" ry="11" style="stroke:#181818;stroke-width:1.0;"/><path d="M329.9531,254.7813 L331.6719,254.7813 C332.0625,254.7813 332.25,254.75 332.375,254.6719 C332.6406,254.5156 332.7813,254.2344 332.7813,253.9375 C332.7813,253.6719 332.6719,253.4063 332.4375,253.2344 C332.2656,253.125 332.125,253.0938 331.6719,253.0938 L326.5313,253.0938 C326.0938,253.0938 325.9688,253.1094 325.8125,253.2031 C325.5625,253.3594 325.4063,253.6563 325.4063,253.9375 C325.4063,254.2188 325.5469,254.4688 325.7656,254.6406 C325.9219,254.75 326.1094,254.7813 326.5313,254.7813 L328.25,254.7813 L328.25,261.2969 L326.5313,261.2969 C326.0938,261.2969 325.9688,261.3125 325.8125,261.4219 C325.5625,261.5781 325.4063,261.8594 325.4063,262.1563 C325.4063,262.4063 325.5469,262.6719 325.7656,262.8281 C325.9219,262.9531 326.125,263 326.5313,263 L331.6719,263 C332.4219,263 332.7813,262.7188 332.7813,262.1563 C332.7813,261.875 332.6719,261.625 332.4375,261.4531 C332.2656,261.3281 332.125,261.2969 331.6719,261.2969 L329.9531,261.2969 L329.9531,254.7813 Z " fill="#000000"/><text fill="#000000" font-family="sans-serif" font-size="14" font-style="italic" lengthAdjust="spacing" textLength="80" x="343" y="262.8467">RpcService</text></g><g id="elem_N"><path d="M32.5,69 L32.5,109.2656 L279.5,109.2656 L279.5,79 L269.5,69 L32.5,69 " fill="#FEFFDD" style="stroke:#181818;stroke-width:0.5;"/><path d="M269.5,69 L269.5,79 L279.5,79 L269.5,69 " fill="#FEFFDD" style="stroke:#181818;stroke-width:1.0;"/><text fill="#000000" font-family="sans-serif" font-size="13" lengthAdjust="spacing" textLength="226" x="38.5" y="86.0669">"Exists both onclient (RpcGateway)</text><text fill="#000000" font-family="sans-serif" font-size="13" lengthAdjust="spacing" textLength="158" x="42.5" y="101.1997">and server (RpcServer)."</text></g><!--class UserA--><g id="elem_UserA"><rect codeLine="65" fill="#F1F1F1" height="32" id="UserA" rx="2.5" ry="2.5" style="stroke:#181818;stroke-width:0.5;" width="73" x="1255.5" y="359"/><ellipse cx="1270.5" cy="375" fill="#ADD1B2" rx="11" ry="11" style="stroke:#181818;stroke-width:1.0;"/><path d="M1272.8438,370.6719 C1271.9063,370.2344 1271.3125,370.0938 1270.4375,370.0938 C1267.8125,370.0938 1265.8125,372.1719 1265.8125,374.8906 L1265.8125,376.0156 C1265.8125,378.5938 1267.9219,380.4844 1270.8125,380.4844 C1272.0313,380.4844 1273.1875,380.1875 1273.9375,379.6406 C1274.5156,379.2344 1274.8438,378.7813 1274.8438,378.3906 C1274.8438,377.9375 1274.4531,377.5469 1273.9844,377.5469 C1273.7656,377.5469 1273.5625,377.625 1273.375,377.8125 C1272.9219,378.2969 1272.9219,378.2969 1272.7344,378.3906 C1272.3125,378.6563 1271.625,378.7813 1270.8594,378.7813 C1268.8125,378.7813 1267.5156,377.6875 1267.5156,375.9844 L1267.5156,374.8906 C1267.5156,373.1094 1268.7656,371.7969 1270.5,371.7969 C1271.0781,371.7969 1271.6875,371.9531 1272.1563,372.2031 C1272.6406,372.4844 1272.8125,372.7031 1272.9063,373.1094 C1272.9688,373.5156 1273,373.6406 1273.1406,373.7656 C1273.2813,373.9063 1273.5156,374.0156 1273.7344,374.0156 C1274,374.0156 1274.2656,373.875 1274.4375,373.6563 C1274.5469,373.5 1274.5781,373.3125 1274.5781,372.8906 L1274.5781,371.4688 C1274.5781,371.0313 1274.5625,370.9063 1274.4688,370.75 C1274.3125,370.4844 1274.0313,370.3438 1273.7344,370.3438 C1273.4375,370.3438 1273.2344,370.4375 1273.0156,370.75 L1272.8438,370.6719 Z " fill="#000000"/><text fill="#000000" font-family="sans-serif" font-size="14" lengthAdjust="spacing" textLength="41" x="1284.5" y="379.8467">UserA</text></g><!--class AkkaRpcSystem--><g id="elem_AkkaRpcSystem"><rect codeLine="66" fill="#F1F1F1" height="32" id="AkkaRpcSystem" rx="2.5" ry="2.5" style="stroke:#181818;stroke-width:0.5;" width="150" x="1541" y="603"/><ellipse cx="1556" cy="619" fill="#ADD1B2" rx="11" ry="11" style="stroke:#181818;stroke-width:1.0;"/><path d="M1558.3438,614.6719 C1557.4063,614.2344 1556.8125,614.0938 1555.9375,614.0938 C1553.3125,614.0938 1551.3125,616.1719 1551.3125,618.8906 L1551.3125,620.0156 C1551.3125,622.5938 1553.4219,624.4844 1556.3125,624.4844 C1557.5313,624.4844 1558.6875,624.1875 1559.4375,623.6406 C1560.0156,623.2344 1560.3438,622.7813 1560.3438,622.3906 C1560.3438,621.9375 1559.9531,621.5469 1559.4844,621.5469 C1559.2656,621.5469 1559.0625,621.625 1558.875,621.8125 C1558.4219,622.2969 1558.4219,622.2969 1558.2344,622.3906 C1557.8125,622.6563 1557.125,622.7813 1556.3594,622.7813 C1554.3125,622.7813 1553.0156,621.6875 1553.0156,619.9844 L1553.0156,618.8906 C1553.0156,617.1094 1554.2656,615.7969 1556,615.7969 C1556.5781,615.7969 1557.1875,615.9531 1557.6563,616.2031 C1558.1406,616.4844 1558.3125,616.7031 1558.4063,617.1094 C1558.4688,617.5156 1558.5,617.6406 1558.6406,617.7656 C1558.7813,617.9063 1559.0156,618.0156 1559.2344,618.0156 C1559.5,618.0156 1559.7656,617.875 1559.9375,617.6563 C1560.0469,617.5 1560.0781,617.3125 1560.0781,616.8906 L1560.0781,615.4688 C1560.0781,615.0313 1560.0625,614.9063 1559.9688,614.75 C1559.8125,614.4844 1559.5313,614.3438 1559.2344,614.3438 C1558.9375,614.3438 1558.7344,614.4375 1558.5156,614.75 L1558.3438,614.6719 Z " fill="#000000"/><text fill="#000000" font-family="sans-serif" font-size="14" lengthAdjust="spacing" textLength="118" x="1570" y="623.8467">AkkaRpcSystem</text></g><!--class ActorSystem--><g id="elem_ActorSystem"><rect codeLine="67" fill="#F1F1F1" height="40.2656" id="ActorSystem" rx="2.5" ry="2.5" style="stroke:#181818;stroke-width:0.5;" width="126" x="1684" y="486"/><ellipse cx="1699" cy="506.1328" fill="#ADD1B2" rx="11" ry="11" style="stroke:#181818;stroke-width:1.0;"/><path d="M1701.3438,501.8047 C1700.4063,501.3672 1699.8125,501.2266 1698.9375,501.2266 C1696.3125,501.2266 1694.3125,503.3047 1694.3125,506.0234 L1694.3125,507.1484 C1694.3125,509.7266 1696.4219,511.6172 1699.3125,511.6172 C1700.5313,511.6172 1701.6875,511.3203 1702.4375,510.7734 C1703.0156,510.3672 1703.3438,509.9141 1703.3438,509.5234 C1703.3438,509.0703 1702.9531,508.6797 1702.4844,508.6797 C1702.2656,508.6797 1702.0625,508.7578 1701.875,508.9453 C1701.4219,509.4297 1701.4219,509.4297 1701.2344,509.5234 C1700.8125,509.7891 1700.125,509.9141 1699.3594,509.9141 C1697.3125,509.9141 1696.0156,508.8203 1696.0156,507.1172 L1696.0156,506.0234 C1696.0156,504.2422 1697.2656,502.9297 1699,502.9297 C1699.5781,502.9297 1700.1875,503.0859 1700.6563,503.3359 C1701.1406,503.6172 1701.3125,503.8359 1701.4063,504.2422 C1701.4688,504.6484 1701.5,504.7734 1701.6406,504.8984 C1701.7813,505.0391 1702.0156,505.1484 1702.2344,505.1484 C1702.5,505.1484 1702.7656,505.0078 1702.9375,504.7891 C1703.0469,504.6328 1703.0781,504.4453 1703.0781,504.0234 L1703.0781,502.6016 C1703.0781,502.1641 1703.0625,502.0391 1702.9688,501.8828 C1702.8125,501.6172 1702.5313,501.4766 1702.2344,501.4766 C1701.9375,501.4766 1701.7344,501.5703 1701.5156,501.8828 L1701.3438,501.8047 Z " fill="#000000"/><text fill="#000000" font-family="sans-serif" font-size="12" font-style="italic" lengthAdjust="spacing" textLength="43" x="1738.5" y="502.1387">&#171;Akka&#187;</text><text fill="#000000" font-family="sans-serif" font-size="14" lengthAdjust="spacing" textLength="94" x="1713" y="517.9639">ActorSystem</text></g><!--class AbstractActor--><g id="elem_AbstractActor"><rect codeLine="68" fill="#F1F1F1" height="40.2656" id="AbstractActor" rx="2.5" ry="2.5" style="stroke:#181818;stroke-width:0.5;" width="135" x="1933.5" y="355"/><ellipse cx="1948.5" cy="375.1328" fill="#ADD1B2" rx="11" ry="11" style="stroke:#181818;stroke-width:1.0;"/><path d="M1950.8438,370.8047 C1949.9063,370.3672 1949.3125,370.2266 1948.4375,370.2266 C1945.8125,370.2266 1943.8125,372.3047 1943.8125,375.0234 L1943.8125,376.1484 C1943.8125,378.7266 1945.9219,380.6172 1948.8125,380.6172 C1950.0313,380.6172 1951.1875,380.3203 1951.9375,379.7734 C1952.5156,379.3672 1952.8438,378.9141 1952.8438,378.5234 C1952.8438,378.0703 1952.4531,377.6797 1951.9844,377.6797 C1951.7656,377.6797 1951.5625,377.7578 1951.375,377.9453 C1950.9219,378.4297 1950.9219,378.4297 1950.7344,378.5234 C1950.3125,378.7891 1949.625,378.9141 1948.8594,378.9141 C1946.8125,378.9141 1945.5156,377.8203 1945.5156,376.1172 L1945.5156,375.0234 C1945.5156,373.2422 1946.7656,371.9297 1948.5,371.9297 C1949.0781,371.9297 1949.6875,372.0859 1950.1563,372.3359 C1950.6406,372.6172 1950.8125,372.8359 1950.9063,373.2422 C1950.9688,373.6484 1951,373.7734 1951.1406,373.8984 C1951.2813,374.0391 1951.5156,374.1484 1951.7344,374.1484 C1952,374.1484 1952.2656,374.0078 1952.4375,373.7891 C1952.5469,373.6328 1952.5781,373.4453 1952.5781,373.0234 L1952.5781,371.6016 C1952.5781,371.1641 1952.5625,371.0391 1952.4688,370.8828 C1952.3125,370.6172 1952.0313,370.4766 1951.7344,370.4766 C1951.4375,370.4766 1951.2344,370.5703 1951.0156,370.8828 L1950.8438,370.8047 Z " fill="#000000"/><text fill="#000000" font-family="sans-serif" font-size="12" font-style="italic" lengthAdjust="spacing" textLength="43" x="1992.5" y="371.1387">&#171;Akka&#187;</text><text fill="#000000" font-family="sans-serif" font-size="14" lengthAdjust="spacing" textLength="103" x="1962.5" y="386.9639">AbstractActor</text></g><!--class AkkaInvocationHandler--><g id="elem_AkkaInvocationHandler"><rect codeLine="69" fill="#F1F1F1" height="32" id="AkkaInvocationHandler" rx="2.5" ry="2.5" style="stroke:#181818;stroke-width:0.5;" width="198" x="1395" y="359"/><ellipse cx="1410" cy="375" fill="#ADD1B2" rx="11" ry="11" style="stroke:#181818;stroke-width:1.0;"/><path d="M1412.3438,370.6719 C1411.4063,370.2344 1410.8125,370.0938 1409.9375,370.0938 C1407.3125,370.0938 1405.3125,372.1719 1405.3125,374.8906 L1405.3125,376.0156 C1405.3125,378.5938 1407.4219,380.4844 1410.3125,380.4844 C1411.5313,380.4844 1412.6875,380.1875 1413.4375,379.6406 C1414.0156,379.2344 1414.3438,378.7813 1414.3438,378.3906 C1414.3438,377.9375 1413.9531,377.5469 1413.4844,377.5469 C1413.2656,377.5469 1413.0625,377.625 1412.875,377.8125 C1412.4219,378.2969 1412.4219,378.2969 1412.2344,378.3906 C1411.8125,378.6563 1411.125,378.7813 1410.3594,378.7813 C1408.3125,378.7813 1407.0156,377.6875 1407.0156,375.9844 L1407.0156,374.8906 C1407.0156,373.1094 1408.2656,371.7969 1410,371.7969 C1410.5781,371.7969 1411.1875,371.9531 1411.6563,372.2031 C1412.1406,372.4844 1412.3125,372.7031 1412.4063,373.1094 C1412.4688,373.5156 1412.5,373.6406 1412.6406,373.7656 C1412.7813,373.9063 1413.0156,374.0156 1413.2344,374.0156 C1413.5,374.0156 1413.7656,373.875 1413.9375,373.6563 C1414.0469,373.5 1414.0781,373.3125 1414.0781,372.8906 L1414.0781,371.4688 C1414.0781,371.0313 1414.0625,370.9063 1413.9688,370.75 C1413.8125,370.4844 1413.5313,370.3438 1413.2344,370.3438 C1412.9375,370.3438 1412.7344,370.4375 1412.5156,370.75 L1412.3438,370.6719 Z " fill="#000000"/><text fill="#000000" font-family="sans-serif" font-size="14" lengthAdjust="spacing" textLength="166" x="1424" y="379.8467">AkkaInvocationHandler</text></g><!--class RpcGateway--><g id="elem_RpcGateway"><rect fill="#F1F1F1" height="32" id="RpcGateway" rx="2.5" ry="2.5" style="stroke:#181818;stroke-width:0.5;" width="121" x="1513.5" y="242"/><ellipse cx="1528.5" cy="258" fill="#B4A7E5" rx="11" ry="11" style="stroke:#181818;stroke-width:1.0;"/><path d="M1529.4531,254.7813 L1531.1719,254.7813 C1531.5625,254.7813 1531.75,254.75 1531.875,254.6719 C1532.1406,254.5156 1532.2813,254.2344 1532.2813,253.9375 C1532.2813,253.6719 1532.1719,253.4063 1531.9375,253.2344 C1531.7656,253.125 1531.625,253.0938 1531.1719,253.0938 L1526.0313,253.0938 C1525.5938,253.0938 1525.4688,253.1094 1525.3125,253.2031 C1525.0625,253.3594 1524.9063,253.6563 1524.9063,253.9375 C1524.9063,254.2188 1525.0469,254.4688 1525.2656,254.6406 C1525.4219,254.75 1525.6094,254.7813 1526.0313,254.7813 L1527.75,254.7813 L1527.75,261.2969 L1526.0313,261.2969 C1525.5938,261.2969 1525.4688,261.3125 1525.3125,261.4219 C1525.0625,261.5781 1524.9063,261.8594 1524.9063,262.1563 C1524.9063,262.4063 1525.0469,262.6719 1525.2656,262.8281 C1525.4219,262.9531 1525.625,263 1526.0313,263 L1531.1719,263 C1531.9219,263 1532.2813,262.7188 1532.2813,262.1563 C1532.2813,261.875 1532.1719,261.625 1531.9375,261.4531 C1531.7656,261.3281 1531.625,261.2969 1531.1719,261.2969 L1529.4531,261.2969 L1529.4531,254.7813 Z " fill="#000000"/><text fill="#000000" font-family="sans-serif" font-size="14" font-style="italic" lengthAdjust="spacing" textLength="89" x="1542.5" y="262.8467">RpcGateway</text></g><!--class RpcServer--><g id="elem_RpcServer"><rect fill="#F1F1F1" height="32" id="RpcServer" rx="2.5" ry="2.5" style="stroke:#181818;stroke-width:0.5;" width="106" x="1372" y="242"/><ellipse cx="1387" cy="258" fill="#B4A7E5" rx="11" ry="11" style="stroke:#181818;stroke-width:1.0;"/><path d="M1387.9531,254.7813 L1389.6719,254.7813 C1390.0625,254.7813 1390.25,254.75 1390.375,254.6719 C1390.6406,254.5156 1390.7813,254.2344 1390.7813,253.9375 C1390.7813,253.6719 1390.6719,253.4063 1390.4375,253.2344 C1390.2656,253.125 1390.125,253.0938 1389.6719,253.0938 L1384.5313,253.0938 C1384.0938,253.0938 1383.9688,253.1094 1383.8125,253.2031 C1383.5625,253.3594 1383.4063,253.6563 1383.4063,253.9375 C1383.4063,254.2188 1383.5469,254.4688 1383.7656,254.6406 C1383.9219,254.75 1384.1094,254.7813 1384.5313,254.7813 L1386.25,254.7813 L1386.25,261.2969 L1384.5313,261.2969 C1384.0938,261.2969 1383.9688,261.3125 1383.8125,261.4219 C1383.5625,261.5781 1383.4063,261.8594 1383.4063,262.1563 C1383.4063,262.4063 1383.5469,262.6719 1383.7656,262.8281 C1383.9219,262.9531 1384.125,263 1384.5313,263 L1389.6719,263 C1390.4219,263 1390.7813,262.7188 1390.7813,262.1563 C1390.7813,261.875 1390.6719,261.625 1390.4375,261.4531 C1390.2656,261.3281 1390.125,261.2969 1389.6719,261.2969 L1387.9531,261.2969 L1387.9531,254.7813 Z " fill="#000000"/><text fill="#000000" font-family="sans-serif" font-size="14" font-style="italic" lengthAdjust="spacing" textLength="74" x="1401" y="262.8467">RpcServer</text></g><!--class AkkaRpcActor--><g id="elem_AkkaRpcActor"><rect codeLine="70" fill="#F1F1F1" height="32" id="AkkaRpcActor" rx="2.5" ry="2.5" style="stroke:#181818;stroke-width:0.5;" width="136" x="1762" y="359"/><ellipse cx="1777" cy="375" fill="#ADD1B2" rx="11" ry="11" style="stroke:#181818;stroke-width:1.0;"/><path d="M1779.3438,370.6719 C1778.4063,370.2344 1777.8125,370.0938 1776.9375,370.0938 C1774.3125,370.0938 1772.3125,372.1719 1772.3125,374.8906 L1772.3125,376.0156 C1772.3125,378.5938 1774.4219,380.4844 1777.3125,380.4844 C1778.5313,380.4844 1779.6875,380.1875 1780.4375,379.6406 C1781.0156,379.2344 1781.3438,378.7813 1781.3438,378.3906 C1781.3438,377.9375 1780.9531,377.5469 1780.4844,377.5469 C1780.2656,377.5469 1780.0625,377.625 1779.875,377.8125 C1779.4219,378.2969 1779.4219,378.2969 1779.2344,378.3906 C1778.8125,378.6563 1778.125,378.7813 1777.3594,378.7813 C1775.3125,378.7813 1774.0156,377.6875 1774.0156,375.9844 L1774.0156,374.8906 C1774.0156,373.1094 1775.2656,371.7969 1777,371.7969 C1777.5781,371.7969 1778.1875,371.9531 1778.6563,372.2031 C1779.1406,372.4844 1779.3125,372.7031 1779.4063,373.1094 C1779.4688,373.5156 1779.5,373.6406 1779.6406,373.7656 C1779.7813,373.9063 1780.0156,374.0156 1780.2344,374.0156 C1780.5,374.0156 1780.7656,373.875 1780.9375,373.6563 C1781.0469,373.5 1781.0781,373.3125 1781.0781,372.8906 L1781.0781,371.4688 C1781.0781,371.0313 1781.0625,370.9063 1780.9688,370.75 C1780.8125,370.4844 1780.5313,370.3438 1780.2344,370.3438 C1779.9375,370.3438 1779.7344,370.4375 1779.5156,370.75 L1779.3438,370.6719 Z " fill="#000000"/><text fill="#000000" font-family="sans-serif" font-size="14" lengthAdjust="spacing" textLength="104" x="1791" y="379.8467">AkkaRpcActor</text></g><!--class AkkaRpcService--><g id="elem_AkkaRpcService"><rect codeLine="71" fill="#F1F1F1" height="32" id="AkkaRpcService" rx="2.5" ry="2.5" style="stroke:#181818;stroke-width:0.5;" width="149" x="1468.5" y="490"/><ellipse cx="1483.5" cy="506" fill="#ADD1B2" rx="11" ry="11" style="stroke:#181818;stroke-width:1.0;"/><path d="M1485.8438,501.6719 C1484.9063,501.2344 1484.3125,501.0938 1483.4375,501.0938 C1480.8125,501.0938 1478.8125,503.1719 1478.8125,505.8906 L1478.8125,507.0156 C1478.8125,509.5938 1480.9219,511.4844 1483.8125,511.4844 C1485.0313,511.4844 1486.1875,511.1875 1486.9375,510.6406 C1487.5156,510.2344 1487.8438,509.7813 1487.8438,509.3906 C1487.8438,508.9375 1487.4531,508.5469 1486.9844,508.5469 C1486.7656,508.5469 1486.5625,508.625 1486.375,508.8125 C1485.9219,509.2969 1485.9219,509.2969 1485.7344,509.3906 C1485.3125,509.6563 1484.625,509.7813 1483.8594,509.7813 C1481.8125,509.7813 1480.5156,508.6875 1480.5156,506.9844 L1480.5156,505.8906 C1480.5156,504.1094 1481.7656,502.7969 1483.5,502.7969 C1484.0781,502.7969 1484.6875,502.9531 1485.1563,503.2031 C1485.6406,503.4844 1485.8125,503.7031 1485.9063,504.1094 C1485.9688,504.5156 1486,504.6406 1486.1406,504.7656 C1486.2813,504.9063 1486.5156,505.0156 1486.7344,505.0156 C1487,505.0156 1487.2656,504.875 1487.4375,504.6563 C1487.5469,504.5 1487.5781,504.3125 1487.5781,503.8906 L1487.5781,502.4688 C1487.5781,502.0313 1487.5625,501.9063 1487.4688,501.75 C1487.3125,501.4844 1487.0313,501.3438 1486.7344,501.3438 C1486.4375,501.3438 1486.2344,501.4375 1486.0156,501.75 L1485.8438,501.6719 Z " fill="#000000"/><text fill="#000000" font-family="sans-serif" font-size="14" lengthAdjust="spacing" textLength="117" x="1497.5" y="510.8467">AkkaRpcService</text></g><g id="elem_GMN57"><path d="M960,355 L960,395.2656 L1220,395.2656 L1220,365 L1210,355 L960,355 " fill="#FEFFDD" style="stroke:#181818;stroke-width:0.5;"/><path d="M1210,355 L1210,365 L1220,365 L1210,355 " fill="#FEFFDD" style="stroke:#181818;stroke-width:1.0;"/><text fill="#000000" font-family="sans-serif" font-size="13" lengthAdjust="spacing" textLength="237" x="966" y="372.0669">Used on server-side as an RpcServer</text><text fill="#000000" font-family="sans-serif" font-size="13" lengthAdjust="spacing" textLength="239" x="966" y="387.1997">exclusively to support self gateways.</text></g><!--link RpcSystem to RpcService--><g id="link_RpcSystem_RpcService"><path codeLine="34" d="M370,105.115 C370,136.749 370,203.639 370,235.557 " fill="none" id="RpcSystem-to-RpcService" style="stroke:#181818;stroke-width:1.0;"/><polygon fill="#181818" points="370,241.557,374,232.557,370,236.557,366,232.557,370,241.557" style="stroke:#181818;stroke-width:1.0;"/><text fill="#000000" font-family="sans-serif" font-size="13" lengthAdjust="spacing" textLength="48" x="371" y="152.0669">creates</text></g><!--link RpcService to RpcGateway--><g id="link_RpcService_RpcGateway"><path codeLine="35" d="M351.959,274.034 C325.511,296.074 281.1053,333.0789 254.6553,355.1209 " fill="none" id="RpcService-to-RpcGateway" style="stroke:#181818;stroke-width:1.0;"/><polygon fill="#181818" points="250.046,358.962,259.5207,356.2732,253.8871,355.761,254.3992,350.1274,250.046,358.962" style="stroke:#181818;stroke-width:1.0;"/><text fill="#000000" font-family="sans-serif" font-size="13" lengthAdjust="spacing" textLength="48" x="311" y="321.0669">creates</text></g><!--link RpcService to RpcServer--><g id="link_RpcService_RpcServer"><path codeLine="36" d="M388.172,274.034 C414.811,296.074 459.5591,333.0953 486.2011,355.1373 " fill="none" id="RpcService-to-RpcServer" style="stroke:#181818;stroke-width:1.0;"/><polygon fill="#181818" points="490.824,358.962,486.4394,350.143,486.9716,355.7747,481.3398,356.3069,490.824,358.962" style="stroke:#181818;stroke-width:1.0;"/><text fill="#000000" font-family="sans-serif" font-size="13" lengthAdjust="spacing" textLength="48" x="449" y="321.0669">creates</text></g><!--reverse link RpcService to UserC--><g id="link_RpcService_UserC"><path codeLine="37" d="M308.0541,275.022 C302.0261,276.542 301.798,276.582 296,278 C238.823,291.987 221.026,284.631 167,308 C136.476,321.203 105.188,343.904 86.171,358.934 " fill="none" id="RpcService-backto-UserC" style="stroke:#181818;stroke-width:1.0;"/><polygon fill="#181818" points="313.872,273.555,304.1672,271.8769,309.0238,274.7775,306.1232,279.6341,313.872,273.555" style="stroke:#181818;stroke-width:1.0;"/><text fill="#000000" font-family="sans-serif" font-size="13" lengthAdjust="spacing" textLength="116" x="168" y="321.0669">requests gateway</text></g><!--link UserC to RpcGateway--><g id="link_UserC_RpcGateway"><path codeLine="38" d="M104.805,375 C124.354,375 142.886,375 165.177,375 " fill="none" id="UserC-to-RpcGateway" style="stroke:#181818;stroke-width:1.0;"/><polygon fill="#181818" points="171.177,375,162.177,371,166.177,375,162.177,379,171.177,375" style="stroke:#181818;stroke-width:1.0;"/><text fill="#000000" font-family="sans-serif" font-size="13" lengthAdjust="spacing" textLength="30" x="123" y="368.0669">uses</text></g><!--link RpcGateway to RpcServer--><g id="link_RpcGateway_RpcServer"><path codeLine="39" d="M292.789,375 C341.362,375 402.79,375 449.372,375 " fill="none" id="RpcGateway-to-RpcServer" style="stroke:#181818;stroke-width:1.0;"/><polygon fill="#181818" points="455.372,375,446.372,371,450.372,375,446.372,379,455.372,375" style="stroke:#181818;stroke-width:1.0;"/><text fill="#000000" font-family="sans-serif" font-size="13" lengthAdjust="spacing" textLength="126" x="311" y="368.0669">communicates with</text></g><!--reverse link RpcGateway to RpcServer--><g id="link_RpcGateway_RpcServer"><path codeLine="40" d="M298.7572,390.2404 C324.6232,394.7674 349.253,397.09 377,395 C402.886,393.05 431.388,388.978 455.261,385.014 " fill="none" id="RpcGateway-backto-RpcServer" style="stroke:#181818;stroke-width:1.0;"/><polygon fill="#181818" points="292.847,389.206,301.0227,394.6977,297.7721,390.068,302.4018,386.8175,292.847,389.206" style="stroke:#181818;stroke-width:1.0;"/><text fill="#000000" font-family="sans-serif" font-size="13" lengthAdjust="spacing" textLength="4" x="372" y="391.0669">&#160;</text></g><!--link RpcServer to RpcEndpoint--><g id="link_RpcServer_RpcEndpoint"><path codeLine="41" d="M562.519,386.129 C582.293,389.721 604.952,393.231 625.75,395 C660.279,397.936 692.7597,394.8559 724.0467,389.6389 " fill="none" id="RpcServer-to-RpcEndpoint" style="stroke:#181818;stroke-width:1.0;"/><polygon fill="#181818" points="729.965,388.652,720.4297,386.1868,725.0331,389.4744,721.7455,394.0778,729.965,388.652" style="stroke:#181818;stroke-width:1.0;"/><text fill="#000000" font-family="sans-serif" font-size="13" lengthAdjust="spacing" textLength="39" x="626.75" y="391.0669">drives</text></g><!--reverse link RpcServer to RpcEndpoint--><g id="link_RpcServer_RpcEndpoint"><path codeLine="42" d="M568.752,375 C616.271,375 679.635,375 729.799,375 " fill="none" id="RpcServer-backto-RpcEndpoint" style="stroke:#181818;stroke-width:1.0;"/><polygon fill="#181818" points="562.752,375,571.752,379,567.752,375,571.752,371,562.752,375" style="stroke:#181818;stroke-width:1.0;"/><text fill="#000000" font-family="sans-serif" font-size="13" lengthAdjust="spacing" textLength="131" x="580.75" y="368.0669">schedules runnables</text></g><!--link N to RpcSystem--><g id="link_N_RpcSystem"><path codeLine="54" d="M279.719,89 C291.239,89 296.759,89 308.28,89 " fill="none" id="N-to-RpcSystem" style="stroke:#181818;stroke-width:1.0;"/><polygon fill="#181818" points="314.28,89,305.28,85,309.28,89,305.28,93,314.28,89" style="stroke:#181818;stroke-width:1.0;"/></g><!--link N to RpcService--><g id="link_N_RpcService"><path codeLine="55" d="M203.386,109.106 C231.995,122.025 268.175,140.919 296,164 C323.792,187.053 344.9422,216.9873 357.5852,236.8243 " fill="none" id="N-to-RpcService" style="stroke:#181818;stroke-width:1.0;"/><polygon fill="#181818" points="360.81,241.884,359.346,232.1446,358.1227,237.6676,352.5997,236.4443,360.81,241.884" style="stroke:#181818;stroke-width:1.0;"/></g><!--link N to N_placeholder--><!--link N_placeholder to RpcService--><!--link Conceptual to Akka--><!--reverse link RpcGateway to AkkaInvocationHandler--><g id="link_RpcGateway_AkkaInvocationHandler"><path d="M1570.851,291.8918 C1569.221,306.0478 1567.19,309.471 1557,325 C1547.87,338.9 1533.46,350.535 1520.72,358.975 " fill="none" id="RpcGateway-backto-AkkaInvocationHandler" style="stroke:#181818;stroke-width:1.0;stroke-dasharray:7.0,7.0;"/><polygon fill="none" points="1572.91,274.01,1564.8904,291.2055,1576.8116,292.5782,1572.91,274.01" style="stroke:#181818;stroke-width:1.0;"/></g><!--reverse link RpcServer to AkkaInvocationHandler--><g id="link_RpcServer_AkkaInvocationHandler"><path d="M1423.0474,292.1282 C1422.5374,306.1852 1424.25,309.262 1433,325 C1440.79,339.01 1454.36,350.515 1466.72,358.848 " fill="none" id="RpcServer-backto-AkkaInvocationHandler" style="stroke:#181818;stroke-width:1.0;stroke-dasharray:7.0,7.0;"/><polygon fill="none" points="1423.7,274.14,1417.0513,291.9106,1429.0434,292.3457,1423.7,274.14" style="stroke:#181818;stroke-width:1.0;"/></g><!--reverse link AbstractActor to AkkaRpcActor--><g id="link_AbstractActor_AkkaRpcActor"><path d="M1915.5213,387.5306 C1903.7413,388.2266 1909.92,387.177 1898.13,386.505 " fill="none" id="AbstractActor-backto-AkkaRpcActor" style="stroke:#181818;stroke-width:1.0;"/><polygon fill="none" points="1933.49,386.469,1915.1675,381.5411,1915.8752,393.5202,1933.49,386.469" style="stroke:#181818;stroke-width:1.0;"/></g><!--link AkkaRpcActor to AbstractActor--><!--link UserA to AkkaRpcService--><g id="link_UserA_AkkaRpcService"><path codeLine="73" d="M1307.34,391.263 C1325.94,409.02 1358.92,438.176 1392,456 C1419.3,470.709 1445.9928,480.2979 1473.8128,488.2819 " fill="none" id="UserA-to-AkkaRpcService" style="stroke:#181818;stroke-width:1.0;"/><polygon fill="#181818" points="1479.58,489.937,1472.0326,483.6095,1474.774,488.5577,1469.8258,491.2991,1479.58,489.937" style="stroke:#181818;stroke-width:1.0;"/><text fill="#000000" font-family="sans-serif" font-size="13" lengthAdjust="spacing" textLength="116" x="1393" y="452.0669">requests gateway</text></g><!--link UserA to AkkaInvocationHandler--><g id="link_UserA_AkkaInvocationHandler"><path codeLine="74" d="M1328.58,375 C1347.34,375 1365.19,375 1388.9,375 " fill="none" id="UserA-to-AkkaInvocationHandler" style="stroke:#181818;stroke-width:1.0;"/><polygon fill="#181818" points="1394.9,375,1385.9,371,1389.9,375,1385.9,379,1394.9,375" style="stroke:#181818;stroke-width:1.0;"/><text fill="#000000" font-family="sans-serif" font-size="13" lengthAdjust="spacing" textLength="30" x="1346.75" y="368.0669">uses</text></g><!--reverse link AkkaRpcService to AkkaRpcSystem--><g id="link_AkkaRpcService_AkkaRpcSystem"><path codeLine="75" d="M1556.4474,527.4467 C1570.3974,548.6537 1592.03,581.559 1605.94,602.697 " fill="none" id="AkkaRpcService-backto-AkkaRpcSystem" style="stroke:#181818;stroke-width:1.0;"/><polygon fill="#181818" points="1553.15,522.434,1554.7542,532.1513,1555.8978,526.6113,1561.4379,527.7548,1553.15,522.434" style="stroke:#181818;stroke-width:1.0;"/><text fill="#000000" font-family="sans-serif" font-size="13" lengthAdjust="spacing" textLength="48" x="1587" y="569.0669">creates</text></g><!--reverse link ActorSystem to AkkaRpcSystem--><g id="link_ActorSystem_AkkaRpcSystem"><path codeLine="76" d="M1719.9025,529.961 C1694.3025,551.655 1657.58,582.764 1634.02,602.7324 " fill="none" id="ActorSystem-backto-AkkaRpcSystem" style="stroke:#181818;stroke-width:1.0;"/><polygon fill="#181818" points="1724.48,526.082,1715.0278,528.8489,1720.6655,529.3145,1720.1998,534.9522,1724.48,526.082" style="stroke:#181818;stroke-width:1.0;"/><text fill="#000000" font-family="sans-serif" font-size="13" lengthAdjust="spacing" textLength="48" x="1686" y="569.0669">creates</text></g><!--link AkkaInvocationHandler to AkkaRpcActor--><g id="link_AkkaInvocationHandler_AkkaRpcActor"><path codeLine="78" d="M1593.45,375 C1647.73,375 1707.53,375 1755.94,375 " fill="none" id="AkkaInvocationHandler-to-AkkaRpcActor" style="stroke:#181818;stroke-width:1.0;"/><polygon fill="#181818" points="1761.94,375,1752.94,371,1756.94,375,1752.94,379,1761.94,375" style="stroke:#181818;stroke-width:1.0;"/><text fill="#000000" font-family="sans-serif" font-size="13" lengthAdjust="spacing" textLength="132" x="1611.5" y="368.0669">sends RpcInvocation</text></g><!--link AkkaRpcActor to RpcEndpoint--><g id="link_AkkaRpcActor_RpcEndpoint"><path codeLine="79" d="M1774.55,358.965 C1718.49,343.647 1629.07,321.649 1550,313 C1415.81,298.321 1078.2,340.416 944,355 C915.082,358.143 889.0808,361.4647 862.0478,365.1587 " fill="none" id="AkkaRpcActor-to-RpcEndpoint" style="stroke:#181818;stroke-width:1.0;"/><polygon fill="#181818" points="856.103,365.971,865.5617,368.7157,861.057,365.2941,864.4786,360.7893,856.103,365.971" style="stroke:#181818;stroke-width:1.0;"/><text fill="#000000" font-family="sans-serif" font-size="13" lengthAdjust="spacing" textLength="110" x="1439" y="321.0669">invokes methods</text></g><!--reverse link AkkaRpcActor to ActorSystem--><g id="link_AkkaRpcActor_ActorSystem"><path codeLine="80" d="M1817.0732,396.0956 C1801.9332,419.6236 1775.93,460.044 1759.31,485.865 " fill="none" id="AkkaRpcActor-backto-ActorSystem" style="stroke:#181818;stroke-width:1.0;"/><polygon fill="#181818" points="1820.32,391.05,1812.0861,396.4539,1817.6143,395.2547,1818.8135,400.783,1820.32,391.05" style="stroke:#181818;stroke-width:1.0;"/><text fill="#000000" font-family="sans-serif" font-size="13" lengthAdjust="spacing" textLength="39" x="1789" y="452.0669">drives</text></g><!--link AkkaRpcService to ActorSystem--><g id="link_AkkaRpcService_ActorSystem"><path codeLine="81" d="M1617.51,506 C1639.25,506 1656.79,506 1677.76,506 " fill="none" id="AkkaRpcService-to-ActorSystem" style="stroke:#181818;stroke-width:1.0;"/><polygon fill="#181818" points="1683.76,506,1674.76,502,1678.76,506,1674.76,510,1683.76,506" style="stroke:#181818;stroke-width:1.0;"/><text fill="#000000" font-family="sans-serif" font-size="13" lengthAdjust="spacing" textLength="30" x="1635.75" y="499.0669">uses</text></g><!--reverse link AkkaRpcActor to AkkaRpcService--><g id="link_AkkaRpcActor_AkkaRpcService"><path codeLine="82" d="M1791.0473,393.5096 C1735.8873,418.3006 1632.02,464.988 1576.71,489.846 " fill="none" id="AkkaRpcActor-backto-AkkaRpcService" style="stroke:#181818;stroke-width:1.0;"/><polygon fill="#181818" points="1796.52,391.05,1786.6712,391.091,1791.9594,393.0997,1789.9507,398.3879,1796.52,391.05" style="stroke:#181818;stroke-width:1.0;"/><text fill="#000000" font-family="sans-serif" font-size="13" lengthAdjust="spacing" textLength="48" x="1687" y="452.0669">creates</text></g><!--reverse link AkkaInvocationHandler to AkkaRpcService--><g id="link_AkkaInvocationHandler_AkkaRpcService"><path codeLine="83" d="M1501.8503,396.6591 C1511.2403,421.3831 1527.7,464.725 1537.17,489.646 " fill="none" id="AkkaInvocationHandler-backto-AkkaRpcService" style="stroke:#181818;stroke-width:1.0;"/><polygon fill="#181818" points="1499.72,391.05,1499.176,400.8838,1501.4952,395.7242,1506.6548,398.0434,1499.72,391.05" style="stroke:#181818;stroke-width:1.0;"/><text fill="#000000" font-family="sans-serif" font-size="13" lengthAdjust="spacing" textLength="48" x="1525" y="452.0669">creates</text></g><!--link GMN57 to AkkaInvocationHandler--><g id="link_GMN57_AkkaInvocationHandler"><path d="M1129.73,354.912 C1176.77,333.542 1257.7,304.355 1328.5,316.5 C1375.36,324.538 1426.56,344.503 1459.42,358.874 " fill="none" id="GMN57-AkkaInvocationHandler" style="stroke:#181818;stroke-width:1.0;stroke-dasharray:7.0,7.0;"/></g><!--SRC=[jLRRRkCs47tNLmpyaWJmfUXZ6XXGitRNw4868gUBHR5OqD9O9YoHAab5CHRxxnrI5zEoi7rgNWAIPsREdBd8Yxi0xk0JJr1eJC58C4U4i6G9_OlbmTHC8Qnb9L9ck1Hm7yRh1w0ZAf02hRLKK4X29L8OnVULeOkyyGWiKuW52gFd036YSnzjTvld5HnuxknJhXix8b1pSoGCrr1BTO83kM9focrebWCNT54u8jPGOSPKoaL6eSkpujdHWAm5Adta9SNRsLJYTKT6Duwxi9JhMLPjAbxMhHXJ-8iSsPH_dVy2zmImHfFsTVBmcxCks1c4D51fl7W7V4-mD4INY1Lbpfb8d7MRNH-3E7vfdSYzOOHdBXMG1ny6p92rTK1_HsFAnyMYhkivSuJdKcMBBiN59r8sYbSp8jtQl8eSjIQn_gcu8edtPs0baKhOdgZchBO5T7LozISIjIB1HJO5tJR0i4eNpJg6bBaF8DMOW4aOmoQUmEzXl8cdriddpUxZzdK7dyENbp3QRLOnR5_WUHjzsEmssuXEQmYZB_3d9lem1IIvA0w-byfcG3IvLHFJkVNLTLD7mVQAFUiI4txW2QKciefb29byGoLidvIe2gvjLJKHJAsRd1VSk9RIjtdPG8iW2EwiwffaBycfgOfyJeLT93dJUfPo4eyLGN3aAKA1nPxw9WYeDYSR_5aAsmmLjU_Jqvg0k5p2zy2Mqjd3gqRrxCvS65G7bY2ybCaVp63Dpe67fDiO5ULoVRSIQId9DhXr4f-rmMBadjnGXer5ZuDPEbjwp_08YKBYeNjS-z01MvB_3Mnu3t0kSvXLmw2sLL4R3LchWGSUXAMvwsDsjyE8iYWgGUrEOTq4-Xm9CSjzduymWSaGiVHb9fUfuc-NkFr3wwcFh6awqugc3rGbX1qttIXE6uE6MaFaJlPlidhdDkEzf0r17KDTJWxlBxmUUgXjND1DZFi-tCEyOOtqQDqF0dsZnatmAFEqxPx_CMZKLU3IV15SrRYxiyrnI-tgPc3e06xGhkr-184tQBE_2PAY-4h6uUd4BjDeJp-Pmz0xM-Xr5krzGX-uTc2UdYngkVIVzxG6MM8SR1H05nln9XEtT3wIi3ascwtvK7hDE1sR-9PNun_V3Oa_Y3gIX2-VIxGH__hvPwCNGWk_fUvDuPLcpMJVXF0tm1ZUatSKt2JUbtWvaliupmkPnWKDgDEEBYxWaKZ3wUS4Fj5G5sYECcsvUQndrKqWRs4CzBZ9-4RB3bZTyX-JSWWVgrTdTzaHEHwC_TKnQj5lWLVTVDkRHJ3JTWwP_P8EFark9xmdUQKfxVniVrRegYobCcIQ7xhcqlFhxV7ZNm00]--></g></svg>