<?xml version="1.0" encoding="UTF-8" standalone="no"?><svg xmlns="http://www.w3.org/2000/svg" xmlns:xlink="http://www.w3.org/1999/xlink" contentStyleType="text/css" height="744px" preserveAspectRatio="none" style="width:1189px;height:744px;background:#FFFFFF;" version="1.1" viewBox="0 0 1189 744" width="1189px" zoomAndPan="magnify"><defs/><g><!--MD5=[e99c5ac1a7a47251e1e573bba66c46a0]
cluster Conceptual--><g id="cluster_Conceptual"><rect fill="none" height="333" rx="2.5" ry="2.5" style="stroke:#181818;stroke-width:1.0;" width="881" x="159" y="7"/><path d="M260,7 L260,16.2969 L250,26.2969 L159,26.2969 " fill="none" style="stroke:#181818;stroke-width:1.0;"/><text fill="#000000" font-family="sans-serif" font-size="14" font-weight="bold" lengthAdjust="spacing" textLength="91" x="162" y="20.9951">Conceptual</text></g><!--MD5=[d924e779aa1b6f37d95a81cf1e00db85]
cluster Akka--><g id="cluster_Akka"><rect fill="none" height="333" rx="2.5" ry="2.5" style="stroke:#181818;stroke-width:1.0;" width="1176" x="7" y="405"/><path d="M56,405 L56,414.2969 L46,424.2969 L7,424.2969 " fill="none" style="stroke:#181818;stroke-width:1.0;"/><text fill="#000000" font-family="sans-serif" font-size="14" font-weight="bold" lengthAdjust="spacing" textLength="39" x="10" y="418.9951">Akka</text></g><!--MD5=[404909dd016b1f1bc190703623a25252]
class UserC--><g id="elem_UserC"><rect codeLine="6" fill="#F1F1F1" height="32" id="UserC" rx="2.5" ry="2.5" style="stroke:#181818;stroke-width:0.5;" width="73" x="183.5" y="284"/><ellipse cx="198.5" cy="300" fill="#ADD1B2" rx="11" ry="11" style="stroke:#181818;stroke-width:1.0;"/><path d="M200.8438,295.6719 C199.9063,295.2344 199.3125,295.0938 198.4375,295.0938 C195.8125,295.0938 193.8125,297.1719 193.8125,299.8906 L193.8125,301.0156 C193.8125,303.5938 195.9219,305.4844 198.8125,305.4844 C200.0313,305.4844 201.1875,305.1875 201.9375,304.6406 C202.5156,304.2344 202.8438,303.7813 202.8438,303.3906 C202.8438,302.9375 202.4531,302.5469 201.9844,302.5469 C201.7656,302.5469 201.5625,302.625 201.375,302.8125 C200.9219,303.2969 200.9219,303.2969 200.7344,303.3906 C200.3125,303.6563 199.625,303.7813 198.8594,303.7813 C196.8125,303.7813 195.5156,302.6875 195.5156,300.9844 L195.5156,299.8906 C195.5156,298.1094 196.7656,296.7969 198.5,296.7969 C199.0781,296.7969 199.6875,296.9531 200.1563,297.2031 C200.6406,297.4844 200.8125,297.7031 200.9063,298.1094 C200.9688,298.5156 201,298.6406 201.1406,298.7656 C201.2813,298.9063 201.5156,299.0156 201.7344,299.0156 C202,299.0156 202.2656,298.875 202.4375,298.6563 C202.5469,298.5 202.5781,298.3125 202.5781,297.8906 L202.5781,296.4688 C202.5781,296.0313 202.5625,295.9063 202.4688,295.75 C202.3125,295.4844 202.0313,295.3438 201.7344,295.3438 C201.4375,295.3438 201.2344,295.4375 201.0156,295.75 L200.8438,295.6719 Z " fill="#000000"/><text fill="#000000" font-family="sans-serif" font-size="14" lengthAdjust="spacing" textLength="41" x="212.5" y="304.8467">UserC</text></g><!--MD5=[c9c2f2c72cf5567dfd7495b3b4d195a4]
class RpcGateway--><g id="elem_RpcGateway"><rect codeLine="7" fill="#F1F1F1" height="32" id="RpcGateway" rx="2.5" ry="2.5" style="stroke:#181818;stroke-width:0.5;" width="121" x="323.5" y="284"/><ellipse cx="338.5" cy="300" fill="#B4A7E5" rx="11" ry="11" style="stroke:#181818;stroke-width:1.0;"/><path d="M339.4531,296.7813 L341.1719,296.7813 C341.5625,296.7813 341.75,296.75 341.875,296.6719 C342.1406,296.5156 342.2813,296.2344 342.2813,295.9375 C342.2813,295.6719 342.1719,295.4063 341.9375,295.2344 C341.7656,295.125 341.625,295.0938 341.1719,295.0938 L336.0313,295.0938 C335.5938,295.0938 335.4688,295.1094 335.3125,295.2031 C335.0625,295.3594 334.9063,295.6563 334.9063,295.9375 C334.9063,296.2188 335.0469,296.4688 335.2656,296.6406 C335.4219,296.75 335.6094,296.7813 336.0313,296.7813 L337.75,296.7813 L337.75,303.2969 L336.0313,303.2969 C335.5938,303.2969 335.4688,303.3125 335.3125,303.4219 C335.0625,303.5781 334.9063,303.8594 334.9063,304.1563 C334.9063,304.4063 335.0469,304.6719 335.2656,304.8281 C335.4219,304.9531 335.625,305 336.0313,305 L341.1719,305 C341.9219,305 342.2813,304.7188 342.2813,304.1563 C342.2813,303.875 342.1719,303.625 341.9375,303.4531 C341.7656,303.3281 341.625,303.2969 341.1719,303.2969 L339.4531,303.2969 L339.4531,296.7813 Z " fill="#000000"/><text fill="#000000" font-family="sans-serif" font-size="14" font-style="italic" lengthAdjust="spacing" textLength="89" x="352.5" y="304.8467">RpcGateway</text></g><!--MD5=[6c96b193ebefdf5e53500d3e2a156c12]
class RpcServer--><g id="elem_RpcServer"><rect codeLine="9" fill="#F1F1F1" height="32" id="RpcServer" rx="2.5" ry="2.5" style="stroke:#181818;stroke-width:0.5;" width="107" x="607.5" y="284"/><ellipse cx="622.5" cy="300" fill="#ADD1B2" rx="11" ry="11" style="stroke:#181818;stroke-width:1.0;"/><path d="M624.8438,295.6719 C623.9063,295.2344 623.3125,295.0938 622.4375,295.0938 C619.8125,295.0938 617.8125,297.1719 617.8125,299.8906 L617.8125,301.0156 C617.8125,303.5938 619.9219,305.4844 622.8125,305.4844 C624.0313,305.4844 625.1875,305.1875 625.9375,304.6406 C626.5156,304.2344 626.8438,303.7813 626.8438,303.3906 C626.8438,302.9375 626.4531,302.5469 625.9844,302.5469 C625.7656,302.5469 625.5625,302.625 625.375,302.8125 C624.9219,303.2969 624.9219,303.2969 624.7344,303.3906 C624.3125,303.6563 623.625,303.7813 622.8594,303.7813 C620.8125,303.7813 619.5156,302.6875 619.5156,300.9844 L619.5156,299.8906 C619.5156,298.1094 620.7656,296.7969 622.5,296.7969 C623.0781,296.7969 623.6875,296.9531 624.1563,297.2031 C624.6406,297.4844 624.8125,297.7031 624.9063,298.1094 C624.9688,298.5156 625,298.6406 625.1406,298.7656 C625.2813,298.9063 625.5156,299.0156 625.7344,299.0156 C626,299.0156 626.2656,298.875 626.4375,298.6563 C626.5469,298.5 626.5781,298.3125 626.5781,297.8906 L626.5781,296.4688 C626.5781,296.0313 626.5625,295.9063 626.4688,295.75 C626.3125,295.4844 626.0313,295.3438 625.7344,295.3438 C625.4375,295.3438 625.2344,295.4375 625.0156,295.75 L624.8438,295.6719 Z " fill="#000000"/><text fill="#000000" font-family="sans-serif" font-size="14" lengthAdjust="spacing" textLength="75" x="636.5" y="304.8467">RpcServer</text></g><!--MD5=[59865b99f25df7b1c0f903a44caa7406]
class RpcEndpoint--><g id="elem_RpcEndpoint"><rect codeLine="10" fill="#F1F1F1" height="32" id="RpcEndpoint" rx="2.5" ry="2.5" style="stroke:#181818;stroke-width:0.5;" width="126" x="882" y="284"/><ellipse cx="897" cy="300" fill="#ADD1B2" rx="11" ry="11" style="stroke:#181818;stroke-width:1.0;"/><path d="M899.3438,295.6719 C898.4063,295.2344 897.8125,295.0938 896.9375,295.0938 C894.3125,295.0938 892.3125,297.1719 892.3125,299.8906 L892.3125,301.0156 C892.3125,303.5938 894.4219,305.4844 897.3125,305.4844 C898.5313,305.4844 899.6875,305.1875 900.4375,304.6406 C901.0156,304.2344 901.3438,303.7813 901.3438,303.3906 C901.3438,302.9375 900.9531,302.5469 900.4844,302.5469 C900.2656,302.5469 900.0625,302.625 899.875,302.8125 C899.4219,303.2969 899.4219,303.2969 899.2344,303.3906 C898.8125,303.6563 898.125,303.7813 897.3594,303.7813 C895.3125,303.7813 894.0156,302.6875 894.0156,300.9844 L894.0156,299.8906 C894.0156,298.1094 895.2656,296.7969 897,296.7969 C897.5781,296.7969 898.1875,296.9531 898.6563,297.2031 C899.1406,297.4844 899.3125,297.7031 899.4063,298.1094 C899.4688,298.5156 899.5,298.6406 899.6406,298.7656 C899.7813,298.9063 900.0156,299.0156 900.2344,299.0156 C900.5,299.0156 900.7656,298.875 900.9375,298.6563 C901.0469,298.5 901.0781,298.3125 901.0781,297.8906 L901.0781,296.4688 C901.0781,296.0313 901.0625,295.9063 900.9688,295.75 C900.8125,295.4844 900.5313,295.3438 900.2344,295.3438 C899.9375,295.3438 899.7344,295.4375 899.5156,295.75 L899.3438,295.6719 Z " fill="#000000"/><text fill="#000000" font-family="sans-serif" font-size="14" lengthAdjust="spacing" textLength="94" x="911" y="304.8467">RpcEndpoint</text></g><!--MD5=[94b621c28f4d033a8762823330b05b90]
class RpcSystem--><g id="elem_RpcSystem"><rect codeLine="12" fill="#F1F1F1" height="32" id="RpcSystem" rx="2.5" ry="2.5" style="stroke:#181818;stroke-width:0.5;" width="111" x="466.5" y="54"/><ellipse cx="481.5" cy="70" fill="#B4A7E5" rx="11" ry="11" style="stroke:#181818;stroke-width:1.0;"/><path d="M482.4531,66.7813 L484.1719,66.7813 C484.5625,66.7813 484.75,66.75 484.875,66.6719 C485.1406,66.5156 485.2813,66.2344 485.2813,65.9375 C485.2813,65.6719 485.1719,65.4063 484.9375,65.2344 C484.7656,65.125 484.625,65.0938 484.1719,65.0938 L479.0313,65.0938 C478.5938,65.0938 478.4688,65.1094 478.3125,65.2031 C478.0625,65.3594 477.9063,65.6563 477.9063,65.9375 C477.9063,66.2188 478.0469,66.4688 478.2656,66.6406 C478.4219,66.75 478.6094,66.7813 479.0313,66.7813 L480.75,66.7813 L480.75,73.2969 L479.0313,73.2969 C478.5938,73.2969 478.4688,73.3125 478.3125,73.4219 C478.0625,73.5781 477.9063,73.8594 477.9063,74.1563 C477.9063,74.4063 478.0469,74.6719 478.2656,74.8281 C478.4219,74.9531 478.625,75 479.0313,75 L484.1719,75 C484.9219,75 485.2813,74.7188 485.2813,74.1563 C485.2813,73.875 485.1719,73.625 484.9375,73.4531 C484.7656,73.3281 484.625,73.2969 484.1719,73.2969 L482.4531,73.2969 L482.4531,66.7813 Z " fill="#000000"/><text fill="#000000" font-family="sans-serif" font-size="14" font-style="italic" lengthAdjust="spacing" textLength="79" x="495.5" y="74.8467">RpcSystem</text></g><!--MD5=[aff7a7f4a6655a5dc0a79b0cf31acc4a]
class RpcService--><g id="elem_RpcService"><rect codeLine="13" fill="#F1F1F1" height="32" id="RpcService" rx="2.5" ry="2.5" style="stroke:#181818;stroke-width:0.5;" width="112" x="466" y="171"/><ellipse cx="481" cy="187" fill="#B4A7E5" rx="11" ry="11" style="stroke:#181818;stroke-width:1.0;"/><path d="M481.9531,183.7813 L483.6719,183.7813 C484.0625,183.7813 484.25,183.75 484.375,183.6719 C484.6406,183.5156 484.7813,183.2344 484.7813,182.9375 C484.7813,182.6719 484.6719,182.4063 484.4375,182.2344 C484.2656,182.125 484.125,182.0938 483.6719,182.0938 L478.5313,182.0938 C478.0938,182.0938 477.9688,182.1094 477.8125,182.2031 C477.5625,182.3594 477.4063,182.6563 477.4063,182.9375 C477.4063,183.2188 477.5469,183.4688 477.7656,183.6406 C477.9219,183.75 478.1094,183.7813 478.5313,183.7813 L480.25,183.7813 L480.25,190.2969 L478.5313,190.2969 C478.0938,190.2969 477.9688,190.3125 477.8125,190.4219 C477.5625,190.5781 477.4063,190.8594 477.4063,191.1563 C477.4063,191.4063 477.5469,191.6719 477.7656,191.8281 C477.9219,191.9531 478.125,192 478.5313,192 L483.6719,192 C484.4219,192 484.7813,191.7188 484.7813,191.1563 C484.7813,190.875 484.6719,190.625 484.4375,190.4531 C484.2656,190.3281 484.125,190.2969 483.6719,190.2969 L481.9531,190.2969 L481.9531,183.7813 Z " fill="#000000"/><text fill="#000000" font-family="sans-serif" font-size="14" font-style="italic" lengthAdjust="spacing" textLength="80" x="495" y="191.8467">RpcService</text></g><g id="elem_N"><path d="M184.5,50 L184.5,90.2656 L431.5,90.2656 L431.5,60 L421.5,50 L184.5,50 " fill="#FEFFDD" style="stroke:#181818;stroke-width:0.5;"/><path d="M421.5,50 L421.5,60 L431.5,60 L421.5,50 " fill="#FEFFDD" style="stroke:#181818;stroke-width:1.0;"/><text fill="#000000" font-family="sans-serif" font-size="13" lengthAdjust="spacing" textLength="226" x="190.5" y="67.0669">"Exists both onclient (RpcGateway)</text><text fill="#000000" font-family="sans-serif" font-size="13" lengthAdjust="spacing" textLength="158" x="194.5" y="82.1997">and server (RpcServer)."</text></g><!--MD5=[518d3b0ccf1c30533be49a9cd1da609a]
class UserA--><g id="elem_UserA"><rect codeLine="46" fill="#F1F1F1" height="32" id="UserA" rx="2.5" ry="2.5" style="stroke:#181818;stroke-width:0.5;" width="73" x="326.5" y="452"/><ellipse cx="341.5" cy="468" fill="#ADD1B2" rx="11" ry="11" style="stroke:#181818;stroke-width:1.0;"/><path d="M343.8438,463.6719 C342.9063,463.2344 342.3125,463.0938 341.4375,463.0938 C338.8125,463.0938 336.8125,465.1719 336.8125,467.8906 L336.8125,469.0156 C336.8125,471.5938 338.9219,473.4844 341.8125,473.4844 C343.0313,473.4844 344.1875,473.1875 344.9375,472.6406 C345.5156,472.2344 345.8438,471.7813 345.8438,471.3906 C345.8438,470.9375 345.4531,470.5469 344.9844,470.5469 C344.7656,470.5469 344.5625,470.625 344.375,470.8125 C343.9219,471.2969 343.9219,471.2969 343.7344,471.3906 C343.3125,471.6563 342.625,471.7813 341.8594,471.7813 C339.8125,471.7813 338.5156,470.6875 338.5156,468.9844 L338.5156,467.8906 C338.5156,466.1094 339.7656,464.7969 341.5,464.7969 C342.0781,464.7969 342.6875,464.9531 343.1563,465.2031 C343.6406,465.4844 343.8125,465.7031 343.9063,466.1094 C343.9688,466.5156 344,466.6406 344.1406,466.7656 C344.2813,466.9063 344.5156,467.0156 344.7344,467.0156 C345,467.0156 345.2656,466.875 345.4375,466.6563 C345.5469,466.5 345.5781,466.3125 345.5781,465.8906 L345.5781,464.4688 C345.5781,464.0313 345.5625,463.9063 345.4688,463.75 C345.3125,463.4844 345.0313,463.3438 344.7344,463.3438 C344.4375,463.3438 344.2344,463.4375 344.0156,463.75 L343.8438,463.6719 Z " fill="#000000"/><text fill="#000000" font-family="sans-serif" font-size="14" lengthAdjust="spacing" textLength="41" x="355.5" y="472.8467">UserA</text></g><!--MD5=[c8a839832e35913b7d2ef21e64c1ae85]
class AkkaRpcSystem--><g id="elem_AkkaRpcSystem"><rect codeLine="47" fill="#F1F1F1" height="32" id="AkkaRpcSystem" rx="2.5" ry="2.5" style="stroke:#181818;stroke-width:0.5;" width="150" x="612" y="682"/><ellipse cx="627" cy="698" fill="#ADD1B2" rx="11" ry="11" style="stroke:#181818;stroke-width:1.0;"/><path d="M629.3438,693.6719 C628.4063,693.2344 627.8125,693.0938 626.9375,693.0938 C624.3125,693.0938 622.3125,695.1719 622.3125,697.8906 L622.3125,699.0156 C622.3125,701.5938 624.4219,703.4844 627.3125,703.4844 C628.5313,703.4844 629.6875,703.1875 630.4375,702.6406 C631.0156,702.2344 631.3438,701.7813 631.3438,701.3906 C631.3438,700.9375 630.9531,700.5469 630.4844,700.5469 C630.2656,700.5469 630.0625,700.625 629.875,700.8125 C629.4219,701.2969 629.4219,701.2969 629.2344,701.3906 C628.8125,701.6563 628.125,701.7813 627.3594,701.7813 C625.3125,701.7813 624.0156,700.6875 624.0156,698.9844 L624.0156,697.8906 C624.0156,696.1094 625.2656,694.7969 627,694.7969 C627.5781,694.7969 628.1875,694.9531 628.6563,695.2031 C629.1406,695.4844 629.3125,695.7031 629.4063,696.1094 C629.4688,696.5156 629.5,696.6406 629.6406,696.7656 C629.7813,696.9063 630.0156,697.0156 630.2344,697.0156 C630.5,697.0156 630.7656,696.875 630.9375,696.6563 C631.0469,696.5 631.0781,696.3125 631.0781,695.8906 L631.0781,694.4688 C631.0781,694.0313 631.0625,693.9063 630.9688,693.75 C630.8125,693.4844 630.5313,693.3438 630.2344,693.3438 C629.9375,693.3438 629.7344,693.4375 629.5156,693.75 L629.3438,693.6719 Z " fill="#000000"/><text fill="#000000" font-family="sans-serif" font-size="14" lengthAdjust="spacing" textLength="118" x="641" y="702.8467">AkkaRpcSystem</text></g><!--MD5=[8270357cc77a2224786a4ccc7ca91bf1]
class ActorSystem--><g id="elem_ActorSystem"><rect codeLine="48" fill="#F1F1F1" height="40.2656" id="ActorSystem" rx="2.5" ry="2.5" style="stroke:#181818;stroke-width:0.5;" width="126" x="755" y="565"/><ellipse cx="770" cy="585.1328" fill="#ADD1B2" rx="11" ry="11" style="stroke:#181818;stroke-width:1.0;"/><path d="M772.3438,580.8047 C771.4063,580.3672 770.8125,580.2266 769.9375,580.2266 C767.3125,580.2266 765.3125,582.3047 765.3125,585.0234 L765.3125,586.1484 C765.3125,588.7266 767.4219,590.6172 770.3125,590.6172 C771.5313,590.6172 772.6875,590.3203 773.4375,589.7734 C774.0156,589.3672 774.3438,588.9141 774.3438,588.5234 C774.3438,588.0703 773.9531,587.6797 773.4844,587.6797 C773.2656,587.6797 773.0625,587.7578 772.875,587.9453 C772.4219,588.4297 772.4219,588.4297 772.2344,588.5234 C771.8125,588.7891 771.125,588.9141 770.3594,588.9141 C768.3125,588.9141 767.0156,587.8203 767.0156,586.1172 L767.0156,585.0234 C767.0156,583.2422 768.2656,581.9297 770,581.9297 C770.5781,581.9297 771.1875,582.0859 771.6563,582.3359 C772.1406,582.6172 772.3125,582.8359 772.4063,583.2422 C772.4688,583.6484 772.5,583.7734 772.6406,583.8984 C772.7813,584.0391 773.0156,584.1484 773.2344,584.1484 C773.5,584.1484 773.7656,584.0078 773.9375,583.7891 C774.0469,583.6328 774.0781,583.4453 774.0781,583.0234 L774.0781,581.6016 C774.0781,581.1641 774.0625,581.0391 773.9688,580.8828 C773.8125,580.6172 773.5313,580.4766 773.2344,580.4766 C772.9375,580.4766 772.7344,580.5703 772.5156,580.8828 L772.3438,580.8047 Z " fill="#000000"/><text fill="#000000" font-family="sans-serif" font-size="12" font-style="italic" lengthAdjust="spacing" textLength="43" x="809.5" y="581.1387">«Akka»</text><text fill="#000000" font-family="sans-serif" font-size="14" lengthAdjust="spacing" textLength="94" x="784" y="596.9639">ActorSystem</text></g><!--MD5=[c9b685892a9ae09e1f2a43cb371e50a6]
class AbstractActor--><g id="elem_AbstractActor"><rect codeLine="49" fill="#F1F1F1" height="40.2656" id="AbstractActor" rx="2.5" ry="2.5" style="stroke:#181818;stroke-width:0.5;" width="135" x="1004.5" y="448"/><ellipse cx="1019.5" cy="468.1328" fill="#ADD1B2" rx="11" ry="11" style="stroke:#181818;stroke-width:1.0;"/><path d="M1021.8438,463.8047 C1020.9063,463.3672 1020.3125,463.2266 1019.4375,463.2266 C1016.8125,463.2266 1014.8125,465.3047 1014.8125,468.0234 L1014.8125,469.1484 C1014.8125,471.7266 1016.9219,473.6172 1019.8125,473.6172 C1021.0313,473.6172 1022.1875,473.3203 1022.9375,472.7734 C1023.5156,472.3672 1023.8438,471.9141 1023.8438,471.5234 C1023.8438,471.0703 1023.4531,470.6797 1022.9844,470.6797 C1022.7656,470.6797 1022.5625,470.7578 1022.375,470.9453 C1021.9219,471.4297 1021.9219,471.4297 1021.7344,471.5234 C1021.3125,471.7891 1020.625,471.9141 1019.8594,471.9141 C1017.8125,471.9141 1016.5156,470.8203 1016.5156,469.1172 L1016.5156,468.0234 C1016.5156,466.2422 1017.7656,464.9297 1019.5,464.9297 C1020.0781,464.9297 1020.6875,465.0859 1021.1563,465.3359 C1021.6406,465.6172 1021.8125,465.8359 1021.9063,466.2422 C1021.9688,466.6484 1022,466.7734 1022.1406,466.8984 C1022.2813,467.0391 1022.5156,467.1484 1022.7344,467.1484 C1023,467.1484 1023.2656,467.0078 1023.4375,466.7891 C1023.5469,466.6328 1023.5781,466.4453 1023.5781,466.0234 L1023.5781,464.6016 C1023.5781,464.1641 1023.5625,464.0391 1023.4688,463.8828 C1023.3125,463.6172 1023.0313,463.4766 1022.7344,463.4766 C1022.4375,463.4766 1022.2344,463.5703 1022.0156,463.8828 L1021.8438,463.8047 Z " fill="#000000"/><text fill="#000000" font-family="sans-serif" font-size="12" font-style="italic" lengthAdjust="spacing" textLength="43" x="1063.5" y="464.1387">«Akka»</text><text fill="#000000" font-family="sans-serif" font-size="14" lengthAdjust="spacing" textLength="103" x="1033.5" y="479.9639">AbstractActor</text></g><!--MD5=[9c639101024087ad84c18844edd7a6d5]
class AkkaInvocationHandler--><g id="elem_AkkaInvocationHandler"><rect codeLine="50" fill="#F1F1F1" height="32" id="AkkaInvocationHandler" rx="2.5" ry="2.5" style="stroke:#181818;stroke-width:0.5;" width="198" x="466" y="452"/><ellipse cx="481" cy="468" fill="#ADD1B2" rx="11" ry="11" style="stroke:#181818;stroke-width:1.0;"/><path d="M483.3438,463.6719 C482.4063,463.2344 481.8125,463.0938 480.9375,463.0938 C478.3125,463.0938 476.3125,465.1719 476.3125,467.8906 L476.3125,469.0156 C476.3125,471.5938 478.4219,473.4844 481.3125,473.4844 C482.5313,473.4844 483.6875,473.1875 484.4375,472.6406 C485.0156,472.2344 485.3438,471.7813 485.3438,471.3906 C485.3438,470.9375 484.9531,470.5469 484.4844,470.5469 C484.2656,470.5469 484.0625,470.625 483.875,470.8125 C483.4219,471.2969 483.4219,471.2969 483.2344,471.3906 C482.8125,471.6563 482.125,471.7813 481.3594,471.7813 C479.3125,471.7813 478.0156,470.6875 478.0156,468.9844 L478.0156,467.8906 C478.0156,466.1094 479.2656,464.7969 481,464.7969 C481.5781,464.7969 482.1875,464.9531 482.6563,465.2031 C483.1406,465.4844 483.3125,465.7031 483.4063,466.1094 C483.4688,466.5156 483.5,466.6406 483.6406,466.7656 C483.7813,466.9063 484.0156,467.0156 484.2344,467.0156 C484.5,467.0156 484.7656,466.875 484.9375,466.6563 C485.0469,466.5 485.0781,466.3125 485.0781,465.8906 L485.0781,464.4688 C485.0781,464.0313 485.0625,463.9063 484.9688,463.75 C484.8125,463.4844 484.5313,463.3438 484.2344,463.3438 C483.9375,463.3438 483.7344,463.4375 483.5156,463.75 L483.3438,463.6719 Z " fill="#000000"/><text fill="#000000" font-family="sans-serif" font-size="14" lengthAdjust="spacing" textLength="166" x="495" y="472.8467">AkkaInvocationHandler</text></g><!--MD5=[802205ae2df9e1d0da008729515a049e]
class AkkaRpcActor--><g id="elem_AkkaRpcActor"><rect codeLine="51" fill="#F1F1F1" height="32" id="AkkaRpcActor" rx="2.5" ry="2.5" style="stroke:#181818;stroke-width:0.5;" width="136" x="833" y="452"/><ellipse cx="848" cy="468" fill="#ADD1B2" rx="11" ry="11" style="stroke:#181818;stroke-width:1.0;"/><path d="M850.3438,463.6719 C849.4063,463.2344 848.8125,463.0938 847.9375,463.0938 C845.3125,463.0938 843.3125,465.1719 843.3125,467.8906 L843.3125,469.0156 C843.3125,471.5938 845.4219,473.4844 848.3125,473.4844 C849.5313,473.4844 850.6875,473.1875 851.4375,472.6406 C852.0156,472.2344 852.3438,471.7813 852.3438,471.3906 C852.3438,470.9375 851.9531,470.5469 851.4844,470.5469 C851.2656,470.5469 851.0625,470.625 850.875,470.8125 C850.4219,471.2969 850.4219,471.2969 850.2344,471.3906 C849.8125,471.6563 849.125,471.7813 848.3594,471.7813 C846.3125,471.7813 845.0156,470.6875 845.0156,468.9844 L845.0156,467.8906 C845.0156,466.1094 846.2656,464.7969 848,464.7969 C848.5781,464.7969 849.1875,464.9531 849.6563,465.2031 C850.1406,465.4844 850.3125,465.7031 850.4063,466.1094 C850.4688,466.5156 850.5,466.6406 850.6406,466.7656 C850.7813,466.9063 851.0156,467.0156 851.2344,467.0156 C851.5,467.0156 851.7656,466.875 851.9375,466.6563 C852.0469,466.5 852.0781,466.3125 852.0781,465.8906 L852.0781,464.4688 C852.0781,464.0313 852.0625,463.9063 851.9688,463.75 C851.8125,463.4844 851.5313,463.3438 851.2344,463.3438 C850.9375,463.3438 850.7344,463.4375 850.5156,463.75 L850.3438,463.6719 Z " fill="#000000"/><text fill="#000000" font-family="sans-serif" font-size="14" lengthAdjust="spacing" textLength="104" x="862" y="472.8467">AkkaRpcActor</text></g><!--MD5=[40376e5d780b5b867bf5b76c7ca83650]
class AkkaRpcService--><g id="elem_AkkaRpcService"><rect codeLine="52" fill="#F1F1F1" height="32" id="AkkaRpcService" rx="2.5" ry="2.5" style="stroke:#181818;stroke-width:0.5;" width="149" x="539.5" y="569"/><ellipse cx="554.5" cy="585" fill="#ADD1B2" rx="11" ry="11" style="stroke:#181818;stroke-width:1.0;"/><path d="M556.8438,580.6719 C555.9063,580.2344 555.3125,580.0938 554.4375,580.0938 C551.8125,580.0938 549.8125,582.1719 549.8125,584.8906 L549.8125,586.0156 C549.8125,588.5938 551.9219,590.4844 554.8125,590.4844 C556.0313,590.4844 557.1875,590.1875 557.9375,589.6406 C558.5156,589.2344 558.8438,588.7813 558.8438,588.3906 C558.8438,587.9375 558.4531,587.5469 557.9844,587.5469 C557.7656,587.5469 557.5625,587.625 557.375,587.8125 C556.9219,588.2969 556.9219,588.2969 556.7344,588.3906 C556.3125,588.6563 555.625,588.7813 554.8594,588.7813 C552.8125,588.7813 551.5156,587.6875 551.5156,585.9844 L551.5156,584.8906 C551.5156,583.1094 552.7656,581.7969 554.5,581.7969 C555.0781,581.7969 555.6875,581.9531 556.1563,582.2031 C556.6406,582.4844 556.8125,582.7031 556.9063,583.1094 C556.9688,583.5156 557,583.6406 557.1406,583.7656 C557.2813,583.9063 557.5156,584.0156 557.7344,584.0156 C558,584.0156 558.2656,583.875 558.4375,583.6563 C558.5469,583.5 558.5781,583.3125 558.5781,582.8906 L558.5781,581.4688 C558.5781,581.0313 558.5625,580.9063 558.4688,580.75 C558.3125,580.4844 558.0313,580.3438 557.7344,580.3438 C557.4375,580.3438 557.2344,580.4375 557.0156,580.75 L556.8438,580.6719 Z " fill="#000000"/><text fill="#000000" font-family="sans-serif" font-size="14" lengthAdjust="spacing" textLength="117" x="568.5" y="589.8467">AkkaRpcService</text></g><g id="elem_GMN55"><path d="M31,448 L31,488.2656 L291,488.2656 L291,458 L281,448 L31,448 " fill="#FEFFDD" style="stroke:#181818;stroke-width:0.5;"/><path d="M281,448 L281,458 L291,458 L281,448 " fill="#FEFFDD" style="stroke:#181818;stroke-width:1.0;"/><text fill="#000000" font-family="sans-serif" font-size="13" lengthAdjust="spacing" textLength="237" x="37" y="465.0669">Used on server-side as an RpcServer</text><text fill="#000000" font-family="sans-serif" font-size="13" lengthAdjust="spacing" textLength="239" x="37" y="480.1997">exclusively to support self gateways.</text></g><!--MD5=[1620f91c31b683b92e4668c848b82fab]
link RpcSystem to RpcService--><g id="link_RpcSystem_RpcService"><path codeLine="15" d="M522,86.034 C522,106.438 522,142.961 522,165.759 " fill="none" id="RpcSystem-to-RpcService" style="stroke:#181818;stroke-width:1.0;"/><polygon fill="#181818" points="522,170.962,526,161.962,522,165.962,518,161.962,522,170.962" style="stroke:#181818;stroke-width:1.0;"/><text fill="#000000" font-family="sans-serif" font-size="13" lengthAdjust="spacing" textLength="48" x="523" y="133.0669">creates</text></g><!--MD5=[632cbfc2cd8e33bc591021c10c1c750b]
link RpcService to RpcGateway--><g id="link_RpcService_RpcGateway"><path codeLine="16" d="M503.101,203.201 C478.016,223.378 433.764,258.972 406.838,280.63 " fill="none" id="RpcService-to-RpcGateway" style="stroke:#181818;stroke-width:1.0;"/><polygon fill="#181818" points="402.671,283.982,412.1907,281.4569,406.5667,280.8477,407.1758,275.2238,402.671,283.982" style="stroke:#181818;stroke-width:1.0;"/><text fill="#000000" font-family="sans-serif" font-size="13" lengthAdjust="spacing" textLength="48" x="459" y="250.0669">creates</text></g><!--MD5=[9c3f85c7f719c18651f878d65eada740]
link RpcService to RpcServer--><g id="link_RpcService_RpcServer"><path codeLine="17" d="M541.036,203.201 C566.302,223.378 610.875,258.972 637.997,280.63 " fill="none" id="RpcService-to-RpcServer" style="stroke:#181818;stroke-width:1.0;"/><polygon fill="#181818" points="642.194,283.982,637.6572,275.2403,638.2869,280.862,632.6652,281.4917,642.194,283.982" style="stroke:#181818;stroke-width:1.0;"/><text fill="#000000" font-family="sans-serif" font-size="13" lengthAdjust="spacing" textLength="48" x="605" y="250.0669">creates</text></g><!--MD5=[11f6775c2253de988adb6ead908e9182]
reverse link RpcService to UserC--><g id="link_RpcService_UserC"><path codeLine="18" d="M460.795,203.864 C456.468,204.94 452.171,205.994 448,207 C389.092,221.203 370.812,213.401 315,237 C286.521,249.042 257.242,269.633 238.856,283.758 " fill="none" id="RpcService-backto-UserC" style="stroke:#181818;stroke-width:1.0;"/><polygon fill="#181818" points="465.881,202.594,456.1799,200.8942,461.03,203.8057,458.1186,208.6558,465.881,202.594" style="stroke:#181818;stroke-width:1.0;"/><text fill="#000000" font-family="sans-serif" font-size="13" lengthAdjust="spacing" textLength="116" x="316" y="250.0669">requests gateway</text></g><!--MD5=[d6a60457351d12d5e85fe69cf48fdf7e]
link UserC to RpcGateway--><g id="link_UserC_RpcGateway"><path codeLine="19" d="M256.805,300 C274.826,300 297.083,300 317.915,300 " fill="none" id="UserC-to-RpcGateway" style="stroke:#181818;stroke-width:1.0;"/><polygon fill="#181818" points="323.177,300,314.177,296,318.177,300,314.177,304,323.177,300" style="stroke:#181818;stroke-width:1.0;"/><text fill="#000000" font-family="sans-serif" font-size="13" lengthAdjust="spacing" textLength="30" x="275" y="293.0669">uses</text></g><!--MD5=[bba754015dd9bf5e6882a7b107b79ef0]
link RpcGateway to RpcServer--><g id="link_RpcGateway_RpcServer"><path codeLine="20" d="M444.789,300 C491.56,300 555.812,300 602.102,300 " fill="none" id="RpcGateway-to-RpcServer" style="stroke:#181818;stroke-width:1.0;"/><polygon fill="#181818" points="607.372,300,598.372,296,602.372,300,598.372,304,607.372,300" style="stroke:#181818;stroke-width:1.0;"/><text fill="#000000" font-family="sans-serif" font-size="13" lengthAdjust="spacing" textLength="126" x="463" y="293.0669">communicates with</text></g><!--MD5=[79d41e1b35412d493fc139a3a8d686a9]
reverse link RpcGateway to RpcServer--><g id="link_RpcGateway_RpcServer"><path codeLine="21" d="M450.06,315.091 C474.757,319.155 503.095,321.951 529,320 C554.886,318.05 583.388,313.978 607.261,310.014 " fill="none" id="RpcGateway-backto-RpcServer" style="stroke:#181818;stroke-width:1.0;"/><polygon fill="#181818" points="444.847,314.206,453.0503,319.6562,449.7764,315.043,454.3896,311.7691,444.847,314.206" style="stroke:#181818;stroke-width:1.0;"/><text fill="#000000" font-family="sans-serif" font-size="13" lengthAdjust="spacing" textLength="4" x="524" y="316.0669"> </text></g><!--MD5=[4d685c6f5d2b10f15428d63732bde1b3]
link RpcServer to RpcEndpoint--><g id="link_RpcServer_RpcEndpoint"><path codeLine="22" d="M714.519,311.129 C734.293,314.721 756.952,318.231 777.75,320 C810.39,322.776 846.489,319.293 876.77,314.497 " fill="none" id="RpcServer-to-RpcEndpoint" style="stroke:#181818;stroke-width:1.0;"/><polygon fill="#181818" points="881.965,313.652,872.4395,311.1489,877.0299,314.4548,873.724,319.0451,881.965,313.652" style="stroke:#181818;stroke-width:1.0;"/><text fill="#000000" font-family="sans-serif" font-size="13" lengthAdjust="spacing" textLength="39" x="778.75" y="316.0669">drives</text></g><!--MD5=[4d5fe20c3ca8fbe2fe09c5f7ae830d9d]
reverse link RpcServer to RpcEndpoint--><g id="link_RpcServer_RpcEndpoint"><path codeLine="23" d="M719.843,300 C767.125,300 833.399,300 881.799,300 " fill="none" id="RpcServer-backto-RpcEndpoint" style="stroke:#181818;stroke-width:1.0;"/><polygon fill="#181818" points="714.752,300,723.752,304,719.752,300,723.752,296,714.752,300" style="stroke:#181818;stroke-width:1.0;"/><text fill="#000000" font-family="sans-serif" font-size="13" lengthAdjust="spacing" textLength="131" x="732.75" y="293.0669">schedules runnables</text></g><!--MD5=[2f36cd27e4ded54665ea81ac462a315b]
link N to RpcSystem--><g id="link_N_RpcSystem"><path codeLine="35" d="M431.719,70 C441.529,70 451.339,70 461.149,70 " fill="none" id="N-to-RpcSystem" style="stroke:#181818;stroke-width:1.0;"/><polygon fill="#181818" points="466.28,70,457.28,66,461.28,70,457.28,74,466.28,70" style="stroke:#181818;stroke-width:1.0;"/></g><!--MD5=[7e05d73373b6192de9d43a3fa33823ae]
link N to RpcService--><g id="link_N_RpcService"><path codeLine="36" d="M343.819,90.248 C384.409,112.061 450.009,147.313 489.274,168.413 " fill="none" id="N-to-RpcService" style="stroke:#181818;stroke-width:1.0;"/><polygon fill="#181818" points="493.928,170.915,487.8941,163.1309,489.5238,168.5479,484.1068,170.1776,493.928,170.915" style="stroke:#181818;stroke-width:1.0;"/></g><!--MD5=[4e1f985a507061f629ece29f733cb8dc]
link N to N_placeholder--><!--MD5=[0ccb662cf6908150af0127efb1af44d0]
link N_placeholder to RpcService--><!--MD5=[2143efce2a9fe45d01ea7d1dbc5e702c]
link Conceptual to Akka--><!--MD5=[d32daa3f05d26e7c9c0542a91145269d]
reverse link RpcGateway to AkkaInvocationHandler--><g id="link_RpcGateway_AkkaInvocationHandler"><path d="M415.203,329.617 C453.883,365.092 518.377,424.241 548.525,451.89 " fill="none" id="RpcGateway-backto-AkkaInvocationHandler" style="stroke:#181818;stroke-width:1.0;stroke-dasharray:7.0,7.0;"/><polygon fill="none" points="410.39,334.701,400.382,316.024,419.853,324.383,410.39,334.701" style="stroke:#181818;stroke-width:1.0;"/></g><!--MD5=[8ce7831532726111fee76ebb2d73b6ef]
reverse link RpcServer to AkkaInvocationHandler--><g id="link_RpcServer_AkkaInvocationHandler"><path d="M642.23,333.456 C621.607,369.117 589.358,424.88 573.877,451.649 " fill="none" id="RpcServer-backto-AkkaInvocationHandler" style="stroke:#181818;stroke-width:1.0;stroke-dasharray:7.0,7.0;"/><polygon fill="none" points="636.239,329.833,652.311,316.024,648.358,336.842,636.239,329.833" style="stroke:#181818;stroke-width:1.0;"/></g><!--MD5=[794d8854776ec70bba25d538a17ff930]
reverse link AbstractActor to AkkaRpcActor--><g id="link_AbstractActor_AkkaRpcActor"><path d="M984.33,479.992 C979.262,479.956 974.197,479.794 969.133,479.505 " fill="none" id="AbstractActor-backto-AkkaRpcActor" style="stroke:#181818;stroke-width:1.0;"/><polygon fill="none" points="984.32,472.99,1004.49,479.469,984.68,486.985,984.32,472.99" style="stroke:#181818;stroke-width:1.0;"/></g><!--MD5=[8b480b465646c92ff9091310a700bf7f]
link AkkaRpcActor to AbstractActor--><!--MD5=[90d44a1d5b5fab5b75d49d669d422a2c]
link UserA to AkkaRpcService--><g id="link_UserA_AkkaRpcService"><path codeLine="54" d="M381.906,484.119 C400.954,498.76 431.651,520.775 461,535 C488.645,548.399 520.824,559.339 548.518,567.455 " fill="none" id="UserA-to-AkkaRpcService" style="stroke:#181818;stroke-width:1.0;"/><polygon fill="#181818" points="553.635,568.938,546.1035,562.5916,548.8325,567.5467,543.8774,570.2756,553.635,568.938" style="stroke:#181818;stroke-width:1.0;"/><text fill="#000000" font-family="sans-serif" font-size="13" lengthAdjust="spacing" textLength="116" x="462" y="531.0669">requests gateway</text></g><!--MD5=[63677bf0986a89597dc9547fc5cdd737]
link UserA to AkkaInvocationHandler--><g id="link_UserA_AkkaInvocationHandler"><path codeLine="55" d="M399.581,468 C417.021,468 438.86,468 460.895,468 " fill="none" id="UserA-to-AkkaInvocationHandler" style="stroke:#181818;stroke-width:1.0;"/><polygon fill="#181818" points="465.897,468,456.897,464,460.897,468,456.897,472,465.897,468" style="stroke:#181818;stroke-width:1.0;"/><text fill="#000000" font-family="sans-serif" font-size="13" lengthAdjust="spacing" textLength="30" x="417.75" y="461.0669">uses</text></g><!--MD5=[46a02b1f05e7a5ca5f2fc11a5f4d2cab]
reverse link AkkaRpcService to AkkaRpcSystem--><g id="link_AkkaRpcService_AkkaRpcSystem"><path codeLine="56" d="M627.068,605.87 C641.361,627.603 663.958,661.963 676.936,681.697 " fill="none" id="AkkaRpcService-backto-AkkaRpcSystem" style="stroke:#181818;stroke-width:1.0;"/><polygon fill="#181818" points="624.15,601.434,625.7533,611.1515,626.8974,605.6115,632.4373,606.7556,624.15,601.434" style="stroke:#181818;stroke-width:1.0;"/><text fill="#000000" font-family="sans-serif" font-size="13" lengthAdjust="spacing" textLength="48" x="659" y="648.0669">creates</text></g><!--MD5=[b226ed9cc0150870c439172aae853273]
reverse link ActorSystem to AkkaRpcSystem--><g id="link_ActorSystem_AkkaRpcSystem"><path codeLine="57" d="M791.463,608.486 C765.728,630.291 727.388,662.7779 705.018,681.7324 " fill="none" id="ActorSystem-backto-AkkaRpcSystem" style="stroke:#181818;stroke-width:1.0;"/><polygon fill="#181818" points="795.48,605.082,786.028,607.8497,791.6657,608.3148,791.2006,613.9525,795.48,605.082" style="stroke:#181818;stroke-width:1.0;"/><text fill="#000000" font-family="sans-serif" font-size="13" lengthAdjust="spacing" textLength="48" x="758" y="648.0669">creates</text></g><!--MD5=[d3f6fe14f52cbe1c80fd6eee330d231d]
link AkkaInvocationHandler to AkkaRpcActor--><g id="link_AkkaInvocationHandler_AkkaRpcActor"><path codeLine="59" d="M664.447,468 C716.819,468 779.919,468 827.773,468 " fill="none" id="AkkaInvocationHandler-to-AkkaRpcActor" style="stroke:#181818;stroke-width:1.0;"/><polygon fill="#181818" points="832.942,468,823.942,464,827.942,468,823.942,472,832.942,468" style="stroke:#181818;stroke-width:1.0;"/><text fill="#000000" font-family="sans-serif" font-size="13" lengthAdjust="spacing" textLength="132" x="682.5" y="461.0669">sends RpcInvocation</text></g><!--MD5=[33c38f098998e88f39e3244f5bfc923f]
link AkkaRpcActor to RpcEndpoint--><g id="link_AkkaRpcActor_RpcEndpoint"><path codeLine="60" d="M905.069,451.649 C913.051,421.534 930.76,354.723 939.667,321.121 " fill="none" id="AkkaRpcActor-to-RpcEndpoint" style="stroke:#181818;stroke-width:1.0;"/><polygon fill="#181818" points="941.018,316.024,934.845,323.6982,939.7365,320.857,942.5778,325.7486,941.018,316.024" style="stroke:#181818;stroke-width:1.0;"/><text fill="#000000" font-family="sans-serif" font-size="13" lengthAdjust="spacing" textLength="110" x="929" y="377.0669">invokes methods</text></g><!--MD5=[4dc262e0afd9f3357385c94f18e3cc20]
reverse link AkkaRpcActor to ActorSystem--><g id="link_AkkaRpcActor_ActorSystem"><path codeLine="61" d="M887.213,488.102 C871.886,509.339 847.27,543.445 831.898,564.743 " fill="none" id="AkkaRpcActor-backto-ActorSystem" style="stroke:#181818;stroke-width:1.0;"/><polygon fill="#181818" points="890.149,484.034,881.6376,488.9895,887.2222,488.0878,888.1238,493.6724,890.149,484.034" style="stroke:#181818;stroke-width:1.0;"/><text fill="#000000" font-family="sans-serif" font-size="13" lengthAdjust="spacing" textLength="39" x="866" y="531.0669">drives</text></g><!--MD5=[1b69fe45fa53f8560dff628945d4a5f1]
link AkkaRpcService to ActorSystem--><g id="link_AkkaRpcService_ActorSystem"><path codeLine="62" d="M688.515,585 C708.471,585 729.944,585 749.554,585 " fill="none" id="AkkaRpcService-to-ActorSystem" style="stroke:#181818;stroke-width:1.0;"/><polygon fill="#181818" points="754.765,585,745.765,581,749.765,585,745.765,589,754.765,585" style="stroke:#181818;stroke-width:1.0;"/><text fill="#000000" font-family="sans-serif" font-size="13" lengthAdjust="spacing" textLength="30" x="706.75" y="578.0669">uses</text></g><!--MD5=[42974500b8528aaf29954a4049407211]
reverse link AkkaRpcActor to AkkaRpcService--><g id="link_AkkaRpcActor_AkkaRpcService"><path codeLine="63" d="M858.527,486.019 C802.544,508.451 704.926,547.566 651.529,568.962 " fill="none" id="AkkaRpcActor-backto-AkkaRpcService" style="stroke:#181818;stroke-width:1.0;"/><polygon fill="#181818" points="863.48,484.034,853.638,483.6673,858.8385,485.8932,856.6126,491.0937,863.48,484.034" style="stroke:#181818;stroke-width:1.0;"/><text fill="#000000" font-family="sans-serif" font-size="13" lengthAdjust="spacing" textLength="48" x="776" y="531.0669">creates</text></g><!--MD5=[d2adb7404c1b26ceaebef8254992ce6e]
reverse link AkkaInvocationHandler to AkkaRpcService--><g id="link_AkkaInvocationHandler_AkkaRpcService"><path codeLine="64" d="M573.378,488.663 C583.073,511.416 598.824,548.384 607.593,568.962 " fill="none" id="AkkaInvocationHandler-backto-AkkaRpcService" style="stroke:#181818;stroke-width:1.0;"/><polygon fill="#181818" points="571.406,484.034,571.254,493.8817,573.3659,488.6339,578.6138,490.7458,571.406,484.034" style="stroke:#181818;stroke-width:1.0;"/><text fill="#000000" font-family="sans-serif" font-size="13" lengthAdjust="spacing" textLength="48" x="594" y="531.0669">creates</text></g><!--MD5=[1977d5584ab25e48bf18f4cc47e5055c]
link GMN55 to AkkaInvocationHandler--><g id="link_GMN55_AkkaInvocationHandler"><path d="M186.04,447.848 C216.918,424.416 272.026,387.09 326.5,372.5 C411.806,349.653 507.826,419.276 546.957,451.997 " fill="none" id="GMN55-AkkaInvocationHandler" style="stroke:#181818;stroke-width:1.0;stroke-dasharray:7.0,7.0;"/></g><!--MD5=[e5bc2e44909ee7d1cbb798e7be5996a7]
@startuml
'https://plantuml.com/class-diagram

hide members

package Conceptual <<Frame>> {
    class UserC
    interface RpcGateway

    class RpcServer
    class RpcEndpoint

    interface RpcSystem
    interface RpcService

    RpcSystem -d-> RpcService : creates
    RpcService -d-> RpcGateway : creates
    RpcService -d-> RpcServer : creates
    UserC -u-> RpcService : requests gateway
    UserC -> RpcGateway : uses
    RpcGateway -> RpcServer : communicates with
    RpcServer -l> RpcGateway: " "
    RpcServer -> RpcEndpoint : drives
    RpcEndpoint -l> RpcServer : schedules runnables

    note as N
        "Exists both onclient (RpcGateway)
         and server (RpcServer)."
    end note

    note as N_placeholder
        "Exists both onclient (RpcGateway)
         and server (RpcServer)."
    end note

    N -> RpcSystem
    N -> RpcService
    N -d-> N_placeholder
    N_placeholder -> RpcService

    hide N_placeholder
}

Conceptual -[hidden]-> Akka

package Akka <<Frame>> {
    class UserA
    class AkkaRpcSystem
    class ActorSystem <<Akka>>
    class AbstractActor <<Akka>>
    class AkkaInvocationHandler implements RpcGateway,RpcServer
    class AkkaRpcActor extends AbstractActor
    class AkkaRpcService

    UserA -d-> AkkaRpcService : requests gateway
    UserA -> AkkaInvocationHandler : uses
    AkkaRpcSystem -u-> AkkaRpcService : creates
    AkkaRpcSystem -u-> ActorSystem : creates
    AkkaRpcActor -[hidden]> AbstractActor
    AkkaInvocationHandler -> AkkaRpcActor : sends RpcInvocation
    AkkaRpcActor -> RpcEndpoint : invokes methods
    ActorSystem -u> AkkaRpcActor : drives
    AkkaRpcService -> ActorSystem : uses
    AkkaRpcService -u-> AkkaRpcActor : creates
    AkkaRpcService -u-> AkkaInvocationHandler : creates

    note left of AkkaInvocationHandler
        Used on server-side as an RpcServer
        exclusively to support self gateways.
    end note
}
@enduml

@startuml

hide members

package Conceptual <<Frame>> {
    class UserC
    interface RpcGateway

    class RpcServer
    class RpcEndpoint

    interface RpcSystem
    interface RpcService

    RpcSystem -d-> RpcService : creates
    RpcService -d-> RpcGateway : creates
    RpcService -d-> RpcServer : creates
    UserC -u-> RpcService : requests gateway
    UserC -> RpcGateway : uses
    RpcGateway -> RpcServer : communicates with
    RpcServer -l> RpcGateway: " "
    RpcServer -> RpcEndpoint : drives
    RpcEndpoint -l> RpcServer : schedules runnables

    note as N
        "Exists both onclient (RpcGateway)
         and server (RpcServer)."
    end note

    note as N_placeholder
        "Exists both onclient (RpcGateway)
         and server (RpcServer)."
    end note

    N -> RpcSystem
    N -> RpcService
    N -d-> N_placeholder
    N_placeholder -> RpcService

    hide N_placeholder
}

Conceptual -[hidden]-> Akka

package Akka <<Frame>> {
    class UserA
    class AkkaRpcSystem
    class ActorSystem <<Akka>>
    class AbstractActor <<Akka>>
    class AkkaInvocationHandler implements RpcGateway,RpcServer
    class AkkaRpcActor extends AbstractActor
    class AkkaRpcService

    UserA -d-> AkkaRpcService : requests gateway
    UserA -> AkkaInvocationHandler : uses
    AkkaRpcSystem -u-> AkkaRpcService : creates
    AkkaRpcSystem -u-> ActorSystem : creates
    AkkaRpcActor -[hidden]> AbstractActor
    AkkaInvocationHandler -> AkkaRpcActor : sends RpcInvocation
    AkkaRpcActor -> RpcEndpoint : invokes methods
    ActorSystem -u> AkkaRpcActor : drives
    AkkaRpcService -> ActorSystem : uses
    AkkaRpcService -u-> AkkaRpcActor : creates
    AkkaRpcService -u-> AkkaInvocationHandler : creates

    note left of AkkaInvocationHandler
        Used on server-side as an RpcServer
        exclusively to support self gateways.
    end note
}
@enduml

PlantUML version 1.2022.9(Tue Sep 27 16:10:06 UTC 2022)
(GPL source distribution)
Java Runtime: Java(TM) SE Runtime Environment
JVM: Java HotSpot(TM) 64-Bit Server VM
Default Encoding: UTF-8
Language: en
Country: US
--></g></svg>