<?xml version="1.0" encoding="UTF-8" standalone="no"?><svg xmlns="http://www.w3.org/2000/svg" xmlns:xlink="http://www.w3.org/1999/xlink" contentStyleType="text/css" height="1214px" preserveAspectRatio="none" style="width:2411px;height:1214px;background:#FFFFFF;" version="1.1" viewBox="0 0 2411 1214" width="2411px" zoomAndPan="magnify"><defs/><g><text fill="#000000" font-family="sans-serif" font-size="14" font-weight="bold" lengthAdjust="spacing" textLength="484" x="956.5" y="22.9951">Per-process Leader Election introduced in Apache Flink 1.15</text><!--class MultipleComponentLeaderElectionDriver--><g id="elem_MultipleComponentLeaderElectionDriver"><rect codeLine="5" fill="#F1F1F1" height="105.1875" id="MultipleComponentLeaderElectionDriver" rx="2.5" ry="2.5" style="stroke:#181818;stroke-width:0.5;" width="477" x="1230" y="1009.2969"/><ellipse cx="1319.25" cy="1025.2969" fill="#B4A7E5" rx="11" ry="11" style="stroke:#181818;stroke-width:1.0;"/><path d="M1320.2031,1022.0781 L1321.9219,1022.0781 C1322.3125,1022.0781 1322.5,1022.0469 1322.625,1021.9688 C1322.8906,1021.8125 1323.0313,1021.5313 1323.0313,1021.2344 C1323.0313,1020.9688 1322.9219,1020.7031 1322.6875,1020.5313 C1322.5156,1020.4219 1322.375,1020.3906 1321.9219,1020.3906 L1316.7813,1020.3906 C1316.3438,1020.3906 1316.2188,1020.4063 1316.0625,1020.5 C1315.8125,1020.6563 1315.6563,1020.9531 1315.6563,1021.2344 C1315.6563,1021.5156 1315.7969,1021.7656 1316.0156,1021.9375 C1316.1719,1022.0469 1316.3594,1022.0781 1316.7813,1022.0781 L1318.5,1022.0781 L1318.5,1028.5938 L1316.7813,1028.5938 C1316.3438,1028.5938 1316.2188,1028.6094 1316.0625,1028.7188 C1315.8125,1028.875 1315.6563,1029.1563 1315.6563,1029.4531 C1315.6563,1029.7031 1315.7969,1029.9688 1316.0156,1030.125 C1316.1719,1030.25 1316.375,1030.2969 1316.7813,1030.2969 L1321.9219,1030.2969 C1322.6719,1030.2969 1323.0313,1030.0156 1323.0313,1029.4531 C1323.0313,1029.1719 1322.9219,1028.9219 1322.6875,1028.75 C1322.5156,1028.625 1322.375,1028.5938 1321.9219,1028.5938 L1320.2031,1028.5938 L1320.2031,1022.0781 Z " fill="#000000"/><text fill="#000000" font-family="sans-serif" font-size="14" font-style="italic" lengthAdjust="spacing" textLength="290" x="1339.75" y="1030.1436">MultipleComponentLeaderElectionDriver</text><line style="stroke:#181818;stroke-width:0.5;" x1="1231" x2="1706" y1="1041.2969" y2="1041.2969"/><text fill="#000000" font-family="sans-serif" font-size="14" lengthAdjust="spacing" textLength="81" x="1236" y="1058.292">void close()</text><text fill="#000000" font-family="sans-serif" font-size="14" lengthAdjust="spacing" textLength="175" x="1236" y="1074.5889">boolean hasLeadership()</text><text fill="#000000" font-family="sans-serif" font-size="14" lengthAdjust="spacing" textLength="465" x="1236" y="1090.8857">void publishLeaderInformation(componentId, leaderInformation)</text><text fill="#000000" font-family="sans-serif" font-size="14" lengthAdjust="spacing" textLength="322" x="1236" y="1107.1826">void deleteLeaderInformation(componentId)</text></g><!--class MultipleComponentLeaderElectionDriver.Listener--><g id="elem_MultipleComponentLeaderElectionDriver.Listener"><rect codeLine="13" fill="#F1F1F1" height="105.1875" id="MultipleComponentLeaderElectionDriver.Listener" rx="2.5" ry="2.5" style="stroke:#181818;stroke-width:0.5;" width="569" x="1835" y="676.7969"/><ellipse cx="1939.75" cy="692.7969" fill="#B4A7E5" rx="11" ry="11" style="stroke:#181818;stroke-width:1.0;"/><path d="M1940.7031,689.5781 L1942.4219,689.5781 C1942.8125,689.5781 1943,689.5469 1943.125,689.4688 C1943.3906,689.3125 1943.5313,689.0313 1943.5313,688.7344 C1943.5313,688.4688 1943.4219,688.2031 1943.1875,688.0313 C1943.0156,687.9219 1942.875,687.8906 1942.4219,687.8906 L1937.2813,687.8906 C1936.8438,687.8906 1936.7188,687.9063 1936.5625,688 C1936.3125,688.1563 1936.1563,688.4531 1936.1563,688.7344 C1936.1563,689.0156 1936.2969,689.2656 1936.5156,689.4375 C1936.6719,689.5469 1936.8594,689.5781 1937.2813,689.5781 L1939,689.5781 L1939,696.0938 L1937.2813,696.0938 C1936.8438,696.0938 1936.7188,696.1094 1936.5625,696.2188 C1936.3125,696.375 1936.1563,696.6563 1936.1563,696.9531 C1936.1563,697.2031 1936.2969,697.4688 1936.5156,697.625 C1936.6719,697.75 1936.875,697.7969 1937.2813,697.7969 L1942.4219,697.7969 C1943.1719,697.7969 1943.5313,697.5156 1943.5313,696.9531 C1943.5313,696.6719 1943.4219,696.4219 1943.1875,696.25 C1943.0156,696.125 1942.875,696.0938 1942.4219,696.0938 L1940.7031,696.0938 L1940.7031,689.5781 Z " fill="#000000"/><text fill="#000000" font-family="sans-serif" font-size="14" font-style="italic" lengthAdjust="spacing" textLength="351" x="1960.25" y="697.6436">MultipleComponentLeaderElectionDriver.Listener</text><line style="stroke:#181818;stroke-width:0.5;" x1="1836" x2="2403" y1="708.7969" y2="708.7969"/><text fill="#000000" font-family="sans-serif" font-size="14" lengthAdjust="spacing" textLength="104" x="1841" y="725.792">void isLeader()</text><text fill="#000000" font-family="sans-serif" font-size="14" lengthAdjust="spacing" textLength="118" x="1841" y="742.0889">void notLeader()</text><text fill="#000000" font-family="sans-serif" font-size="14" lengthAdjust="spacing" textLength="510" x="1841" y="758.3857">void notifyLeaderInformationChange(componentId, leaderInformation)</text><text fill="#000000" font-family="sans-serif" font-size="14" lengthAdjust="spacing" textLength="557" x="1841" y="774.6826">void notifyAllKnownLeaderInformation(leaderInformationWithComponentIds)</text></g><!--class MultipleComponentLeaderElectionService--><g id="elem_MultipleComponentLeaderElectionService"><rect codeLine="21" fill="#F1F1F1" height="137.7813" id="MultipleComponentLeaderElectionService" rx="2.5" ry="2.5" style="stroke:#181818;stroke-width:0.5;" width="663" x="1137" y="660.2969"/><ellipse cx="1314.75" cy="676.2969" fill="#B4A7E5" rx="11" ry="11" style="stroke:#181818;stroke-width:1.0;"/><path d="M1315.7031,673.0781 L1317.4219,673.0781 C1317.8125,673.0781 1318,673.0469 1318.125,672.9688 C1318.3906,672.8125 1318.5313,672.5313 1318.5313,672.2344 C1318.5313,671.9688 1318.4219,671.7031 1318.1875,671.5313 C1318.0156,671.4219 1317.875,671.3906 1317.4219,671.3906 L1312.2813,671.3906 C1311.8438,671.3906 1311.7188,671.4063 1311.5625,671.5 C1311.3125,671.6563 1311.1563,671.9531 1311.1563,672.2344 C1311.1563,672.5156 1311.2969,672.7656 1311.5156,672.9375 C1311.6719,673.0469 1311.8594,673.0781 1312.2813,673.0781 L1314,673.0781 L1314,679.5938 L1312.2813,679.5938 C1311.8438,679.5938 1311.7188,679.6094 1311.5625,679.7188 C1311.3125,679.875 1311.1563,680.1563 1311.1563,680.4531 C1311.1563,680.7031 1311.2969,680.9688 1311.5156,681.125 C1311.6719,681.25 1311.875,681.2969 1312.2813,681.2969 L1317.4219,681.2969 C1318.1719,681.2969 1318.5313,681.0156 1318.5313,680.4531 C1318.5313,680.1719 1318.4219,679.9219 1318.1875,679.75 C1318.0156,679.625 1317.875,679.5938 1317.4219,679.5938 L1315.7031,679.5938 L1315.7031,673.0781 Z " fill="#000000"/><text fill="#000000" font-family="sans-serif" font-size="14" font-style="italic" lengthAdjust="spacing" textLength="299" x="1335.25" y="681.1436">MultipleComponentLeaderElectionService</text><line style="stroke:#181818;stroke-width:0.5;" x1="1138" x2="1799" y1="692.2969" y2="692.2969"/><text fill="#000000" font-family="sans-serif" font-size="14" lengthAdjust="spacing" textLength="81" x="1143" y="709.292">void close()</text><text fill="#000000" font-family="sans-serif" font-size="14" lengthAdjust="spacing" textLength="462" x="1143" y="725.5889">LeaderElectionDriverFactory createDriverFactory(componentId)</text><text fill="#000000" font-family="sans-serif" font-size="14" lengthAdjust="spacing" textLength="651" x="1143" y="741.8857">void publishLeaderInformation(String componentId, LeaderInformation leaderInformation)</text><text fill="#000000" font-family="sans-serif" font-size="14" lengthAdjust="spacing" textLength="612" x="1143" y="758.1826">void registerLeaderElectionEventHandler(componentId, leaderElectionEventHandler)</text><text fill="#000000" font-family="sans-serif" font-size="14" lengthAdjust="spacing" textLength="468" x="1143" y="774.4795">void unregisterLeaderElectionEventHandler(String componentId)</text><text fill="#000000" font-family="sans-serif" font-size="14" lengthAdjust="spacing" textLength="277" x="1143" y="790.7764">boolean hasLeadership((componentId)</text></g><!--class LeaderContender--><g id="elem_LeaderContender"><rect codeLine="31" fill="#F1F1F1" height="72.5938" id="LeaderContender" rx="2.5" ry="2.5" style="stroke:#181818;stroke-width:0.5;" width="325" x="260" y="44.2969"/><ellipse cx="355.75" cy="60.2969" fill="#B4A7E5" rx="11" ry="11" style="stroke:#181818;stroke-width:1.0;"/><path d="M356.7031,57.0781 L358.4219,57.0781 C358.8125,57.0781 359,57.0469 359.125,56.9688 C359.3906,56.8125 359.5313,56.5313 359.5313,56.2344 C359.5313,55.9688 359.4219,55.7031 359.1875,55.5313 C359.0156,55.4219 358.875,55.3906 358.4219,55.3906 L353.2813,55.3906 C352.8438,55.3906 352.7188,55.4063 352.5625,55.5 C352.3125,55.6563 352.1563,55.9531 352.1563,56.2344 C352.1563,56.5156 352.2969,56.7656 352.5156,56.9375 C352.6719,57.0469 352.8594,57.0781 353.2813,57.0781 L355,57.0781 L355,63.5938 L353.2813,63.5938 C352.8438,63.5938 352.7188,63.6094 352.5625,63.7188 C352.3125,63.875 352.1563,64.1563 352.1563,64.4531 C352.1563,64.7031 352.2969,64.9688 352.5156,65.125 C352.6719,65.25 352.875,65.2969 353.2813,65.2969 L358.4219,65.2969 C359.1719,65.2969 359.5313,65.0156 359.5313,64.4531 C359.5313,64.1719 359.4219,63.9219 359.1875,63.75 C359.0156,63.625 358.875,63.5938 358.4219,63.5938 L356.7031,63.5938 L356.7031,57.0781 Z " fill="#000000"/><text fill="#000000" font-family="sans-serif" font-size="14" font-style="italic" lengthAdjust="spacing" textLength="125" x="376.25" y="65.1436">LeaderContender</text><line style="stroke:#181818;stroke-width:0.5;" x1="261" x2="584" y1="76.2969" y2="76.2969"/><text fill="#000000" font-family="sans-serif" font-size="14" lengthAdjust="spacing" textLength="313" x="266" y="93.292">void grantLeadership(UUID leaderSessionID)</text><text fill="#000000" font-family="sans-serif" font-size="14" lengthAdjust="spacing" textLength="173" x="266" y="109.5889">void revokeLeadership()</text></g><g id="elem_GMN6"><path d="M620,60.7969 L620,76.7969 L585.048,80.7969 L620,84.7969 L620,101.0625 A0,0 0 0 0 620,101.0625 L903,101.0625 A0,0 0 0 0 903,101.0625 L903,70.7969 L893,60.7969 L620,60.7969 A0,0 0 0 0 620,60.7969 " fill="#FEFFDD" style="stroke:#181818;stroke-width:0.5;"/><path d="M893,60.7969 L893,70.7969 L903,70.7969 L893,60.7969 " fill="#FEFFDD" style="stroke:#181818;stroke-width:0.5;"/><text fill="#000000" font-family="sans-serif" font-size="13" lengthAdjust="spacing" textLength="262" x="626" y="77.8638">LeaderContender is implemented by any</text><text fill="#000000" font-family="sans-serif" font-size="13" lengthAdjust="spacing" textLength="255" x="626" y="92.9966">class that utilizes LeaderElectionService</text></g><!--class LeaderElectionDriver--><g id="elem_LeaderElectionDriver"><rect codeLine="38" fill="#F1F1F1" height="88.8906" id="LeaderElectionDriver" rx="2.5" ry="2.5" style="stroke:#181818;stroke-width:0.5;" width="361" x="505" y="510.2969"/><ellipse cx="605.75" cy="526.2969" fill="#B4A7E5" rx="11" ry="11" style="stroke:#181818;stroke-width:1.0;"/><path d="M606.7031,523.0781 L608.4219,523.0781 C608.8125,523.0781 609,523.0469 609.125,522.9688 C609.3906,522.8125 609.5313,522.5313 609.5313,522.2344 C609.5313,521.9688 609.4219,521.7031 609.1875,521.5313 C609.0156,521.4219 608.875,521.3906 608.4219,521.3906 L603.2813,521.3906 C602.8438,521.3906 602.7188,521.4063 602.5625,521.5 C602.3125,521.6563 602.1563,521.9531 602.1563,522.2344 C602.1563,522.5156 602.2969,522.7656 602.5156,522.9375 C602.6719,523.0469 602.8594,523.0781 603.2813,523.0781 L605,523.0781 L605,529.5938 L603.2813,529.5938 C602.8438,529.5938 602.7188,529.6094 602.5625,529.7188 C602.3125,529.875 602.1563,530.1563 602.1563,530.4531 C602.1563,530.7031 602.2969,530.9688 602.5156,531.125 C602.6719,531.25 602.875,531.2969 603.2813,531.2969 L608.4219,531.2969 C609.1719,531.2969 609.5313,531.0156 609.5313,530.4531 C609.5313,530.1719 609.4219,529.9219 609.1875,529.75 C609.0156,529.625 608.875,529.5938 608.4219,529.5938 L606.7031,529.5938 L606.7031,523.0781 Z " fill="#000000"/><text fill="#000000" font-family="sans-serif" font-size="14" font-style="italic" lengthAdjust="spacing" textLength="151" x="626.25" y="531.1436">LeaderElectionDriver</text><line style="stroke:#181818;stroke-width:0.5;" x1="506" x2="865" y1="542.2969" y2="542.2969"/><text fill="#000000" font-family="sans-serif" font-size="14" lengthAdjust="spacing" textLength="349" x="511" y="559.292">void writeLeaderInformation(LeaderInformation)</text><text fill="#000000" font-family="sans-serif" font-size="14" lengthAdjust="spacing" textLength="175" x="511" y="575.5889">boolean hasLeadership()</text><text fill="#000000" font-family="sans-serif" font-size="14" lengthAdjust="spacing" textLength="81" x="511" y="591.8857">void close()</text></g><!--class LeaderElectionEventHandler--><g id="elem_LeaderElectionEventHandler"><rect codeLine="45" fill="#F1F1F1" height="88.8906" id="LeaderElectionEventHandler" rx="2.5" ry="2.5" style="stroke:#181818;stroke-width:0.5;" width="392" x="495.5" y="1017.2969"/><ellipse cx="585.25" cy="1033.2969" fill="#B4A7E5" rx="11" ry="11" style="stroke:#181818;stroke-width:1.0;"/><path d="M586.2031,1030.0781 L587.9219,1030.0781 C588.3125,1030.0781 588.5,1030.0469 588.625,1029.9688 C588.8906,1029.8125 589.0313,1029.5313 589.0313,1029.2344 C589.0313,1028.9688 588.9219,1028.7031 588.6875,1028.5313 C588.5156,1028.4219 588.375,1028.3906 587.9219,1028.3906 L582.7813,1028.3906 C582.3438,1028.3906 582.2188,1028.4063 582.0625,1028.5 C581.8125,1028.6563 581.6563,1028.9531 581.6563,1029.2344 C581.6563,1029.5156 581.7969,1029.7656 582.0156,1029.9375 C582.1719,1030.0469 582.3594,1030.0781 582.7813,1030.0781 L584.5,1030.0781 L584.5,1036.5938 L582.7813,1036.5938 C582.3438,1036.5938 582.2188,1036.6094 582.0625,1036.7188 C581.8125,1036.875 581.6563,1037.1563 581.6563,1037.4531 C581.6563,1037.7031 581.7969,1037.9688 582.0156,1038.125 C582.1719,1038.25 582.375,1038.2969 582.7813,1038.2969 L587.9219,1038.2969 C588.6719,1038.2969 589.0313,1038.0156 589.0313,1037.4531 C589.0313,1037.1719 588.9219,1036.9219 588.6875,1036.75 C588.5156,1036.625 588.375,1036.5938 587.9219,1036.5938 L586.2031,1036.5938 L586.2031,1030.0781 Z " fill="#000000"/><text fill="#000000" font-family="sans-serif" font-size="14" font-style="italic" lengthAdjust="spacing" textLength="204" x="605.75" y="1038.1436">LeaderElectionEventHandler</text><line style="stroke:#181818;stroke-width:0.5;" x1="496.5" x2="886.5" y1="1049.2969" y2="1049.2969"/><text fill="#000000" font-family="sans-serif" font-size="14" lengthAdjust="spacing" textLength="327" x="501.5" y="1066.292">void onGrantLeadership(newLeaderSessionId)</text><text fill="#000000" font-family="sans-serif" font-size="14" lengthAdjust="spacing" textLength="195" x="501.5" y="1082.5889">void onRevokeLeadership()</text><text fill="#000000" font-family="sans-serif" font-size="14" lengthAdjust="spacing" textLength="380" x="501.5" y="1098.8857">void onLeaderInformationChange(leaderInformation)</text></g><!--class LeaderElectionService--><g id="elem_LeaderElectionService"><rect codeLine="52" fill="#F1F1F1" height="105.1875" id="LeaderElectionService" rx="2.5" ry="2.5" style="stroke:#181818;stroke-width:0.5;" width="415" x="7" y="194.2969"/><ellipse cx="130.25" cy="210.2969" fill="#B4A7E5" rx="11" ry="11" style="stroke:#181818;stroke-width:1.0;"/><path d="M131.2031,207.0781 L132.9219,207.0781 C133.3125,207.0781 133.5,207.0469 133.625,206.9688 C133.8906,206.8125 134.0313,206.5313 134.0313,206.2344 C134.0313,205.9688 133.9219,205.7031 133.6875,205.5313 C133.5156,205.4219 133.375,205.3906 132.9219,205.3906 L127.7813,205.3906 C127.3438,205.3906 127.2188,205.4063 127.0625,205.5 C126.8125,205.6563 126.6563,205.9531 126.6563,206.2344 C126.6563,206.5156 126.7969,206.7656 127.0156,206.9375 C127.1719,207.0469 127.3594,207.0781 127.7813,207.0781 L129.5,207.0781 L129.5,213.5938 L127.7813,213.5938 C127.3438,213.5938 127.2188,213.6094 127.0625,213.7188 C126.8125,213.875 126.6563,214.1563 126.6563,214.4531 C126.6563,214.7031 126.7969,214.9688 127.0156,215.125 C127.1719,215.25 127.375,215.2969 127.7813,215.2969 L132.9219,215.2969 C133.6719,215.2969 134.0313,215.0156 134.0313,214.4531 C134.0313,214.1719 133.9219,213.9219 133.6875,213.75 C133.5156,213.625 133.375,213.5938 132.9219,213.5938 L131.2031,213.5938 L131.2031,207.0781 Z " fill="#000000"/><text fill="#000000" font-family="sans-serif" font-size="14" font-style="italic" lengthAdjust="spacing" textLength="160" x="150.75" y="215.1436">LeaderElectionService</text><line style="stroke:#181818;stroke-width:0.5;" x1="8" x2="421" y1="226.2969" y2="226.2969"/><text fill="#000000" font-family="sans-serif" font-size="14" lengthAdjust="spacing" textLength="205" x="13" y="243.292">void start(LeaderContender)</text><text fill="#000000" font-family="sans-serif" font-size="14" lengthAdjust="spacing" textLength="77" x="13" y="259.5889">void stop()</text><text fill="#000000" font-family="sans-serif" font-size="14" lengthAdjust="spacing" textLength="403" x="13" y="275.8857">void confirmLeadership(leaderSessionID, leaderAddress)</text><text fill="#000000" font-family="sans-serif" font-size="14" lengthAdjust="spacing" textLength="287" x="13" y="292.1826">boolean hasLeadership(leaderSessionId)</text></g><!--class DefaultMultipleComponentLeaderElectionService--><g id="elem_DefaultMultipleComponentLeaderElectionService"><rect codeLine="80" fill="#F1F1F1" height="72.5938" id="DefaultMultipleComponentLeaderElectionService" rx="2.5" ry="2.5" style="stroke:#181818;stroke-width:0.5;" width="593" x="1172" y="859.2969"/><ellipse cx="1285.25" cy="875.2969" fill="#ADD1B2" rx="11" ry="11" style="stroke:#181818;stroke-width:1.0;"/><path d="M1287.5938,870.9688 C1286.6563,870.5313 1286.0625,870.3906 1285.1875,870.3906 C1282.5625,870.3906 1280.5625,872.4688 1280.5625,875.1875 L1280.5625,876.3125 C1280.5625,878.8906 1282.6719,880.7813 1285.5625,880.7813 C1286.7813,880.7813 1287.9375,880.4844 1288.6875,879.9375 C1289.2656,879.5313 1289.5938,879.0781 1289.5938,878.6875 C1289.5938,878.2344 1289.2031,877.8438 1288.7344,877.8438 C1288.5156,877.8438 1288.3125,877.9219 1288.125,878.1094 C1287.6719,878.5938 1287.6719,878.5938 1287.4844,878.6875 C1287.0625,878.9531 1286.375,879.0781 1285.6094,879.0781 C1283.5625,879.0781 1282.2656,877.9844 1282.2656,876.2813 L1282.2656,875.1875 C1282.2656,873.4063 1283.5156,872.0938 1285.25,872.0938 C1285.8281,872.0938 1286.4375,872.25 1286.9063,872.5 C1287.3906,872.7813 1287.5625,873 1287.6563,873.4063 C1287.7188,873.8125 1287.75,873.9375 1287.8906,874.0625 C1288.0313,874.2031 1288.2656,874.3125 1288.4844,874.3125 C1288.75,874.3125 1289.0156,874.1719 1289.1875,873.9531 C1289.2969,873.7969 1289.3281,873.6094 1289.3281,873.1875 L1289.3281,871.7656 C1289.3281,871.3281 1289.3125,871.2031 1289.2188,871.0469 C1289.0625,870.7813 1288.7813,870.6406 1288.4844,870.6406 C1288.1875,870.6406 1287.9844,870.7344 1287.7656,871.0469 L1287.5938,870.9688 Z " fill="#000000"/><text fill="#000000" font-family="sans-serif" font-size="14" lengthAdjust="spacing" textLength="358" x="1305.75" y="880.1436">DefaultMultipleComponentLeaderElectionService</text><line style="stroke:#181818;stroke-width:0.5;" x1="1173" x2="1764" y1="891.2969" y2="891.2969"/><text fill="#000000" font-family="sans-serif" font-size="14" lengthAdjust="spacing" textLength="453" x="1178" y="908.292">leaderElectionDriver: MultipleComponentLeaderElectionDriver</text><text fill="#000000" font-family="sans-serif" font-size="14" lengthAdjust="spacing" textLength="581" x="1178" y="924.5889">leaderElectionEventHandlers: Map&lt;ComponentId, LeaderElectionEventHandler&gt;</text></g><!--class DefaultLeaderElectionService--><g id="elem_DefaultLeaderElectionService"><rect codeLine="82" fill="#F1F1F1" height="72.5938" id="DefaultLeaderElectionService" rx="2.5" ry="2.5" style="stroke:#181818;stroke-width:0.5;" width="321" x="252" y="360.2969"/><ellipse cx="301.25" cy="376.2969" fill="#ADD1B2" rx="11" ry="11" style="stroke:#181818;stroke-width:1.0;"/><path d="M303.5938,371.9688 C302.6563,371.5313 302.0625,371.3906 301.1875,371.3906 C298.5625,371.3906 296.5625,373.4688 296.5625,376.1875 L296.5625,377.3125 C296.5625,379.8906 298.6719,381.7813 301.5625,381.7813 C302.7813,381.7813 303.9375,381.4844 304.6875,380.9375 C305.2656,380.5313 305.5938,380.0781 305.5938,379.6875 C305.5938,379.2344 305.2031,378.8438 304.7344,378.8438 C304.5156,378.8438 304.3125,378.9219 304.125,379.1094 C303.6719,379.5938 303.6719,379.5938 303.4844,379.6875 C303.0625,379.9531 302.375,380.0781 301.6094,380.0781 C299.5625,380.0781 298.2656,378.9844 298.2656,377.2813 L298.2656,376.1875 C298.2656,374.4063 299.5156,373.0938 301.25,373.0938 C301.8281,373.0938 302.4375,373.25 302.9063,373.5 C303.3906,373.7813 303.5625,374 303.6563,374.4063 C303.7188,374.8125 303.75,374.9375 303.8906,375.0625 C304.0313,375.2031 304.2656,375.3125 304.4844,375.3125 C304.75,375.3125 305.0156,375.1719 305.1875,374.9531 C305.2969,374.7969 305.3281,374.6094 305.3281,374.1875 L305.3281,372.7656 C305.3281,372.3281 305.3125,372.2031 305.2188,372.0469 C305.0625,371.7813 304.7813,371.6406 304.4844,371.6406 C304.1875,371.6406 303.9844,371.7344 303.7656,372.0469 L303.5938,371.9688 Z " fill="#000000"/><text fill="#000000" font-family="sans-serif" font-size="14" lengthAdjust="spacing" textLength="214" x="321.75" y="381.1436">DefaultLeaderElectionService</text><line style="stroke:#181818;stroke-width:0.5;" x1="253" x2="572" y1="392.2969" y2="392.2969"/><text fill="#000000" font-family="sans-serif" font-size="14" lengthAdjust="spacing" textLength="309" x="258" y="409.292">leaderElectionDriver: LeaderElectionDriver</text><text fill="#000000" font-family="sans-serif" font-size="14" lengthAdjust="spacing" textLength="257" x="258" y="425.5889">leaderContender: LeaderContender</text></g><!--class MultipleComponentLeaderElectionDriverAdapter--><g id="elem_MultipleComponentLeaderElectionDriverAdapter"><rect codeLine="77" fill="#F1F1F1" height="56.2969" id="MultipleComponentLeaderElectionDriverAdapter" rx="2.5" ry="2.5" style="stroke:#181818;stroke-width:0.5;" width="633" x="437" y="701.2969"/><ellipse cx="571.75" cy="717.2969" fill="#ADD1B2" rx="11" ry="11" style="stroke:#181818;stroke-width:1.0;"/><path d="M574.0938,712.9688 C573.1563,712.5313 572.5625,712.3906 571.6875,712.3906 C569.0625,712.3906 567.0625,714.4688 567.0625,717.1875 L567.0625,718.3125 C567.0625,720.8906 569.1719,722.7813 572.0625,722.7813 C573.2813,722.7813 574.4375,722.4844 575.1875,721.9375 C575.7656,721.5313 576.0938,721.0781 576.0938,720.6875 C576.0938,720.2344 575.7031,719.8438 575.2344,719.8438 C575.0156,719.8438 574.8125,719.9219 574.625,720.1094 C574.1719,720.5938 574.1719,720.5938 573.9844,720.6875 C573.5625,720.9531 572.875,721.0781 572.1094,721.0781 C570.0625,721.0781 568.7656,719.9844 568.7656,718.2813 L568.7656,717.1875 C568.7656,715.4063 570.0156,714.0938 571.75,714.0938 C572.3281,714.0938 572.9375,714.25 573.4063,714.5 C573.8906,714.7813 574.0625,715 574.1563,715.4063 C574.2188,715.8125 574.25,715.9375 574.3906,716.0625 C574.5313,716.2031 574.7656,716.3125 574.9844,716.3125 C575.25,716.3125 575.5156,716.1719 575.6875,715.9531 C575.7969,715.7969 575.8281,715.6094 575.8281,715.1875 L575.8281,713.7656 C575.8281,713.3281 575.8125,713.2031 575.7188,713.0469 C575.5625,712.7813 575.2813,712.6406 574.9844,712.6406 C574.6875,712.6406 574.4844,712.7344 574.2656,713.0469 L574.0938,712.9688 Z " fill="#000000"/><text fill="#000000" font-family="sans-serif" font-size="14" lengthAdjust="spacing" textLength="355" x="592.25" y="722.1436">MultipleComponentLeaderElectionDriverAdapter</text><line style="stroke:#181818;stroke-width:0.5;" x1="438" x2="1069" y1="733.2969" y2="733.2969"/><text fill="#000000" font-family="sans-serif" font-size="14" lengthAdjust="spacing" textLength="621" x="443" y="750.292">multipleComponentLeaderElectionService: MultipleComponentLeaderElectionService</text></g><!--class KubernetesMultipleComponentLeaderElectionDriver--><g id="elem_KubernetesMultipleComponentLeaderElectionDriver"><rect codeLine="84" fill="#F1F1F1" height="32" id="KubernetesMultipleComponentLeaderElectionDriver" rx="2.5" ry="2.5" style="stroke:#181818;stroke-width:0.5;" width="412" x="1039.5" y="1175.2969"/><ellipse cx="1054.5" cy="1191.2969" fill="#ADD1B2" rx="11" ry="11" style="stroke:#181818;stroke-width:1.0;"/><path d="M1056.8438,1186.9688 C1055.9063,1186.5313 1055.3125,1186.3906 1054.4375,1186.3906 C1051.8125,1186.3906 1049.8125,1188.4688 1049.8125,1191.1875 L1049.8125,1192.3125 C1049.8125,1194.8906 1051.9219,1196.7813 1054.8125,1196.7813 C1056.0313,1196.7813 1057.1875,1196.4844 1057.9375,1195.9375 C1058.5156,1195.5313 1058.8438,1195.0781 1058.8438,1194.6875 C1058.8438,1194.2344 1058.4531,1193.8438 1057.9844,1193.8438 C1057.7656,1193.8438 1057.5625,1193.9219 1057.375,1194.1094 C1056.9219,1194.5938 1056.9219,1194.5938 1056.7344,1194.6875 C1056.3125,1194.9531 1055.625,1195.0781 1054.8594,1195.0781 C1052.8125,1195.0781 1051.5156,1193.9844 1051.5156,1192.2813 L1051.5156,1191.1875 C1051.5156,1189.4063 1052.7656,1188.0938 1054.5,1188.0938 C1055.0781,1188.0938 1055.6875,1188.25 1056.1563,1188.5 C1056.6406,1188.7813 1056.8125,1189 1056.9063,1189.4063 C1056.9688,1189.8125 1057,1189.9375 1057.1406,1190.0625 C1057.2813,1190.2031 1057.5156,1190.3125 1057.7344,1190.3125 C1058,1190.3125 1058.2656,1190.1719 1058.4375,1189.9531 C1058.5469,1189.7969 1058.5781,1189.6094 1058.5781,1189.1875 L1058.5781,1187.7656 C1058.5781,1187.3281 1058.5625,1187.2031 1058.4688,1187.0469 C1058.3125,1186.7813 1058.0313,1186.6406 1057.7344,1186.6406 C1057.4375,1186.6406 1057.2344,1186.7344 1057.0156,1187.0469 L1056.8438,1186.9688 Z " fill="#000000"/><text fill="#000000" font-family="sans-serif" font-size="14" lengthAdjust="spacing" textLength="380" x="1068.5" y="1196.1436">KubernetesMultipleComponentLeaderElectionDriver</text></g><!--class ZooKeeperMultipleComponentLeaderElectionDriver--><g id="elem_ZooKeeperMultipleComponentLeaderElectionDriver"><rect codeLine="87" fill="#F1F1F1" height="32" id="ZooKeeperMultipleComponentLeaderElectionDriver" rx="2.5" ry="2.5" style="stroke:#181818;stroke-width:0.5;" width="409" x="1487" y="1175.2969"/><ellipse cx="1502" cy="1191.2969" fill="#ADD1B2" rx="11" ry="11" style="stroke:#181818;stroke-width:1.0;"/><path d="M1504.3438,1186.9688 C1503.4063,1186.5313 1502.8125,1186.3906 1501.9375,1186.3906 C1499.3125,1186.3906 1497.3125,1188.4688 1497.3125,1191.1875 L1497.3125,1192.3125 C1497.3125,1194.8906 1499.4219,1196.7813 1502.3125,1196.7813 C1503.5313,1196.7813 1504.6875,1196.4844 1505.4375,1195.9375 C1506.0156,1195.5313 1506.3438,1195.0781 1506.3438,1194.6875 C1506.3438,1194.2344 1505.9531,1193.8438 1505.4844,1193.8438 C1505.2656,1193.8438 1505.0625,1193.9219 1504.875,1194.1094 C1504.4219,1194.5938 1504.4219,1194.5938 1504.2344,1194.6875 C1503.8125,1194.9531 1503.125,1195.0781 1502.3594,1195.0781 C1500.3125,1195.0781 1499.0156,1193.9844 1499.0156,1192.2813 L1499.0156,1191.1875 C1499.0156,1189.4063 1500.2656,1188.0938 1502,1188.0938 C1502.5781,1188.0938 1503.1875,1188.25 1503.6563,1188.5 C1504.1406,1188.7813 1504.3125,1189 1504.4063,1189.4063 C1504.4688,1189.8125 1504.5,1189.9375 1504.6406,1190.0625 C1504.7813,1190.2031 1505.0156,1190.3125 1505.2344,1190.3125 C1505.5,1190.3125 1505.7656,1190.1719 1505.9375,1189.9531 C1506.0469,1189.7969 1506.0781,1189.6094 1506.0781,1189.1875 L1506.0781,1187.7656 C1506.0781,1187.3281 1506.0625,1187.2031 1505.9688,1187.0469 C1505.8125,1186.7813 1505.5313,1186.6406 1505.2344,1186.6406 C1504.9375,1186.6406 1504.7344,1186.7344 1504.5156,1187.0469 L1504.3438,1186.9688 Z " fill="#000000"/><text fill="#000000" font-family="sans-serif" font-size="14" lengthAdjust="spacing" textLength="377" x="1516" y="1196.1436">ZooKeeperMultipleComponentLeaderElectionDriver</text></g><!--reverse link LeaderElectionDriver to MultipleComponentLeaderElectionDriverAdapter--><g id="link_LeaderElectionDriver_MultipleComponentLeaderElectionDriverAdapter"><path d="M710.134,618.2869 C721.369,646.7879 734.084,679.0419 742.826,701.2189 " fill="none" id="LeaderElectionDriver-backto-MultipleComponentLeaderElectionDriverAdapter" style="stroke:#181818;stroke-width:1.0;stroke-dasharray:7.0,7.0;"/><polygon fill="none" points="703.482,620.4999,702.659,599.3259,716.506,615.3649,703.482,620.4999" style="stroke:#181818;stroke-width:1.0;"/></g><!--reverse link MultipleComponentLeaderElectionService to DefaultMultipleComponentLeaderElectionService--><g id="link_MultipleComponentLeaderElectionService_DefaultMultipleComponentLeaderElectionService"><path d="M1468.5,818.8449 C1468.5,833.1509 1468.5,847.2019 1468.5,859.2519 " fill="none" id="MultipleComponentLeaderElectionService-backto-DefaultMultipleComponentLeaderElectionService" style="stroke:#181818;stroke-width:1.0;stroke-dasharray:7.0,7.0;"/><polygon fill="none" points="1461.5,818.6309,1468.5,798.6309,1475.5,818.6309,1461.5,818.6309" style="stroke:#181818;stroke-width:1.0;"/></g><!--reverse link MultipleComponentLeaderElectionDriver.Listener to DefaultMultipleComponentLeaderElectionService--><g id="link_MultipleComponentLeaderElectionDriver.Listener_DefaultMultipleComponentLeaderElectionService"><path d="M1895.85,786.8119 C1800.75,810.8409 1692.75,838.1299 1609.12,859.2639 " fill="none" id="MultipleComponentLeaderElectionDriver.Listener-backto-DefaultMultipleComponentLeaderElectionService" style="stroke:#181818;stroke-width:1.0;stroke-dasharray:7.0,7.0;"/><polygon fill="none" points="1894.2,780.0079,1915.31,781.8939,1897.63,793.5809,1894.2,780.0079" style="stroke:#181818;stroke-width:1.0;"/></g><!--reverse link LeaderElectionService to DefaultLeaderElectionService--><g id="link_LeaderElectionService_DefaultLeaderElectionService"><path d="M299.539,311.3619 C321.933,328.0999 345.298,345.5649 364.929,360.2389 " fill="none" id="LeaderElectionService-backto-DefaultLeaderElectionService" style="stroke:#181818;stroke-width:1.0;stroke-dasharray:7.0,7.0;"/><polygon fill="none" points="295.301,316.9329,283.473,299.3519,303.683,305.7199,295.301,316.9329" style="stroke:#181818;stroke-width:1.0;"/></g><!--reverse link LeaderElectionEventHandler to DefaultLeaderElectionService--><g id="link_LeaderElectionEventHandler_DefaultLeaderElectionService"><path d="M476.677,1014.8829 C424.55,990.5499 383.5,953.4139 383.5,896.7969 C383.5,553.7969 383.5,553.7969 383.5,553.7969 C383.5,511.9249 393.724,464.7799 402.03,433.3849 " fill="none" id="LeaderElectionEventHandler-backto-DefaultLeaderElectionService" style="stroke:#181818;stroke-width:1.0;stroke-dasharray:7.0,7.0;"/><polygon fill="none" points="479.517,1008.4849,495.131,1022.8109,473.991,1021.3479,479.517,1008.4849" style="stroke:#181818;stroke-width:1.0;"/></g><!--reverse link MultipleComponentLeaderElectionDriver to KubernetesMultipleComponentLeaderElectionDriver--><g id="link_MultipleComponentLeaderElectionDriver_KubernetesMultipleComponentLeaderElectionDriver"><path d="M1360.51,1124.5399 C1327.66,1143.3244 1294.39,1162.3416 1272.15,1175.0589 " fill="none" id="MultipleComponentLeaderElectionDriver-backto-KubernetesMultipleComponentLeaderElectionDriver" style="stroke:#181818;stroke-width:1.0;stroke-dasharray:7.0,7.0;"/><polygon fill="none" points="1357.28,1118.3224,1378.12,1114.4722,1364.23,1130.4761,1357.28,1118.3224" style="stroke:#181818;stroke-width:1.0;"/></g><!--reverse link MultipleComponentLeaderElectionDriver to ZooKeeperMultipleComponentLeaderElectionDriver--><g id="link_MultipleComponentLeaderElectionDriver_ZooKeeperMultipleComponentLeaderElectionDriver"><path d="M1576.49,1124.5399 C1609.34,1143.3244 1642.61,1162.3416 1664.85,1175.0589 " fill="none" id="MultipleComponentLeaderElectionDriver-backto-ZooKeeperMultipleComponentLeaderElectionDriver" style="stroke:#181818;stroke-width:1.0;stroke-dasharray:7.0,7.0;"/><polygon fill="none" points="1572.77,1130.4761,1558.88,1114.4722,1579.72,1118.3224,1572.77,1130.4761" style="stroke:#181818;stroke-width:1.0;"/></g><!--link DefaultLeaderElectionService to LeaderElectionDriver--><g id="link_DefaultLeaderElectionService_LeaderElectionDriver"><path codeLine="90" d="M474.79,433.3909 C513.356,455.4289 563.278,483.9559 604.849,507.7109 " fill="none" id="DefaultLeaderElectionService-to-LeaderElectionDriver" style="stroke:#181818;stroke-width:1.0;"/><polygon fill="#181818" points="609.359,510.2879,603.5282,502.3505,605.0174,507.8078,599.5601,509.297,609.359,510.2879" style="stroke:#181818;stroke-width:1.0;"/><text fill="#000000" font-family="sans-serif" font-size="13" lengthAdjust="spacing" textLength="30" x="550.5" y="476.3638">uses</text></g><!--link DefaultLeaderElectionService to LeaderContender--><g id="link_DefaultLeaderElectionService_LeaderContender"><path codeLine="91" d="M425.003,360.0879 C430.653,342.1009 436.685,319.8069 439.5,299.2969 C447.931,237.8739 438.63,166.0769 430.825,122.2769 " fill="none" id="DefaultLeaderElectionService-to-LeaderContender" style="stroke:#181818;stroke-width:1.0;"/><polygon fill="#181818" points="429.931,117.3469,427.5889,126.9132,430.8169,122.2678,435.4623,125.4958,429.931,117.3469" style="stroke:#181818;stroke-width:1.0;"/><text fill="#000000" font-family="sans-serif" font-size="13" lengthAdjust="spacing" textLength="30" x="444.5" y="251.3638">uses</text></g><!--link LeaderContender to LeaderElectionService--><g id="link_LeaderContender_LeaderElectionService"><path codeLine="92" d="M377.367,117.3869 C350.152,138.8369 314.919,166.6169 284.187,190.8469 " fill="none" id="LeaderContender-to-LeaderElectionService" style="stroke:#181818;stroke-width:1.0;"/><polygon fill="#181818" points="280.076,194.0969,289.6164,191.6514,283.9977,190.9953,284.6538,185.3766,280.076,194.0969" style="stroke:#181818;stroke-width:1.0;"/><text fill="#000000" font-family="sans-serif" font-size="13" lengthAdjust="spacing" textLength="30" x="338.5" y="160.3638">uses</text></g><!--link MultipleComponentLeaderElectionDriverAdapter to MultipleComponentLeaderElectionService--><g id="link_MultipleComponentLeaderElectionDriverAdapter_MultipleComponentLeaderElectionService"><path codeLine="94" d="M1070.23,729.2969 C1090.63,729.2969 1111.22,729.2969 1131.71,729.2969 " fill="none" id="MultipleComponentLeaderElectionDriverAdapter-to-MultipleComponentLeaderElectionService" style="stroke:#181818;stroke-width:1.0;"/><polygon fill="#181818" points="1136.92,729.2969,1127.92,725.2969,1131.92,729.2969,1127.92,733.2969,1136.92,729.2969" style="stroke:#181818;stroke-width:1.0;"/><text fill="#000000" font-family="sans-serif" font-size="13" lengthAdjust="spacing" textLength="30" x="1088.5" y="722.3638">uses</text></g><!--link DefaultMultipleComponentLeaderElectionService to LeaderElectionEventHandler--><g id="link_DefaultMultipleComponentLeaderElectionService_LeaderElectionEventHandler"><path codeLine="96" d="M1299.9,932.3829 C1180.27,957.6329 1019.16,991.6389 892.779,1018.3129 " fill="none" id="DefaultMultipleComponentLeaderElectionService-to-LeaderElectionEventHandler" style="stroke:#181818;stroke-width:1.0;"/><polygon fill="#181818" points="887.544,1019.4179,897.1761,1021.4727,892.4362,1018.3852,895.5238,1013.6452,887.544,1019.4179" style="stroke:#181818;stroke-width:1.0;"/><text fill="#000000" font-family="sans-serif" font-size="13" lengthAdjust="spacing" textLength="30" x="1150.5" y="975.3638">uses</text></g><!--link DefaultMultipleComponentLeaderElectionService to MultipleComponentLeaderElectionDriver--><g id="link_DefaultMultipleComponentLeaderElectionService_MultipleComponentLeaderElectionDriver"><path codeLine="97" d="M1468.5,932.3829 C1468.5,953.3149 1468.5,980.2639 1468.5,1004.0649 " fill="none" id="DefaultMultipleComponentLeaderElectionService-to-MultipleComponentLeaderElectionDriver" style="stroke:#181818;stroke-width:1.0;"/><polygon fill="#181818" points="1468.5,1009.0929,1472.5,1000.0929,1468.5,1004.0929,1464.5,1000.0929,1468.5,1009.0929" style="stroke:#181818;stroke-width:1.0;"/><text fill="#000000" font-family="sans-serif" font-size="13" lengthAdjust="spacing" textLength="30" x="1469.5" y="975.3638">uses</text></g><!--SRC=[jLPDQnin4Btlhz2j2TG9EVHYIi3OIMlYGca8XPABl1fxXsYbHT8wkAN_lOftrrcjP5jAYKz67s_clPbvgm-5CPKUNrvMd0fJb_mYb-LbpgdM8uPqhMYPPGOD1_8TrAXICWUjoG8e0qLkEEG6fI0eZ9Aipe7PlsHIqRm0SijHF96hYwjFMMOFW5hH7CYtcXkiE4nbMKa1mZHO7THCuSOY_yc8_MqaCf9pgU7iVBUmb9835QIWkhcc2wpQlTtXgbvor4MpEHShgKhw0dkMT-7cx2FXm-qU0WCE1eu2d6T_im9PB9SL0cSwMOEB1Me3mXK3MzvzpaAQu2AkjXwDQK756kBLQ60cdDy9-InyLRoxFz4KqrTqdQRLA-TaqUv1RT0UEz0veMYtD3TIRKckW1fmrjnodswlUwDGh8cZgtVggD8ArY_SbPlepSQ2VQM2SLlUGDL2vtgWjOY0zNC_Dcnl6OIkDdvHctDJQHS4SrlTUa-7imlyy32VjQplhGTPsFdCqMyZdy1nXJQvOOms2zlQG1Ik2pFsZg0cM5e-fQLYFMsv9LHi7yNE5uafg26rGOw_GPCWKv_YONzxLXZocqMuLquwODVq3lcJZdIuFVgfIl5bK1G1pmkd9FrfaUA7NvJUxY5t2en9a8sJvYbE0N_GXYfpDgZzUNzVkj9AiK9LzkWCsh6RoWbZoguTgnWVgXPaE1oSfW5diA9su98CaGVwO1ndoe7xVUMrXQ7LvwblVQ7JrntHD18bc49w2gGJFi5ltmMU9GpIZieoIjq9evNPZraP9SSuqd2JlhrT8lz3Oc-QEgpqcngu1nf9-tsZ39ugKJrvK9ZsmB6HwGBSrKjGmZvETToxCvLHqokfKKeexOLzk_oIyWwW0lMUEIO6sQTuj4IZqNNuQpacjGOTU_dr4T7U6oxxSJgGzaAMD78MBRB3E_YqkV3JTJwxhZW9c76bQ-3_0G00]--></g></svg>