<?xml version="1.0" encoding="UTF-8" standalone="no"?><svg xmlns="http://www.w3.org/2000/svg" xmlns:xlink="http://www.w3.org/1999/xlink" contentStyleType="text/css" height="898px" preserveAspectRatio="none" style="width:1474px;height:898px;background:#FFFFFF;" version="1.1" viewBox="0 0 1474 898" width="1474px" zoomAndPan="magnify"><defs/><g><text fill="#000000" font-family="sans-serif" font-size="14" font-weight="bold" lengthAdjust="spacing" textLength="967" x="246.75" y="22.9951">Proposed refactoring of the multi-component Leader Election that was introduced in Apache Flink 1.15+ (FLINK-26522)</text><!--class LeaderContender--><g id="elem_LeaderContender"><rect codeLine="5" fill="#F1F1F1" height="88.8906" id="LeaderContender" rx="2.5" ry="2.5" style="stroke:#181818;stroke-width:0.5;" width="288" x="680.5" y="44.2969"/><ellipse cx="757.75" cy="60.2969" fill="#B4A7E5" rx="11" ry="11" style="stroke:#181818;stroke-width:1.0;"/><path d="M758.7031,57.0781 L760.4219,57.0781 C760.8125,57.0781 761,57.0469 761.125,56.9688 C761.3906,56.8125 761.5313,56.5313 761.5313,56.2344 C761.5313,55.9688 761.4219,55.7031 761.1875,55.5313 C761.0156,55.4219 760.875,55.3906 760.4219,55.3906 L755.2813,55.3906 C754.8438,55.3906 754.7188,55.4063 754.5625,55.5 C754.3125,55.6563 754.1563,55.9531 754.1563,56.2344 C754.1563,56.5156 754.2969,56.7656 754.5156,56.9375 C754.6719,57.0469 754.8594,57.0781 755.2813,57.0781 L757,57.0781 L757,63.5938 L755.2813,63.5938 C754.8438,63.5938 754.7188,63.6094 754.5625,63.7188 C754.3125,63.875 754.1563,64.1563 754.1563,64.4531 C754.1563,64.7031 754.2969,64.9688 754.5156,65.125 C754.6719,65.25 754.875,65.2969 755.2813,65.2969 L760.4219,65.2969 C761.1719,65.2969 761.5313,65.0156 761.5313,64.4531 C761.5313,64.1719 761.4219,63.9219 761.1875,63.75 C761.0156,63.625 760.875,63.5938 760.4219,63.5938 L758.7031,63.5938 L758.7031,57.0781 Z " fill="#000000"/><text fill="#000000" font-family="sans-serif" font-size="14" font-style="italic" lengthAdjust="spacing" textLength="125" x="778.25" y="65.1436">LeaderContender</text><line style="stroke:#181818;stroke-width:0.5;" x1="681.5" x2="967.5" y1="76.2969" y2="76.2969"/><text fill="#000000" font-family="sans-serif" font-size="14" lengthAdjust="spacing" textLength="276" x="686.5" y="93.292">void grantLeadership(leaderSessionID)</text><text fill="#000000" font-family="sans-serif" font-size="14" lengthAdjust="spacing" textLength="173" x="686.5" y="109.5889">void revokeLeadership()</text><text fill="#000000" font-family="sans-serif" font-size="14" lengthAdjust="spacing" textLength="248" x="686.5" y="125.8857">String getLeaderContenderLabel()</text></g><g id="elem_GMN3"><path d="M1004,68.7969 L1004,84.7969 L968.734,88.7969 L1004,92.7969 L1004,109.0625 A0,0 0 0 0 1004,109.0625 L1369,109.0625 A0,0 0 0 0 1369,109.0625 L1369,78.7969 L1359,68.7969 L1004,68.7969 A0,0 0 0 0 1004,68.7969 " fill="#FEFFDD" style="stroke:#181818;stroke-width:0.5;"/><path d="M1359,68.7969 L1359,78.7969 L1369,78.7969 L1359,68.7969 " fill="#FEFFDD" style="stroke:#181818;stroke-width:0.5;"/><text fill="#000000" font-family="sans-serif" font-size="13" font-weight="bold" lengthAdjust="spacing" textLength="344" x="1010" y="85.8638">LeaderContender.getLeaderContenderLabel()</text><text fill="#000000" font-family="sans-serif" font-size="13" lengthAdjust="spacing" textLength="223" x="1014" y="100.9966">is used to access the componentId</text></g><!--class LeaderElectionDriver--><g id="elem_LeaderElectionDriver"><rect codeLine="13" fill="#F1F1F1" height="88.8906" id="LeaderElectionDriver" rx="2.5" ry="2.5" style="stroke:#181818;stroke-width:0.5;" width="361" x="986" y="559.2969"/><ellipse cx="1086.75" cy="575.2969" fill="#B4A7E5" rx="11" ry="11" style="stroke:#181818;stroke-width:1.0;"/><path d="M1087.7031,572.0781 L1089.4219,572.0781 C1089.8125,572.0781 1090,572.0469 1090.125,571.9688 C1090.3906,571.8125 1090.5313,571.5313 1090.5313,571.2344 C1090.5313,570.9688 1090.4219,570.7031 1090.1875,570.5313 C1090.0156,570.4219 1089.875,570.3906 1089.4219,570.3906 L1084.2813,570.3906 C1083.8438,570.3906 1083.7188,570.4063 1083.5625,570.5 C1083.3125,570.6563 1083.1563,570.9531 1083.1563,571.2344 C1083.1563,571.5156 1083.2969,571.7656 1083.5156,571.9375 C1083.6719,572.0469 1083.8594,572.0781 1084.2813,572.0781 L1086,572.0781 L1086,578.5938 L1084.2813,578.5938 C1083.8438,578.5938 1083.7188,578.6094 1083.5625,578.7188 C1083.3125,578.875 1083.1563,579.1563 1083.1563,579.4531 C1083.1563,579.7031 1083.2969,579.9688 1083.5156,580.125 C1083.6719,580.25 1083.875,580.2969 1084.2813,580.2969 L1089.4219,580.2969 C1090.1719,580.2969 1090.5313,580.0156 1090.5313,579.4531 C1090.5313,579.1719 1090.4219,578.9219 1090.1875,578.75 C1090.0156,578.625 1089.875,578.5938 1089.4219,578.5938 L1087.7031,578.5938 L1087.7031,572.0781 Z " fill="#000000"/><text fill="#000000" font-family="sans-serif" font-size="14" font-style="italic" lengthAdjust="spacing" textLength="151" x="1107.25" y="580.1436">LeaderElectionDriver</text><line style="stroke:#181818;stroke-width:0.5;" x1="987" x2="1346" y1="591.2969" y2="591.2969"/><text fill="#000000" font-family="sans-serif" font-size="14" lengthAdjust="spacing" textLength="349" x="992" y="608.292">void writeLeaderInformation(LeaderInformation)</text><text fill="#000000" font-family="sans-serif" font-size="14" lengthAdjust="spacing" textLength="175" x="992" y="624.5889">boolean hasLeadership()</text><text fill="#000000" font-family="sans-serif" font-size="14" lengthAdjust="spacing" textLength="81" x="992" y="640.8857">void close()</text></g><!--class LeaderElectionEventHandler--><g id="elem_LeaderElectionEventHandler"><rect codeLine="20" fill="#F1F1F1" height="88.8906" id="LeaderElectionEventHandler" rx="2.5" ry="2.5" style="stroke:#181818;stroke-width:0.5;" width="392" x="935.5" y="802.2969"/><ellipse cx="1025.25" cy="818.2969" fill="#B4A7E5" rx="11" ry="11" style="stroke:#181818;stroke-width:1.0;"/><path d="M1026.2031,815.0781 L1027.9219,815.0781 C1028.3125,815.0781 1028.5,815.0469 1028.625,814.9688 C1028.8906,814.8125 1029.0313,814.5313 1029.0313,814.2344 C1029.0313,813.9688 1028.9219,813.7031 1028.6875,813.5313 C1028.5156,813.4219 1028.375,813.3906 1027.9219,813.3906 L1022.7813,813.3906 C1022.3438,813.3906 1022.2188,813.4063 1022.0625,813.5 C1021.8125,813.6563 1021.6563,813.9531 1021.6563,814.2344 C1021.6563,814.5156 1021.7969,814.7656 1022.0156,814.9375 C1022.1719,815.0469 1022.3594,815.0781 1022.7813,815.0781 L1024.5,815.0781 L1024.5,821.5938 L1022.7813,821.5938 C1022.3438,821.5938 1022.2188,821.6094 1022.0625,821.7188 C1021.8125,821.875 1021.6563,822.1563 1021.6563,822.4531 C1021.6563,822.7031 1021.7969,822.9688 1022.0156,823.125 C1022.1719,823.25 1022.375,823.2969 1022.7813,823.2969 L1027.9219,823.2969 C1028.6719,823.2969 1029.0313,823.0156 1029.0313,822.4531 C1029.0313,822.1719 1028.9219,821.9219 1028.6875,821.75 C1028.5156,821.625 1028.375,821.5938 1027.9219,821.5938 L1026.2031,821.5938 L1026.2031,815.0781 Z " fill="#000000"/><text fill="#000000" font-family="sans-serif" font-size="14" font-style="italic" lengthAdjust="spacing" textLength="204" x="1045.75" y="823.1436">LeaderElectionEventHandler</text><line style="stroke:#181818;stroke-width:0.5;" x1="936.5" x2="1326.5" y1="834.2969" y2="834.2969"/><text fill="#000000" font-family="sans-serif" font-size="14" lengthAdjust="spacing" textLength="327" x="941.5" y="851.292">void onGrantLeadership(newLeaderSessionId)</text><text fill="#000000" font-family="sans-serif" font-size="14" lengthAdjust="spacing" textLength="195" x="941.5" y="867.5889">void onRevokeLeadership()</text><text fill="#000000" font-family="sans-serif" font-size="14" lengthAdjust="spacing" textLength="380" x="941.5" y="883.8857">void onLeaderInformationChange(leaderInformation)</text></g><!--class LeaderElectionService--><g id="elem_LeaderElectionService"><rect codeLine="27" fill="#F1F1F1" height="137.7813" id="LeaderElectionService" rx="2.5" ry="2.5" style="stroke:#181818;stroke-width:0.5;" width="415" x="7" y="210.2969"/><ellipse cx="130.25" cy="226.2969" fill="#B4A7E5" rx="11" ry="11" style="stroke:#181818;stroke-width:1.0;"/><path d="M131.2031,223.0781 L132.9219,223.0781 C133.3125,223.0781 133.5,223.0469 133.625,222.9688 C133.8906,222.8125 134.0313,222.5313 134.0313,222.2344 C134.0313,221.9688 133.9219,221.7031 133.6875,221.5313 C133.5156,221.4219 133.375,221.3906 132.9219,221.3906 L127.7813,221.3906 C127.3438,221.3906 127.2188,221.4063 127.0625,221.5 C126.8125,221.6563 126.6563,221.9531 126.6563,222.2344 C126.6563,222.5156 126.7969,222.7656 127.0156,222.9375 C127.1719,223.0469 127.3594,223.0781 127.7813,223.0781 L129.5,223.0781 L129.5,229.5938 L127.7813,229.5938 C127.3438,229.5938 127.2188,229.6094 127.0625,229.7188 C126.8125,229.875 126.6563,230.1563 126.6563,230.4531 C126.6563,230.7031 126.7969,230.9688 127.0156,231.125 C127.1719,231.25 127.375,231.2969 127.7813,231.2969 L132.9219,231.2969 C133.6719,231.2969 134.0313,231.0156 134.0313,230.4531 C134.0313,230.1719 133.9219,229.9219 133.6875,229.75 C133.5156,229.625 133.375,229.5938 132.9219,229.5938 L131.2031,229.5938 L131.2031,223.0781 Z " fill="#000000"/><text fill="#000000" font-family="sans-serif" font-size="14" font-style="italic" lengthAdjust="spacing" textLength="160" x="150.75" y="231.1436">LeaderElectionService</text><line style="stroke:#181818;stroke-width:0.5;" x1="8" x2="421" y1="242.2969" y2="242.2969"/><text fill="#000000" font-family="sans-serif" font-size="14" lengthAdjust="spacing" textLength="79" x="13" y="259.292">void start()</text><text fill="#000000" font-family="sans-serif" font-size="14" lengthAdjust="spacing" textLength="287" x="13" y="275.5889">CompletableFuture&lt;Void&gt; closeAsync()</text><text fill="#000000" font-family="sans-serif" font-size="14" lengthAdjust="spacing" textLength="227" x="13" y="291.8857">void register(LeaderContender)</text><text fill="#000000" font-family="sans-serif" font-size="14" lengthAdjust="spacing" textLength="245" x="13" y="308.1826">void deregister(LeaderContender)</text><text fill="#000000" font-family="sans-serif" font-size="14" lengthAdjust="spacing" textLength="403" x="13" y="324.4795">void confirmLeadership(leaderSessionID, leaderAddress)</text><text fill="#000000" font-family="sans-serif" font-size="14" lengthAdjust="spacing" textLength="287" x="13" y="340.7764">boolean hasLeadership(leaderSessionId)</text></g><g id="elem_GMN9"><path d="M457,259.2969 L457,275.2969 L422.003,279.2969 L457,283.2969 L457,299.5625 A0,0 0 0 0 457,299.5625 L958,299.5625 A0,0 0 0 0 958,299.5625 L958,269.2969 L948,259.2969 L457,259.2969 A0,0 0 0 0 457,259.2969 " fill="#FEFFDD" style="stroke:#181818;stroke-width:0.5;"/><path d="M948,259.2969 L948,269.2969 L958,269.2969 L948,259.2969 " fill="#FEFFDD" style="stroke:#181818;stroke-width:0.5;"/><text fill="#000000" font-family="sans-serif" font-size="13" lengthAdjust="spacing" textLength="5" x="463" y="276.3638">-</text><text fill="#000000" font-family="sans-serif" font-size="13" font-weight="bold" lengthAdjust="spacing" textLength="61" x="472" y="276.3638">register</text><text fill="#000000" font-family="sans-serif" font-size="13" lengthAdjust="spacing" textLength="4" x="533" y="276.3638">/</text><text fill="#000000" font-family="sans-serif" font-size="13" font-weight="bold" lengthAdjust="spacing" textLength="79" x="537" y="276.3638">deregister</text><text fill="#000000" font-family="sans-serif" font-size="13" lengthAdjust="spacing" textLength="243" x="620" y="276.3638">introduced to add/remove contenders</text><text fill="#000000" font-family="sans-serif" font-size="13" lengthAdjust="spacing" textLength="5" x="463" y="291.4966">-</text><text fill="#000000" font-family="sans-serif" font-size="13" font-weight="bold" lengthAdjust="spacing" textLength="40" x="472" y="291.4966">start</text><text fill="#000000" font-family="sans-serif" font-size="13" lengthAdjust="spacing" textLength="4" x="512" y="291.4966">/</text><text fill="#000000" font-family="sans-serif" font-size="13" font-weight="bold" lengthAdjust="spacing" textLength="82" x="516" y="291.4966">closeAsync</text><text fill="#000000" font-family="sans-serif" font-size="13" lengthAdjust="spacing" textLength="341" x="602" y="291.4966">used for managing the leader election driver lifecycle</text></g><!--class DefaultLeaderElectionService--><g id="elem_DefaultLeaderElectionService"><rect codeLine="53" fill="#F1F1F1" height="72.5938" id="DefaultLeaderElectionService" rx="2.5" ry="2.5" style="stroke:#181818;stroke-width:0.5;" width="371" x="629" y="409.2969"/><ellipse cx="703.25" cy="425.2969" fill="#ADD1B2" rx="11" ry="11" style="stroke:#181818;stroke-width:1.0;"/><path d="M705.5938,420.9688 C704.6563,420.5313 704.0625,420.3906 703.1875,420.3906 C700.5625,420.3906 698.5625,422.4688 698.5625,425.1875 L698.5625,426.3125 C698.5625,428.8906 700.6719,430.7813 703.5625,430.7813 C704.7813,430.7813 705.9375,430.4844 706.6875,429.9375 C707.2656,429.5313 707.5938,429.0781 707.5938,428.6875 C707.5938,428.2344 707.2031,427.8438 706.7344,427.8438 C706.5156,427.8438 706.3125,427.9219 706.125,428.1094 C705.6719,428.5938 705.6719,428.5938 705.4844,428.6875 C705.0625,428.9531 704.375,429.0781 703.6094,429.0781 C701.5625,429.0781 700.2656,427.9844 700.2656,426.2813 L700.2656,425.1875 C700.2656,423.4063 701.5156,422.0938 703.25,422.0938 C703.8281,422.0938 704.4375,422.25 704.9063,422.5 C705.3906,422.7813 705.5625,423 705.6563,423.4063 C705.7188,423.8125 705.75,423.9375 705.8906,424.0625 C706.0313,424.2031 706.2656,424.3125 706.4844,424.3125 C706.75,424.3125 707.0156,424.1719 707.1875,423.9531 C707.2969,423.7969 707.3281,423.6094 707.3281,423.1875 L707.3281,421.7656 C707.3281,421.3281 707.3125,421.2031 707.2188,421.0469 C707.0625,420.7813 706.7813,420.6406 706.4844,420.6406 C706.1875,420.6406 705.9844,420.7344 705.7656,421.0469 L705.5938,420.9688 Z " fill="#000000"/><text fill="#000000" font-family="sans-serif" font-size="14" lengthAdjust="spacing" textLength="214" x="723.75" y="430.1436">DefaultLeaderElectionService</text><line style="stroke:#181818;stroke-width:0.5;" x1="630" x2="999" y1="441.2969" y2="441.2969"/><text fill="#000000" font-family="sans-serif" font-size="14" lengthAdjust="spacing" textLength="309" x="635" y="458.292">leaderElectionDriver: LeaderElectionDriver</text><text fill="#000000" font-family="sans-serif" font-size="14" lengthAdjust="spacing" textLength="359" x="635" y="474.5889">leaderContenders: Collection&lt;LeaderContender&gt;</text></g><!--class ZooKeeperLeaderElectionDriver--><g id="elem_ZooKeeperLeaderElectionDriver"><rect codeLine="47" fill="#F1F1F1" height="32" id="ZooKeeperLeaderElectionDriver" rx="2.5" ry="2.5" style="stroke:#181818;stroke-width:0.5;" width="265" x="839" y="709.2969"/><ellipse cx="854" cy="725.2969" fill="#ADD1B2" rx="11" ry="11" style="stroke:#181818;stroke-width:1.0;"/><path d="M856.3438,720.9688 C855.4063,720.5313 854.8125,720.3906 853.9375,720.3906 C851.3125,720.3906 849.3125,722.4688 849.3125,725.1875 L849.3125,726.3125 C849.3125,728.8906 851.4219,730.7813 854.3125,730.7813 C855.5313,730.7813 856.6875,730.4844 857.4375,729.9375 C858.0156,729.5313 858.3438,729.0781 858.3438,728.6875 C858.3438,728.2344 857.9531,727.8438 857.4844,727.8438 C857.2656,727.8438 857.0625,727.9219 856.875,728.1094 C856.4219,728.5938 856.4219,728.5938 856.2344,728.6875 C855.8125,728.9531 855.125,729.0781 854.3594,729.0781 C852.3125,729.0781 851.0156,727.9844 851.0156,726.2813 L851.0156,725.1875 C851.0156,723.4063 852.2656,722.0938 854,722.0938 C854.5781,722.0938 855.1875,722.25 855.6563,722.5 C856.1406,722.7813 856.3125,723 856.4063,723.4063 C856.4688,723.8125 856.5,723.9375 856.6406,724.0625 C856.7813,724.2031 857.0156,724.3125 857.2344,724.3125 C857.5,724.3125 857.7656,724.1719 857.9375,723.9531 C858.0469,723.7969 858.0781,723.6094 858.0781,723.1875 L858.0781,721.7656 C858.0781,721.3281 858.0625,721.2031 857.9688,721.0469 C857.8125,720.7813 857.5313,720.6406 857.2344,720.6406 C856.9375,720.6406 856.7344,720.7344 856.5156,721.0469 L856.3438,720.9688 Z " fill="#000000"/><text fill="#000000" font-family="sans-serif" font-size="14" lengthAdjust="spacing" textLength="233" x="868" y="730.1436">ZooKeeperLeaderElectionDriver</text></g><!--class KubernetesLeaderElectionDriver--><g id="elem_KubernetesLeaderElectionDriver"><rect codeLine="50" fill="#F1F1F1" height="32" id="KubernetesLeaderElectionDriver" rx="2.5" ry="2.5" style="stroke:#181818;stroke-width:0.5;" width="268" x="1139.5" y="709.2969"/><ellipse cx="1154.5" cy="725.2969" fill="#ADD1B2" rx="11" ry="11" style="stroke:#181818;stroke-width:1.0;"/><path d="M1156.8438,720.9688 C1155.9063,720.5313 1155.3125,720.3906 1154.4375,720.3906 C1151.8125,720.3906 1149.8125,722.4688 1149.8125,725.1875 L1149.8125,726.3125 C1149.8125,728.8906 1151.9219,730.7813 1154.8125,730.7813 C1156.0313,730.7813 1157.1875,730.4844 1157.9375,729.9375 C1158.5156,729.5313 1158.8438,729.0781 1158.8438,728.6875 C1158.8438,728.2344 1158.4531,727.8438 1157.9844,727.8438 C1157.7656,727.8438 1157.5625,727.9219 1157.375,728.1094 C1156.9219,728.5938 1156.9219,728.5938 1156.7344,728.6875 C1156.3125,728.9531 1155.625,729.0781 1154.8594,729.0781 C1152.8125,729.0781 1151.5156,727.9844 1151.5156,726.2813 L1151.5156,725.1875 C1151.5156,723.4063 1152.7656,722.0938 1154.5,722.0938 C1155.0781,722.0938 1155.6875,722.25 1156.1563,722.5 C1156.6406,722.7813 1156.8125,723 1156.9063,723.4063 C1156.9688,723.8125 1157,723.9375 1157.1406,724.0625 C1157.2813,724.2031 1157.5156,724.3125 1157.7344,724.3125 C1158,724.3125 1158.2656,724.1719 1158.4375,723.9531 C1158.5469,723.7969 1158.5781,723.6094 1158.5781,723.1875 L1158.5781,721.7656 C1158.5781,721.3281 1158.5625,721.2031 1158.4688,721.0469 C1158.3125,720.7813 1158.0313,720.6406 1157.7344,720.6406 C1157.4375,720.6406 1157.2344,720.7344 1157.0156,721.0469 L1156.8438,720.9688 Z " fill="#000000"/><text fill="#000000" font-family="sans-serif" font-size="14" lengthAdjust="spacing" textLength="236" x="1168.5" y="730.1436">KubernetesLeaderElectionDriver</text></g><!--reverse link LeaderElectionDriver to ZooKeeperLeaderElectionDriver--><g id="link_LeaderElectionDriver_ZooKeeperLeaderElectionDriver"><path d="M1077.94,659.0659 C1048.15,677.3249 1017.23,696.2739 996.442,709.0119 " fill="none" id="LeaderElectionDriver-backto-ZooKeeperLeaderElectionDriver" style="stroke:#181818;stroke-width:1.0;stroke-dasharray:7.0,7.0;"/><polygon fill="none" points="1074.56,652.9279,1095.27,648.4459,1081.88,664.8649,1074.56,652.9279" style="stroke:#181818;stroke-width:1.0;"/></g><!--reverse link LeaderElectionDriver to KubernetesLeaderElectionDriver--><g id="link_LeaderElectionDriver_KubernetesLeaderElectionDriver"><path d="M1219.13,663.5769 C1234.21,680.4189 1249.38,697.3649 1259.85,709.0579 " fill="none" id="LeaderElectionDriver-backto-KubernetesLeaderElectionDriver" style="stroke:#181818;stroke-width:1.0;stroke-dasharray:7.0,7.0;"/><polygon fill="none" points="1213.86,668.1849,1205.74,648.6159,1224.29,658.8459,1213.86,668.1849" style="stroke:#181818;stroke-width:1.0;"/></g><!--reverse link LeaderElectionService to DefaultLeaderElectionService--><g id="link_LeaderElectionService_DefaultLeaderElectionService"><path d="M441.47,348.7849 C527.129,372.5579 605.294,392.7739 670.331,409.1899 " fill="none" id="LeaderElectionService-backto-DefaultLeaderElectionService" style="stroke:#181818;stroke-width:1.0;stroke-dasharray:7.0,7.0;"/><polygon fill="none" points="439.588,355.5269,422.203,343.4129,443.348,342.0419,439.588,355.5269" style="stroke:#181818;stroke-width:1.0;"/></g><!--reverse link LeaderElectionEventHandler to DefaultLeaderElectionService--><g id="link_LeaderElectionEventHandler_DefaultLeaderElectionService"><path d="M916.516,811.5101 C879.44,795.9629 845.25,773.5499 821.5,741.2969 C764.792,664.2859 787.196,542.6429 803.392,482.6639 " fill="none" id="LeaderElectionEventHandler-backto-DefaultLeaderElectionService" style="stroke:#181818;stroke-width:1.0;stroke-dasharray:7.0,7.0;"/><polygon fill="none" points="919.067,804.9914,935.216,818.7101,914.037,818.0565,919.067,804.9914" style="stroke:#181818;stroke-width:1.0;"/></g><!--link LeaderElectionDriver to LeaderElectionEventHandler--><g id="link_LeaderElectionDriver_LeaderElectionEventHandler"><path codeLine="55" d="M1347.17,640.2259 C1410.79,661.4289 1459.06,693.7499 1425.5,741.2969 C1402.7,773.5919 1369.02,795.9667 1332.5,811.4524 " fill="none" id="LeaderElectionDriver-to-LeaderElectionEventHandler" style="stroke:#181818;stroke-width:1.0;"/><polygon fill="#181818" points="1327.56,813.4969,1337.4057,813.7467,1332.1791,811.5827,1334.3431,806.3561,1327.56,813.4969" style="stroke:#181818;stroke-width:1.0;"/><text fill="#000000" font-family="sans-serif" font-size="13" lengthAdjust="spacing" textLength="30" x="1436.5" y="729.8638">uses</text></g><!--link DefaultLeaderElectionService to LeaderElectionDriver--><g id="link_DefaultLeaderElectionService_LeaderElectionDriver"><path codeLine="56" d="M894.815,482.3909 C944.844,504.5629 1009.69,533.3029 1063.49,557.1429 " fill="none" id="DefaultLeaderElectionService-to-LeaderElectionDriver" style="stroke:#181818;stroke-width:1.0;"/><polygon fill="#181818" points="1068.33,559.2879,1061.7069,551.9985,1063.7545,557.2718,1058.4812,559.3193,1068.33,559.2879" style="stroke:#181818;stroke-width:1.0;"/><text fill="#000000" font-family="sans-serif" font-size="13" lengthAdjust="spacing" textLength="30" x="991.5" y="525.3638">uses</text></g><!--link DefaultLeaderElectionService to LeaderContender--><g id="link_DefaultLeaderElectionService_LeaderContender"><path codeLine="57" d="M909.449,409.0839 C935.502,394.3979 960.642,374.5249 975.5,348.2969 C1005.731,294.9319 1002.102,265.5609 975.5,210.2969 C961.139,180.4639 935.4,155.7199 909.193,136.5779 " fill="none" id="DefaultLeaderElectionService-to-LeaderContender" style="stroke:#181818;stroke-width:1.0;"/><polygon fill="#181818" points="904.985,133.5539,909.9614,142.053,909.046,136.4707,914.6283,135.5554,904.985,133.5539" style="stroke:#181818;stroke-width:1.0;"/><text fill="#000000" font-family="sans-serif" font-size="13" lengthAdjust="spacing" textLength="30" x="998.5" y="283.8638">uses</text></g><!--link LeaderContender to LeaderElectionService--><g id="link_LeaderContender_LeaderElectionService"><path codeLine="58" d="M683.404,133.3979 C607.336,156.9039 511.917,186.3899 427.047,212.6159 " fill="none" id="LeaderContender-to-LeaderElectionService" style="stroke:#181818;stroke-width:1.0;"/><polygon fill="#181818" points="422.245,214.0999,432.0247,215.2653,427.0223,212.6241,429.6635,207.6217,422.245,214.0999" style="stroke:#181818;stroke-width:1.0;"/><text fill="#000000" font-family="sans-serif" font-size="13" lengthAdjust="spacing" textLength="30" x="575.5" y="176.3638">uses</text></g><!--SRC=[dLLTQzim57tNhz3RKbOtjD0zX10eJRE5XZ5MsCFOYs9TswAoPAJhb3BsttVbZyQn7PSjJx5yTEuzvtxuGuPO-CLyNcXXiCprLMppUQo5zv5K8dKYPmmLQk3Vd2si1yaT9296wvH9kKquPi3pKgEAw6fX3HZaEn0I77_G4AEoXZ02-OlmN1bqLfOnqIZ3xmeHq-sDLkQPNrzTttxaiyrk-_KnklbqUtDpmHZXmL4uQ2ZlBHsOmFsRSVeTh9ASiZHOl_UPAcQw-li4tbFixVhYY7HmiC_GWTRldh0IamBsekp47ZI1_h1CoM4EYG8jFJCMWJkLPhZWo_sgXxewIxkSxrU_35UUby5Nj5p4CMLTMVfcvbOERMYDNJjrEFNYnIbi16vDObqk0cusEAc5xwqbimpFX1-OKj75cahUDw0NlN7XR98F1rBnHHYfJrErvdElS0PUTYUranTT-FVnwZLl1nBlCs5IQBhXHFgecfCqtzFq1EwWwBGZnwDmsAHqJyNJW6AlOLDYwM3vWo2hsiux_shYsKbNfifJd5clJJeGUdeV55kJA9UVduHBNX_SIUdeRAe7TByEevwrDdG7GKE2OI-C8baK9gJL4WPWJiz7TU6akoJ2J4WvTv3RGvY9HhIlUIhBMvAZjnL9DL9KSvuB8z8mtc6gQbaSsiKawnRMAe7uDTR0Y9u76OnLIv2lQTdHSfkglXuPYiNeg7JWR_Np2-eMtS2MlUAkMjidqyW1CnkwjKxvfxMF00MjcR5fLQ4pSsfrFvvY5MwQ8eTy7shGn7iiwSa0Wl__WEzmz29Ekd4sNWEud9XxnaR3Hr6qcjeMYz1jdascDQHeoF_jyl7Zqzph7m_Zj2JrXRy0]--></g></svg>