<?xml version="1.0" encoding="UTF-8" standalone="no"?><svg xmlns="http://www.w3.org/2000/svg" xmlns:xlink="http://www.w3.org/1999/xlink" contentStyleType="text/css" height="1137px" preserveAspectRatio="none" style="width:2492px;height:1137px;background:#FFFFFF;" version="1.1" viewBox="0 0 2492 1137" width="2492px" zoomAndPan="magnify"><defs/><g><text fill="#000000" font-family="sans-serif" font-size="14" font-weight="bold" lengthAdjust="spacing" textLength="484" x="997.25" y="22.9951">Per-process Leader Election introduced in Apache Flink 1.15</text><!--class LeaderInformation--><g id="elem_LeaderInformation"><rect codeLine="5" fill="#F1F1F1" height="72.5938" id="LeaderInformation" rx="2.5" ry="2.5" style="stroke:#181818;stroke-width:0.5;" width="168" x="2252" y="44.2969"/><ellipse cx="2267.9" cy="60.2969" fill="#ADD1B2" rx="11" ry="11" style="stroke:#181818;stroke-width:1.0;"/><path d="M2270.2438,55.9688 C2269.3063,55.5313 2268.7125,55.3906 2267.8375,55.3906 C2265.2125,55.3906 2263.2125,57.4688 2263.2125,60.1875 L2263.2125,61.3125 C2263.2125,63.8906 2265.3219,65.7813 2268.2125,65.7813 C2269.4313,65.7813 2270.5875,65.4844 2271.3375,64.9375 C2271.9156,64.5313 2272.2438,64.0781 2272.2438,63.6875 C2272.2438,63.2344 2271.8531,62.8438 2271.3844,62.8438 C2271.1656,62.8438 2270.9625,62.9219 2270.775,63.1094 C2270.3219,63.5938 2270.3219,63.5938 2270.1344,63.6875 C2269.7125,63.9531 2269.025,64.0781 2268.2594,64.0781 C2266.2125,64.0781 2264.9156,62.9844 2264.9156,61.2813 L2264.9156,60.1875 C2264.9156,58.4063 2266.1656,57.0938 2267.9,57.0938 C2268.4781,57.0938 2269.0875,57.25 2269.5563,57.5 C2270.0406,57.7813 2270.2125,58 2270.3063,58.4063 C2270.3688,58.8125 2270.4,58.9375 2270.5406,59.0625 C2270.6813,59.2031 2270.9156,59.3125 2271.1344,59.3125 C2271.4,59.3125 2271.6656,59.1719 2271.8375,58.9531 C2271.9469,58.7969 2271.9781,58.6094 2271.9781,58.1875 L2271.9781,56.7656 C2271.9781,56.3281 2271.9625,56.2031 2271.8688,56.0469 C2271.7125,55.7813 2271.4313,55.6406 2271.1344,55.6406 C2270.8375,55.6406 2270.6344,55.7344 2270.4156,56.0469 L2270.2438,55.9688 Z " fill="#000000"/><text fill="#000000" font-family="sans-serif" font-size="14" lengthAdjust="spacing" textLength="134" x="2282.1" y="65.1436">LeaderInformation</text><line style="stroke:#181818;stroke-width:0.5;" x1="2253" x2="2419" y1="76.2969" y2="76.2969"/><text fill="#000000" font-family="sans-serif" font-size="14" lengthAdjust="spacing" textLength="156" x="2258" y="93.292">leaderSessionID: UUID</text><text fill="#000000" font-family="sans-serif" font-size="14" lengthAdjust="spacing" textLength="155" x="2258" y="109.5889">leaderAddress: String</text></g><!--class LeaderInformationWithComponentId--><g id="elem_LeaderInformationWithComponentId"><rect codeLine="11" fill="#F1F1F1" height="72.5938" id="LeaderInformationWithComponentId" rx="2.5" ry="2.5" style="stroke:#181818;stroke-width:0.5;" width="299" x="2186.5" y="226.7969"/><ellipse cx="2201.5" cy="242.7969" fill="#ADD1B2" rx="11" ry="11" style="stroke:#181818;stroke-width:1.0;"/><path d="M2203.8438,238.4688 C2202.9063,238.0313 2202.3125,237.8906 2201.4375,237.8906 C2198.8125,237.8906 2196.8125,239.9688 2196.8125,242.6875 L2196.8125,243.8125 C2196.8125,246.3906 2198.9219,248.2813 2201.8125,248.2813 C2203.0313,248.2813 2204.1875,247.9844 2204.9375,247.4375 C2205.5156,247.0313 2205.8438,246.5781 2205.8438,246.1875 C2205.8438,245.7344 2205.4531,245.3438 2204.9844,245.3438 C2204.7656,245.3438 2204.5625,245.4219 2204.375,245.6094 C2203.9219,246.0938 2203.9219,246.0938 2203.7344,246.1875 C2203.3125,246.4531 2202.625,246.5781 2201.8594,246.5781 C2199.8125,246.5781 2198.5156,245.4844 2198.5156,243.7813 L2198.5156,242.6875 C2198.5156,240.9063 2199.7656,239.5938 2201.5,239.5938 C2202.0781,239.5938 2202.6875,239.75 2203.1563,240 C2203.6406,240.2813 2203.8125,240.5 2203.9063,240.9063 C2203.9688,241.3125 2204,241.4375 2204.1406,241.5625 C2204.2813,241.7031 2204.5156,241.8125 2204.7344,241.8125 C2205,241.8125 2205.2656,241.6719 2205.4375,241.4531 C2205.5469,241.2969 2205.5781,241.1094 2205.5781,240.6875 L2205.5781,239.2656 C2205.5781,238.8281 2205.5625,238.7031 2205.4688,238.5469 C2205.3125,238.2813 2205.0313,238.1406 2204.7344,238.1406 C2204.4375,238.1406 2204.2344,238.2344 2204.0156,238.5469 L2203.8438,238.4688 Z " fill="#000000"/><text fill="#000000" font-family="sans-serif" font-size="14" lengthAdjust="spacing" textLength="267" x="2215.5" y="247.6436">LeaderInformationWithComponentId</text><line style="stroke:#181818;stroke-width:0.5;" x1="2187.5" x2="2484.5" y1="258.7969" y2="258.7969"/><text fill="#000000" font-family="sans-serif" font-size="14" lengthAdjust="spacing" textLength="273" x="2192.5" y="275.792">leaderInformation: LeaderInformation</text><text fill="#000000" font-family="sans-serif" font-size="14" lengthAdjust="spacing" textLength="150" x="2192.5" y="292.0889">componentId: String</text></g><!--class MultipleComponentLeaderElectionDriver--><g id="elem_MultipleComponentLeaderElectionDriver"><rect codeLine="19" fill="#F1F1F1" height="105.1875" id="MultipleComponentLeaderElectionDriver" rx="2.5" ry="2.5" style="stroke:#181818;stroke-width:0.5;" width="481" x="847.5" y="543.2969"/><ellipse cx="938.75" cy="559.2969" fill="#B4A7E5" rx="11" ry="11" style="stroke:#181818;stroke-width:1.0;"/><path d="M939.7031,556.0781 L941.4219,556.0781 C941.8125,556.0781 942,556.0469 942.125,555.9688 C942.3906,555.8125 942.5313,555.5313 942.5313,555.2344 C942.5313,554.9688 942.4219,554.7031 942.1875,554.5313 C942.0156,554.4219 941.875,554.3906 941.4219,554.3906 L936.2813,554.3906 C935.8438,554.3906 935.7188,554.4063 935.5625,554.5 C935.3125,554.6563 935.1563,554.9531 935.1563,555.2344 C935.1563,555.5156 935.2969,555.7656 935.5156,555.9375 C935.6719,556.0469 935.8594,556.0781 936.2813,556.0781 L938,556.0781 L938,562.5938 L936.2813,562.5938 C935.8438,562.5938 935.7188,562.6094 935.5625,562.7188 C935.3125,562.875 935.1563,563.1563 935.1563,563.4531 C935.1563,563.7031 935.2969,563.9688 935.5156,564.125 C935.6719,564.25 935.875,564.2969 936.2813,564.2969 L941.4219,564.2969 C942.1719,564.2969 942.5313,564.0156 942.5313,563.4531 C942.5313,563.1719 942.4219,562.9219 942.1875,562.75 C942.0156,562.625 941.875,562.5938 941.4219,562.5938 L939.7031,562.5938 L939.7031,556.0781 Z " fill="#000000"/><text fill="#000000" font-family="sans-serif" font-size="14" font-style="italic" lengthAdjust="spacing" textLength="290" x="959.25" y="564.1436">MultipleComponentLeaderElectionDriver</text><line style="stroke:#181818;stroke-width:0.5;" x1="848.5" x2="1327.5" y1="575.2969" y2="575.2969"/><text fill="#000000" font-family="sans-serif" font-size="14" lengthAdjust="spacing" textLength="81" x="853.5" y="592.292">void close()</text><text fill="#000000" font-family="sans-serif" font-size="14" lengthAdjust="spacing" textLength="175" x="853.5" y="608.5889">boolean hasLeadership()</text><text fill="#000000" font-family="sans-serif" font-size="14" lengthAdjust="spacing" textLength="469" x="853.5" y="624.8857">void publishLeaderInformation(componentId, LeaderInformation)</text><text fill="#000000" font-family="sans-serif" font-size="14" lengthAdjust="spacing" textLength="322" x="853.5" y="641.1826">void deleteLeaderInformation(componentId)</text></g><!--class MultipleComponentLeaderElectionDriver.Listener--><g id="elem_MultipleComponentLeaderElectionDriver.Listener"><rect codeLine="27" fill="#F1F1F1" height="105.1875" id="MultipleComponentLeaderElectionDriver.Listener" rx="2.5" ry="2.5" style="stroke:#181818;stroke-width:0.5;" width="661" x="605.5" y="210.7969"/><ellipse cx="756.25" cy="226.7969" fill="#B4A7E5" rx="11" ry="11" style="stroke:#181818;stroke-width:1.0;"/><path d="M757.2031,223.5781 L758.9219,223.5781 C759.3125,223.5781 759.5,223.5469 759.625,223.4688 C759.8906,223.3125 760.0313,223.0313 760.0313,222.7344 C760.0313,222.4688 759.9219,222.2031 759.6875,222.0313 C759.5156,221.9219 759.375,221.8906 758.9219,221.8906 L753.7813,221.8906 C753.3438,221.8906 753.2188,221.9063 753.0625,222 C752.8125,222.1563 752.6563,222.4531 752.6563,222.7344 C752.6563,223.0156 752.7969,223.2656 753.0156,223.4375 C753.1719,223.5469 753.3594,223.5781 753.7813,223.5781 L755.5,223.5781 L755.5,230.0938 L753.7813,230.0938 C753.3438,230.0938 753.2188,230.1094 753.0625,230.2188 C752.8125,230.375 752.6563,230.6563 752.6563,230.9531 C752.6563,231.2031 752.7969,231.4688 753.0156,231.625 C753.1719,231.75 753.375,231.7969 753.7813,231.7969 L758.9219,231.7969 C759.6719,231.7969 760.0313,231.5156 760.0313,230.9531 C760.0313,230.6719 759.9219,230.4219 759.6875,230.25 C759.5156,230.125 759.375,230.0938 758.9219,230.0938 L757.2031,230.0938 L757.2031,223.5781 Z " fill="#000000"/><text fill="#000000" font-family="sans-serif" font-size="14" font-style="italic" lengthAdjust="spacing" textLength="351" x="776.75" y="231.6436">MultipleComponentLeaderElectionDriver.Listener</text><line style="stroke:#181818;stroke-width:0.5;" x1="606.5" x2="1265.5" y1="242.7969" y2="242.7969"/><text fill="#000000" font-family="sans-serif" font-size="14" lengthAdjust="spacing" textLength="104" x="611.5" y="259.792">void isLeader()</text><text fill="#000000" font-family="sans-serif" font-size="14" lengthAdjust="spacing" textLength="118" x="611.5" y="276.0889">void notLeader()</text><text fill="#000000" font-family="sans-serif" font-size="14" lengthAdjust="spacing" textLength="514" x="611.5" y="292.3857">void notifyLeaderInformationChange(componentId, LeaderInformation)</text><text fill="#000000" font-family="sans-serif" font-size="14" lengthAdjust="spacing" textLength="649" x="611.5" y="308.6826">void notifyAllKnownLeaderInformation(Collection&lt;LeaderInformationWithComponentId&gt;)</text></g><g id="elem_GMN7"><path d="M6,197.7969 L6,328.8594 A0,0 0 0 0 6,328.8594 L570,328.8594 A0,0 0 0 0 570,328.8594 L570,267.2969 L605.239,263.2969 L570,259.2969 L570,207.7969 L560,197.7969 L6,197.7969 A0,0 0 0 0 6,197.7969 " fill="#FEFFDD" style="stroke:#181818;stroke-width:0.5;"/><path d="M560,197.7969 L560,207.7969 L570,207.7969 L560,197.7969 " fill="#FEFFDD" style="stroke:#181818;stroke-width:0.5;"/><text fill="#000000" font-family="sans-serif" font-size="13" lengthAdjust="spacing" text-decoration="underline" textLength="424" x="12" y="214.8638">notifyLeaderInformationChange(componentId, LeaderInformation)</text><text fill="#000000" font-family="sans-serif" font-size="13" lengthAdjust="spacing" textLength="5" x="436" y="214.8638">:</text><text fill="#000000" font-family="sans-serif" font-size="13" lengthAdjust="spacing" textLength="494" x="12" y="229.9966">Used by ZooKeeper implementation where the monitoring happens per node</text><text fill="#000000" font-family="sans-serif" font-size="13" lengthAdjust="spacing" textLength="463" x="12" y="245.1294">(which contains the connectionInfo of a single component). The watcher</text><text fill="#000000" font-family="sans-serif" font-size="13" lengthAdjust="spacing" textLength="213" x="12" y="260.2622">gets triggered on a node change.</text><text fill="#000000" font-family="sans-serif" font-size="13" lengthAdjust="spacing" textLength="4" x="12" y="275.395"> </text><text fill="#000000" font-family="sans-serif" font-size="13" lengthAdjust="spacing" text-decoration="underline" textLength="538" x="12" y="290.5278">notifyAllKnownLeaderInformation(Collection&lt;LeaderInformationWithComponentId&gt;)</text><text fill="#000000" font-family="sans-serif" font-size="13" lengthAdjust="spacing" textLength="5" x="550" y="290.5278">:</text><text fill="#000000" font-family="sans-serif" font-size="13" lengthAdjust="spacing" textLength="462" x="12" y="305.6606">Used by the k8s implementation where all connect information is stored</text><text fill="#000000" font-family="sans-serif" font-size="13" lengthAdjust="spacing" textLength="475" x="12" y="320.7935">in a single ConfigMap. The watcher gets triggered on a ConfigMap change.</text></g><!--class MultipleComponentLeaderElectionService--><g id="elem_MultipleComponentLeaderElectionService"><rect codeLine="45" fill="#F1F1F1" height="137.7813" id="MultipleComponentLeaderElectionService" rx="2.5" ry="2.5" style="stroke:#181818;stroke-width:0.5;" width="628" x="1302" y="194.2969"/><ellipse cx="1462.25" cy="210.2969" fill="#B4A7E5" rx="11" ry="11" style="stroke:#181818;stroke-width:1.0;"/><path d="M1463.2031,207.0781 L1464.9219,207.0781 C1465.3125,207.0781 1465.5,207.0469 1465.625,206.9688 C1465.8906,206.8125 1466.0313,206.5313 1466.0313,206.2344 C1466.0313,205.9688 1465.9219,205.7031 1465.6875,205.5313 C1465.5156,205.4219 1465.375,205.3906 1464.9219,205.3906 L1459.7813,205.3906 C1459.3438,205.3906 1459.2188,205.4063 1459.0625,205.5 C1458.8125,205.6563 1458.6563,205.9531 1458.6563,206.2344 C1458.6563,206.5156 1458.7969,206.7656 1459.0156,206.9375 C1459.1719,207.0469 1459.3594,207.0781 1459.7813,207.0781 L1461.5,207.0781 L1461.5,213.5938 L1459.7813,213.5938 C1459.3438,213.5938 1459.2188,213.6094 1459.0625,213.7188 C1458.8125,213.875 1458.6563,214.1563 1458.6563,214.4531 C1458.6563,214.7031 1458.7969,214.9688 1459.0156,215.125 C1459.1719,215.25 1459.375,215.2969 1459.7813,215.2969 L1464.9219,215.2969 C1465.6719,215.2969 1466.0313,215.0156 1466.0313,214.4531 C1466.0313,214.1719 1465.9219,213.9219 1465.6875,213.75 C1465.5156,213.625 1465.375,213.5938 1464.9219,213.5938 L1463.2031,213.5938 L1463.2031,207.0781 Z " fill="#000000"/><text fill="#000000" font-family="sans-serif" font-size="14" font-style="italic" lengthAdjust="spacing" textLength="299" x="1482.75" y="215.1436">MultipleComponentLeaderElectionService</text><line style="stroke:#181818;stroke-width:0.5;" x1="1303" x2="1929" y1="226.2969" y2="226.2969"/><text fill="#000000" font-family="sans-serif" font-size="14" lengthAdjust="spacing" textLength="81" x="1308" y="243.292">void close()</text><text fill="#000000" font-family="sans-serif" font-size="14" lengthAdjust="spacing" textLength="462" x="1308" y="259.5889">LeaderElectionDriverFactory createDriverFactory(componentId)</text><text fill="#000000" font-family="sans-serif" font-size="14" lengthAdjust="spacing" textLength="469" x="1308" y="275.8857">void publishLeaderInformation(componentId, LeaderInformation)</text><text fill="#000000" font-family="sans-serif" font-size="14" lengthAdjust="spacing" textLength="616" x="1308" y="292.1826">void registerLeaderElectionEventHandler(componentId, LeaderElectionEventHandler)</text><text fill="#000000" font-family="sans-serif" font-size="14" lengthAdjust="spacing" textLength="420" x="1308" y="308.4795">void unregisterLeaderElectionEventHandler(componentId)</text><text fill="#000000" font-family="sans-serif" font-size="14" lengthAdjust="spacing" textLength="272" x="1308" y="324.7764">boolean hasLeadership(componentId)</text></g><!--class LeaderContender--><g id="elem_LeaderContender"><rect codeLine="55" fill="#F1F1F1" height="72.5938" id="LeaderContender" rx="2.5" ry="2.5" style="stroke:#181818;stroke-width:0.5;" width="319" x="1046.5" y="867.2969"/><ellipse cx="1139.25" cy="883.2969" fill="#B4A7E5" rx="11" ry="11" style="stroke:#181818;stroke-width:1.0;"/><path d="M1140.2031,880.0781 L1141.9219,880.0781 C1142.3125,880.0781 1142.5,880.0469 1142.625,879.9688 C1142.8906,879.8125 1143.0313,879.5313 1143.0313,879.2344 C1143.0313,878.9688 1142.9219,878.7031 1142.6875,878.5313 C1142.5156,878.4219 1142.375,878.3906 1141.9219,878.3906 L1136.7813,878.3906 C1136.3438,878.3906 1136.2188,878.4063 1136.0625,878.5 C1135.8125,878.6563 1135.6563,878.9531 1135.6563,879.2344 C1135.6563,879.5156 1135.7969,879.7656 1136.0156,879.9375 C1136.1719,880.0469 1136.3594,880.0781 1136.7813,880.0781 L1138.5,880.0781 L1138.5,886.5938 L1136.7813,886.5938 C1136.3438,886.5938 1136.2188,886.6094 1136.0625,886.7188 C1135.8125,886.875 1135.6563,887.1563 1135.6563,887.4531 C1135.6563,887.7031 1135.7969,887.9688 1136.0156,888.125 C1136.1719,888.25 1136.375,888.2969 1136.7813,888.2969 L1141.9219,888.2969 C1142.6719,888.2969 1143.0313,888.0156 1143.0313,887.4531 C1143.0313,887.1719 1142.9219,886.9219 1142.6875,886.75 C1142.5156,886.625 1142.375,886.5938 1141.9219,886.5938 L1140.2031,886.5938 L1140.2031,880.0781 Z " fill="#000000"/><text fill="#000000" font-family="sans-serif" font-size="14" font-style="italic" lengthAdjust="spacing" textLength="125" x="1159.75" y="888.1436">LeaderContender</text><line style="stroke:#181818;stroke-width:0.5;" x1="1047.5" x2="1364.5" y1="899.2969" y2="899.2969"/><text fill="#000000" font-family="sans-serif" font-size="14" lengthAdjust="spacing" textLength="307" x="1052.5" y="916.292">void grantLeadership(newLeaderSessionId)</text><text fill="#000000" font-family="sans-serif" font-size="14" lengthAdjust="spacing" textLength="173" x="1052.5" y="932.5889">void revokeLeadership()</text></g><g id="elem_GMN12"><path d="M1400.5,883.7969 L1400.5,899.7969 L1365.8,903.7969 L1400.5,907.7969 L1400.5,924.0625 A0,0 0 0 0 1400.5,924.0625 L1683.5,924.0625 A0,0 0 0 0 1683.5,924.0625 L1683.5,893.7969 L1673.5,883.7969 L1400.5,883.7969 A0,0 0 0 0 1400.5,883.7969 " fill="#FEFFDD" style="stroke:#181818;stroke-width:0.5;"/><path d="M1673.5,883.7969 L1673.5,893.7969 L1683.5,893.7969 L1673.5,883.7969 " fill="#FEFFDD" style="stroke:#181818;stroke-width:0.5;"/><text fill="#000000" font-family="sans-serif" font-size="13" lengthAdjust="spacing" textLength="262" x="1406.5" y="900.8638">LeaderContender is implemented by any</text><text fill="#000000" font-family="sans-serif" font-size="13" lengthAdjust="spacing" textLength="255" x="1406.5" y="915.9966">class that utilizes LeaderElectionService</text></g><!--class LeaderElectionDriver--><g id="elem_LeaderElectionDriver"><rect codeLine="62" fill="#F1F1F1" height="88.8906" id="LeaderElectionDriver" rx="2.5" ry="2.5" style="stroke:#181818;stroke-width:0.5;" width="361" x="1794.5" y="859.2969"/><ellipse cx="1895.25" cy="875.2969" fill="#B4A7E5" rx="11" ry="11" style="stroke:#181818;stroke-width:1.0;"/><path d="M1896.2031,872.0781 L1897.9219,872.0781 C1898.3125,872.0781 1898.5,872.0469 1898.625,871.9688 C1898.8906,871.8125 1899.0313,871.5313 1899.0313,871.2344 C1899.0313,870.9688 1898.9219,870.7031 1898.6875,870.5313 C1898.5156,870.4219 1898.375,870.3906 1897.9219,870.3906 L1892.7813,870.3906 C1892.3438,870.3906 1892.2188,870.4063 1892.0625,870.5 C1891.8125,870.6563 1891.6563,870.9531 1891.6563,871.2344 C1891.6563,871.5156 1891.7969,871.7656 1892.0156,871.9375 C1892.1719,872.0469 1892.3594,872.0781 1892.7813,872.0781 L1894.5,872.0781 L1894.5,878.5938 L1892.7813,878.5938 C1892.3438,878.5938 1892.2188,878.6094 1892.0625,878.7188 C1891.8125,878.875 1891.6563,879.1563 1891.6563,879.4531 C1891.6563,879.7031 1891.7969,879.9688 1892.0156,880.125 C1892.1719,880.25 1892.375,880.2969 1892.7813,880.2969 L1897.9219,880.2969 C1898.6719,880.2969 1899.0313,880.0156 1899.0313,879.4531 C1899.0313,879.1719 1898.9219,878.9219 1898.6875,878.75 C1898.5156,878.625 1898.375,878.5938 1897.9219,878.5938 L1896.2031,878.5938 L1896.2031,872.0781 Z " fill="#000000"/><text fill="#000000" font-family="sans-serif" font-size="14" font-style="italic" lengthAdjust="spacing" textLength="151" x="1915.75" y="880.1436">LeaderElectionDriver</text><line style="stroke:#181818;stroke-width:0.5;" x1="1795.5" x2="2154.5" y1="891.2969" y2="891.2969"/><text fill="#000000" font-family="sans-serif" font-size="14" lengthAdjust="spacing" textLength="349" x="1800.5" y="908.292">void writeLeaderInformation(LeaderInformation)</text><text fill="#000000" font-family="sans-serif" font-size="14" lengthAdjust="spacing" textLength="175" x="1800.5" y="924.5889">boolean hasLeadership()</text><text fill="#000000" font-family="sans-serif" font-size="14" lengthAdjust="spacing" textLength="81" x="1800.5" y="940.8857">void close()</text></g><!--class LeaderElectionEventHandler--><g id="elem_LeaderElectionEventHandler"><rect codeLine="69" fill="#F1F1F1" height="88.8906" id="LeaderElectionEventHandler" rx="2.5" ry="2.5" style="stroke:#181818;stroke-width:0.5;" width="392" x="1488" y="551.2969"/><ellipse cx="1577.75" cy="567.2969" fill="#B4A7E5" rx="11" ry="11" style="stroke:#181818;stroke-width:1.0;"/><path d="M1578.7031,564.0781 L1580.4219,564.0781 C1580.8125,564.0781 1581,564.0469 1581.125,563.9688 C1581.3906,563.8125 1581.5313,563.5313 1581.5313,563.2344 C1581.5313,562.9688 1581.4219,562.7031 1581.1875,562.5313 C1581.0156,562.4219 1580.875,562.3906 1580.4219,562.3906 L1575.2813,562.3906 C1574.8438,562.3906 1574.7188,562.4063 1574.5625,562.5 C1574.3125,562.6563 1574.1563,562.9531 1574.1563,563.2344 C1574.1563,563.5156 1574.2969,563.7656 1574.5156,563.9375 C1574.6719,564.0469 1574.8594,564.0781 1575.2813,564.0781 L1577,564.0781 L1577,570.5938 L1575.2813,570.5938 C1574.8438,570.5938 1574.7188,570.6094 1574.5625,570.7188 C1574.3125,570.875 1574.1563,571.1563 1574.1563,571.4531 C1574.1563,571.7031 1574.2969,571.9688 1574.5156,572.125 C1574.6719,572.25 1574.875,572.2969 1575.2813,572.2969 L1580.4219,572.2969 C1581.1719,572.2969 1581.5313,572.0156 1581.5313,571.4531 C1581.5313,571.1719 1581.4219,570.9219 1581.1875,570.75 C1581.0156,570.625 1580.875,570.5938 1580.4219,570.5938 L1578.7031,570.5938 L1578.7031,564.0781 Z " fill="#000000"/><text fill="#000000" font-family="sans-serif" font-size="14" font-style="italic" lengthAdjust="spacing" textLength="204" x="1598.25" y="572.1436">LeaderElectionEventHandler</text><line style="stroke:#181818;stroke-width:0.5;" x1="1489" x2="1879" y1="583.2969" y2="583.2969"/><text fill="#000000" font-family="sans-serif" font-size="14" lengthAdjust="spacing" textLength="327" x="1494" y="600.292">void onGrantLeadership(newLeaderSessionId)</text><text fill="#000000" font-family="sans-serif" font-size="14" lengthAdjust="spacing" textLength="195" x="1494" y="616.5889">void onRevokeLeadership()</text><text fill="#000000" font-family="sans-serif" font-size="14" lengthAdjust="spacing" textLength="380" x="1494" y="632.8857">void onLeaderInformationChange(leaderInformation)</text></g><!--class LeaderElectionService--><g id="elem_LeaderElectionService"><rect codeLine="76" fill="#F1F1F1" height="105.1875" id="LeaderElectionService" rx="2.5" ry="2.5" style="stroke:#181818;stroke-width:0.5;" width="413" x="1383.5" y="1025.2969"/><ellipse cx="1505.75" cy="1041.2969" fill="#B4A7E5" rx="11" ry="11" style="stroke:#181818;stroke-width:1.0;"/><path d="M1506.7031,1038.0781 L1508.4219,1038.0781 C1508.8125,1038.0781 1509,1038.0469 1509.125,1037.9688 C1509.3906,1037.8125 1509.5313,1037.5313 1509.5313,1037.2344 C1509.5313,1036.9688 1509.4219,1036.7031 1509.1875,1036.5313 C1509.0156,1036.4219 1508.875,1036.3906 1508.4219,1036.3906 L1503.2813,1036.3906 C1502.8438,1036.3906 1502.7188,1036.4063 1502.5625,1036.5 C1502.3125,1036.6563 1502.1563,1036.9531 1502.1563,1037.2344 C1502.1563,1037.5156 1502.2969,1037.7656 1502.5156,1037.9375 C1502.6719,1038.0469 1502.8594,1038.0781 1503.2813,1038.0781 L1505,1038.0781 L1505,1044.5938 L1503.2813,1044.5938 C1502.8438,1044.5938 1502.7188,1044.6094 1502.5625,1044.7188 C1502.3125,1044.875 1502.1563,1045.1563 1502.1563,1045.4531 C1502.1563,1045.7031 1502.2969,1045.9688 1502.5156,1046.125 C1502.6719,1046.25 1502.875,1046.2969 1503.2813,1046.2969 L1508.4219,1046.2969 C1509.1719,1046.2969 1509.5313,1046.0156 1509.5313,1045.4531 C1509.5313,1045.1719 1509.4219,1044.9219 1509.1875,1044.75 C1509.0156,1044.625 1508.875,1044.5938 1508.4219,1044.5938 L1506.7031,1044.5938 L1506.7031,1038.0781 Z " fill="#000000"/><text fill="#000000" font-family="sans-serif" font-size="14" font-style="italic" lengthAdjust="spacing" textLength="160" x="1526.25" y="1046.1436">LeaderElectionService</text><line style="stroke:#181818;stroke-width:0.5;" x1="1384.5" x2="1795.5" y1="1057.2969" y2="1057.2969"/><text fill="#000000" font-family="sans-serif" font-size="14" lengthAdjust="spacing" textLength="205" x="1389.5" y="1074.292">void start(LeaderContender)</text><text fill="#000000" font-family="sans-serif" font-size="14" lengthAdjust="spacing" textLength="77" x="1389.5" y="1090.5889">void stop()</text><text fill="#000000" font-family="sans-serif" font-size="14" lengthAdjust="spacing" textLength="401" x="1389.5" y="1106.8857">void confirmLeadership(leaderSessionId, leaderAddress)</text><text fill="#000000" font-family="sans-serif" font-size="14" lengthAdjust="spacing" textLength="287" x="1389.5" y="1123.1826">boolean hasLeadership(leaderSessionId)</text></g><!--class DefaultMultipleComponentLeaderElectionService--><g id="elem_DefaultMultipleComponentLeaderElectionService"><rect codeLine="104" fill="#F1F1F1" height="72.5938" id="DefaultMultipleComponentLeaderElectionService" rx="2.5" ry="2.5" style="stroke:#181818;stroke-width:0.5;" width="593" x="1239.5" y="393.2969"/><ellipse cx="1352.75" cy="409.2969" fill="#ADD1B2" rx="11" ry="11" style="stroke:#181818;stroke-width:1.0;"/><path d="M1355.0938,404.9688 C1354.1563,404.5313 1353.5625,404.3906 1352.6875,404.3906 C1350.0625,404.3906 1348.0625,406.4688 1348.0625,409.1875 L1348.0625,410.3125 C1348.0625,412.8906 1350.1719,414.7813 1353.0625,414.7813 C1354.2813,414.7813 1355.4375,414.4844 1356.1875,413.9375 C1356.7656,413.5313 1357.0938,413.0781 1357.0938,412.6875 C1357.0938,412.2344 1356.7031,411.8438 1356.2344,411.8438 C1356.0156,411.8438 1355.8125,411.9219 1355.625,412.1094 C1355.1719,412.5938 1355.1719,412.5938 1354.9844,412.6875 C1354.5625,412.9531 1353.875,413.0781 1353.1094,413.0781 C1351.0625,413.0781 1349.7656,411.9844 1349.7656,410.2813 L1349.7656,409.1875 C1349.7656,407.4063 1351.0156,406.0938 1352.75,406.0938 C1353.3281,406.0938 1353.9375,406.25 1354.4063,406.5 C1354.8906,406.7813 1355.0625,407 1355.1563,407.4063 C1355.2188,407.8125 1355.25,407.9375 1355.3906,408.0625 C1355.5313,408.2031 1355.7656,408.3125 1355.9844,408.3125 C1356.25,408.3125 1356.5156,408.1719 1356.6875,407.9531 C1356.7969,407.7969 1356.8281,407.6094 1356.8281,407.1875 L1356.8281,405.7656 C1356.8281,405.3281 1356.8125,405.2031 1356.7188,405.0469 C1356.5625,404.7813 1356.2813,404.6406 1355.9844,404.6406 C1355.6875,404.6406 1355.4844,404.7344 1355.2656,405.0469 L1355.0938,404.9688 Z " fill="#000000"/><text fill="#000000" font-family="sans-serif" font-size="14" lengthAdjust="spacing" textLength="358" x="1373.25" y="414.1436">DefaultMultipleComponentLeaderElectionService</text><line style="stroke:#181818;stroke-width:0.5;" x1="1240.5" x2="1831.5" y1="425.2969" y2="425.2969"/><text fill="#000000" font-family="sans-serif" font-size="14" lengthAdjust="spacing" textLength="453" x="1245.5" y="442.292">leaderElectionDriver: MultipleComponentLeaderElectionDriver</text><text fill="#000000" font-family="sans-serif" font-size="14" lengthAdjust="spacing" textLength="581" x="1245.5" y="458.5889">leaderElectionEventHandlers: Map&lt;ComponentId, LeaderElectionEventHandler&gt;</text></g><!--class DefaultLeaderElectionService--><g id="elem_DefaultLeaderElectionService"><rect codeLine="108" fill="#F1F1F1" height="72.5938" id="DefaultLeaderElectionService" rx="2.5" ry="2.5" style="stroke:#181818;stroke-width:0.5;" width="321" x="1571.5" y="709.2969"/><ellipse cx="1620.75" cy="725.2969" fill="#ADD1B2" rx="11" ry="11" style="stroke:#181818;stroke-width:1.0;"/><path d="M1623.0938,720.9688 C1622.1563,720.5313 1621.5625,720.3906 1620.6875,720.3906 C1618.0625,720.3906 1616.0625,722.4688 1616.0625,725.1875 L1616.0625,726.3125 C1616.0625,728.8906 1618.1719,730.7813 1621.0625,730.7813 C1622.2813,730.7813 1623.4375,730.4844 1624.1875,729.9375 C1624.7656,729.5313 1625.0938,729.0781 1625.0938,728.6875 C1625.0938,728.2344 1624.7031,727.8438 1624.2344,727.8438 C1624.0156,727.8438 1623.8125,727.9219 1623.625,728.1094 C1623.1719,728.5938 1623.1719,728.5938 1622.9844,728.6875 C1622.5625,728.9531 1621.875,729.0781 1621.1094,729.0781 C1619.0625,729.0781 1617.7656,727.9844 1617.7656,726.2813 L1617.7656,725.1875 C1617.7656,723.4063 1619.0156,722.0938 1620.75,722.0938 C1621.3281,722.0938 1621.9375,722.25 1622.4063,722.5 C1622.8906,722.7813 1623.0625,723 1623.1563,723.4063 C1623.2188,723.8125 1623.25,723.9375 1623.3906,724.0625 C1623.5313,724.2031 1623.7656,724.3125 1623.9844,724.3125 C1624.25,724.3125 1624.5156,724.1719 1624.6875,723.9531 C1624.7969,723.7969 1624.8281,723.6094 1624.8281,723.1875 L1624.8281,721.7656 C1624.8281,721.3281 1624.8125,721.2031 1624.7188,721.0469 C1624.5625,720.7813 1624.2813,720.6406 1623.9844,720.6406 C1623.6875,720.6406 1623.4844,720.7344 1623.2656,721.0469 L1623.0938,720.9688 Z " fill="#000000"/><text fill="#000000" font-family="sans-serif" font-size="14" lengthAdjust="spacing" textLength="214" x="1641.25" y="730.1436">DefaultLeaderElectionService</text><line style="stroke:#181818;stroke-width:0.5;" x1="1572.5" x2="1891.5" y1="741.2969" y2="741.2969"/><text fill="#000000" font-family="sans-serif" font-size="14" lengthAdjust="spacing" textLength="309" x="1577.5" y="758.292">leaderElectionDriver: LeaderElectionDriver</text><text fill="#000000" font-family="sans-serif" font-size="14" lengthAdjust="spacing" textLength="257" x="1577.5" y="774.5889">leaderContender: LeaderContender</text></g><!--class MultipleComponentLeaderElectionDriverAdapter--><g id="elem_MultipleComponentLeaderElectionDriverAdapter"><rect codeLine="96" fill="#F1F1F1" height="56.2969" id="MultipleComponentLeaderElectionDriverAdapter" rx="2.5" ry="2.5" style="stroke:#181818;stroke-width:0.5;" width="633" x="1516.5" y="52.7969"/><ellipse cx="1651.25" cy="68.7969" fill="#ADD1B2" rx="11" ry="11" style="stroke:#181818;stroke-width:1.0;"/><path d="M1653.5938,64.4688 C1652.6563,64.0313 1652.0625,63.8906 1651.1875,63.8906 C1648.5625,63.8906 1646.5625,65.9688 1646.5625,68.6875 L1646.5625,69.8125 C1646.5625,72.3906 1648.6719,74.2813 1651.5625,74.2813 C1652.7813,74.2813 1653.9375,73.9844 1654.6875,73.4375 C1655.2656,73.0313 1655.5938,72.5781 1655.5938,72.1875 C1655.5938,71.7344 1655.2031,71.3438 1654.7344,71.3438 C1654.5156,71.3438 1654.3125,71.4219 1654.125,71.6094 C1653.6719,72.0938 1653.6719,72.0938 1653.4844,72.1875 C1653.0625,72.4531 1652.375,72.5781 1651.6094,72.5781 C1649.5625,72.5781 1648.2656,71.4844 1648.2656,69.7813 L1648.2656,68.6875 C1648.2656,66.9063 1649.5156,65.5938 1651.25,65.5938 C1651.8281,65.5938 1652.4375,65.75 1652.9063,66 C1653.3906,66.2813 1653.5625,66.5 1653.6563,66.9063 C1653.7188,67.3125 1653.75,67.4375 1653.8906,67.5625 C1654.0313,67.7031 1654.2656,67.8125 1654.4844,67.8125 C1654.75,67.8125 1655.0156,67.6719 1655.1875,67.4531 C1655.2969,67.2969 1655.3281,67.1094 1655.3281,66.6875 L1655.3281,65.2656 C1655.3281,64.8281 1655.3125,64.7031 1655.2188,64.5469 C1655.0625,64.2813 1654.7813,64.1406 1654.4844,64.1406 C1654.1875,64.1406 1653.9844,64.2344 1653.7656,64.5469 L1653.5938,64.4688 Z " fill="#000000"/><text fill="#000000" font-family="sans-serif" font-size="14" lengthAdjust="spacing" textLength="355" x="1671.75" y="73.6436">MultipleComponentLeaderElectionDriverAdapter</text><line style="stroke:#181818;stroke-width:0.5;" x1="1517.5" x2="2148.5" y1="84.7969" y2="84.7969"/><text fill="#000000" font-family="sans-serif" font-size="14" lengthAdjust="spacing" textLength="621" x="1522.5" y="101.792">multipleComponentLeaderElectionService: MultipleComponentLeaderElectionService</text></g><!--class KubernetesMultipleComponentLeaderElectionDriver--><g id="elem_KubernetesMultipleComponentLeaderElectionDriver"><rect codeLine="110" fill="#F1F1F1" height="32" id="KubernetesMultipleComponentLeaderElectionDriver" rx="2.5" ry="2.5" style="stroke:#181818;stroke-width:0.5;" width="412" x="558" y="729.7969"/><ellipse cx="573" cy="745.7969" fill="#ADD1B2" rx="11" ry="11" style="stroke:#181818;stroke-width:1.0;"/><path d="M575.3438,741.4688 C574.4063,741.0313 573.8125,740.8906 572.9375,740.8906 C570.3125,740.8906 568.3125,742.9688 568.3125,745.6875 L568.3125,746.8125 C568.3125,749.3906 570.4219,751.2813 573.3125,751.2813 C574.5313,751.2813 575.6875,750.9844 576.4375,750.4375 C577.0156,750.0313 577.3438,749.5781 577.3438,749.1875 C577.3438,748.7344 576.9531,748.3438 576.4844,748.3438 C576.2656,748.3438 576.0625,748.4219 575.875,748.6094 C575.4219,749.0938 575.4219,749.0938 575.2344,749.1875 C574.8125,749.4531 574.125,749.5781 573.3594,749.5781 C571.3125,749.5781 570.0156,748.4844 570.0156,746.7813 L570.0156,745.6875 C570.0156,743.9063 571.2656,742.5938 573,742.5938 C573.5781,742.5938 574.1875,742.75 574.6563,743 C575.1406,743.2813 575.3125,743.5 575.4063,743.9063 C575.4688,744.3125 575.5,744.4375 575.6406,744.5625 C575.7813,744.7031 576.0156,744.8125 576.2344,744.8125 C576.5,744.8125 576.7656,744.6719 576.9375,744.4531 C577.0469,744.2969 577.0781,744.1094 577.0781,743.6875 L577.0781,742.2656 C577.0781,741.8281 577.0625,741.7031 576.9688,741.5469 C576.8125,741.2813 576.5313,741.1406 576.2344,741.1406 C575.9375,741.1406 575.7344,741.2344 575.5156,741.5469 L575.3438,741.4688 Z " fill="#000000"/><text fill="#000000" font-family="sans-serif" font-size="14" lengthAdjust="spacing" textLength="380" x="587" y="750.6436">KubernetesMultipleComponentLeaderElectionDriver</text></g><!--class ZooKeeperMultipleComponentLeaderElectionDriver--><g id="elem_ZooKeeperMultipleComponentLeaderElectionDriver"><rect codeLine="113" fill="#F1F1F1" height="32" id="ZooKeeperMultipleComponentLeaderElectionDriver" rx="2.5" ry="2.5" style="stroke:#181818;stroke-width:0.5;" width="409" x="1005.5" y="729.7969"/><ellipse cx="1020.5" cy="745.7969" fill="#ADD1B2" rx="11" ry="11" style="stroke:#181818;stroke-width:1.0;"/><path d="M1022.8438,741.4688 C1021.9063,741.0313 1021.3125,740.8906 1020.4375,740.8906 C1017.8125,740.8906 1015.8125,742.9688 1015.8125,745.6875 L1015.8125,746.8125 C1015.8125,749.3906 1017.9219,751.2813 1020.8125,751.2813 C1022.0313,751.2813 1023.1875,750.9844 1023.9375,750.4375 C1024.5156,750.0313 1024.8438,749.5781 1024.8438,749.1875 C1024.8438,748.7344 1024.4531,748.3438 1023.9844,748.3438 C1023.7656,748.3438 1023.5625,748.4219 1023.375,748.6094 C1022.9219,749.0938 1022.9219,749.0938 1022.7344,749.1875 C1022.3125,749.4531 1021.625,749.5781 1020.8594,749.5781 C1018.8125,749.5781 1017.5156,748.4844 1017.5156,746.7813 L1017.5156,745.6875 C1017.5156,743.9063 1018.7656,742.5938 1020.5,742.5938 C1021.0781,742.5938 1021.6875,742.75 1022.1563,743 C1022.6406,743.2813 1022.8125,743.5 1022.9063,743.9063 C1022.9688,744.3125 1023,744.4375 1023.1406,744.5625 C1023.2813,744.7031 1023.5156,744.8125 1023.7344,744.8125 C1024,744.8125 1024.2656,744.6719 1024.4375,744.4531 C1024.5469,744.2969 1024.5781,744.1094 1024.5781,743.6875 L1024.5781,742.2656 C1024.5781,741.8281 1024.5625,741.7031 1024.4688,741.5469 C1024.3125,741.2813 1024.0313,741.1406 1023.7344,741.1406 C1023.4375,741.1406 1023.2344,741.2344 1023.0156,741.5469 L1022.8438,741.4688 Z " fill="#000000"/><text fill="#000000" font-family="sans-serif" font-size="14" lengthAdjust="spacing" textLength="377" x="1034.5" y="750.6436">ZooKeeperMultipleComponentLeaderElectionDriver</text></g><!--link LeaderInformation to LeaderInformationWithComponentId--><!--link MultipleComponentLeaderElectionDriverAdapter to LeaderElectionDriver--><g id="link_MultipleComponentLeaderElectionDriverAdapter_LeaderElectionDriver"><path codeLine="101" d="M1876.79,108.8069 C1921.06,139.8539 1983,195.2709 1983,262.2969 C1983,262.2969 1983,262.2969 1983,746.7969 C1983,777.1999 1981.47,810.8919 1979.74,839.1619 " fill="none" id="MultipleComponentLeaderElectionDriverAdapter-to-LeaderElectionDriver" style="stroke:#181818;stroke-width:1.0;"/><polygon fill="none" points="1986.73,839.6179,1978.44,859.1199,1972.76,838.7059,1986.73,839.6179" style="stroke:#181818;stroke-width:1.0;"/></g><!--reverse link MultipleComponentLeaderElectionService to DefaultMultipleComponentLeaderElectionService--><g id="link_MultipleComponentLeaderElectionService_DefaultMultipleComponentLeaderElectionService"><path d="M1573.9,350.8699 C1566.61,365.8549 1559.42,380.6469 1553.29,393.2519 " fill="none" id="MultipleComponentLeaderElectionService-backto-DefaultMultipleComponentLeaderElectionService" style="stroke:#181818;stroke-width:1.0;stroke-dasharray:7.0,7.0;"/><polygon fill="none" points="1567.73,347.5549,1582.77,332.6309,1580.32,353.6779,1567.73,347.5549" style="stroke:#181818;stroke-width:1.0;"/></g><!--reverse link MultipleComponentLeaderElectionDriver.Listener to DefaultMultipleComponentLeaderElectionService--><g id="link_MultipleComponentLeaderElectionDriver.Listener_DefaultMultipleComponentLeaderElectionService"><path d="M1143.51,321.1879 C1230.82,345.1259 1329.72,372.2409 1406.39,393.2639 " fill="none" id="MultipleComponentLeaderElectionDriver.Listener-backto-DefaultMultipleComponentLeaderElectionService" style="stroke:#181818;stroke-width:1.0;stroke-dasharray:7.0,7.0;"/><polygon fill="none" points="1141.63,327.9339,1124.2,315.8939,1145.34,314.4319,1141.63,327.9339" style="stroke:#181818;stroke-width:1.0;"/></g><!--link MultipleComponentLeaderElectionDriver to MultipleComponentLeaderElectionDriver.Listener--><g id="link_MultipleComponentLeaderElectionDriver_MultipleComponentLeaderElectionDriver.Listener"><path codeLine="106" d="M1064.29,543.2469 C1036.52,482.8619 990.665,383.1579 961.958,320.7389 " fill="none" id="MultipleComponentLeaderElectionDriver-to-MultipleComponentLeaderElectionDriver.Listener" style="stroke:#181818;stroke-width:1.0;"/><polygon fill="#181818" points="959.75,315.9379,959.8751,325.7859,961.8386,320.4808,967.1438,322.4442,959.75,315.9379" style="stroke:#181818;stroke-width:1.0;"/><text fill="#000000" font-family="sans-serif" font-size="13" lengthAdjust="spacing" textLength="102" x="1053.5" y="426.8638">listener used by</text><text fill="#000000" font-family="sans-serif" font-size="13" lengthAdjust="spacing" textLength="149" x="1030" y="441.9966">driver implementations</text></g><!--reverse link LeaderElectionService to DefaultLeaderElectionService--><g id="link_LeaderElectionService_DefaultLeaderElectionService"><path d="M1659.84,1010.1059 C1675.68,991.5319 1690.81,970.3569 1701,948.2969 C1726,894.1509 1731.52,823.9869 1732.37,782.3489 " fill="none" id="LeaderElectionService-backto-DefaultLeaderElectionService" style="stroke:#181818;stroke-width:1.0;stroke-dasharray:7.0,7.0;"/><polygon fill="none" points="1665.02,1014.8199,1646.47,1025.0579,1654.58,1005.4849,1665.02,1014.8199" style="stroke:#181818;stroke-width:1.0;"/></g><!--reverse link LeaderElectionEventHandler to DefaultLeaderElectionService--><g id="link_LeaderElectionEventHandler_DefaultLeaderElectionService"><path d="M1704.37,659.6159 C1709.84,676.4789 1715.57,694.1339 1720.38,708.9699 " fill="none" id="LeaderElectionEventHandler-backto-DefaultLeaderElectionService" style="stroke:#181818;stroke-width:1.0;stroke-dasharray:7.0,7.0;"/><polygon fill="none" points="1697.65,661.5849,1698.14,640.4009,1710.97,657.2659,1697.65,661.5849" style="stroke:#181818;stroke-width:1.0;"/></g><!--reverse link MultipleComponentLeaderElectionDriver to KubernetesMultipleComponentLeaderElectionDriver--><g id="link_MultipleComponentLeaderElectionDriver_KubernetesMultipleComponentLeaderElectionDriver"><path d="M956.836,656.7109 C898.496,683.3609 834.615,712.5409 796.986,729.7289 " fill="none" id="MultipleComponentLeaderElectionDriver-backto-KubernetesMultipleComponentLeaderElectionDriver" style="stroke:#181818;stroke-width:1.0;stroke-dasharray:7.0,7.0;"/><polygon fill="none" points="954.035,650.2949,975.135,648.3519,959.852,663.0299,954.035,650.2949" style="stroke:#181818;stroke-width:1.0;"/></g><!--reverse link MultipleComponentLeaderElectionDriver to ZooKeeperMultipleComponentLeaderElectionDriver--><g id="link_MultipleComponentLeaderElectionDriver_ZooKeeperMultipleComponentLeaderElectionDriver"><path d="M1143.42,664.0309 C1163.67,688.5909 1184.74,714.1529 1197.62,729.7739 " fill="none" id="MultipleComponentLeaderElectionDriver-backto-ZooKeeperMultipleComponentLeaderElectionDriver" style="stroke:#181818;stroke-width:1.0;stroke-dasharray:7.0,7.0;"/><polygon fill="none" points="1137.99,668.4449,1130.67,648.5599,1148.79,659.5399,1137.99,668.4449" style="stroke:#181818;stroke-width:1.0;"/></g><!--link DefaultLeaderElectionService to LeaderElectionDriver--><g id="link_DefaultLeaderElectionService_LeaderElectionDriver"><path codeLine="116" d="M1787.44,782.3909 C1821.63,804.3399 1865.85,832.7249 1902.76,856.4219 " fill="none" id="DefaultLeaderElectionService-to-LeaderElectionDriver" style="stroke:#181818;stroke-width:1.0;"/><polygon fill="#181818" points="1907.23,859.2879,1901.8161,851.0605,1903.022,856.5873,1897.4952,857.7933,1907.23,859.2879" style="stroke:#181818;stroke-width:1.0;"/><text fill="#000000" font-family="sans-serif" font-size="13" lengthAdjust="spacing" textLength="30" x="1855" y="825.3638">uses</text></g><!--link DefaultLeaderElectionService to LeaderContender--><g id="link_DefaultLeaderElectionService_LeaderContender"><path codeLine="117" d="M1611.98,782.3909 C1527.92,807.3239 1415.85,840.5619 1330.75,865.7979 " fill="none" id="DefaultLeaderElectionService-to-LeaderContender" style="stroke:#181818;stroke-width:1.0;"/><polygon fill="#181818" points="1325.95,867.2209,1335.7176,868.4834,1330.7417,865.7927,1333.4324,860.8167,1325.95,867.2209" style="stroke:#181818;stroke-width:1.0;"/><text fill="#000000" font-family="sans-serif" font-size="13" lengthAdjust="spacing" textLength="30" x="1502" y="825.3638">uses</text></g><!--link LeaderContender to LeaderElectionService--><g id="link_LeaderContender_LeaderElectionService"><path codeLine="118" d="M1285.57,940.4359 C1338.88,964.3149 1410.04,996.1919 1470.16,1023.1209 " fill="none" id="LeaderContender-to-LeaderElectionService" style="stroke:#181818;stroke-width:1.0;"/><polygon fill="#181818" points="1474.84,1025.2149,1468.2602,1017.8864,1470.2765,1023.1717,1464.9912,1025.188,1474.84,1025.2149" style="stroke:#181818;stroke-width:1.0;"/><text fill="#000000" font-family="sans-serif" font-size="13" lengthAdjust="spacing" textLength="30" x="1399" y="991.3638">uses</text></g><!--link MultipleComponentLeaderElectionDriverAdapter to MultipleComponentLeaderElectionService--><g id="link_MultipleComponentLeaderElectionDriverAdapter_MultipleComponentLeaderElectionService"><path codeLine="120" d="M1800.51,108.8169 C1774.49,130.4609 1736.76,161.8509 1702.18,190.6109 " fill="none" id="MultipleComponentLeaderElectionDriverAdapter-to-MultipleComponentLeaderElectionService" style="stroke:#181818;stroke-width:1.0;"/><polygon fill="#181818" points="1697.98,194.1049,1707.4621,191.4421,1701.8299,190.9145,1702.3575,185.2823,1697.98,194.1049" style="stroke:#181818;stroke-width:1.0;"/><text fill="#000000" font-family="sans-serif" font-size="13" lengthAdjust="spacing" textLength="30" x="1752" y="160.3638">uses</text></g><!--link DefaultMultipleComponentLeaderElectionService to LeaderElectionEventHandler--><g id="link_DefaultMultipleComponentLeaderElectionService_LeaderElectionEventHandler"><path codeLine="122" d="M1568.11,466.3829 C1589.51,490.0869 1617.86,521.5079 1641.17,547.3349 " fill="none" id="DefaultMultipleComponentLeaderElectionService-to-LeaderElectionEventHandler" style="stroke:#181818;stroke-width:1.0;"/><polygon fill="#181818" points="1644.57,551.1039,1641.5126,541.7416,1641.2212,547.391,1635.5719,547.0996,1644.57,551.1039" style="stroke:#181818;stroke-width:1.0;"/><text fill="#000000" font-family="sans-serif" font-size="13" lengthAdjust="spacing" textLength="30" x="1611" y="509.3638">uses</text></g><!--link DefaultMultipleComponentLeaderElectionService to MultipleComponentLeaderElectionDriver--><g id="link_DefaultMultipleComponentLeaderElectionService_MultipleComponentLeaderElectionDriver"><path codeLine="123" d="M1438.79,466.3829 C1378.85,488.3239 1300.86,516.8769 1233.63,541.4849 " fill="none" id="DefaultMultipleComponentLeaderElectionService-to-MultipleComponentLeaderElectionDriver" style="stroke:#181818;stroke-width:1.0;"/><polygon fill="#181818" points="1228.81,543.2499,1238.6377,543.8945,1233.5022,541.5226,1235.8741,536.387,1228.81,543.2499" style="stroke:#181818;stroke-width:1.0;"/><text fill="#000000" font-family="sans-serif" font-size="13" lengthAdjust="spacing" textLength="30" x="1354" y="509.3638">uses</text></g><!--SRC=[jLTRQzim57xthz3RMbXI-Z0OfWH2scwbBOnrPR1r3wfr4elAaf7aXExottTinuuLAudLhNbAf7FxFfrRtgJMvYO-ESa5bRR8n3XHsKaYg34Znkb2qooABBS2o2VGeroh18mXDq0PQ78X8B5SISAbrOeL2J3yIgOvJL8WbuBB9t8wFdqNHPN5jTgLd2kTqKhnLqJm8whpExICPrVdCRc_lphlt4mPqtWPapkhkLn4VwAKC_2Ooy2cYfcT_hvocyvKbYi9qbunntr7BEvhLeB9HlLWBDkksj3wKO- -ema6yiVee9aeGgf1psa2vBOGbkS2skjQkNcKSysN-4OrnANYZ2H26JWwhWuUbKBOagJKr6ecvVdwhXBEYqV1JTeBwAX3mjj-l1qB30HOs6lWkA5l69Ov1r5I6CZ1-8OR2z8bWwznTp5BPRs7VFxSWp5BgLp0S3PgCrCXhgLQoJuhCoNMGPyTIe9966qR-6l-C1J0f9zRekQ19YeyPyNadqWvEoacSMNftc37U7mctvIw1iWnH9vXB1cgrgMnIa43iTXDCYMvLMN9OSxcEKX3Idcf65IcZbOfJr8iKLJbU5dgu0zPmoZTbsWfCMX1mAQKZyVa2ugkgCMULUDRW4LzpHSBTCu8Xa4hFoIfu8qZbuN_zAPzLae8J- -DdnCgH8CFU-wccN133F84h3B5vGRoJCavNzpIt47iHTkAjf11LYaC0SLt1th9KMn71_BbsILDCFPdacYW5fmpjstynpQbOL4cjtRZkLYYwaSgcS1kuB7ba-iOBMIOsNrD-GNzig6-tp1hENnVB6VcTaGSzesTog-4rOqpc9d3sb8zWJCwd4cuyT1jEfXbgOrx8hoJutNgK_dy8EiXRbDgIM6vu3_142_EFi3TGt2bkMyexSYGWsEooMW7_C6njJifkg4g-I7aIPJyt7-KpkskRYtwqBred30FOV8Klx5KswEjjp_ktYkNsh89wQm3nzqJiHQTzN3VYubjrhm8jykcJi1pc5Cijw1k9pnv40-RjHxzBlEu1MDVFfiDQqcJ1cWOYAqzUgqS3lW0lZOBUYrXA-n1KGvYTyfeRjioomRH4Gzijq5RMHD82o98QpJwFV6p-wAaRRkl6GhrTRriRvt3o45M9g4hSKn4yxMerwu7oMfhxjerh1Ww4Bq2-sgrSN1TF8AM-DV934CTIckTfA5UCiXGeMMXtTXVCyP09ss8Uv-eJ1AlUbncW1cglDbUrdhRntq_ZP6rGcZ5JuPkVOtziEhin-iCV9UT09l3tgus_nS0]--></g></svg>