<?xml version="1.0" encoding="UTF-8" standalone="no"?><svg xmlns="http://www.w3.org/2000/svg" xmlns:xlink="http://www.w3.org/1999/xlink" contentStyleType="text/css" height="849px" preserveAspectRatio="none" style="width:1114px;height:849px;background:#FFFFFF;" version="1.1" viewBox="0 0 1114 849" width="1114px" zoomAndPan="magnify"><defs/><g><text fill="#000000" font-family="sans-serif" font-size="14" font-weight="bold" lengthAdjust="spacing" textLength="530" x="285.25" y="22.9951">Per-component Leader Election that existed in Apache Flink 1.15-</text><!--class LeaderContender--><g id="elem_LeaderContender"><rect codeLine="5" fill="#F1F1F1" height="72.5938" id="LeaderContender" rx="2.5" ry="2.5" style="stroke:#181818;stroke-width:0.5;" width="325" x="260" y="44.2969"/><ellipse cx="355.75" cy="60.2969" fill="#B4A7E5" rx="11" ry="11" style="stroke:#181818;stroke-width:1.0;"/><path d="M356.7031,57.0781 L358.4219,57.0781 C358.8125,57.0781 359,57.0469 359.125,56.9688 C359.3906,56.8125 359.5313,56.5313 359.5313,56.2344 C359.5313,55.9688 359.4219,55.7031 359.1875,55.5313 C359.0156,55.4219 358.875,55.3906 358.4219,55.3906 L353.2813,55.3906 C352.8438,55.3906 352.7188,55.4063 352.5625,55.5 C352.3125,55.6563 352.1563,55.9531 352.1563,56.2344 C352.1563,56.5156 352.2969,56.7656 352.5156,56.9375 C352.6719,57.0469 352.8594,57.0781 353.2813,57.0781 L355,57.0781 L355,63.5938 L353.2813,63.5938 C352.8438,63.5938 352.7188,63.6094 352.5625,63.7188 C352.3125,63.875 352.1563,64.1563 352.1563,64.4531 C352.1563,64.7031 352.2969,64.9688 352.5156,65.125 C352.6719,65.25 352.875,65.2969 353.2813,65.2969 L358.4219,65.2969 C359.1719,65.2969 359.5313,65.0156 359.5313,64.4531 C359.5313,64.1719 359.4219,63.9219 359.1875,63.75 C359.0156,63.625 358.875,63.5938 358.4219,63.5938 L356.7031,63.5938 L356.7031,57.0781 Z " fill="#000000"/><text fill="#000000" font-family="sans-serif" font-size="14" font-style="italic" lengthAdjust="spacing" textLength="125" x="376.25" y="65.1436">LeaderContender</text><line style="stroke:#181818;stroke-width:0.5;" x1="261" x2="584" y1="76.2969" y2="76.2969"/><text fill="#000000" font-family="sans-serif" font-size="14" lengthAdjust="spacing" textLength="313" x="266" y="93.292">void grantLeadership(UUID leaderSessionID)</text><text fill="#000000" font-family="sans-serif" font-size="14" lengthAdjust="spacing" textLength="173" x="266" y="109.5889">void revokeLeadership()</text></g><g id="elem_GMN3"><path d="M620,60.7969 L620,76.7969 L585.048,80.7969 L620,84.7969 L620,101.0625 A0,0 0 0 0 620,101.0625 L903,101.0625 A0,0 0 0 0 903,101.0625 L903,70.7969 L893,60.7969 L620,60.7969 A0,0 0 0 0 620,60.7969 " fill="#FEFFDD" style="stroke:#181818;stroke-width:0.5;"/><path d="M893,60.7969 L893,70.7969 L903,70.7969 L893,60.7969 " fill="#FEFFDD" style="stroke:#181818;stroke-width:0.5;"/><text fill="#000000" font-family="sans-serif" font-size="13" lengthAdjust="spacing" textLength="262" x="626" y="77.8638">LeaderContender is implemented by any</text><text fill="#000000" font-family="sans-serif" font-size="13" lengthAdjust="spacing" textLength="255" x="626" y="92.9966">class that utilizes LeaderElectionService</text></g><!--class LeaderElectionDriver--><g id="elem_LeaderElectionDriver"><rect codeLine="12" fill="#F1F1F1" height="88.8906" id="LeaderElectionDriver" rx="2.5" ry="2.5" style="stroke:#181818;stroke-width:0.5;" width="361" x="464" y="510.2969"/><ellipse cx="564.75" cy="526.2969" fill="#B4A7E5" rx="11" ry="11" style="stroke:#181818;stroke-width:1.0;"/><path d="M565.7031,523.0781 L567.4219,523.0781 C567.8125,523.0781 568,523.0469 568.125,522.9688 C568.3906,522.8125 568.5313,522.5313 568.5313,522.2344 C568.5313,521.9688 568.4219,521.7031 568.1875,521.5313 C568.0156,521.4219 567.875,521.3906 567.4219,521.3906 L562.2813,521.3906 C561.8438,521.3906 561.7188,521.4063 561.5625,521.5 C561.3125,521.6563 561.1563,521.9531 561.1563,522.2344 C561.1563,522.5156 561.2969,522.7656 561.5156,522.9375 C561.6719,523.0469 561.8594,523.0781 562.2813,523.0781 L564,523.0781 L564,529.5938 L562.2813,529.5938 C561.8438,529.5938 561.7188,529.6094 561.5625,529.7188 C561.3125,529.875 561.1563,530.1563 561.1563,530.4531 C561.1563,530.7031 561.2969,530.9688 561.5156,531.125 C561.6719,531.25 561.875,531.2969 562.2813,531.2969 L567.4219,531.2969 C568.1719,531.2969 568.5313,531.0156 568.5313,530.4531 C568.5313,530.1719 568.4219,529.9219 568.1875,529.75 C568.0156,529.625 567.875,529.5938 567.4219,529.5938 L565.7031,529.5938 L565.7031,523.0781 Z " fill="#000000"/><text fill="#000000" font-family="sans-serif" font-size="14" font-style="italic" lengthAdjust="spacing" textLength="151" x="585.25" y="531.1436">LeaderElectionDriver</text><line style="stroke:#181818;stroke-width:0.5;" x1="465" x2="824" y1="542.2969" y2="542.2969"/><text fill="#000000" font-family="sans-serif" font-size="14" lengthAdjust="spacing" textLength="349" x="470" y="559.292">void writeLeaderInformation(LeaderInformation)</text><text fill="#000000" font-family="sans-serif" font-size="14" lengthAdjust="spacing" textLength="175" x="470" y="575.5889">boolean hasLeadership()</text><text fill="#000000" font-family="sans-serif" font-size="14" lengthAdjust="spacing" textLength="81" x="470" y="591.8857">void close()</text></g><!--class LeaderElectionEventHandler--><g id="elem_LeaderElectionEventHandler"><rect codeLine="19" fill="#F1F1F1" height="88.8906" id="LeaderElectionEventHandler" rx="2.5" ry="2.5" style="stroke:#181818;stroke-width:0.5;" width="392" x="231.5" y="753.2969"/><ellipse cx="321.25" cy="769.2969" fill="#B4A7E5" rx="11" ry="11" style="stroke:#181818;stroke-width:1.0;"/><path d="M322.2031,766.0781 L323.9219,766.0781 C324.3125,766.0781 324.5,766.0469 324.625,765.9688 C324.8906,765.8125 325.0313,765.5313 325.0313,765.2344 C325.0313,764.9688 324.9219,764.7031 324.6875,764.5313 C324.5156,764.4219 324.375,764.3906 323.9219,764.3906 L318.7813,764.3906 C318.3438,764.3906 318.2188,764.4063 318.0625,764.5 C317.8125,764.6563 317.6563,764.9531 317.6563,765.2344 C317.6563,765.5156 317.7969,765.7656 318.0156,765.9375 C318.1719,766.0469 318.3594,766.0781 318.7813,766.0781 L320.5,766.0781 L320.5,772.5938 L318.7813,772.5938 C318.3438,772.5938 318.2188,772.6094 318.0625,772.7188 C317.8125,772.875 317.6563,773.1563 317.6563,773.4531 C317.6563,773.7031 317.7969,773.9688 318.0156,774.125 C318.1719,774.25 318.375,774.2969 318.7813,774.2969 L323.9219,774.2969 C324.6719,774.2969 325.0313,774.0156 325.0313,773.4531 C325.0313,773.1719 324.9219,772.9219 324.6875,772.75 C324.5156,772.625 324.375,772.5938 323.9219,772.5938 L322.2031,772.5938 L322.2031,766.0781 Z " fill="#000000"/><text fill="#000000" font-family="sans-serif" font-size="14" font-style="italic" lengthAdjust="spacing" textLength="204" x="341.75" y="774.1436">LeaderElectionEventHandler</text><line style="stroke:#181818;stroke-width:0.5;" x1="232.5" x2="622.5" y1="785.2969" y2="785.2969"/><text fill="#000000" font-family="sans-serif" font-size="14" lengthAdjust="spacing" textLength="327" x="237.5" y="802.292">void onGrantLeadership(newLeaderSessionId)</text><text fill="#000000" font-family="sans-serif" font-size="14" lengthAdjust="spacing" textLength="195" x="237.5" y="818.5889">void onRevokeLeadership()</text><text fill="#000000" font-family="sans-serif" font-size="14" lengthAdjust="spacing" textLength="380" x="237.5" y="834.8857">void onLeaderInformationChange(leaderInformation)</text></g><!--class LeaderElectionService--><g id="elem_LeaderElectionService"><rect codeLine="26" fill="#F1F1F1" height="105.1875" id="LeaderElectionService" rx="2.5" ry="2.5" style="stroke:#181818;stroke-width:0.5;" width="415" x="7" y="194.2969"/><ellipse cx="130.25" cy="210.2969" fill="#B4A7E5" rx="11" ry="11" style="stroke:#181818;stroke-width:1.0;"/><path d="M131.2031,207.0781 L132.9219,207.0781 C133.3125,207.0781 133.5,207.0469 133.625,206.9688 C133.8906,206.8125 134.0313,206.5313 134.0313,206.2344 C134.0313,205.9688 133.9219,205.7031 133.6875,205.5313 C133.5156,205.4219 133.375,205.3906 132.9219,205.3906 L127.7813,205.3906 C127.3438,205.3906 127.2188,205.4063 127.0625,205.5 C126.8125,205.6563 126.6563,205.9531 126.6563,206.2344 C126.6563,206.5156 126.7969,206.7656 127.0156,206.9375 C127.1719,207.0469 127.3594,207.0781 127.7813,207.0781 L129.5,207.0781 L129.5,213.5938 L127.7813,213.5938 C127.3438,213.5938 127.2188,213.6094 127.0625,213.7188 C126.8125,213.875 126.6563,214.1563 126.6563,214.4531 C126.6563,214.7031 126.7969,214.9688 127.0156,215.125 C127.1719,215.25 127.375,215.2969 127.7813,215.2969 L132.9219,215.2969 C133.6719,215.2969 134.0313,215.0156 134.0313,214.4531 C134.0313,214.1719 133.9219,213.9219 133.6875,213.75 C133.5156,213.625 133.375,213.5938 132.9219,213.5938 L131.2031,213.5938 L131.2031,207.0781 Z " fill="#000000"/><text fill="#000000" font-family="sans-serif" font-size="14" font-style="italic" lengthAdjust="spacing" textLength="160" x="150.75" y="215.1436">LeaderElectionService</text><line style="stroke:#181818;stroke-width:0.5;" x1="8" x2="421" y1="226.2969" y2="226.2969"/><text fill="#000000" font-family="sans-serif" font-size="14" lengthAdjust="spacing" textLength="205" x="13" y="243.292">void start(LeaderContender)</text><text fill="#000000" font-family="sans-serif" font-size="14" lengthAdjust="spacing" textLength="77" x="13" y="259.5889">void stop()</text><text fill="#000000" font-family="sans-serif" font-size="14" lengthAdjust="spacing" textLength="403" x="13" y="275.8857">void confirmLeadership(leaderSessionID, leaderAddress)</text><text fill="#000000" font-family="sans-serif" font-size="14" lengthAdjust="spacing" textLength="287" x="13" y="292.1826">boolean hasLeadership(leaderSessionId)</text></g><!--class DefaultLeaderElectionService--><g id="elem_DefaultLeaderElectionService"><rect codeLine="46" fill="#F1F1F1" height="72.5938" id="DefaultLeaderElectionService" rx="2.5" ry="2.5" style="stroke:#181818;stroke-width:0.5;" width="321" x="252" y="360.2969"/><ellipse cx="301.25" cy="376.2969" fill="#ADD1B2" rx="11" ry="11" style="stroke:#181818;stroke-width:1.0;"/><path d="M303.5938,371.9688 C302.6563,371.5313 302.0625,371.3906 301.1875,371.3906 C298.5625,371.3906 296.5625,373.4688 296.5625,376.1875 L296.5625,377.3125 C296.5625,379.8906 298.6719,381.7813 301.5625,381.7813 C302.7813,381.7813 303.9375,381.4844 304.6875,380.9375 C305.2656,380.5313 305.5938,380.0781 305.5938,379.6875 C305.5938,379.2344 305.2031,378.8438 304.7344,378.8438 C304.5156,378.8438 304.3125,378.9219 304.125,379.1094 C303.6719,379.5938 303.6719,379.5938 303.4844,379.6875 C303.0625,379.9531 302.375,380.0781 301.6094,380.0781 C299.5625,380.0781 298.2656,378.9844 298.2656,377.2813 L298.2656,376.1875 C298.2656,374.4063 299.5156,373.0938 301.25,373.0938 C301.8281,373.0938 302.4375,373.25 302.9063,373.5 C303.3906,373.7813 303.5625,374 303.6563,374.4063 C303.7188,374.8125 303.75,374.9375 303.8906,375.0625 C304.0313,375.2031 304.2656,375.3125 304.4844,375.3125 C304.75,375.3125 305.0156,375.1719 305.1875,374.9531 C305.2969,374.7969 305.3281,374.6094 305.3281,374.1875 L305.3281,372.7656 C305.3281,372.3281 305.3125,372.2031 305.2188,372.0469 C305.0625,371.7813 304.7813,371.6406 304.4844,371.6406 C304.1875,371.6406 303.9844,371.7344 303.7656,372.0469 L303.5938,371.9688 Z " fill="#000000"/><text fill="#000000" font-family="sans-serif" font-size="14" lengthAdjust="spacing" textLength="214" x="321.75" y="381.1436">DefaultLeaderElectionService</text><line style="stroke:#181818;stroke-width:0.5;" x1="253" x2="572" y1="392.2969" y2="392.2969"/><text fill="#000000" font-family="sans-serif" font-size="14" lengthAdjust="spacing" textLength="309" x="258" y="409.292">leaderElectionDriver: LeaderElectionDriver</text><text fill="#000000" font-family="sans-serif" font-size="14" lengthAdjust="spacing" textLength="257" x="258" y="425.5889">leaderContender: LeaderContender</text></g><!--class ZooKeeperLeaderElectionDriver--><g id="elem_ZooKeeperLeaderElectionDriver"><rect codeLine="40" fill="#F1F1F1" height="32" id="ZooKeeperLeaderElectionDriver" rx="2.5" ry="2.5" style="stroke:#181818;stroke-width:0.5;" width="265" x="539" y="660.2969"/><ellipse cx="554" cy="676.2969" fill="#ADD1B2" rx="11" ry="11" style="stroke:#181818;stroke-width:1.0;"/><path d="M556.3438,671.9688 C555.4063,671.5313 554.8125,671.3906 553.9375,671.3906 C551.3125,671.3906 549.3125,673.4688 549.3125,676.1875 L549.3125,677.3125 C549.3125,679.8906 551.4219,681.7813 554.3125,681.7813 C555.5313,681.7813 556.6875,681.4844 557.4375,680.9375 C558.0156,680.5313 558.3438,680.0781 558.3438,679.6875 C558.3438,679.2344 557.9531,678.8438 557.4844,678.8438 C557.2656,678.8438 557.0625,678.9219 556.875,679.1094 C556.4219,679.5938 556.4219,679.5938 556.2344,679.6875 C555.8125,679.9531 555.125,680.0781 554.3594,680.0781 C552.3125,680.0781 551.0156,678.9844 551.0156,677.2813 L551.0156,676.1875 C551.0156,674.4063 552.2656,673.0938 554,673.0938 C554.5781,673.0938 555.1875,673.25 555.6563,673.5 C556.1406,673.7813 556.3125,674 556.4063,674.4063 C556.4688,674.8125 556.5,674.9375 556.6406,675.0625 C556.7813,675.2031 557.0156,675.3125 557.2344,675.3125 C557.5,675.3125 557.7656,675.1719 557.9375,674.9531 C558.0469,674.7969 558.0781,674.6094 558.0781,674.1875 L558.0781,672.7656 C558.0781,672.3281 558.0625,672.2031 557.9688,672.0469 C557.8125,671.7813 557.5313,671.6406 557.2344,671.6406 C556.9375,671.6406 556.7344,671.7344 556.5156,672.0469 L556.3438,671.9688 Z " fill="#000000"/><text fill="#000000" font-family="sans-serif" font-size="14" lengthAdjust="spacing" textLength="233" x="568" y="681.1436">ZooKeeperLeaderElectionDriver</text></g><!--class KubernetesLeaderElectionDriver--><g id="elem_KubernetesLeaderElectionDriver"><rect codeLine="43" fill="#F1F1F1" height="32" id="KubernetesLeaderElectionDriver" rx="2.5" ry="2.5" style="stroke:#181818;stroke-width:0.5;" width="268" x="839.5" y="660.2969"/><ellipse cx="854.5" cy="676.2969" fill="#ADD1B2" rx="11" ry="11" style="stroke:#181818;stroke-width:1.0;"/><path d="M856.8438,671.9688 C855.9063,671.5313 855.3125,671.3906 854.4375,671.3906 C851.8125,671.3906 849.8125,673.4688 849.8125,676.1875 L849.8125,677.3125 C849.8125,679.8906 851.9219,681.7813 854.8125,681.7813 C856.0313,681.7813 857.1875,681.4844 857.9375,680.9375 C858.5156,680.5313 858.8438,680.0781 858.8438,679.6875 C858.8438,679.2344 858.4531,678.8438 857.9844,678.8438 C857.7656,678.8438 857.5625,678.9219 857.375,679.1094 C856.9219,679.5938 856.9219,679.5938 856.7344,679.6875 C856.3125,679.9531 855.625,680.0781 854.8594,680.0781 C852.8125,680.0781 851.5156,678.9844 851.5156,677.2813 L851.5156,676.1875 C851.5156,674.4063 852.7656,673.0938 854.5,673.0938 C855.0781,673.0938 855.6875,673.25 856.1563,673.5 C856.6406,673.7813 856.8125,674 856.9063,674.4063 C856.9688,674.8125 857,674.9375 857.1406,675.0625 C857.2813,675.2031 857.5156,675.3125 857.7344,675.3125 C858,675.3125 858.2656,675.1719 858.4375,674.9531 C858.5469,674.7969 858.5781,674.6094 858.5781,674.1875 L858.5781,672.7656 C858.5781,672.3281 858.5625,672.2031 858.4688,672.0469 C858.3125,671.7813 858.0313,671.6406 857.7344,671.6406 C857.4375,671.6406 857.2344,671.7344 857.0156,672.0469 L856.8438,671.9688 Z " fill="#000000"/><text fill="#000000" font-family="sans-serif" font-size="14" lengthAdjust="spacing" textLength="236" x="868.5" y="681.1436">KubernetesLeaderElectionDriver</text></g><!--reverse link LeaderElectionDriver to ZooKeeperLeaderElectionDriver--><g id="link_LeaderElectionDriver_ZooKeeperLeaderElectionDriver"><path d="M658.824,619.1919 C662.276,634.4719 665.656,649.4329 668.057,660.0579 " fill="none" id="LeaderElectionDriver-backto-ZooKeeperLeaderElectionDriver" style="stroke:#181818;stroke-width:1.0;stroke-dasharray:7.0,7.0;"/><polygon fill="none" points="651.98,620.6669,654.4,599.6159,665.636,617.5809,651.98,620.6669" style="stroke:#181818;stroke-width:1.0;"/></g><!--reverse link LeaderElectionDriver to KubernetesLeaderElectionDriver--><g id="link_LeaderElectionDriver_KubernetesLeaderElectionDriver"><path d="M783.783,606.3879 C837.264,625.8129 894.387,646.5609 931.813,660.1549 " fill="none" id="LeaderElectionDriver-backto-KubernetesLeaderElectionDriver" style="stroke:#181818;stroke-width:1.0;stroke-dasharray:7.0,7.0;"/><polygon fill="none" points="781.082,612.8539,764.673,599.4459,785.861,599.6949,781.082,612.8539" style="stroke:#181818;stroke-width:1.0;"/></g><!--reverse link LeaderElectionService to DefaultLeaderElectionService--><g id="link_LeaderElectionService_DefaultLeaderElectionService"><path d="M299.539,311.3619 C321.933,328.0999 345.298,345.5649 364.929,360.2389 " fill="none" id="LeaderElectionService-backto-DefaultLeaderElectionService" style="stroke:#181818;stroke-width:1.0;stroke-dasharray:7.0,7.0;"/><polygon fill="none" points="295.301,316.9329,283.473,299.3519,303.683,305.7199,295.301,316.9329" style="stroke:#181818;stroke-width:1.0;"/></g><!--reverse link LeaderElectionEventHandler to DefaultLeaderElectionService--><g id="link_LeaderElectionEventHandler_DefaultLeaderElectionService"><path d="M425.104,733.0539 C421.915,648.2239 416.383,501.0929 413.844,433.5569 " fill="none" id="LeaderElectionEventHandler-backto-DefaultLeaderElectionService" style="stroke:#181818;stroke-width:1.0;stroke-dasharray:7.0,7.0;"/><polygon fill="none" points="432.104,732.9429,425.861,753.1921,418.114,733.4689,432.104,732.9429" style="stroke:#181818;stroke-width:1.0;"/></g><!--link LeaderElectionDriver to LeaderElectionEventHandler--><g id="link_LeaderElectionDriver_LeaderElectionEventHandler"><path codeLine="48" d="M562.119,599.3539 C536.445,615.8639 509.618,636.5069 489.5,660.2969 C467.813,685.9419 452.237,720.4129 442.121,748.2984 " fill="none" id="LeaderElectionDriver-to-LeaderElectionEventHandler" style="stroke:#181818;stroke-width:1.0;"/><polygon fill="#181818" points="440.42,753.0688,447.2102,745.9348,442.0991,748.3592,439.6748,743.2482,440.42,753.0688" style="stroke:#181818;stroke-width:1.0;"/><text fill="#000000" font-family="sans-serif" font-size="13" lengthAdjust="spacing" textLength="30" x="490.5" y="680.8638">uses</text></g><!--link DefaultLeaderElectionService to LeaderElectionDriver--><g id="link_DefaultLeaderElectionService_LeaderElectionDriver"><path codeLine="49" d="M465.435,433.3909 C498.077,455.3399 540.291,483.7249 575.532,507.4219 " fill="none" id="DefaultLeaderElectionService-to-LeaderElectionDriver" style="stroke:#181818;stroke-width:1.0;"/><polygon fill="#181818" points="579.794,510.2879,574.558,501.9461,575.645,507.4976,570.0936,508.5846,579.794,510.2879" style="stroke:#181818;stroke-width:1.0;"/><text fill="#000000" font-family="sans-serif" font-size="13" lengthAdjust="spacing" textLength="30" x="529.5" y="476.3638">uses</text></g><!--link DefaultLeaderElectionService to LeaderContender--><g id="link_DefaultLeaderElectionService_LeaderContender"><path codeLine="50" d="M425.003,360.0879 C430.653,342.1009 436.685,319.8069 439.5,299.2969 C447.931,237.8739 438.63,166.0749 430.825,122.2819 " fill="none" id="DefaultLeaderElectionService-to-LeaderContender" style="stroke:#181818;stroke-width:1.0;"/><polygon fill="#181818" points="429.931,117.3459,427.6023,126.9155,430.8238,122.2655,435.4737,125.487,429.931,117.3459" style="stroke:#181818;stroke-width:1.0;"/><text fill="#000000" font-family="sans-serif" font-size="13" lengthAdjust="spacing" textLength="30" x="444.5" y="251.3638">uses</text></g><!--link LeaderContender to LeaderElectionService--><g id="link_LeaderContender_LeaderElectionService"><path codeLine="51" d="M377.367,117.3829 C350.152,138.8399 314.919,166.6209 284.187,190.8509 " fill="none" id="LeaderContender-to-LeaderElectionService" style="stroke:#181818;stroke-width:1.0;"/><polygon fill="#181818" points="280.076,194.0929,289.6199,191.6609,284.0021,190.9968,284.6662,185.3791,280.076,194.0929" style="stroke:#181818;stroke-width:1.0;"/><text fill="#000000" font-family="sans-serif" font-size="13" lengthAdjust="spacing" textLength="30" x="338.5" y="160.3638">uses</text></g><!--SRC=[dPJ1Rjim38RlUWhTbW1rWnvwoM50qNHRq1wA5RqCkoWM7HELAKEYtNN3tdrgR2UsvRheShD4yly_aigddBdqwzMgD8guAinvQejLQfJtYKQrTweGWf4Do7jmIRWiBG6nl0EbmSaR0ocZ9ScvOWc_q3DeYIIlIfNc8ByOf2TvSNvncGY1nE0obKARVMt30RsM-IDa-DKMjGoInCszpx5SF3vkDz8SlX_0-w2rtInFuGvg-mIz-ANuAtBKiKQ6OBGNP1camttEwoW4lSIYD504me2nUv6ANdxIeHqDOSLey3VuDhN3Vm1NOmenOXUmSLWFEPyTSkjxIvbrXNgDMqGd3UlEsj03ahdo0zPZkTHO3sFuaNhRWJTDtjI1-viYROPMBNqT3ONW-Mum4htiXt-FXzAxZH2lSqLxM9WOVP9cOFCzfdOoVHpFol5YDFjb_zuEMsifGrVqS4RhUDRkvvNMBfpDJSoCkpP9s9dku9e5t42cAiDpV6PYxEl9PUY57tiGFOZEtQno0PpRayiVrju2bE0cL_3ulFoqguFSV8a2YbtePgTtMuKl0WR__uBlr1WfpdRZJRqsu6nccOMOb4-IvFFS4rZBoeCNixRY4ctnZoMV_YhRlF5nhDCLQHB-0G00]--></g></svg>