<?xml version="1.0" encoding="UTF-8" standalone="no"?><svg xmlns="http://www.w3.org/2000/svg" xmlns:xlink="http://www.w3.org/1999/xlink" contentStyleType="text/css" height="1133px" preserveAspectRatio="none" style="width:1489px;height:1133px;background:#FFFFFF;" version="1.1" viewBox="0 0 1489 1133" width="1489px" zoomAndPan="magnify"><defs/><g><text fill="#000000" font-family="sans-serif" font-size="14" font-weight="bold" lengthAdjust="spacing" textLength="1061" x="207.25" y="22.9951">Proposed refactoring (Version 2) of the multi-component Leader Election that was introduced in Apache Flink 1.15+ (FLINK-26522)</text><!--class LeaderContender--><g id="elem_LeaderContender"><rect codeLine="5" fill="#F1F1F1" height="88.8906" id="LeaderContender" rx="2.5" ry="2.5" style="stroke:#181818;stroke-width:0.5;" width="288" x="556.5" y="44.2969"/><ellipse cx="633.75" cy="60.2969" fill="#B4A7E5" rx="11" ry="11" style="stroke:#181818;stroke-width:1.0;"/><path d="M634.7031,57.0781 L636.4219,57.0781 C636.8125,57.0781 637,57.0469 637.125,56.9688 C637.3906,56.8125 637.5313,56.5313 637.5313,56.2344 C637.5313,55.9688 637.4219,55.7031 637.1875,55.5313 C637.0156,55.4219 636.875,55.3906 636.4219,55.3906 L631.2813,55.3906 C630.8438,55.3906 630.7188,55.4063 630.5625,55.5 C630.3125,55.6563 630.1563,55.9531 630.1563,56.2344 C630.1563,56.5156 630.2969,56.7656 630.5156,56.9375 C630.6719,57.0469 630.8594,57.0781 631.2813,57.0781 L633,57.0781 L633,63.5938 L631.2813,63.5938 C630.8438,63.5938 630.7188,63.6094 630.5625,63.7188 C630.3125,63.875 630.1563,64.1563 630.1563,64.4531 C630.1563,64.7031 630.2969,64.9688 630.5156,65.125 C630.6719,65.25 630.875,65.2969 631.2813,65.2969 L636.4219,65.2969 C637.1719,65.2969 637.5313,65.0156 637.5313,64.4531 C637.5313,64.1719 637.4219,63.9219 637.1875,63.75 C637.0156,63.625 636.875,63.5938 636.4219,63.5938 L634.7031,63.5938 L634.7031,57.0781 Z " fill="#000000"/><text fill="#000000" font-family="sans-serif" font-size="14" font-style="italic" lengthAdjust="spacing" textLength="125" x="654.25" y="65.1436">LeaderContender</text><line style="stroke:#181818;stroke-width:0.5;" x1="557.5" x2="843.5" y1="76.2969" y2="76.2969"/><text fill="#000000" font-family="sans-serif" font-size="14" lengthAdjust="spacing" textLength="276" x="562.5" y="93.292">void grantLeadership(leaderSessionID)</text><text fill="#000000" font-family="sans-serif" font-size="14" lengthAdjust="spacing" textLength="173" x="562.5" y="109.5889">void revokeLeadership()</text><text fill="#000000" font-family="sans-serif" font-size="14" lengthAdjust="spacing" textLength="167" x="562.5" y="125.8857">String getDescription()</text></g><g id="elem_GMN3"><path d="M879.5,68.7969 L879.5,84.7969 L844.562,88.7969 L879.5,92.7969 L879.5,109.0625 A0,0 0 0 0 879.5,109.0625 L1161.5,109.0625 A0,0 0 0 0 1161.5,109.0625 L1161.5,78.7969 L1151.5,68.7969 L879.5,68.7969 A0,0 0 0 0 879.5,68.7969 " fill="#FEFFDD" style="stroke:#181818;stroke-width:0.5;"/><path d="M1151.5,68.7969 L1151.5,78.7969 L1161.5,78.7969 L1151.5,68.7969 " fill="#FEFFDD" style="stroke:#181818;stroke-width:0.5;"/><text fill="#000000" font-family="sans-serif" font-size="13" font-weight="bold" lengthAdjust="spacing" textLength="261" x="885.5" y="85.8638">LeaderContender.getDescription()</text><text fill="#000000" font-family="sans-serif" font-size="13" lengthAdjust="spacing" textLength="226" x="889.5" y="100.9966">is used to replace the componentId</text></g><!--class LeaderElectionDriver--><g id="elem_LeaderElectionDriver"><rect codeLine="13" fill="#F1F1F1" height="88.8906" id="LeaderElectionDriver" rx="2.5" ry="2.5" style="stroke:#181818;stroke-width:0.5;" width="361" x="1001" y="794.2969"/><ellipse cx="1101.75" cy="810.2969" fill="#B4A7E5" rx="11" ry="11" style="stroke:#181818;stroke-width:1.0;"/><path d="M1102.7031,807.0781 L1104.4219,807.0781 C1104.8125,807.0781 1105,807.0469 1105.125,806.9688 C1105.3906,806.8125 1105.5313,806.5313 1105.5313,806.2344 C1105.5313,805.9688 1105.4219,805.7031 1105.1875,805.5313 C1105.0156,805.4219 1104.875,805.3906 1104.4219,805.3906 L1099.2813,805.3906 C1098.8438,805.3906 1098.7188,805.4063 1098.5625,805.5 C1098.3125,805.6563 1098.1563,805.9531 1098.1563,806.2344 C1098.1563,806.5156 1098.2969,806.7656 1098.5156,806.9375 C1098.6719,807.0469 1098.8594,807.0781 1099.2813,807.0781 L1101,807.0781 L1101,813.5938 L1099.2813,813.5938 C1098.8438,813.5938 1098.7188,813.6094 1098.5625,813.7188 C1098.3125,813.875 1098.1563,814.1563 1098.1563,814.4531 C1098.1563,814.7031 1098.2969,814.9688 1098.5156,815.125 C1098.6719,815.25 1098.875,815.2969 1099.2813,815.2969 L1104.4219,815.2969 C1105.1719,815.2969 1105.5313,815.0156 1105.5313,814.4531 C1105.5313,814.1719 1105.4219,813.9219 1105.1875,813.75 C1105.0156,813.625 1104.875,813.5938 1104.4219,813.5938 L1102.7031,813.5938 L1102.7031,807.0781 Z " fill="#000000"/><text fill="#000000" font-family="sans-serif" font-size="14" font-style="italic" lengthAdjust="spacing" textLength="151" x="1122.25" y="815.1436">LeaderElectionDriver</text><line style="stroke:#181818;stroke-width:0.5;" x1="1002" x2="1361" y1="826.2969" y2="826.2969"/><text fill="#000000" font-family="sans-serif" font-size="14" lengthAdjust="spacing" textLength="349" x="1007" y="843.292">void writeLeaderInformation(LeaderInformation)</text><text fill="#000000" font-family="sans-serif" font-size="14" lengthAdjust="spacing" textLength="175" x="1007" y="859.5889">boolean hasLeadership()</text><text fill="#000000" font-family="sans-serif" font-size="14" lengthAdjust="spacing" textLength="81" x="1007" y="875.8857">void close()</text></g><!--class LeaderElectionEventHandler--><g id="elem_LeaderElectionEventHandler"><rect codeLine="20" fill="#F1F1F1" height="88.8906" id="LeaderElectionEventHandler" rx="2.5" ry="2.5" style="stroke:#181818;stroke-width:0.5;" width="392" x="950.5" y="1037.2969"/><ellipse cx="1040.25" cy="1053.2969" fill="#B4A7E5" rx="11" ry="11" style="stroke:#181818;stroke-width:1.0;"/><path d="M1041.2031,1050.0781 L1042.9219,1050.0781 C1043.3125,1050.0781 1043.5,1050.0469 1043.625,1049.9688 C1043.8906,1049.8125 1044.0313,1049.5313 1044.0313,1049.2344 C1044.0313,1048.9688 1043.9219,1048.7031 1043.6875,1048.5313 C1043.5156,1048.4219 1043.375,1048.3906 1042.9219,1048.3906 L1037.7813,1048.3906 C1037.3438,1048.3906 1037.2188,1048.4063 1037.0625,1048.5 C1036.8125,1048.6563 1036.6563,1048.9531 1036.6563,1049.2344 C1036.6563,1049.5156 1036.7969,1049.7656 1037.0156,1049.9375 C1037.1719,1050.0469 1037.3594,1050.0781 1037.7813,1050.0781 L1039.5,1050.0781 L1039.5,1056.5938 L1037.7813,1056.5938 C1037.3438,1056.5938 1037.2188,1056.6094 1037.0625,1056.7188 C1036.8125,1056.875 1036.6563,1057.1563 1036.6563,1057.4531 C1036.6563,1057.7031 1036.7969,1057.9688 1037.0156,1058.125 C1037.1719,1058.25 1037.375,1058.2969 1037.7813,1058.2969 L1042.9219,1058.2969 C1043.6719,1058.2969 1044.0313,1058.0156 1044.0313,1057.4531 C1044.0313,1057.1719 1043.9219,1056.9219 1043.6875,1056.75 C1043.5156,1056.625 1043.375,1056.5938 1042.9219,1056.5938 L1041.2031,1056.5938 L1041.2031,1050.0781 Z " fill="#000000"/><text fill="#000000" font-family="sans-serif" font-size="14" font-style="italic" lengthAdjust="spacing" textLength="204" x="1060.75" y="1058.1436">LeaderElectionEventHandler</text><line style="stroke:#181818;stroke-width:0.5;" x1="951.5" x2="1341.5" y1="1069.2969" y2="1069.2969"/><text fill="#000000" font-family="sans-serif" font-size="14" lengthAdjust="spacing" textLength="327" x="956.5" y="1086.292">void onGrantLeadership(newLeaderSessionId)</text><text fill="#000000" font-family="sans-serif" font-size="14" lengthAdjust="spacing" textLength="195" x="956.5" y="1102.5889">void onRevokeLeadership()</text><text fill="#000000" font-family="sans-serif" font-size="14" lengthAdjust="spacing" textLength="380" x="956.5" y="1118.8857">void onLeaderInformationChange(leaderInformation)</text></g><!--class LeaderElectionService--><g id="elem_LeaderElectionService"><rect codeLine="27" fill="#F1F1F1" height="72.5938" id="LeaderElectionService" rx="2.5" ry="2.5" style="stroke:#181818;stroke-width:0.5;" width="192" x="1013.5" y="510.2969"/><ellipse cx="1028.5" cy="526.2969" fill="#B4A7E5" rx="11" ry="11" style="stroke:#181818;stroke-width:1.0;"/><path d="M1029.4531,523.0781 L1031.1719,523.0781 C1031.5625,523.0781 1031.75,523.0469 1031.875,522.9688 C1032.1406,522.8125 1032.2813,522.5313 1032.2813,522.2344 C1032.2813,521.9688 1032.1719,521.7031 1031.9375,521.5313 C1031.7656,521.4219 1031.625,521.3906 1031.1719,521.3906 L1026.0313,521.3906 C1025.5938,521.3906 1025.4688,521.4063 1025.3125,521.5 C1025.0625,521.6563 1024.9063,521.9531 1024.9063,522.2344 C1024.9063,522.5156 1025.0469,522.7656 1025.2656,522.9375 C1025.4219,523.0469 1025.6094,523.0781 1026.0313,523.0781 L1027.75,523.0781 L1027.75,529.5938 L1026.0313,529.5938 C1025.5938,529.5938 1025.4688,529.6094 1025.3125,529.7188 C1025.0625,529.875 1024.9063,530.1563 1024.9063,530.4531 C1024.9063,530.7031 1025.0469,530.9688 1025.2656,531.125 C1025.4219,531.25 1025.625,531.2969 1026.0313,531.2969 L1031.1719,531.2969 C1031.9219,531.2969 1032.2813,531.0156 1032.2813,530.4531 C1032.2813,530.1719 1032.1719,529.9219 1031.9375,529.75 C1031.7656,529.625 1031.625,529.5938 1031.1719,529.5938 L1029.4531,529.5938 L1029.4531,523.0781 Z " fill="#000000"/><text fill="#000000" font-family="sans-serif" font-size="14" font-style="italic" lengthAdjust="spacing" textLength="160" x="1042.5" y="531.1436">LeaderElectionService</text><line style="stroke:#181818;stroke-width:0.5;" x1="1014.5" x2="1204.5" y1="542.2969" y2="542.2969"/><text fill="#000000" font-family="sans-serif" font-size="14" lengthAdjust="spacing" textLength="79" x="1019.5" y="559.292">void start()</text><text fill="#000000" font-family="sans-serif" font-size="14" lengthAdjust="spacing" textLength="81" x="1019.5" y="575.5889">void close()</text></g><g id="elem_GMN9"><path d="M949,376.7969 L949,417.0625 A0,0 0 0 0 949,417.0625 L1175.21,417.0625 L1128.79,510.1179 L1183.21,417.0625 L1430,417.0625 A0,0 0 0 0 1430,417.0625 L1430,386.7969 L1420,376.7969 L949,376.7969 A0,0 0 0 0 949,376.7969 " fill="#FEFFDD" style="stroke:#181818;stroke-width:0.5;"/><path d="M1420,376.7969 L1420,386.7969 L1430,386.7969 L1420,376.7969 " fill="#FEFFDD" style="stroke:#181818;stroke-width:0.5;"/><text fill="#000000" font-family="sans-serif" font-size="13" font-weight="bold" lengthAdjust="spacing" textLength="166" x="955" y="393.8638">LeaderElectionService</text><text fill="#000000" font-family="sans-serif" font-size="13" lengthAdjust="spacing" textLength="290" x="1125" y="393.8638">is handling the LeaderElectionDriver lifecycle.</text><text fill="#000000" font-family="sans-serif" font-size="13" lengthAdjust="spacing" textLength="354" x="955" y="408.9966">It is created and owned by the HighAvailabilityServices.</text></g><!--class LeaderElectionRegistry--><g id="elem_LeaderElectionRegistry"><rect codeLine="37" fill="#F1F1F1" height="72.5938" id="LeaderElectionRegistry" rx="2.5" ry="2.5" style="stroke:#181818;stroke-width:0.5;" width="317" x="391" y="510.2969"/><ellipse cx="462.75" cy="526.2969" fill="#B4A7E5" rx="11" ry="11" style="stroke:#181818;stroke-width:1.0;"/><path d="M463.7031,523.0781 L465.4219,523.0781 C465.8125,523.0781 466,523.0469 466.125,522.9688 C466.3906,522.8125 466.5313,522.5313 466.5313,522.2344 C466.5313,521.9688 466.4219,521.7031 466.1875,521.5313 C466.0156,521.4219 465.875,521.3906 465.4219,521.3906 L460.2813,521.3906 C459.8438,521.3906 459.7188,521.4063 459.5625,521.5 C459.3125,521.6563 459.1563,521.9531 459.1563,522.2344 C459.1563,522.5156 459.2969,522.7656 459.5156,522.9375 C459.6719,523.0469 459.8594,523.0781 460.2813,523.0781 L462,523.0781 L462,529.5938 L460.2813,529.5938 C459.8438,529.5938 459.7188,529.6094 459.5625,529.7188 C459.3125,529.875 459.1563,530.1563 459.1563,530.4531 C459.1563,530.7031 459.2969,530.9688 459.5156,531.125 C459.6719,531.25 459.875,531.2969 460.2813,531.2969 L465.4219,531.2969 C466.1719,531.2969 466.5313,531.0156 466.5313,530.4531 C466.5313,530.1719 466.4219,529.9219 466.1875,529.75 C466.0156,529.625 465.875,529.5938 465.4219,529.5938 L463.7031,529.5938 L463.7031,523.0781 Z " fill="#000000"/><text fill="#000000" font-family="sans-serif" font-size="14" font-style="italic" lengthAdjust="spacing" textLength="165" x="483.25" y="531.1436">LeaderElectionRegistry</text><line style="stroke:#181818;stroke-width:0.5;" x1="392" x2="707" y1="542.2969" y2="542.2969"/><text fill="#000000" font-family="sans-serif" font-size="14" lengthAdjust="spacing" textLength="305" x="397" y="559.292">LeaderElection register(LeaderContender)</text><text fill="#000000" font-family="sans-serif" font-size="14" lengthAdjust="spacing" textLength="225" x="397" y="575.5889">void remove(LeaderContender)</text></g><!--class LeaderElection--><g id="elem_LeaderElection"><rect codeLine="43" fill="#F1F1F1" height="88.8906" id="LeaderElection" rx="2.5" ry="2.5" style="stroke:#181818;stroke-width:0.5;" width="415" x="7" y="210.2969"/><ellipse cx="156.75" cy="226.2969" fill="#B4A7E5" rx="11" ry="11" style="stroke:#181818;stroke-width:1.0;"/><path d="M157.7031,223.0781 L159.4219,223.0781 C159.8125,223.0781 160,223.0469 160.125,222.9688 C160.3906,222.8125 160.5313,222.5313 160.5313,222.2344 C160.5313,221.9688 160.4219,221.7031 160.1875,221.5313 C160.0156,221.4219 159.875,221.3906 159.4219,221.3906 L154.2813,221.3906 C153.8438,221.3906 153.7188,221.4063 153.5625,221.5 C153.3125,221.6563 153.1563,221.9531 153.1563,222.2344 C153.1563,222.5156 153.2969,222.7656 153.5156,222.9375 C153.6719,223.0469 153.8594,223.0781 154.2813,223.0781 L156,223.0781 L156,229.5938 L154.2813,229.5938 C153.8438,229.5938 153.7188,229.6094 153.5625,229.7188 C153.3125,229.875 153.1563,230.1563 153.1563,230.4531 C153.1563,230.7031 153.2969,230.9688 153.5156,231.125 C153.6719,231.25 153.875,231.2969 154.2813,231.2969 L159.4219,231.2969 C160.1719,231.2969 160.5313,231.0156 160.5313,230.4531 C160.5313,230.1719 160.4219,229.9219 160.1875,229.75 C160.0156,229.625 159.875,229.5938 159.4219,229.5938 L157.7031,229.5938 L157.7031,223.0781 Z " fill="#000000"/><text fill="#000000" font-family="sans-serif" font-size="14" font-style="italic" lengthAdjust="spacing" textLength="107" x="177.25" y="231.1436">LeaderElection</text><line style="stroke:#181818;stroke-width:0.5;" x1="8" x2="421" y1="242.2969" y2="242.2969"/><text fill="#000000" font-family="sans-serif" font-size="14" lengthAdjust="spacing" textLength="403" x="13" y="259.292">void confirmLeadership(leaderSessionID, leaderAddress)</text><text fill="#000000" font-family="sans-serif" font-size="14" lengthAdjust="spacing" textLength="287" x="13" y="275.5889">boolean hasLeadership(leaderSessionId)</text><text fill="#000000" font-family="sans-serif" font-size="14" lengthAdjust="spacing" textLength="81" x="13" y="291.8857">void close()</text></g><g id="elem_GMN14"><path d="M457,227.2969 L457,250.7969 L422.23,254.7969 L457,258.7969 L457,282.6953 A0,0 0 0 0 457,282.6953 L828,282.6953 A0,0 0 0 0 828,282.6953 L828,237.2969 L818,227.2969 L457,227.2969 A0,0 0 0 0 457,227.2969 " fill="#FEFFDD" style="stroke:#181818;stroke-width:0.5;"/><path d="M818,227.2969 L818,237.2969 L828,237.2969 L818,227.2969 " fill="#FEFFDD" style="stroke:#181818;stroke-width:0.5;"/><text fill="#000000" font-family="sans-serif" font-size="13" font-weight="bold" lengthAdjust="spacing" textLength="51" x="463" y="244.3638">close()</text><text fill="#000000" font-family="sans-serif" font-size="13" lengthAdjust="spacing" textLength="271" x="518" y="244.3638">is used to unregister the LeaderContender</text><text fill="#000000" font-family="sans-serif" font-size="13" lengthAdjust="spacing" textLength="350" x="463" y="259.4966">from the LeaderElectionRegistry. It is equivalent to the</text><text fill="#000000" font-family="sans-serif" font-size="13" lengthAdjust="spacing" textLength="42" x="463" y="274.6294">legacy</text><text fill="#000000" font-family="sans-serif" font-size="13" font-weight="bold" lengthAdjust="spacing" textLength="214" x="509" y="274.6294">DefaultLeaderService.stop()</text><text fill="#000000" font-family="sans-serif" font-size="13" lengthAdjust="spacing" textLength="54" x="727" y="274.6294">method.</text></g><!--class DefaultLeaderElection--><g id="elem_DefaultLeaderElection"><rect codeLine="55" fill="#F1F1F1" height="72.5938" id="DefaultLeaderElection" rx="2.5" ry="2.5" style="stroke:#181818;stroke-width:0.5;" width="245" x="427" y="360.2969"/><ellipse cx="465.4" cy="376.2969" fill="#ADD1B2" rx="11" ry="11" style="stroke:#181818;stroke-width:1.0;"/><path d="M467.7438,371.9688 C466.8063,371.5313 466.2125,371.3906 465.3375,371.3906 C462.7125,371.3906 460.7125,373.4688 460.7125,376.1875 L460.7125,377.3125 C460.7125,379.8906 462.8219,381.7813 465.7125,381.7813 C466.9313,381.7813 468.0875,381.4844 468.8375,380.9375 C469.4156,380.5313 469.7438,380.0781 469.7438,379.6875 C469.7438,379.2344 469.3531,378.8438 468.8844,378.8438 C468.6656,378.8438 468.4625,378.9219 468.275,379.1094 C467.8219,379.5938 467.8219,379.5938 467.6344,379.6875 C467.2125,379.9531 466.525,380.0781 465.7594,380.0781 C463.7125,380.0781 462.4156,378.9844 462.4156,377.2813 L462.4156,376.1875 C462.4156,374.4063 463.6656,373.0938 465.4,373.0938 C465.9781,373.0938 466.5875,373.25 467.0563,373.5 C467.5406,373.7813 467.7125,374 467.8063,374.4063 C467.8688,374.8125 467.9,374.9375 468.0406,375.0625 C468.1813,375.2031 468.4156,375.3125 468.6344,375.3125 C468.9,375.3125 469.1656,375.1719 469.3375,374.9531 C469.4469,374.7969 469.4781,374.6094 469.4781,374.1875 L469.4781,372.7656 C469.4781,372.3281 469.4625,372.2031 469.3688,372.0469 C469.2125,371.7813 468.9313,371.6406 468.6344,371.6406 C468.3375,371.6406 468.1344,371.7344 467.9156,372.0469 L467.7438,371.9688 Z " fill="#000000"/><text fill="#000000" font-family="sans-serif" font-size="14" lengthAdjust="spacing" textLength="161" x="484.6" y="381.1436">DefaultLeaderElection</text><line style="stroke:#181818;stroke-width:0.5;" x1="428" x2="671" y1="392.2969" y2="392.2969"/><text fill="#000000" font-family="sans-serif" font-size="14" lengthAdjust="spacing" textLength="210" x="433" y="409.292">contender: LeaderContender</text><text fill="#000000" font-family="sans-serif" font-size="14" lengthAdjust="spacing" textLength="233" x="433" y="425.5889">registry: LeaderElectionRegistry</text></g><!--class DefaultLeaderElectionService--><g id="elem_DefaultLeaderElectionService"><rect codeLine="73" fill="#F1F1F1" height="72.5938" id="DefaultLeaderElectionService" rx="2.5" ry="2.5" style="stroke:#181818;stroke-width:0.5;" width="371" x="644" y="644.2969"/><ellipse cx="718.25" cy="660.2969" fill="#ADD1B2" rx="11" ry="11" style="stroke:#181818;stroke-width:1.0;"/><path d="M720.5938,655.9688 C719.6563,655.5313 719.0625,655.3906 718.1875,655.3906 C715.5625,655.3906 713.5625,657.4688 713.5625,660.1875 L713.5625,661.3125 C713.5625,663.8906 715.6719,665.7813 718.5625,665.7813 C719.7813,665.7813 720.9375,665.4844 721.6875,664.9375 C722.2656,664.5313 722.5938,664.0781 722.5938,663.6875 C722.5938,663.2344 722.2031,662.8438 721.7344,662.8438 C721.5156,662.8438 721.3125,662.9219 721.125,663.1094 C720.6719,663.5938 720.6719,663.5938 720.4844,663.6875 C720.0625,663.9531 719.375,664.0781 718.6094,664.0781 C716.5625,664.0781 715.2656,662.9844 715.2656,661.2813 L715.2656,660.1875 C715.2656,658.4063 716.5156,657.0938 718.25,657.0938 C718.8281,657.0938 719.4375,657.25 719.9063,657.5 C720.3906,657.7813 720.5625,658 720.6563,658.4063 C720.7188,658.8125 720.75,658.9375 720.8906,659.0625 C721.0313,659.2031 721.2656,659.3125 721.4844,659.3125 C721.75,659.3125 722.0156,659.1719 722.1875,658.9531 C722.2969,658.7969 722.3281,658.6094 722.3281,658.1875 L722.3281,656.7656 C722.3281,656.3281 722.3125,656.2031 722.2188,656.0469 C722.0625,655.7813 721.7813,655.6406 721.4844,655.6406 C721.1875,655.6406 720.9844,655.7344 720.7656,656.0469 L720.5938,655.9688 Z " fill="#000000"/><text fill="#000000" font-family="sans-serif" font-size="14" lengthAdjust="spacing" textLength="214" x="738.75" y="665.1436">DefaultLeaderElectionService</text><line style="stroke:#181818;stroke-width:0.5;" x1="645" x2="1014" y1="676.2969" y2="676.2969"/><text fill="#000000" font-family="sans-serif" font-size="14" lengthAdjust="spacing" textLength="309" x="650" y="693.292">leaderElectionDriver: LeaderElectionDriver</text><text fill="#000000" font-family="sans-serif" font-size="14" lengthAdjust="spacing" textLength="359" x="650" y="709.5889">leaderContenders: Collection&lt;LeaderContender&gt;</text></g><!--class ZooKeeperLeaderElectionDriver--><g id="elem_ZooKeeperLeaderElectionDriver"><rect codeLine="67" fill="#F1F1F1" height="32" id="ZooKeeperLeaderElectionDriver" rx="2.5" ry="2.5" style="stroke:#181818;stroke-width:0.5;" width="265" x="854" y="944.2969"/><ellipse cx="869" cy="960.2969" fill="#ADD1B2" rx="11" ry="11" style="stroke:#181818;stroke-width:1.0;"/><path d="M871.3438,955.9688 C870.4063,955.5313 869.8125,955.3906 868.9375,955.3906 C866.3125,955.3906 864.3125,957.4688 864.3125,960.1875 L864.3125,961.3125 C864.3125,963.8906 866.4219,965.7813 869.3125,965.7813 C870.5313,965.7813 871.6875,965.4844 872.4375,964.9375 C873.0156,964.5313 873.3438,964.0781 873.3438,963.6875 C873.3438,963.2344 872.9531,962.8438 872.4844,962.8438 C872.2656,962.8438 872.0625,962.9219 871.875,963.1094 C871.4219,963.5938 871.4219,963.5938 871.2344,963.6875 C870.8125,963.9531 870.125,964.0781 869.3594,964.0781 C867.3125,964.0781 866.0156,962.9844 866.0156,961.2813 L866.0156,960.1875 C866.0156,958.4063 867.2656,957.0938 869,957.0938 C869.5781,957.0938 870.1875,957.25 870.6563,957.5 C871.1406,957.7813 871.3125,958 871.4063,958.4063 C871.4688,958.8125 871.5,958.9375 871.6406,959.0625 C871.7813,959.2031 872.0156,959.3125 872.2344,959.3125 C872.5,959.3125 872.7656,959.1719 872.9375,958.9531 C873.0469,958.7969 873.0781,958.6094 873.0781,958.1875 L873.0781,956.7656 C873.0781,956.3281 873.0625,956.2031 872.9688,956.0469 C872.8125,955.7813 872.5313,955.6406 872.2344,955.6406 C871.9375,955.6406 871.7344,955.7344 871.5156,956.0469 L871.3438,955.9688 Z " fill="#000000"/><text fill="#000000" font-family="sans-serif" font-size="14" lengthAdjust="spacing" textLength="233" x="883" y="965.1436">ZooKeeperLeaderElectionDriver</text></g><!--class KubernetesLeaderElectionDriver--><g id="elem_KubernetesLeaderElectionDriver"><rect codeLine="70" fill="#F1F1F1" height="32" id="KubernetesLeaderElectionDriver" rx="2.5" ry="2.5" style="stroke:#181818;stroke-width:0.5;" width="268" x="1154.5" y="944.2969"/><ellipse cx="1169.5" cy="960.2969" fill="#ADD1B2" rx="11" ry="11" style="stroke:#181818;stroke-width:1.0;"/><path d="M1171.8438,955.9688 C1170.9063,955.5313 1170.3125,955.3906 1169.4375,955.3906 C1166.8125,955.3906 1164.8125,957.4688 1164.8125,960.1875 L1164.8125,961.3125 C1164.8125,963.8906 1166.9219,965.7813 1169.8125,965.7813 C1171.0313,965.7813 1172.1875,965.4844 1172.9375,964.9375 C1173.5156,964.5313 1173.8438,964.0781 1173.8438,963.6875 C1173.8438,963.2344 1173.4531,962.8438 1172.9844,962.8438 C1172.7656,962.8438 1172.5625,962.9219 1172.375,963.1094 C1171.9219,963.5938 1171.9219,963.5938 1171.7344,963.6875 C1171.3125,963.9531 1170.625,964.0781 1169.8594,964.0781 C1167.8125,964.0781 1166.5156,962.9844 1166.5156,961.2813 L1166.5156,960.1875 C1166.5156,958.4063 1167.7656,957.0938 1169.5,957.0938 C1170.0781,957.0938 1170.6875,957.25 1171.1563,957.5 C1171.6406,957.7813 1171.8125,958 1171.9063,958.4063 C1171.9688,958.8125 1172,958.9375 1172.1406,959.0625 C1172.2813,959.2031 1172.5156,959.3125 1172.7344,959.3125 C1173,959.3125 1173.2656,959.1719 1173.4375,958.9531 C1173.5469,958.7969 1173.5781,958.6094 1173.5781,958.1875 L1173.5781,956.7656 C1173.5781,956.3281 1173.5625,956.2031 1173.4688,956.0469 C1173.3125,955.7813 1173.0313,955.6406 1172.7344,955.6406 C1172.4375,955.6406 1172.2344,955.7344 1172.0156,956.0469 L1171.8438,955.9688 Z " fill="#000000"/><text fill="#000000" font-family="sans-serif" font-size="14" lengthAdjust="spacing" textLength="236" x="1183.5" y="965.1436">KubernetesLeaderElectionDriver</text></g><!--reverse link LeaderElection to DefaultLeaderElection--><g id="link_LeaderElection_DefaultLeaderElection"><path d="M337.132,307.0459 C379.437,324.7259 425.864,344.1279 464.492,360.2709 " fill="none" id="LeaderElection-backto-DefaultLeaderElection" style="stroke:#181818;stroke-width:1.0;stroke-dasharray:7.0,7.0;"/><polygon fill="none" points="334.414,313.4969,318.66,299.3259,339.812,300.5799,334.414,313.4969" style="stroke:#181818;stroke-width:1.0;"/></g><!--reverse link LeaderElectionDriver to ZooKeeperLeaderElectionDriver--><g id="link_LeaderElectionDriver_ZooKeeperLeaderElectionDriver"><path d="M1092.94,894.0659 C1063.15,912.3249 1032.23,931.2739 1011.44,944.0119 " fill="none" id="LeaderElectionDriver-backto-ZooKeeperLeaderElectionDriver" style="stroke:#181818;stroke-width:1.0;stroke-dasharray:7.0,7.0;"/><polygon fill="none" points="1089.56,887.9279,1110.27,883.4459,1096.88,899.8649,1089.56,887.9279" style="stroke:#181818;stroke-width:1.0;"/></g><!--reverse link LeaderElectionDriver to KubernetesLeaderElectionDriver--><g id="link_LeaderElectionDriver_KubernetesLeaderElectionDriver"><path d="M1234.13,898.5769 C1249.21,915.4189 1264.38,932.3649 1274.85,944.0579 " fill="none" id="LeaderElectionDriver-backto-KubernetesLeaderElectionDriver" style="stroke:#181818;stroke-width:1.0;stroke-dasharray:7.0,7.0;"/><polygon fill="none" points="1228.86,903.1849,1220.74,883.6159,1239.29,893.8459,1228.86,903.1849" style="stroke:#181818;stroke-width:1.0;"/></g><!--reverse link LeaderElectionRegistry to DefaultLeaderElectionService--><g id="link_LeaderElectionRegistry_DefaultLeaderElectionService"><path d="M643.256,591.9959 C679.267,608.9729 719.876,628.1169 753.962,644.1859 " fill="none" id="LeaderElectionRegistry-backto-DefaultLeaderElectionService" style="stroke:#181818;stroke-width:1.0;stroke-dasharray:7.0,7.0;"/><polygon fill="none" points="640.009,598.2039,624.903,583.3439,645.979,585.5409,640.009,598.2039" style="stroke:#181818;stroke-width:1.0;"/></g><!--reverse link LeaderElectionService to DefaultLeaderElectionService--><g id="link_LeaderElectionService_DefaultLeaderElectionService"><path d="M1015.74,591.9959 C979.733,608.9729 939.124,628.1169 905.038,644.1859 " fill="none" id="LeaderElectionService-backto-DefaultLeaderElectionService" style="stroke:#181818;stroke-width:1.0;stroke-dasharray:7.0,7.0;"/><polygon fill="none" points="1013.02,585.5409,1034.1,583.3439,1018.99,598.2039,1013.02,585.5409" style="stroke:#181818;stroke-width:1.0;"/></g><!--reverse link LeaderElectionEventHandler to DefaultLeaderElectionService--><g id="link_LeaderElectionEventHandler_DefaultLeaderElectionService"><path d="M931.516,1046.5101 C894.44,1030.9629 860.25,1008.5499 836.5,976.2969 C779.792,899.2859 802.196,777.6429 818.392,717.6639 " fill="none" id="LeaderElectionEventHandler-backto-DefaultLeaderElectionService" style="stroke:#181818;stroke-width:1.0;stroke-dasharray:7.0,7.0;"/><polygon fill="none" points="934.067,1039.9914,950.216,1053.7101,929.037,1053.0565,934.067,1039.9914" style="stroke:#181818;stroke-width:1.0;"/></g><!--link DefaultLeaderElectionService to DefaultLeaderElection--><g id="link_DefaultLeaderElectionService_DefaultLeaderElection"><path codeLine="75" d="M813.58,644.1639 C795.922,607.4829 764.683,550.2079 725.5,510.2969 C696.566,480.8259 658.544,455.3109 625.246,436.0659 " fill="none" id="DefaultLeaderElectionService-to-DefaultLeaderElection" style="stroke:#181818;stroke-width:1.0;"/><polygon fill="#181818" points="620.791,433.5119,626.6097,441.4581,625.1288,435.9986,630.5884,434.5177,620.791,433.5119" style="stroke:#181818;stroke-width:1.0;"/><text fill="#000000" font-family="sans-serif" font-size="13" lengthAdjust="spacing" textLength="48" x="781.5" y="551.3638">creates</text></g><!--link LeaderContender to LeaderElection--><g id="link_LeaderContender_LeaderElection"><path codeLine="76" d="M571.537,133.3149 C502.745,156.5289 418.183,185.0639 348.625,208.5369 " fill="none" id="LeaderContender-to-LeaderElection" style="stroke:#181818;stroke-width:1.0;"/><polygon fill="#181818" points="343.644,210.2179,353.4505,211.1302,348.3815,208.6192,350.8926,203.5502,343.644,210.2179" style="stroke:#181818;stroke-width:1.0;"/><text fill="#000000" font-family="sans-serif" font-size="13" lengthAdjust="spacing" textLength="30" x="473.5" y="176.3638">uses</text></g><!--link DefaultLeaderElection to LeaderElectionRegistry--><g id="link_DefaultLeaderElection_LeaderElectionRegistry"><path codeLine="77" d="M549.5,433.6239 C549.5,455.0869 549.5,482.4499 549.5,504.7769 " fill="none" id="DefaultLeaderElection-to-LeaderElectionRegistry" style="stroke:#181818;stroke-width:1.0;"/><polygon fill="#181818" points="549.5,510.0439,553.5,501.0439,549.5,505.0439,545.5,501.0439,549.5,510.0439" style="stroke:#181818;stroke-width:1.0;"/><text fill="#000000" font-family="sans-serif" font-size="13" lengthAdjust="spacing" textLength="72" x="550.5" y="476.3638">unregisters</text></g><!--link LeaderElectionDriver to LeaderElectionEventHandler--><g id="link_LeaderElectionDriver_LeaderElectionEventHandler"><path codeLine="79" d="M1362.17,875.2259 C1425.79,896.4289 1474.06,928.7499 1440.5,976.2969 C1417.7,1008.5919 1384.02,1030.9667 1347.5,1046.4524 " fill="none" id="LeaderElectionDriver-to-LeaderElectionEventHandler" style="stroke:#181818;stroke-width:1.0;"/><polygon fill="#181818" points="1342.56,1048.4969,1352.4057,1048.7467,1347.1791,1046.5827,1349.3431,1041.3561,1342.56,1048.4969" style="stroke:#181818;stroke-width:1.0;"/><text fill="#000000" font-family="sans-serif" font-size="13" lengthAdjust="spacing" textLength="30" x="1451.5" y="964.8638">uses</text></g><!--link DefaultLeaderElectionService to LeaderElectionDriver--><g id="link_DefaultLeaderElectionService_LeaderElectionDriver"><path codeLine="80" d="M909.815,717.3909 C959.844,739.5629 1024.69,768.3029 1078.49,792.1429 " fill="none" id="DefaultLeaderElectionService-to-LeaderElectionDriver" style="stroke:#181818;stroke-width:1.0;"/><polygon fill="#181818" points="1083.33,794.2879,1076.7069,786.9985,1078.7545,792.2718,1073.4812,794.3193,1083.33,794.2879" style="stroke:#181818;stroke-width:1.0;"/><text fill="#000000" font-family="sans-serif" font-size="13" lengthAdjust="spacing" textLength="30" x="1006.5" y="760.3638">uses</text></g><!--link DefaultLeaderElectionService to LeaderContender--><g id="link_DefaultLeaderElectionService_LeaderContender"><path codeLine="81" d="M851.854,644.2909 C865.948,618.5249 881.5,582.2799 881.5,547.7969 C881.5,253.7969 881.5,253.7969 881.5,253.7969 C881.5,202.7569 841.486,163.4569 799.086,136.1419 " fill="none" id="DefaultLeaderElectionService-to-LeaderContender" style="stroke:#181818;stroke-width:1.0;"/><polygon fill="#181818" points="794.711,133.3699,800.1737,141.5649,798.9349,136.0454,804.4545,134.8066,794.711,133.3699" style="stroke:#181818;stroke-width:1.0;"/><text fill="#000000" font-family="sans-serif" font-size="13" lengthAdjust="spacing" textLength="30" x="882.5" y="401.3638">uses</text></g><!--SRC=[dLRBRjim4BphAtYhZSOsOY0z286184uQ8q5H940FHI-qjBA8KAHAhcKOHV-zIrbozA2KjZavv3vcPcTfVqWHSnik5hda2lUPd4SwMqIIMpkB1TyPdWK12fJ0lXgTQminCv3m2BKHQiScty1OeHLRJfbE6AR0ihr4CQCokLQWa3q1Zy6mEmaHkaXCER83jqmeD3hUHrHIA7QJyuYoxwLGh-noVddraKtkdpPV7cVBJrVBvJG8A1uCjOQgvAsc0-Lg_meO_HLQn8mGAppTsrJa4rb-V07hK6xMqxT80uL-XKRewUu5Is8xm3NOo8ZSWQQxtq4gudxhH82CRQ0q0ZDYbsB8hhUhJjIyM-rwiLtzK4nOjdUAeYOqD06YvXGyQxU9-wnh7TT656tg1oEmuhDHYJOPBvlrJauyjrgJDegbtFOqACj5agRT9TxfNh4V17bN48i7hcBPXghLvywS51oUMgEAfytmP_-mgjiUnTkKgnrKmszHzx9fmNoFqmkOGj1fWuv5Rl2ljQiBDAs3EdVxumqiovvDrRbqJd8-IXrwPrnd8E-if4WWEaOIvcN13Rgqo017SY1bCtrGz6bxB4iya9Tl2Yuatmefy5Yri_E07CqSvc65dc4dB9fZ9L7xafpkRi5CEalIMirC5z0FyCfvxlRUu9eJYxHAXCc67ueBTZguYMD3PsCx8mTzEsg3rlmb9DWtG3tvgauzw_hDsAjQoyRKptALoOdHcSSIjMRpoWRmSoyABjrpJNKflaoMiEFHqG5OqvDFptgzeQKLvfPCMu7A05CTDxrHVeMmLjwPkCXo2Hari_u9HJM5qCl9LE330LArtFxc9wXs565xnQLdcqBlZZN2pv1jo6wrhCAkEtnMerXh61t8txL-1CZ1UDTyKDmAOjbkl4G6sPQ0r_qUz_IV0WJx_mtVgT7fEAh6OBzw_XV-P_HYvD4FWj6Mizbgm4rXzOBQeFl3mENqWcbphR-L9_xyi8MDJIUDl0hE-lcjRxMntasQtkB_blocmIdl3m00]--></g></svg>