<?xml version="1.0" encoding="UTF-8" standalone="no"?><svg xmlns="http://www.w3.org/2000/svg" xmlns:xlink="http://www.w3.org/1999/xlink" contentStyleType="text/css" height="999px" preserveAspectRatio="none" style="width:1784px;height:999px;background:#FFFFFF;" version="1.1" viewBox="0 0 1784 999" width="1784px" zoomAndPan="magnify"><defs/><g><text fill="#000000" font-family="sans-serif" font-size="14" font-weight="bold" lengthAdjust="spacing" textLength="486" x="645" y="27.9951">FLIP-285 Leader Election initialization for ResourceManager</text><rect fill="#FFFFFF" height="780.7891" style="stroke:#181818;stroke-width:1.0;" width="10" x="20" y="128.5938"/><rect fill="#FFFFFF" height="759.6563" style="stroke:#181818;stroke-width:1.0;" width="10" x="331" y="149.7266"/><rect fill="#FFFFFF" height="730.5234" style="stroke:#181818;stroke-width:1.0;" width="10" x="641" y="178.8594"/><rect fill="#FFFFFF" height="701.3906" style="stroke:#181818;stroke-width:1.0;" width="10" x="1110" y="207.9922"/><rect fill="#FFFFFF" height="529.8594" style="stroke:#181818;stroke-width:1.0;" width="10" x="1264" y="379.5234"/><rect fill="#FFFFFF" height="458.7266" style="stroke:#181818;stroke-width:1.0;" width="10" x="1558" y="450.6563"/><rect fill="none" height="220.0625" style="stroke:#000000;stroke-width:1.5;" width="1218.5" x="548.5" y="653.3203"/><line style="stroke:#181818;stroke-width:0.5;stroke-dasharray:5.0,5.0;" x1="25" x2="25" y1="118.5938" y2="918.3828"/><line style="stroke:#181818;stroke-width:0.5;stroke-dasharray:5.0,5.0;" x1="335.5" x2="335.5" y1="118.5938" y2="918.3828"/><line style="stroke:#181818;stroke-width:0.5;stroke-dasharray:5.0,5.0;" x1="645.5" x2="645.5" y1="118.5938" y2="918.3828"/><line style="stroke:#181818;stroke-width:0.5;stroke-dasharray:5.0,5.0;" x1="1115" x2="1115" y1="118.5938" y2="918.3828"/><line style="stroke:#181818;stroke-width:0.5;stroke-dasharray:5.0,5.0;" x1="1269" x2="1269" y1="118.5938" y2="918.3828"/><line style="stroke:#181818;stroke-width:0.5;stroke-dasharray:5.0,5.0;" x1="1563" x2="1563" y1="118.5938" y2="918.3828"/><text fill="#000000" font-family="sans-serif" font-size="14" lengthAdjust="spacing" textLength="34" x="5" y="115.292">Flink</text><ellipse cx="25" cy="50.7969" fill="#E2E2F0" rx="8" ry="8" style="stroke:#181818;stroke-width:0.5;"/><path d="M25,58.7969 L25,85.7969 M12,66.7969 L38,66.7969 M25,85.7969 L12,100.7969 M25,85.7969 L38,100.7969 " fill="none" style="stroke:#181818;stroke-width:0.5;"/><text fill="#000000" font-family="sans-serif" font-size="14" lengthAdjust="spacing" textLength="34" x="5" y="930.3779">Flink</text><ellipse cx="25" cy="942.1797" fill="#E2E2F0" rx="8" ry="8" style="stroke:#181818;stroke-width:0.5;"/><path d="M25,950.1797 L25,977.1797 M12,958.1797 L38,958.1797 M25,977.1797 L12,992.1797 M25,977.1797 L38,992.1797 " fill="none" style="stroke:#181818;stroke-width:0.5;"/><rect fill="#E2E2F0" height="30.2969" rx="2.5" ry="2.5" style="stroke:#181818;stroke-width:0.5;" width="185" x="243.5" y="87.2969"/><text fill="#000000" font-family="sans-serif" font-size="14" lengthAdjust="spacing" textLength="171" x="250.5" y="107.292">HighAvailabilityServices</text><rect fill="#E2E2F0" height="30.2969" rx="2.5" ry="2.5" style="stroke:#181818;stroke-width:0.5;" width="185" x="243.5" y="917.3828"/><text fill="#000000" font-family="sans-serif" font-size="14" lengthAdjust="spacing" textLength="171" x="250.5" y="937.3779">HighAvailabilityServices</text><rect fill="#E2E2F0" height="30.2969" rx="2.5" ry="2.5" style="stroke:#181818;stroke-width:0.5;" width="175" x="558.5" y="87.2969"/><text fill="#000000" font-family="sans-serif" font-size="14" lengthAdjust="spacing" textLength="161" x="565.5" y="107.292">LeaderElectionService</text><rect fill="#E2E2F0" height="30.2969" rx="2.5" ry="2.5" style="stroke:#181818;stroke-width:0.5;" width="175" x="558.5" y="917.3828"/><text fill="#000000" font-family="sans-serif" font-size="14" lengthAdjust="spacing" textLength="161" x="565.5" y="937.3779">LeaderElectionService</text><rect fill="#E2E2F0" height="30.2969" rx="2.5" ry="2.5" style="stroke:#181818;stroke-width:0.5;" width="166" x="1032" y="87.2969"/><text fill="#000000" font-family="sans-serif" font-size="14" lengthAdjust="spacing" textLength="152" x="1039" y="107.292">LeaderElectionDriver</text><rect fill="#E2E2F0" height="30.2969" rx="2.5" ry="2.5" style="stroke:#181818;stroke-width:0.5;" width="166" x="1032" y="917.3828"/><text fill="#000000" font-family="sans-serif" font-size="14" lengthAdjust="spacing" textLength="152" x="1039" y="937.3779">LeaderElectionDriver</text><rect fill="#E2E2F0" height="30.2969" rx="2.5" ry="2.5" style="stroke:#181818;stroke-width:0.5;" width="122" x="1208" y="87.2969"/><text fill="#000000" font-family="sans-serif" font-size="14" lengthAdjust="spacing" textLength="108" x="1215" y="107.292">LeaderElection</text><rect fill="#E2E2F0" height="30.2969" rx="2.5" ry="2.5" style="stroke:#181818;stroke-width:0.5;" width="122" x="1208" y="917.3828"/><text fill="#000000" font-family="sans-serif" font-size="14" lengthAdjust="spacing" textLength="108" x="1215" y="937.3779">LeaderElection</text><rect fill="#E2E2F0" height="30.2969" rx="2.5" ry="2.5" style="stroke:#181818;stroke-width:0.5;" width="140" x="1493" y="87.2969"/><text fill="#000000" font-family="sans-serif" font-size="14" lengthAdjust="spacing" textLength="126" x="1500" y="107.292">LeaderContender</text><rect fill="#E2E2F0" height="30.2969" rx="2.5" ry="2.5" style="stroke:#181818;stroke-width:0.5;" width="140" x="1493" y="917.3828"/><text fill="#000000" font-family="sans-serif" font-size="14" lengthAdjust="spacing" textLength="126" x="1500" y="937.3779">LeaderContender</text><rect fill="#FFFFFF" height="780.7891" style="stroke:#181818;stroke-width:1.0;" width="10" x="20" y="128.5938"/><rect fill="#FFFFFF" height="759.6563" style="stroke:#181818;stroke-width:1.0;" width="10" x="331" y="149.7266"/><rect fill="#FFFFFF" height="730.5234" style="stroke:#181818;stroke-width:1.0;" width="10" x="641" y="178.8594"/><rect fill="#FFFFFF" height="701.3906" style="stroke:#181818;stroke-width:1.0;" width="10" x="1110" y="207.9922"/><rect fill="#FFFFFF" height="529.8594" style="stroke:#181818;stroke-width:1.0;" width="10" x="1264" y="379.5234"/><rect fill="#FFFFFF" height="458.7266" style="stroke:#181818;stroke-width:1.0;" width="10" x="1558" y="450.6563"/><polygon fill="#181818" points="319,145.7266,329,149.7266,319,153.7266,323,149.7266" style="stroke:#181818;stroke-width:1.0;"/><line style="stroke:#181818;stroke-width:1.0;" x1="30" x2="325" y1="149.7266" y2="149.7266"/><text fill="#000000" font-family="sans-serif" font-size="13" lengthAdjust="spacing" textLength="27" x="37" y="144.6606">new</text><polygon fill="#181818" points="629,174.8594,639,178.8594,629,182.8594,633,178.8594" style="stroke:#181818;stroke-width:1.0;"/><line style="stroke:#181818;stroke-width:1.0;" x1="341" x2="635" y1="178.8594" y2="178.8594"/><text fill="#000000" font-family="sans-serif" font-size="13" lengthAdjust="spacing" textLength="27" x="348" y="173.7935">new</text><polygon fill="#181818" points="1098,203.9922,1108,207.9922,1098,211.9922,1102,207.9922" style="stroke:#181818;stroke-width:1.0;"/><line style="stroke:#181818;stroke-width:1.0;" x1="651" x2="1104" y1="207.9922" y2="207.9922"/><text fill="#000000" font-family="sans-serif" font-size="13" lengthAdjust="spacing" textLength="27" x="658" y="202.9263">new</text><polygon fill="#181818" points="662,217.9922,652,221.9922,662,225.9922,658,221.9922" style="stroke:#181818;stroke-width:1.0;"/><line style="stroke:#181818;stroke-width:1.0;stroke-dasharray:2.0,2.0;" x1="656" x2="1109" y1="221.9922" y2="221.9922"/><polygon fill="#181818" points="352,231.9922,342,235.9922,352,239.9922,348,235.9922" style="stroke:#181818;stroke-width:1.0;"/><line style="stroke:#181818;stroke-width:1.0;stroke-dasharray:2.0,2.0;" x1="346" x2="640" y1="235.9922" y2="235.9922"/><polygon fill="#181818" points="41,245.9922,31,249.9922,41,253.9922,37,249.9922" style="stroke:#181818;stroke-width:1.0;"/><line style="stroke:#181818;stroke-width:1.0;stroke-dasharray:2.0,2.0;" x1="35" x2="330" y1="249.9922" y2="249.9922"/><line style="stroke:#181818;stroke-width:1.0;" x1="30" x2="72" y1="279.125" y2="279.125"/><line style="stroke:#181818;stroke-width:1.0;" x1="72" x2="72" y1="279.125" y2="292.125"/><line style="stroke:#181818;stroke-width:1.0;" x1="31" x2="72" y1="292.125" y2="292.125"/><polygon fill="#181818" points="41,288.125,31,292.125,41,296.125,37,292.125" style="stroke:#181818;stroke-width:1.0;"/><text fill="#000000" font-family="sans-serif" font-size="13" lengthAdjust="spacing" textLength="135" x="37" y="274.0591">Initialize components</text><polygon fill="#181818" points="319,317.2578,329,321.2578,319,325.2578,323,321.2578" style="stroke:#181818;stroke-width:1.0;"/><line style="stroke:#181818;stroke-width:1.0;" x1="30" x2="325" y1="321.2578" y2="321.2578"/><text fill="#000000" font-family="sans-serif" font-size="13" lengthAdjust="spacing" textLength="277" x="37" y="316.1919">getResourceManagerLeaderElectionService</text><polygon fill="#181818" points="629,346.3906,639,350.3906,629,354.3906,633,350.3906" style="stroke:#181818;stroke-width:1.0;"/><line style="stroke:#181818;stroke-width:1.0;" x1="341" x2="635" y1="350.3906" y2="350.3906"/><text fill="#000000" font-family="sans-serif" font-size="13" lengthAdjust="spacing" textLength="276" x="348" y="345.3247">createLeaderElection("resource_manager")</text><polygon fill="#181818" points="1252,375.5234,1262,379.5234,1252,383.5234,1256,379.5234" style="stroke:#181818;stroke-width:1.0;"/><line style="stroke:#181818;stroke-width:1.0;" x1="651" x2="1258" y1="379.5234" y2="379.5234"/><text fill="#000000" font-family="sans-serif" font-size="13" lengthAdjust="spacing" textLength="27" x="658" y="374.4575">new</text><polygon fill="#181818" points="662,389.5234,652,393.5234,662,397.5234,658,393.5234" style="stroke:#181818;stroke-width:1.0;"/><line style="stroke:#181818;stroke-width:1.0;stroke-dasharray:2.0,2.0;" x1="656" x2="1263" y1="393.5234" y2="393.5234"/><polygon fill="#181818" points="352,403.5234,342,407.5234,352,411.5234,348,407.5234" style="stroke:#181818;stroke-width:1.0;"/><line style="stroke:#181818;stroke-width:1.0;stroke-dasharray:2.0,2.0;" x1="346" x2="640" y1="407.5234" y2="407.5234"/><polygon fill="#181818" points="41,417.5234,31,421.5234,41,425.5234,37,421.5234" style="stroke:#181818;stroke-width:1.0;"/><line style="stroke:#181818;stroke-width:1.0;stroke-dasharray:2.0,2.0;" x1="35" x2="330" y1="421.5234" y2="421.5234"/><polygon fill="#181818" points="1546,446.6563,1556,450.6563,1546,454.6563,1550,450.6563" style="stroke:#181818;stroke-width:1.0;"/><line style="stroke:#181818;stroke-width:1.0;" x1="30" x2="1552" y1="450.6563" y2="450.6563"/><text fill="#000000" font-family="sans-serif" font-size="13" lengthAdjust="spacing" textLength="214" x="37" y="445.5903">new with LeaderElection instance</text><polygon fill="#181818" points="1285,475.7891,1275,479.7891,1285,483.7891,1281,479.7891" style="stroke:#181818;stroke-width:1.0;"/><line style="stroke:#181818;stroke-width:1.0;" x1="1279" x2="1557" y1="479.7891" y2="479.7891"/><text fill="#000000" font-family="sans-serif" font-size="13" lengthAdjust="spacing" textLength="170" x="1291" y="474.7231">register(LeaderContender)</text><polygon fill="#181818" points="1546,489.7891,1556,493.7891,1546,497.7891,1550,493.7891" style="stroke:#181818;stroke-width:1.0;"/><line style="stroke:#181818;stroke-width:1.0;stroke-dasharray:2.0,2.0;" x1="1274" x2="1552" y1="493.7891" y2="493.7891"/><polygon fill="#181818" points="41,503.7891,31,507.7891,41,511.7891,37,507.7891" style="stroke:#181818;stroke-width:1.0;"/><line style="stroke:#181818;stroke-width:1.0;stroke-dasharray:2.0,2.0;" x1="35" x2="1557" y1="507.7891" y2="507.7891"/><rect fill="#EEEEEE" height="3" style="stroke:#EEEEEE;stroke-width:1.0;" width="1777" x="0" y="536.3555"/><line style="stroke:#000000;stroke-width:1.0;" x1="0" x2="1777" y1="536.3555" y2="536.3555"/><line style="stroke:#000000;stroke-width:1.0;" x1="0" x2="1777" y1="539.3555" y2="539.3555"/><rect fill="#EEEEEE" height="23.1328" style="stroke:#000000;stroke-width:2.0;" width="161" x="808" y="525.7891"/><text fill="#000000" font-family="sans-serif" font-size="13" font-weight="bold" lengthAdjust="spacing" textLength="142" x="814" y="541.856">Instantiation done</text><polygon fill="#181818" points="1546,576.0547,1556,580.0547,1546,584.0547,1550,580.0547" style="stroke:#181818;stroke-width:1.0;"/><line style="stroke:#181818;stroke-width:1.0;" x1="30" x2="1552" y1="580.0547" y2="580.0547"/><text fill="#000000" font-family="sans-serif" font-size="13" lengthAdjust="spacing" textLength="40" x="37" y="574.9888">start()</text><polygon fill="#181818" points="1285,605.1875,1275,609.1875,1285,613.1875,1281,609.1875" style="stroke:#181818;stroke-width:1.0;"/><line style="stroke:#181818;stroke-width:1.0;" x1="1279" x2="1557" y1="609.1875" y2="609.1875"/><text fill="#000000" font-family="sans-serif" font-size="13" lengthAdjust="spacing" textLength="232" x="1291" y="604.1216">LeaderElection.startLeaderElection()</text><polygon fill="#181818" points="662,634.3203,652,638.3203,662,642.3203,658,638.3203" style="stroke:#181818;stroke-width:1.0;"/><line style="stroke:#181818;stroke-width:1.0;" x1="656" x2="1263" y1="638.3203" y2="638.3203"/><text fill="#000000" font-family="sans-serif" font-size="13" lengthAdjust="spacing" textLength="430" x="668" y="633.2544">registerContender("resource_manager", resourceManagerInstance)</text><path d="M548.5,653.3203 L614.5,653.3203 L614.5,660.4531 L604.5,670.4531 L548.5,670.4531 L548.5,653.3203 " fill="#EEEEEE" style="stroke:#000000;stroke-width:1.5;"/><rect fill="none" height="220.0625" style="stroke:#000000;stroke-width:1.5;" width="1218.5" x="548.5" y="653.3203"/><text fill="#000000" font-family="sans-serif" font-size="13" font-weight="bold" lengthAdjust="spacing" textLength="21" x="563.5" y="666.3872">alt</text><text fill="#000000" font-family="sans-serif" font-size="11" font-weight="bold" lengthAdjust="spacing" textLength="404" x="629.5" y="665.5308">[if LeaderElectionService has leadership during registration]</text><polygon fill="#181818" points="1546,687.5859,1556,691.5859,1546,695.5859,1550,691.5859" style="stroke:#181818;stroke-width:1.0;"/><line style="stroke:#181818;stroke-width:1.0;" x1="651" x2="1552" y1="691.5859" y2="691.5859"/><text fill="#000000" font-family="sans-serif" font-size="13" lengthAdjust="spacing" textLength="145" x="658" y="686.52">grantLeadership(UUID)</text><line style="stroke:#181818;stroke-width:1.0;" x1="1568" x2="1610" y1="750.9844" y2="750.9844"/><line style="stroke:#181818;stroke-width:1.0;" x1="1610" x2="1610" y1="750.9844" y2="763.9844"/><line style="stroke:#181818;stroke-width:1.0;" x1="1569" x2="1610" y1="763.9844" y2="763.9844"/><polygon fill="#181818" points="1579,759.9844,1569,763.9844,1579,767.9844,1575,763.9844" style="stroke:#181818;stroke-width:1.0;"/><text fill="#000000" font-family="sans-serif" font-size="13" lengthAdjust="spacing" textLength="180" x="1575" y="715.6528">do things like reinstantiating</text><text fill="#000000" font-family="sans-serif" font-size="13" lengthAdjust="spacing" textLength="178" x="1575" y="730.7856">an RPC endpoint pointing to</text><text fill="#000000" font-family="sans-serif" font-size="13" lengthAdjust="spacing" textLength="112" x="1575" y="745.9185">&lt;leaderAddress&gt;</text><polygon fill="#181818" points="1285,789.1172,1275,793.1172,1285,797.1172,1281,793.1172" style="stroke:#181818;stroke-width:1.0;"/><line style="stroke:#181818;stroke-width:1.0;" x1="1279" x2="1557" y1="793.1172" y2="793.1172"/><text fill="#000000" font-family="sans-serif" font-size="13" lengthAdjust="spacing" textLength="260" x="1291" y="788.0513">confirmLeadership(UUID, leaderAddress)</text><polygon fill="#181818" points="662,818.25,652,822.25,662,826.25,658,822.25" style="stroke:#181818;stroke-width:1.0;"/><line style="stroke:#181818;stroke-width:1.0;" x1="656" x2="1263" y1="822.25" y2="822.25"/><text fill="#000000" font-family="sans-serif" font-size="13" lengthAdjust="spacing" textLength="399" x="668" y="817.1841">confirmLeadership("resource_manager", UUID, leaderAddress)</text><polygon fill="#181818" points="1098,847.3828,1108,851.3828,1098,855.3828,1102,851.3828" style="stroke:#181818;stroke-width:1.0;"/><line style="stroke:#181818;stroke-width:1.0;" x1="651" x2="1104" y1="851.3828" y2="851.3828"/><text fill="#000000" font-family="sans-serif" font-size="13" lengthAdjust="spacing" textLength="435" x="658" y="846.3169">writeLeaderInformation(""resource_manager", UUID, leaderAddress)</text><polygon fill="#181818" points="662,861.3828,652,865.3828,662,869.3828,658,865.3828" style="stroke:#181818;stroke-width:1.0;"/><line style="stroke:#181818;stroke-width:1.0;stroke-dasharray:2.0,2.0;" x1="656" x2="1109" y1="865.3828" y2="865.3828"/><polygon fill="#181818" points="1252,882.3828,1262,886.3828,1252,890.3828,1256,886.3828" style="stroke:#181818;stroke-width:1.0;"/><line style="stroke:#181818;stroke-width:1.0;stroke-dasharray:2.0,2.0;" x1="651" x2="1258" y1="886.3828" y2="886.3828"/><polygon fill="#181818" points="1546,896.3828,1556,900.3828,1546,904.3828,1550,900.3828" style="stroke:#181818;stroke-width:1.0;"/><line style="stroke:#181818;stroke-width:1.0;stroke-dasharray:2.0,2.0;" x1="1274" x2="1552" y1="900.3828" y2="900.3828"/><!--SRC=[bLHBQ-Cm4BxxLmmz9T3iOQ5GogOGx9OQl51QUYiigZsnXpgIaQS9kxz-Hv8ViPCMUZ6svjFtc97Cn3N2VPO-hdvUNq66ga0BTpNcJ4O3QM9IDVrJ_dDhB3nXQpviZh-LLYNQA58vo_9zJVezQfHbogbHck61ocgpLrIhDwg9_pwZtLEEBQWM7ZRF4spGxMKxf0DcTry14qjxiUjnoHUuW3W3Y8rcr4N74Vimj5UCNHx_XDMjCmmteF4m8bm6jonLSJclEkDksLUJqseIkULLs1oGGIPmollCGNYvWRGV2K9kTetHgBcT6osHPtCws-6f_zoYU9i25nUsu_cp2qGNop7NQIofVITK5WSAE11Nyw6HRbbfSJdonv7iwAKjbjGosiLibil1H80FikkrTCznIWEzGY7TW_LwvaSGbXVBOwcfinyUCMjKKErxsNiRJ9rfv2NOwOpIBl0oKZK3RJ-v5fMSrTfNseeQA3uiwR9Jj3xOC24NfxGIE1lmYvUND1d2EK1XW2kX45PwHo6YiKcwVDLAmzDZ31AZCIHNnp-T99jN_IiusHI5X6blZvkM6xqbkvj9Ny9anxHjfrlEjUqJcgFBTh3Kd-HKorzhfy9X_WRRU3ab-72MZqvu_1y0]--></g></svg>