<?xml version="1.0" encoding="UTF-8" standalone="no"?><svg xmlns="http://www.w3.org/2000/svg" xmlns:xlink="http://www.w3.org/1999/xlink" contentStyleType="text/css" height="805px" preserveAspectRatio="none" style="width:1996px;height:805px;background:#FFFFFF;" version="1.1" viewBox="0 0 1996 805" width="1996px" zoomAndPan="magnify"><defs/><g><text fill="#000000" font-family="sans-serif" font-size="14" font-weight="bold" lengthAdjust="spacing" textLength="553" x="714.5" y="22.9951">Multiple-Component Leader Election introduced in Apache Flink 1.15</text><!--class MultipleComponentLeaderElectionDriver--><g id="elem_MultipleComponentLeaderElectionDriver"><rect codeLine="5" fill="#F1F1F1" height="105.1875" id="MultipleComponentLeaderElectionDriver" rx="2.5" ry="2.5" style="stroke:#181818;stroke-width:0.5;" width="477" x="634" y="393.2969"/><ellipse cx="723.25" cy="409.2969" fill="#B4A7E5" rx="11" ry="11" style="stroke:#181818;stroke-width:1.0;"/><path d="M724.2031,406.0781 L725.9219,406.0781 C726.3125,406.0781 726.5,406.0469 726.625,405.9688 C726.8906,405.8125 727.0313,405.5313 727.0313,405.2344 C727.0313,404.9688 726.9219,404.7031 726.6875,404.5313 C726.5156,404.4219 726.375,404.3906 725.9219,404.3906 L720.7813,404.3906 C720.3438,404.3906 720.2188,404.4063 720.0625,404.5 C719.8125,404.6563 719.6563,404.9531 719.6563,405.2344 C719.6563,405.5156 719.7969,405.7656 720.0156,405.9375 C720.1719,406.0469 720.3594,406.0781 720.7813,406.0781 L722.5,406.0781 L722.5,412.5938 L720.7813,412.5938 C720.3438,412.5938 720.2188,412.6094 720.0625,412.7188 C719.8125,412.875 719.6563,413.1563 719.6563,413.4531 C719.6563,413.7031 719.7969,413.9688 720.0156,414.125 C720.1719,414.25 720.375,414.2969 720.7813,414.2969 L725.9219,414.2969 C726.6719,414.2969 727.0313,414.0156 727.0313,413.4531 C727.0313,413.1719 726.9219,412.9219 726.6875,412.75 C726.5156,412.625 726.375,412.5938 725.9219,412.5938 L724.2031,412.5938 L724.2031,406.0781 Z " fill="#000000"/><text fill="#000000" font-family="sans-serif" font-size="14" font-style="italic" lengthAdjust="spacing" textLength="290" x="743.75" y="414.1436">MultipleComponentLeaderElectionDriver</text><line style="stroke:#181818;stroke-width:0.5;" x1="635" x2="1110" y1="425.2969" y2="425.2969"/><text fill="#000000" font-family="sans-serif" font-size="14" lengthAdjust="spacing" textLength="81" x="640" y="442.292">void close()</text><text fill="#000000" font-family="sans-serif" font-size="14" lengthAdjust="spacing" textLength="175" x="640" y="458.5889">boolean hasLeadership()</text><text fill="#000000" font-family="sans-serif" font-size="14" lengthAdjust="spacing" textLength="465" x="640" y="474.8857">void publishLeaderInformation(componentId, leaderInformation)</text><text fill="#000000" font-family="sans-serif" font-size="14" lengthAdjust="spacing" textLength="322" x="640" y="491.1826">void deleteLeaderInformation(componentId)</text></g><!--class MultipleComponentLeaderElectionDriver.Listener--><g id="elem_MultipleComponentLeaderElectionDriver.Listener"><rect codeLine="13" fill="#F1F1F1" height="105.1875" id="MultipleComponentLeaderElectionDriver.Listener" rx="2.5" ry="2.5" style="stroke:#181818;stroke-width:0.5;" width="569" x="1405" y="60.7969"/><ellipse cx="1509.75" cy="76.7969" fill="#B4A7E5" rx="11" ry="11" style="stroke:#181818;stroke-width:1.0;"/><path d="M1510.7031,73.5781 L1512.4219,73.5781 C1512.8125,73.5781 1513,73.5469 1513.125,73.4688 C1513.3906,73.3125 1513.5313,73.0313 1513.5313,72.7344 C1513.5313,72.4688 1513.4219,72.2031 1513.1875,72.0313 C1513.0156,71.9219 1512.875,71.8906 1512.4219,71.8906 L1507.2813,71.8906 C1506.8438,71.8906 1506.7188,71.9063 1506.5625,72 C1506.3125,72.1563 1506.1563,72.4531 1506.1563,72.7344 C1506.1563,73.0156 1506.2969,73.2656 1506.5156,73.4375 C1506.6719,73.5469 1506.8594,73.5781 1507.2813,73.5781 L1509,73.5781 L1509,80.0938 L1507.2813,80.0938 C1506.8438,80.0938 1506.7188,80.1094 1506.5625,80.2188 C1506.3125,80.375 1506.1563,80.6563 1506.1563,80.9531 C1506.1563,81.2031 1506.2969,81.4688 1506.5156,81.625 C1506.6719,81.75 1506.875,81.7969 1507.2813,81.7969 L1512.4219,81.7969 C1513.1719,81.7969 1513.5313,81.5156 1513.5313,80.9531 C1513.5313,80.6719 1513.4219,80.4219 1513.1875,80.25 C1513.0156,80.125 1512.875,80.0938 1512.4219,80.0938 L1510.7031,80.0938 L1510.7031,73.5781 Z " fill="#000000"/><text fill="#000000" font-family="sans-serif" font-size="14" font-style="italic" lengthAdjust="spacing" textLength="351" x="1530.25" y="81.6436">MultipleComponentLeaderElectionDriver.Listener</text><line style="stroke:#181818;stroke-width:0.5;" x1="1406" x2="1973" y1="92.7969" y2="92.7969"/><text fill="#000000" font-family="sans-serif" font-size="14" lengthAdjust="spacing" textLength="104" x="1411" y="109.792">void isLeader()</text><text fill="#000000" font-family="sans-serif" font-size="14" lengthAdjust="spacing" textLength="118" x="1411" y="126.0889">void notLeader()</text><text fill="#000000" font-family="sans-serif" font-size="14" lengthAdjust="spacing" textLength="510" x="1411" y="142.3857">void notifyLeaderInformationChange(componentId, leaderInformation)</text><text fill="#000000" font-family="sans-serif" font-size="14" lengthAdjust="spacing" textLength="557" x="1411" y="158.6826">void notifyAllKnownLeaderInformation(leaderInformationWithComponentIds)</text></g><!--class MultipleComponentLeaderElectionService--><g id="elem_MultipleComponentLeaderElectionService"><rect codeLine="21" fill="#F1F1F1" height="137.7813" id="MultipleComponentLeaderElectionService" rx="2.5" ry="2.5" style="stroke:#181818;stroke-width:0.5;" width="663" x="707" y="44.2969"/><ellipse cx="884.75" cy="60.2969" fill="#B4A7E5" rx="11" ry="11" style="stroke:#181818;stroke-width:1.0;"/><path d="M885.7031,57.0781 L887.4219,57.0781 C887.8125,57.0781 888,57.0469 888.125,56.9688 C888.3906,56.8125 888.5313,56.5313 888.5313,56.2344 C888.5313,55.9688 888.4219,55.7031 888.1875,55.5313 C888.0156,55.4219 887.875,55.3906 887.4219,55.3906 L882.2813,55.3906 C881.8438,55.3906 881.7188,55.4063 881.5625,55.5 C881.3125,55.6563 881.1563,55.9531 881.1563,56.2344 C881.1563,56.5156 881.2969,56.7656 881.5156,56.9375 C881.6719,57.0469 881.8594,57.0781 882.2813,57.0781 L884,57.0781 L884,63.5938 L882.2813,63.5938 C881.8438,63.5938 881.7188,63.6094 881.5625,63.7188 C881.3125,63.875 881.1563,64.1563 881.1563,64.4531 C881.1563,64.7031 881.2969,64.9688 881.5156,65.125 C881.6719,65.25 881.875,65.2969 882.2813,65.2969 L887.4219,65.2969 C888.1719,65.2969 888.5313,65.0156 888.5313,64.4531 C888.5313,64.1719 888.4219,63.9219 888.1875,63.75 C888.0156,63.625 887.875,63.5938 887.4219,63.5938 L885.7031,63.5938 L885.7031,57.0781 Z " fill="#000000"/><text fill="#000000" font-family="sans-serif" font-size="14" font-style="italic" lengthAdjust="spacing" textLength="299" x="905.25" y="65.1436">MultipleComponentLeaderElectionService</text><line style="stroke:#181818;stroke-width:0.5;" x1="708" x2="1369" y1="76.2969" y2="76.2969"/><text fill="#000000" font-family="sans-serif" font-size="14" lengthAdjust="spacing" textLength="81" x="713" y="93.292">void close()</text><text fill="#000000" font-family="sans-serif" font-size="14" lengthAdjust="spacing" textLength="462" x="713" y="109.5889">LeaderElectionDriverFactory createDriverFactory(componentId)</text><text fill="#000000" font-family="sans-serif" font-size="14" lengthAdjust="spacing" textLength="651" x="713" y="125.8857">void publishLeaderInformation(String componentId, LeaderInformation leaderInformation)</text><text fill="#000000" font-family="sans-serif" font-size="14" lengthAdjust="spacing" textLength="612" x="713" y="142.1826">void registerLeaderElectionEventHandler(componentId, leaderElectionEventHandler)</text><text fill="#000000" font-family="sans-serif" font-size="14" lengthAdjust="spacing" textLength="468" x="713" y="158.4795">void unregisterLeaderElectionEventHandler(String componentId)</text><text fill="#000000" font-family="sans-serif" font-size="14" lengthAdjust="spacing" textLength="277" x="713" y="174.7764">boolean hasLeadership((componentId)</text></g><!--class LeaderContender--><g id="elem_LeaderContender"><rect codeLine="31" fill="#F1F1F1" height="32" id="LeaderContender" rx="2.5" ry="2.5" style="stroke:#181818;stroke-width:0.5;" width="157" x="1703" y="263.7969"/><ellipse cx="1718" cy="279.7969" fill="#B4A7E5" rx="11" ry="11" style="stroke:#181818;stroke-width:1.0;"/><path d="M1718.9531,276.5781 L1720.6719,276.5781 C1721.0625,276.5781 1721.25,276.5469 1721.375,276.4688 C1721.6406,276.3125 1721.7813,276.0313 1721.7813,275.7344 C1721.7813,275.4688 1721.6719,275.2031 1721.4375,275.0313 C1721.2656,274.9219 1721.125,274.8906 1720.6719,274.8906 L1715.5313,274.8906 C1715.0938,274.8906 1714.9688,274.9063 1714.8125,275 C1714.5625,275.1563 1714.4063,275.4531 1714.4063,275.7344 C1714.4063,276.0156 1714.5469,276.2656 1714.7656,276.4375 C1714.9219,276.5469 1715.1094,276.5781 1715.5313,276.5781 L1717.25,276.5781 L1717.25,283.0938 L1715.5313,283.0938 C1715.0938,283.0938 1714.9688,283.1094 1714.8125,283.2188 C1714.5625,283.375 1714.4063,283.6563 1714.4063,283.9531 C1714.4063,284.2031 1714.5469,284.4688 1714.7656,284.625 C1714.9219,284.75 1715.125,284.7969 1715.5313,284.7969 L1720.6719,284.7969 C1721.4219,284.7969 1721.7813,284.5156 1721.7813,283.9531 C1721.7813,283.6719 1721.6719,283.4219 1721.4375,283.25 C1721.2656,283.125 1721.125,283.0938 1720.6719,283.0938 L1718.9531,283.0938 L1718.9531,276.5781 Z " fill="#000000"/><text fill="#000000" font-family="sans-serif" font-size="14" font-style="italic" lengthAdjust="spacing" textLength="125" x="1732" y="284.6436">LeaderContender</text></g><!--class LeaderElectionDriver--><g id="elem_LeaderElectionDriver"><rect codeLine="34" fill="#F1F1F1" height="88.8906" id="LeaderElectionDriver" rx="2.5" ry="2.5" style="stroke:#181818;stroke-width:0.5;" width="361" x="433" y="709.2969"/><ellipse cx="533.75" cy="725.2969" fill="#B4A7E5" rx="11" ry="11" style="stroke:#181818;stroke-width:1.0;"/><path d="M534.7031,722.0781 L536.4219,722.0781 C536.8125,722.0781 537,722.0469 537.125,721.9688 C537.3906,721.8125 537.5313,721.5313 537.5313,721.2344 C537.5313,720.9688 537.4219,720.7031 537.1875,720.5313 C537.0156,720.4219 536.875,720.3906 536.4219,720.3906 L531.2813,720.3906 C530.8438,720.3906 530.7188,720.4063 530.5625,720.5 C530.3125,720.6563 530.1563,720.9531 530.1563,721.2344 C530.1563,721.5156 530.2969,721.7656 530.5156,721.9375 C530.6719,722.0469 530.8594,722.0781 531.2813,722.0781 L533,722.0781 L533,728.5938 L531.2813,728.5938 C530.8438,728.5938 530.7188,728.6094 530.5625,728.7188 C530.3125,728.875 530.1563,729.1563 530.1563,729.4531 C530.1563,729.7031 530.2969,729.9688 530.5156,730.125 C530.6719,730.25 530.875,730.2969 531.2813,730.2969 L536.4219,730.2969 C537.1719,730.2969 537.5313,730.0156 537.5313,729.4531 C537.5313,729.1719 537.4219,728.9219 537.1875,728.75 C537.0156,728.625 536.875,728.5938 536.4219,728.5938 L534.7031,728.5938 L534.7031,722.0781 Z " fill="#000000"/><text fill="#000000" font-family="sans-serif" font-size="14" font-style="italic" lengthAdjust="spacing" textLength="151" x="554.25" y="730.1436">LeaderElectionDriver</text><line style="stroke:#181818;stroke-width:0.5;" x1="434" x2="793" y1="741.2969" y2="741.2969"/><text fill="#000000" font-family="sans-serif" font-size="14" lengthAdjust="spacing" textLength="349" x="439" y="758.292">void writeLeaderInformation(LeaderInformation)</text><text fill="#000000" font-family="sans-serif" font-size="14" lengthAdjust="spacing" textLength="175" x="439" y="774.5889">boolean hasLeadership()</text><text fill="#000000" font-family="sans-serif" font-size="14" lengthAdjust="spacing" textLength="81" x="439" y="790.8857">void close()</text></g><!--class LeaderElectionEventHandler--><g id="elem_LeaderElectionEventHandler"><rect codeLine="41" fill="#F1F1F1" height="88.8906" id="LeaderElectionEventHandler" rx="2.5" ry="2.5" style="stroke:#181818;stroke-width:0.5;" width="392" x="1146.5" y="401.2969"/><ellipse cx="1236.25" cy="417.2969" fill="#B4A7E5" rx="11" ry="11" style="stroke:#181818;stroke-width:1.0;"/><path d="M1237.2031,414.0781 L1238.9219,414.0781 C1239.3125,414.0781 1239.5,414.0469 1239.625,413.9688 C1239.8906,413.8125 1240.0313,413.5313 1240.0313,413.2344 C1240.0313,412.9688 1239.9219,412.7031 1239.6875,412.5313 C1239.5156,412.4219 1239.375,412.3906 1238.9219,412.3906 L1233.7813,412.3906 C1233.3438,412.3906 1233.2188,412.4063 1233.0625,412.5 C1232.8125,412.6563 1232.6563,412.9531 1232.6563,413.2344 C1232.6563,413.5156 1232.7969,413.7656 1233.0156,413.9375 C1233.1719,414.0469 1233.3594,414.0781 1233.7813,414.0781 L1235.5,414.0781 L1235.5,420.5938 L1233.7813,420.5938 C1233.3438,420.5938 1233.2188,420.6094 1233.0625,420.7188 C1232.8125,420.875 1232.6563,421.1563 1232.6563,421.4531 C1232.6563,421.7031 1232.7969,421.9688 1233.0156,422.125 C1233.1719,422.25 1233.375,422.2969 1233.7813,422.2969 L1238.9219,422.2969 C1239.6719,422.2969 1240.0313,422.0156 1240.0313,421.4531 C1240.0313,421.1719 1239.9219,420.9219 1239.6875,420.75 C1239.5156,420.625 1239.375,420.5938 1238.9219,420.5938 L1237.2031,420.5938 L1237.2031,414.0781 Z " fill="#000000"/><text fill="#000000" font-family="sans-serif" font-size="14" font-style="italic" lengthAdjust="spacing" textLength="204" x="1256.75" y="422.1436">LeaderElectionEventHandler</text><line style="stroke:#181818;stroke-width:0.5;" x1="1147.5" x2="1537.5" y1="433.2969" y2="433.2969"/><text fill="#000000" font-family="sans-serif" font-size="14" lengthAdjust="spacing" textLength="327" x="1152.5" y="450.292">void onGrantLeadership(newLeaderSessionId)</text><text fill="#000000" font-family="sans-serif" font-size="14" lengthAdjust="spacing" textLength="195" x="1152.5" y="466.5889">void onRevokeLeadership()</text><text fill="#000000" font-family="sans-serif" font-size="14" lengthAdjust="spacing" textLength="380" x="1152.5" y="482.8857">void onLeaderInformationChange(leaderInformation)</text></g><!--class LeaderElectionService--><g id="elem_LeaderElectionService"><rect codeLine="48" fill="#F1F1F1" height="105.1875" id="LeaderElectionService" rx="2.5" ry="2.5" style="stroke:#181818;stroke-width:0.5;" width="415" x="1574" y="393.2969"/><ellipse cx="1697.25" cy="409.2969" fill="#B4A7E5" rx="11" ry="11" style="stroke:#181818;stroke-width:1.0;"/><path d="M1698.2031,406.0781 L1699.9219,406.0781 C1700.3125,406.0781 1700.5,406.0469 1700.625,405.9688 C1700.8906,405.8125 1701.0313,405.5313 1701.0313,405.2344 C1701.0313,404.9688 1700.9219,404.7031 1700.6875,404.5313 C1700.5156,404.4219 1700.375,404.3906 1699.9219,404.3906 L1694.7813,404.3906 C1694.3438,404.3906 1694.2188,404.4063 1694.0625,404.5 C1693.8125,404.6563 1693.6563,404.9531 1693.6563,405.2344 C1693.6563,405.5156 1693.7969,405.7656 1694.0156,405.9375 C1694.1719,406.0469 1694.3594,406.0781 1694.7813,406.0781 L1696.5,406.0781 L1696.5,412.5938 L1694.7813,412.5938 C1694.3438,412.5938 1694.2188,412.6094 1694.0625,412.7188 C1693.8125,412.875 1693.6563,413.1563 1693.6563,413.4531 C1693.6563,413.7031 1693.7969,413.9688 1694.0156,414.125 C1694.1719,414.25 1694.375,414.2969 1694.7813,414.2969 L1699.9219,414.2969 C1700.6719,414.2969 1701.0313,414.0156 1701.0313,413.4531 C1701.0313,413.1719 1700.9219,412.9219 1700.6875,412.75 C1700.5156,412.625 1700.375,412.5938 1699.9219,412.5938 L1698.2031,412.5938 L1698.2031,406.0781 Z " fill="#000000"/><text fill="#000000" font-family="sans-serif" font-size="14" font-style="italic" lengthAdjust="spacing" textLength="160" x="1717.75" y="414.1436">LeaderElectionService</text><line style="stroke:#181818;stroke-width:0.5;" x1="1575" x2="1988" y1="425.2969" y2="425.2969"/><text fill="#000000" font-family="sans-serif" font-size="14" lengthAdjust="spacing" textLength="205" x="1580" y="442.292">void start(LeaderContender)</text><text fill="#000000" font-family="sans-serif" font-size="14" lengthAdjust="spacing" textLength="77" x="1580" y="458.5889">void stop()</text><text fill="#000000" font-family="sans-serif" font-size="14" lengthAdjust="spacing" textLength="403" x="1580" y="474.8857">void confirmLeadership(leaderSessionID, leaderAddress)</text><text fill="#000000" font-family="sans-serif" font-size="14" lengthAdjust="spacing" textLength="287" x="1580" y="491.1826">boolean hasLeadership(leaderSessionId)</text></g><!--class DefaultMultipleComponentLeaderElectionService--><g id="elem_DefaultMultipleComponentLeaderElectionService"><rect codeLine="76" fill="#F1F1F1" height="72.5938" id="DefaultMultipleComponentLeaderElectionService" rx="2.5" ry="2.5" style="stroke:#181818;stroke-width:0.5;" width="593" x="851" y="243.2969"/><ellipse cx="964.25" cy="259.2969" fill="#ADD1B2" rx="11" ry="11" style="stroke:#181818;stroke-width:1.0;"/><path d="M966.5938,254.9688 C965.6563,254.5313 965.0625,254.3906 964.1875,254.3906 C961.5625,254.3906 959.5625,256.4688 959.5625,259.1875 L959.5625,260.3125 C959.5625,262.8906 961.6719,264.7813 964.5625,264.7813 C965.7813,264.7813 966.9375,264.4844 967.6875,263.9375 C968.2656,263.5313 968.5938,263.0781 968.5938,262.6875 C968.5938,262.2344 968.2031,261.8438 967.7344,261.8438 C967.5156,261.8438 967.3125,261.9219 967.125,262.1094 C966.6719,262.5938 966.6719,262.5938 966.4844,262.6875 C966.0625,262.9531 965.375,263.0781 964.6094,263.0781 C962.5625,263.0781 961.2656,261.9844 961.2656,260.2813 L961.2656,259.1875 C961.2656,257.4063 962.5156,256.0938 964.25,256.0938 C964.8281,256.0938 965.4375,256.25 965.9063,256.5 C966.3906,256.7813 966.5625,257 966.6563,257.4063 C966.7188,257.8125 966.75,257.9375 966.8906,258.0625 C967.0313,258.2031 967.2656,258.3125 967.4844,258.3125 C967.75,258.3125 968.0156,258.1719 968.1875,257.9531 C968.2969,257.7969 968.3281,257.6094 968.3281,257.1875 L968.3281,255.7656 C968.3281,255.3281 968.3125,255.2031 968.2188,255.0469 C968.0625,254.7813 967.7813,254.6406 967.4844,254.6406 C967.1875,254.6406 966.9844,254.7344 966.7656,255.0469 L966.5938,254.9688 Z " fill="#000000"/><text fill="#000000" font-family="sans-serif" font-size="14" lengthAdjust="spacing" textLength="358" x="984.75" y="264.1436">DefaultMultipleComponentLeaderElectionService</text><line style="stroke:#181818;stroke-width:0.5;" x1="852" x2="1443" y1="275.2969" y2="275.2969"/><text fill="#000000" font-family="sans-serif" font-size="14" lengthAdjust="spacing" textLength="453" x="857" y="292.292">leaderElectionDriver: MultipleComponentLeaderElectionDriver</text><text fill="#000000" font-family="sans-serif" font-size="14" lengthAdjust="spacing" textLength="581" x="857" y="308.5889">leaderElectionEventHandlers: Map&lt;ComponentId, LeaderElectionEventHandler&gt;</text></g><!--class DefaultLeaderElectionService--><g id="elem_DefaultLeaderElectionService"><rect codeLine="78" fill="#F1F1F1" height="72.5938" id="DefaultLeaderElectionService" rx="2.5" ry="2.5" style="stroke:#181818;stroke-width:0.5;" width="321" x="1268" y="559.2969"/><ellipse cx="1317.25" cy="575.2969" fill="#ADD1B2" rx="11" ry="11" style="stroke:#181818;stroke-width:1.0;"/><path d="M1319.5938,570.9688 C1318.6563,570.5313 1318.0625,570.3906 1317.1875,570.3906 C1314.5625,570.3906 1312.5625,572.4688 1312.5625,575.1875 L1312.5625,576.3125 C1312.5625,578.8906 1314.6719,580.7813 1317.5625,580.7813 C1318.7813,580.7813 1319.9375,580.4844 1320.6875,579.9375 C1321.2656,579.5313 1321.5938,579.0781 1321.5938,578.6875 C1321.5938,578.2344 1321.2031,577.8438 1320.7344,577.8438 C1320.5156,577.8438 1320.3125,577.9219 1320.125,578.1094 C1319.6719,578.5938 1319.6719,578.5938 1319.4844,578.6875 C1319.0625,578.9531 1318.375,579.0781 1317.6094,579.0781 C1315.5625,579.0781 1314.2656,577.9844 1314.2656,576.2813 L1314.2656,575.1875 C1314.2656,573.4063 1315.5156,572.0938 1317.25,572.0938 C1317.8281,572.0938 1318.4375,572.25 1318.9063,572.5 C1319.3906,572.7813 1319.5625,573 1319.6563,573.4063 C1319.7188,573.8125 1319.75,573.9375 1319.8906,574.0625 C1320.0313,574.2031 1320.2656,574.3125 1320.4844,574.3125 C1320.75,574.3125 1321.0156,574.1719 1321.1875,573.9531 C1321.2969,573.7969 1321.3281,573.6094 1321.3281,573.1875 L1321.3281,571.7656 C1321.3281,571.3281 1321.3125,571.2031 1321.2188,571.0469 C1321.0625,570.7813 1320.7813,570.6406 1320.4844,570.6406 C1320.1875,570.6406 1319.9844,570.7344 1319.7656,571.0469 L1319.5938,570.9688 Z " fill="#000000"/><text fill="#000000" font-family="sans-serif" font-size="14" lengthAdjust="spacing" textLength="214" x="1337.75" y="580.1436">DefaultLeaderElectionService</text><line style="stroke:#181818;stroke-width:0.5;" x1="1269" x2="1588" y1="591.2969" y2="591.2969"/><text fill="#000000" font-family="sans-serif" font-size="14" lengthAdjust="spacing" textLength="309" x="1274" y="608.292">leaderElectionDriver: LeaderElectionDriver</text><text fill="#000000" font-family="sans-serif" font-size="14" lengthAdjust="spacing" textLength="257" x="1274" y="624.5889">leaderContender: LeaderContender</text></g><!--class MultipleComponentLeaderElectionDriverAdapter--><g id="elem_MultipleComponentLeaderElectionDriverAdapter"><rect codeLine="73" fill="#F1F1F1" height="56.2969" id="MultipleComponentLeaderElectionDriverAdapter" rx="2.5" ry="2.5" style="stroke:#181818;stroke-width:0.5;" width="633" x="7" y="85.2969"/><ellipse cx="141.75" cy="101.2969" fill="#ADD1B2" rx="11" ry="11" style="stroke:#181818;stroke-width:1.0;"/><path d="M144.0938,96.9688 C143.1563,96.5313 142.5625,96.3906 141.6875,96.3906 C139.0625,96.3906 137.0625,98.4688 137.0625,101.1875 L137.0625,102.3125 C137.0625,104.8906 139.1719,106.7813 142.0625,106.7813 C143.2813,106.7813 144.4375,106.4844 145.1875,105.9375 C145.7656,105.5313 146.0938,105.0781 146.0938,104.6875 C146.0938,104.2344 145.7031,103.8438 145.2344,103.8438 C145.0156,103.8438 144.8125,103.9219 144.625,104.1094 C144.1719,104.5938 144.1719,104.5938 143.9844,104.6875 C143.5625,104.9531 142.875,105.0781 142.1094,105.0781 C140.0625,105.0781 138.7656,103.9844 138.7656,102.2813 L138.7656,101.1875 C138.7656,99.4063 140.0156,98.0938 141.75,98.0938 C142.3281,98.0938 142.9375,98.25 143.4063,98.5 C143.8906,98.7813 144.0625,99 144.1563,99.4063 C144.2188,99.8125 144.25,99.9375 144.3906,100.0625 C144.5313,100.2031 144.7656,100.3125 144.9844,100.3125 C145.25,100.3125 145.5156,100.1719 145.6875,99.9531 C145.7969,99.7969 145.8281,99.6094 145.8281,99.1875 L145.8281,97.7656 C145.8281,97.3281 145.8125,97.2031 145.7188,97.0469 C145.5625,96.7813 145.2813,96.6406 144.9844,96.6406 C144.6875,96.6406 144.4844,96.7344 144.2656,97.0469 L144.0938,96.9688 Z " fill="#000000"/><text fill="#000000" font-family="sans-serif" font-size="14" lengthAdjust="spacing" textLength="355" x="162.25" y="106.1436">MultipleComponentLeaderElectionDriverAdapter</text><line style="stroke:#181818;stroke-width:0.5;" x1="8" x2="639" y1="117.2969" y2="117.2969"/><text fill="#000000" font-family="sans-serif" font-size="14" lengthAdjust="spacing" textLength="621" x="13" y="134.292">multipleComponentLeaderElectionService: MultipleComponentLeaderElectionService</text></g><!--class KubernetesMultipleComponentLeaderElectionDriver--><g id="elem_KubernetesMultipleComponentLeaderElectionDriver"><rect codeLine="80" fill="#F1F1F1" height="32" id="KubernetesMultipleComponentLeaderElectionDriver" rx="2.5" ry="2.5" style="stroke:#181818;stroke-width:0.5;" width="412" x="376.5" y="579.7969"/><ellipse cx="391.5" cy="595.7969" fill="#ADD1B2" rx="11" ry="11" style="stroke:#181818;stroke-width:1.0;"/><path d="M393.8438,591.4688 C392.9063,591.0313 392.3125,590.8906 391.4375,590.8906 C388.8125,590.8906 386.8125,592.9688 386.8125,595.6875 L386.8125,596.8125 C386.8125,599.3906 388.9219,601.2813 391.8125,601.2813 C393.0313,601.2813 394.1875,600.9844 394.9375,600.4375 C395.5156,600.0313 395.8438,599.5781 395.8438,599.1875 C395.8438,598.7344 395.4531,598.3438 394.9844,598.3438 C394.7656,598.3438 394.5625,598.4219 394.375,598.6094 C393.9219,599.0938 393.9219,599.0938 393.7344,599.1875 C393.3125,599.4531 392.625,599.5781 391.8594,599.5781 C389.8125,599.5781 388.5156,598.4844 388.5156,596.7813 L388.5156,595.6875 C388.5156,593.9063 389.7656,592.5938 391.5,592.5938 C392.0781,592.5938 392.6875,592.75 393.1563,593 C393.6406,593.2813 393.8125,593.5 393.9063,593.9063 C393.9688,594.3125 394,594.4375 394.1406,594.5625 C394.2813,594.7031 394.5156,594.8125 394.7344,594.8125 C395,594.8125 395.2656,594.6719 395.4375,594.4531 C395.5469,594.2969 395.5781,594.1094 395.5781,593.6875 L395.5781,592.2656 C395.5781,591.8281 395.5625,591.7031 395.4688,591.5469 C395.3125,591.2813 395.0313,591.1406 394.7344,591.1406 C394.4375,591.1406 394.2344,591.2344 394.0156,591.5469 L393.8438,591.4688 Z " fill="#000000"/><text fill="#000000" font-family="sans-serif" font-size="14" lengthAdjust="spacing" textLength="380" x="405.5" y="600.6436">KubernetesMultipleComponentLeaderElectionDriver</text></g><!--class ZooKeeperMultipleComponentLeaderElectionDriver--><g id="elem_ZooKeeperMultipleComponentLeaderElectionDriver"><rect codeLine="83" fill="#F1F1F1" height="32" id="ZooKeeperMultipleComponentLeaderElectionDriver" rx="2.5" ry="2.5" style="stroke:#181818;stroke-width:0.5;" width="409" x="824" y="579.7969"/><ellipse cx="839" cy="595.7969" fill="#ADD1B2" rx="11" ry="11" style="stroke:#181818;stroke-width:1.0;"/><path d="M841.3438,591.4688 C840.4063,591.0313 839.8125,590.8906 838.9375,590.8906 C836.3125,590.8906 834.3125,592.9688 834.3125,595.6875 L834.3125,596.8125 C834.3125,599.3906 836.4219,601.2813 839.3125,601.2813 C840.5313,601.2813 841.6875,600.9844 842.4375,600.4375 C843.0156,600.0313 843.3438,599.5781 843.3438,599.1875 C843.3438,598.7344 842.9531,598.3438 842.4844,598.3438 C842.2656,598.3438 842.0625,598.4219 841.875,598.6094 C841.4219,599.0938 841.4219,599.0938 841.2344,599.1875 C840.8125,599.4531 840.125,599.5781 839.3594,599.5781 C837.3125,599.5781 836.0156,598.4844 836.0156,596.7813 L836.0156,595.6875 C836.0156,593.9063 837.2656,592.5938 839,592.5938 C839.5781,592.5938 840.1875,592.75 840.6563,593 C841.1406,593.2813 841.3125,593.5 841.4063,593.9063 C841.4688,594.3125 841.5,594.4375 841.6406,594.5625 C841.7813,594.7031 842.0156,594.8125 842.2344,594.8125 C842.5,594.8125 842.7656,594.6719 842.9375,594.4531 C843.0469,594.2969 843.0781,594.1094 843.0781,593.6875 L843.0781,592.2656 C843.0781,591.8281 843.0625,591.7031 842.9688,591.5469 C842.8125,591.2813 842.5313,591.1406 842.2344,591.1406 C841.9375,591.1406 841.7344,591.2344 841.5156,591.5469 L841.3438,591.4688 Z " fill="#000000"/><text fill="#000000" font-family="sans-serif" font-size="14" lengthAdjust="spacing" textLength="377" x="853" y="600.6436">ZooKeeperMultipleComponentLeaderElectionDriver</text></g><!--reverse link LeaderElectionDriver to MultipleComponentLeaderElectionDriverAdapter--><g id="link_LeaderElectionDriver_MultipleComponentLeaderElectionDriverAdapter"><path d="M414.117,709.9513 C363.674,686.8039 323.5,651.2699 323.5,596.7969 C323.5,278.7969 323.5,278.7969 323.5,278.7969 C323.5,230.3889 323.5,173.9689 323.5,141.3679 " fill="none" id="LeaderElectionDriver-backto-MultipleComponentLeaderElectionDriverAdapter" style="stroke:#181818;stroke-width:1.0;stroke-dasharray:7.0,7.0;"/><polygon fill="none" points="417.005,703.5719,432.723,717.7819,411.574,716.4757,417.005,703.5719" style="stroke:#181818;stroke-width:1.0;"/></g><!--reverse link MultipleComponentLeaderElectionService to DefaultMultipleComponentLeaderElectionService--><g id="link_MultipleComponentLeaderElectionService_DefaultMultipleComponentLeaderElectionService"><path d="M1094.88,199.3869 C1105.15,214.8769 1115.32,230.2319 1123.95,243.2519 " fill="none" id="MultipleComponentLeaderElectionService-backto-DefaultMultipleComponentLeaderElectionService" style="stroke:#181818;stroke-width:1.0;stroke-dasharray:7.0,7.0;"/><polygon fill="none" points="1088.99,203.1689,1083.78,182.6309,1100.66,195.4359,1088.99,203.1689" style="stroke:#181818;stroke-width:1.0;"/></g><!--reverse link MultipleComponentLeaderElectionDriver.Listener to DefaultMultipleComponentLeaderElectionService--><g id="link_MultipleComponentLeaderElectionDriver.Listener_DefaultMultipleComponentLeaderElectionService"><path d="M1500.31,171.7159 C1421.87,195.5239 1333.33,222.3949 1264.58,243.2639 " fill="none" id="MultipleComponentLeaderElectionDriver.Listener-backto-DefaultMultipleComponentLeaderElectionService" style="stroke:#181818;stroke-width:1.0;stroke-dasharray:7.0,7.0;"/><polygon fill="none" points="1498.32,165.0049,1519.49,165.8939,1502.39,178.4009,1498.32,165.0049" style="stroke:#181818;stroke-width:1.0;"/></g><!--reverse link LeaderElectionService to DefaultLeaderElectionService--><g id="link_LeaderElectionService_DefaultLeaderElectionService"><path d="M1640.02,506.1139 C1597.09,524.1129 1551.28,543.3189 1513.31,559.2389 " fill="none" id="LeaderElectionService-backto-DefaultLeaderElectionService" style="stroke:#181818;stroke-width:1.0;stroke-dasharray:7.0,7.0;"/><polygon fill="none" points="1637.38,499.6299,1658.53,498.3519,1642.8,512.5409,1637.38,499.6299" style="stroke:#181818;stroke-width:1.0;"/></g><!--reverse link LeaderElectionEventHandler to DefaultLeaderElectionService--><g id="link_LeaderElectionEventHandler_DefaultLeaderElectionService"><path d="M1377.89,507.6949 C1388.02,525.1309 1398.73,543.5699 1407.68,558.9699 " fill="none" id="LeaderElectionEventHandler-backto-DefaultLeaderElectionService" style="stroke:#181818;stroke-width:1.0;stroke-dasharray:7.0,7.0;"/><polygon fill="none" points="1371.83,511.2109,1367.84,490.4009,1383.94,504.1769,1371.83,511.2109" style="stroke:#181818;stroke-width:1.0;"/></g><!--reverse link MultipleComponentLeaderElectionDriver to KubernetesMultipleComponentLeaderElectionDriver--><g id="link_MultipleComponentLeaderElectionDriver_KubernetesMultipleComponentLeaderElectionDriver"><path d="M753.407,507.5749 C701.65,533.9899 645.341,562.7269 612.025,579.7289 " fill="none" id="MultipleComponentLeaderElectionDriver-backto-KubernetesMultipleComponentLeaderElectionDriver" style="stroke:#181818;stroke-width:1.0;stroke-dasharray:7.0,7.0;"/><polygon fill="none" points="750.483,501.2089,771.479,498.3519,756.847,513.6789,750.483,501.2089" style="stroke:#181818;stroke-width:1.0;"/></g><!--reverse link MultipleComponentLeaderElectionDriver to ZooKeeperMultipleComponentLeaderElectionDriver--><g id="link_MultipleComponentLeaderElectionDriver_ZooKeeperMultipleComponentLeaderElectionDriver"><path d="M941.897,512.6349 C968.23,537.6179 995.887,563.8559 1012.67,579.7739 " fill="none" id="MultipleComponentLeaderElectionDriver-backto-ZooKeeperMultipleComponentLeaderElectionDriver" style="stroke:#181818;stroke-width:1.0;stroke-dasharray:7.0,7.0;"/><polygon fill="none" points="936.753,517.4039,927.061,498.5599,946.388,507.2469,936.753,517.4039" style="stroke:#181818;stroke-width:1.0;"/></g><!--link DefaultLeaderElectionService to LeaderElectionDriver--><g id="link_DefaultLeaderElectionService_LeaderElectionDriver"><path codeLine="86" d="M1267.93,628.8969 C1262.05,630.0489 1256.22,631.1849 1250.5,632.2969 C1098.75,661.7809 926.478,694.3129 799.381,718.1359 " fill="none" id="DefaultLeaderElectionService-to-LeaderElectionDriver" style="stroke:#181818;stroke-width:1.0;"/><polygon fill="#181818" points="794.122,719.1215,803.705,721.3945,799.0364,718.2001,802.2308,713.5315,794.122,719.1215" style="stroke:#181818;stroke-width:1.0;"/><text fill="#000000" font-family="sans-serif" font-size="13" lengthAdjust="spacing" textLength="30" x="1094.5" y="675.3638">uses</text></g><!--link LeaderContender to LeaderElectionService--><g id="link_LeaderContender_LeaderElectionService"><path codeLine="87" d="M1781.5,295.9319 C1781.5,316.7059 1781.5,355.1969 1781.5,387.8349 " fill="none" id="LeaderContender-to-LeaderElectionService" style="stroke:#181818;stroke-width:1.0;"/><polygon fill="#181818" points="1781.5,393.0189,1785.5,384.0189,1781.5,388.0189,1777.5,384.0189,1781.5,393.0189" style="stroke:#181818;stroke-width:1.0;"/><text fill="#000000" font-family="sans-serif" font-size="13" lengthAdjust="spacing" textLength="30" x="1782.5" y="359.3638">uses</text></g><!--link MultipleComponentLeaderElectionDriverAdapter to MultipleComponentLeaderElectionService--><g id="link_MultipleComponentLeaderElectionDriverAdapter_MultipleComponentLeaderElectionService"><path codeLine="89" d="M640.232,113.2969 C660.635,113.2969 681.217,113.2969 701.708,113.2969 " fill="none" id="MultipleComponentLeaderElectionDriverAdapter-to-MultipleComponentLeaderElectionService" style="stroke:#181818;stroke-width:1.0;"/><polygon fill="#181818" points="706.916,113.2969,697.916,109.2969,701.916,113.2969,697.916,117.2969,706.916,113.2969" style="stroke:#181818;stroke-width:1.0;"/><text fill="#000000" font-family="sans-serif" font-size="13" lengthAdjust="spacing" textLength="30" x="658.5" y="106.3638">uses</text></g><!--link DefaultMultipleComponentLeaderElectionService to LeaderElectionEventHandler--><g id="link_DefaultMultipleComponentLeaderElectionService_LeaderElectionEventHandler"><path codeLine="91" d="M1189.81,316.3829 C1218.11,340.1839 1255.66,371.7659 1286.44,397.6529 " fill="none" id="DefaultMultipleComponentLeaderElectionService-to-LeaderElectionEventHandler" style="stroke:#181818;stroke-width:1.0;"/><polygon fill="#181818" points="1290.55,401.1039,1286.2501,392.2433,1286.7283,397.8799,1281.0916,398.358,1290.55,401.1039" style="stroke:#181818;stroke-width:1.0;"/><text fill="#000000" font-family="sans-serif" font-size="13" lengthAdjust="spacing" textLength="30" x="1246.5" y="359.3638">uses</text></g><!--link DefaultMultipleComponentLeaderElectionService to MultipleComponentLeaderElectionDriver--><g id="link_DefaultMultipleComponentLeaderElectionService_MultipleComponentLeaderElectionDriver"><path codeLine="92" d="M1087.83,316.3829 C1051.48,338.0609 1004.306,366.1929 963.383,390.5979 " fill="none" id="DefaultMultipleComponentLeaderElectionService-to-MultipleComponentLeaderElectionDriver" style="stroke:#181818;stroke-width:1.0;"/><polygon fill="#181818" points="958.935,393.2499,968.7135,392.0748,963.2291,390.6885,964.6154,385.2042,958.935,393.2499" style="stroke:#181818;stroke-width:1.0;"/><text fill="#000000" font-family="sans-serif" font-size="13" lengthAdjust="spacing" textLength="30" x="1036.5" y="359.3638">uses</text></g><!--SRC=[jLPDZzem4BtdL_XMa0fe3xsWQYKKTjiLz58EbNepyOHOwu_8Ta2hQlzxlOH04fjWxsev1MVyFE_D6q- -5CQKUZwRbGmBKt4spIIVPGnhFI4KxnJcIMAeOO1-LSpGai4abRoK0eH1Qy0457fWa1ag1QB2A4cg38XzH8iIPmMWHqR5CxgRtdrB4Xi0AiVP1UqCLcCrK4j5znRvNuBiRoyfGHcJ6aRZuy9MIWPOe0BhUfikQ7bwTmmkgosZkgXVFebSAexVO4TPSzmJ-OfO_tKBWG030uC0u-GrAIW9vP9JO4H7Qp1TKsr0TCMW9zvjpa8QxoBDNnmQQO753iBLg64MZAs4F0XN5MVl7sgAz8AkuxIwS8uMRGDgJstO5UVuJdl4cP7g1MKAi87EMhVSj-srCOgA7UhewaGDAgrWzyPTTHDzs5kmdrWGPilhgPelhWLQYG1OD_UXPdjF8pIrSOjQnwNIBWZxKAFr5X47lhMdk_kkNne7HNrDlFONuEQrqZZfjPtWpJQ_hdaxLIb-ADmeTZnOmA7-jm6jxSwE1QNu3Nlv3Fv4fRZMyXxlUTbqqhp5oTDqsc1bHhqIZjllPLTQANAgU8iEwt1VDbPV4ABisb35M5yrByE-6uz33oqXnzR5KRSCy_XW7dRJUVQtbTSM1fVVK_S-yKNVDqJZI70mXNGKY2TyWz_P1NEdtRjf1sKPfEw2uDASsum7oJ4FlCMY1bgJo4T8K6uZkGtIVgNVPU0MQ23jppsbD_-3F7bLc5F0KCiq1wmgErg4_UBJOHzpiOnghyIUSfvuTP9_fLm1bA0-CyV8Gyuf3fPeChdtJyivgZJef3_gtVW6wRGXYMeTYnRer0O-pjzkkftnUGADnmmhGGt_7m00]--></g></svg>