<?xml version="1.0" encoding="UTF-8" standalone="no"?><svg xmlns="http://www.w3.org/2000/svg" xmlns:xlink="http://www.w3.org/1999/xlink" contentStyleType="text/css" height="987px" preserveAspectRatio="none" style="width:1981px;height:987px;background:#FFFFFF;" version="1.1" viewBox="0 0 1981 987" width="1981px" zoomAndPan="magnify"><defs/><g><text fill="#000000" font-family="sans-serif" font-size="14" font-weight="bold" lengthAdjust="spacing" textLength="553" x="707" y="22.9951">Multiple-Component Leader Election introduced in Apache Flink 1.15</text><!--class MultipleComponentLeaderElectionDriver--><g id="elem_MultipleComponentLeaderElectionDriver"><rect codeLine="5" fill="#F1F1F1" height="105.1875" id="MultipleComponentLeaderElectionDriver" rx="2.5" ry="2.5" style="stroke:#181818;stroke-width:0.5;" width="477" x="720" y="393.2969"/><ellipse cx="809.25" cy="409.2969" fill="#B4A7E5" rx="11" ry="11" style="stroke:#181818;stroke-width:1.0;"/><path d="M810.2031,406.0781 L811.9219,406.0781 C812.3125,406.0781 812.5,406.0469 812.625,405.9688 C812.8906,405.8125 813.0313,405.5313 813.0313,405.2344 C813.0313,404.9688 812.9219,404.7031 812.6875,404.5313 C812.5156,404.4219 812.375,404.3906 811.9219,404.3906 L806.7813,404.3906 C806.3438,404.3906 806.2188,404.4063 806.0625,404.5 C805.8125,404.6563 805.6563,404.9531 805.6563,405.2344 C805.6563,405.5156 805.7969,405.7656 806.0156,405.9375 C806.1719,406.0469 806.3594,406.0781 806.7813,406.0781 L808.5,406.0781 L808.5,412.5938 L806.7813,412.5938 C806.3438,412.5938 806.2188,412.6094 806.0625,412.7188 C805.8125,412.875 805.6563,413.1563 805.6563,413.4531 C805.6563,413.7031 805.7969,413.9688 806.0156,414.125 C806.1719,414.25 806.375,414.2969 806.7813,414.2969 L811.9219,414.2969 C812.6719,414.2969 813.0313,414.0156 813.0313,413.4531 C813.0313,413.1719 812.9219,412.9219 812.6875,412.75 C812.5156,412.625 812.375,412.5938 811.9219,412.5938 L810.2031,412.5938 L810.2031,406.0781 Z " fill="#000000"/><text fill="#000000" font-family="sans-serif" font-size="14" font-style="italic" lengthAdjust="spacing" textLength="290" x="829.75" y="414.1436">MultipleComponentLeaderElectionDriver</text><line style="stroke:#181818;stroke-width:0.5;" x1="721" x2="1196" y1="425.2969" y2="425.2969"/><text fill="#000000" font-family="sans-serif" font-size="14" lengthAdjust="spacing" textLength="81" x="726" y="442.292">void close()</text><text fill="#000000" font-family="sans-serif" font-size="14" lengthAdjust="spacing" textLength="175" x="726" y="458.5889">boolean hasLeadership()</text><text fill="#000000" font-family="sans-serif" font-size="14" lengthAdjust="spacing" textLength="465" x="726" y="474.8857">void publishLeaderInformation(componentId, leaderInformation)</text><text fill="#000000" font-family="sans-serif" font-size="14" lengthAdjust="spacing" textLength="322" x="726" y="491.1826">void deleteLeaderInformation(componentId)</text></g><!--class MultipleComponentLeaderElectionDriver.Listener--><g id="elem_MultipleComponentLeaderElectionDriver.Listener"><rect codeLine="13" fill="#F1F1F1" height="105.1875" id="MultipleComponentLeaderElectionDriver.Listener" rx="2.5" ry="2.5" style="stroke:#181818;stroke-width:0.5;" width="569" x="1405" y="60.7969"/><ellipse cx="1509.75" cy="76.7969" fill="#B4A7E5" rx="11" ry="11" style="stroke:#181818;stroke-width:1.0;"/><path d="M1510.7031,73.5781 L1512.4219,73.5781 C1512.8125,73.5781 1513,73.5469 1513.125,73.4688 C1513.3906,73.3125 1513.5313,73.0313 1513.5313,72.7344 C1513.5313,72.4688 1513.4219,72.2031 1513.1875,72.0313 C1513.0156,71.9219 1512.875,71.8906 1512.4219,71.8906 L1507.2813,71.8906 C1506.8438,71.8906 1506.7188,71.9063 1506.5625,72 C1506.3125,72.1563 1506.1563,72.4531 1506.1563,72.7344 C1506.1563,73.0156 1506.2969,73.2656 1506.5156,73.4375 C1506.6719,73.5469 1506.8594,73.5781 1507.2813,73.5781 L1509,73.5781 L1509,80.0938 L1507.2813,80.0938 C1506.8438,80.0938 1506.7188,80.1094 1506.5625,80.2188 C1506.3125,80.375 1506.1563,80.6563 1506.1563,80.9531 C1506.1563,81.2031 1506.2969,81.4688 1506.5156,81.625 C1506.6719,81.75 1506.875,81.7969 1507.2813,81.7969 L1512.4219,81.7969 C1513.1719,81.7969 1513.5313,81.5156 1513.5313,80.9531 C1513.5313,80.6719 1513.4219,80.4219 1513.1875,80.25 C1513.0156,80.125 1512.875,80.0938 1512.4219,80.0938 L1510.7031,80.0938 L1510.7031,73.5781 Z " fill="#000000"/><text fill="#000000" font-family="sans-serif" font-size="14" font-style="italic" lengthAdjust="spacing" textLength="351" x="1530.25" y="81.6436">MultipleComponentLeaderElectionDriver.Listener</text><line style="stroke:#181818;stroke-width:0.5;" x1="1406" x2="1973" y1="92.7969" y2="92.7969"/><text fill="#000000" font-family="sans-serif" font-size="14" lengthAdjust="spacing" textLength="104" x="1411" y="109.792">void isLeader()</text><text fill="#000000" font-family="sans-serif" font-size="14" lengthAdjust="spacing" textLength="118" x="1411" y="126.0889">void notLeader()</text><text fill="#000000" font-family="sans-serif" font-size="14" lengthAdjust="spacing" textLength="510" x="1411" y="142.3857">void notifyLeaderInformationChange(componentId, leaderInformation)</text><text fill="#000000" font-family="sans-serif" font-size="14" lengthAdjust="spacing" textLength="557" x="1411" y="158.6826">void notifyAllKnownLeaderInformation(leaderInformationWithComponentIds)</text></g><!--class MultipleComponentLeaderElectionService--><g id="elem_MultipleComponentLeaderElectionService"><rect codeLine="21" fill="#F1F1F1" height="137.7813" id="MultipleComponentLeaderElectionService" rx="2.5" ry="2.5" style="stroke:#181818;stroke-width:0.5;" width="663" x="707" y="44.2969"/><ellipse cx="884.75" cy="60.2969" fill="#B4A7E5" rx="11" ry="11" style="stroke:#181818;stroke-width:1.0;"/><path d="M885.7031,57.0781 L887.4219,57.0781 C887.8125,57.0781 888,57.0469 888.125,56.9688 C888.3906,56.8125 888.5313,56.5313 888.5313,56.2344 C888.5313,55.9688 888.4219,55.7031 888.1875,55.5313 C888.0156,55.4219 887.875,55.3906 887.4219,55.3906 L882.2813,55.3906 C881.8438,55.3906 881.7188,55.4063 881.5625,55.5 C881.3125,55.6563 881.1563,55.9531 881.1563,56.2344 C881.1563,56.5156 881.2969,56.7656 881.5156,56.9375 C881.6719,57.0469 881.8594,57.0781 882.2813,57.0781 L884,57.0781 L884,63.5938 L882.2813,63.5938 C881.8438,63.5938 881.7188,63.6094 881.5625,63.7188 C881.3125,63.875 881.1563,64.1563 881.1563,64.4531 C881.1563,64.7031 881.2969,64.9688 881.5156,65.125 C881.6719,65.25 881.875,65.2969 882.2813,65.2969 L887.4219,65.2969 C888.1719,65.2969 888.5313,65.0156 888.5313,64.4531 C888.5313,64.1719 888.4219,63.9219 888.1875,63.75 C888.0156,63.625 887.875,63.5938 887.4219,63.5938 L885.7031,63.5938 L885.7031,57.0781 Z " fill="#000000"/><text fill="#000000" font-family="sans-serif" font-size="14" font-style="italic" lengthAdjust="spacing" textLength="299" x="905.25" y="65.1436">MultipleComponentLeaderElectionService</text><line style="stroke:#181818;stroke-width:0.5;" x1="708" x2="1369" y1="76.2969" y2="76.2969"/><text fill="#000000" font-family="sans-serif" font-size="14" lengthAdjust="spacing" textLength="81" x="713" y="93.292">void close()</text><text fill="#000000" font-family="sans-serif" font-size="14" lengthAdjust="spacing" textLength="462" x="713" y="109.5889">LeaderElectionDriverFactory createDriverFactory(componentId)</text><text fill="#000000" font-family="sans-serif" font-size="14" lengthAdjust="spacing" textLength="651" x="713" y="125.8857">void publishLeaderInformation(String componentId, LeaderInformation leaderInformation)</text><text fill="#000000" font-family="sans-serif" font-size="14" lengthAdjust="spacing" textLength="612" x="713" y="142.1826">void registerLeaderElectionEventHandler(componentId, leaderElectionEventHandler)</text><text fill="#000000" font-family="sans-serif" font-size="14" lengthAdjust="spacing" textLength="468" x="713" y="158.4795">void unregisterLeaderElectionEventHandler(String componentId)</text><text fill="#000000" font-family="sans-serif" font-size="14" lengthAdjust="spacing" textLength="277" x="713" y="174.7764">boolean hasLeadership((componentId)</text></g><!--class LeaderContender--><g id="elem_LeaderContender"><rect codeLine="31" fill="#F1F1F1" height="72.5938" id="LeaderContender" rx="2.5" ry="2.5" style="stroke:#181818;stroke-width:0.5;" width="325" x="1413" y="717.2969"/><ellipse cx="1508.75" cy="733.2969" fill="#B4A7E5" rx="11" ry="11" style="stroke:#181818;stroke-width:1.0;"/><path d="M1509.7031,730.0781 L1511.4219,730.0781 C1511.8125,730.0781 1512,730.0469 1512.125,729.9688 C1512.3906,729.8125 1512.5313,729.5313 1512.5313,729.2344 C1512.5313,728.9688 1512.4219,728.7031 1512.1875,728.5313 C1512.0156,728.4219 1511.875,728.3906 1511.4219,728.3906 L1506.2813,728.3906 C1505.8438,728.3906 1505.7188,728.4063 1505.5625,728.5 C1505.3125,728.6563 1505.1563,728.9531 1505.1563,729.2344 C1505.1563,729.5156 1505.2969,729.7656 1505.5156,729.9375 C1505.6719,730.0469 1505.8594,730.0781 1506.2813,730.0781 L1508,730.0781 L1508,736.5938 L1506.2813,736.5938 C1505.8438,736.5938 1505.7188,736.6094 1505.5625,736.7188 C1505.3125,736.875 1505.1563,737.1563 1505.1563,737.4531 C1505.1563,737.7031 1505.2969,737.9688 1505.5156,738.125 C1505.6719,738.25 1505.875,738.2969 1506.2813,738.2969 L1511.4219,738.2969 C1512.1719,738.2969 1512.5313,738.0156 1512.5313,737.4531 C1512.5313,737.1719 1512.4219,736.9219 1512.1875,736.75 C1512.0156,736.625 1511.875,736.5938 1511.4219,736.5938 L1509.7031,736.5938 L1509.7031,730.0781 Z " fill="#000000"/><text fill="#000000" font-family="sans-serif" font-size="14" font-style="italic" lengthAdjust="spacing" textLength="125" x="1529.25" y="738.1436">LeaderContender</text><line style="stroke:#181818;stroke-width:0.5;" x1="1414" x2="1737" y1="749.2969" y2="749.2969"/><text fill="#000000" font-family="sans-serif" font-size="14" lengthAdjust="spacing" textLength="313" x="1419" y="766.292">void grantLeadership(UUID leaderSessionID)</text><text fill="#000000" font-family="sans-serif" font-size="14" lengthAdjust="spacing" textLength="173" x="1419" y="782.5889">void revokeLeadership()</text></g><!--class LeaderElectionDriver--><g id="elem_LeaderElectionDriver"><rect codeLine="37" fill="#F1F1F1" height="88.8906" id="LeaderElectionDriver" rx="2.5" ry="2.5" style="stroke:#181818;stroke-width:0.5;" width="361" x="544" y="709.2969"/><ellipse cx="644.75" cy="725.2969" fill="#B4A7E5" rx="11" ry="11" style="stroke:#181818;stroke-width:1.0;"/><path d="M645.7031,722.0781 L647.4219,722.0781 C647.8125,722.0781 648,722.0469 648.125,721.9688 C648.3906,721.8125 648.5313,721.5313 648.5313,721.2344 C648.5313,720.9688 648.4219,720.7031 648.1875,720.5313 C648.0156,720.4219 647.875,720.3906 647.4219,720.3906 L642.2813,720.3906 C641.8438,720.3906 641.7188,720.4063 641.5625,720.5 C641.3125,720.6563 641.1563,720.9531 641.1563,721.2344 C641.1563,721.5156 641.2969,721.7656 641.5156,721.9375 C641.6719,722.0469 641.8594,722.0781 642.2813,722.0781 L644,722.0781 L644,728.5938 L642.2813,728.5938 C641.8438,728.5938 641.7188,728.6094 641.5625,728.7188 C641.3125,728.875 641.1563,729.1563 641.1563,729.4531 C641.1563,729.7031 641.2969,729.9688 641.5156,730.125 C641.6719,730.25 641.875,730.2969 642.2813,730.2969 L647.4219,730.2969 C648.1719,730.2969 648.5313,730.0156 648.5313,729.4531 C648.5313,729.1719 648.4219,728.9219 648.1875,728.75 C648.0156,728.625 647.875,728.5938 647.4219,728.5938 L645.7031,728.5938 L645.7031,722.0781 Z " fill="#000000"/><text fill="#000000" font-family="sans-serif" font-size="14" font-style="italic" lengthAdjust="spacing" textLength="151" x="665.25" y="730.1436">LeaderElectionDriver</text><line style="stroke:#181818;stroke-width:0.5;" x1="545" x2="904" y1="741.2969" y2="741.2969"/><text fill="#000000" font-family="sans-serif" font-size="14" lengthAdjust="spacing" textLength="349" x="550" y="758.292">void writeLeaderInformation(LeaderInformation)</text><text fill="#000000" font-family="sans-serif" font-size="14" lengthAdjust="spacing" textLength="175" x="550" y="774.5889">boolean hasLeadership()</text><text fill="#000000" font-family="sans-serif" font-size="14" lengthAdjust="spacing" textLength="81" x="550" y="790.8857">void close()</text></g><!--class LeaderElectionEventHandler--><g id="elem_LeaderElectionEventHandler"><rect codeLine="44" fill="#F1F1F1" height="88.8906" id="LeaderElectionEventHandler" rx="2.5" ry="2.5" style="stroke:#181818;stroke-width:0.5;" width="392" x="1232.5" y="401.2969"/><ellipse cx="1322.25" cy="417.2969" fill="#B4A7E5" rx="11" ry="11" style="stroke:#181818;stroke-width:1.0;"/><path d="M1323.2031,414.0781 L1324.9219,414.0781 C1325.3125,414.0781 1325.5,414.0469 1325.625,413.9688 C1325.8906,413.8125 1326.0313,413.5313 1326.0313,413.2344 C1326.0313,412.9688 1325.9219,412.7031 1325.6875,412.5313 C1325.5156,412.4219 1325.375,412.3906 1324.9219,412.3906 L1319.7813,412.3906 C1319.3438,412.3906 1319.2188,412.4063 1319.0625,412.5 C1318.8125,412.6563 1318.6563,412.9531 1318.6563,413.2344 C1318.6563,413.5156 1318.7969,413.7656 1319.0156,413.9375 C1319.1719,414.0469 1319.3594,414.0781 1319.7813,414.0781 L1321.5,414.0781 L1321.5,420.5938 L1319.7813,420.5938 C1319.3438,420.5938 1319.2188,420.6094 1319.0625,420.7188 C1318.8125,420.875 1318.6563,421.1563 1318.6563,421.4531 C1318.6563,421.7031 1318.7969,421.9688 1319.0156,422.125 C1319.1719,422.25 1319.375,422.2969 1319.7813,422.2969 L1324.9219,422.2969 C1325.6719,422.2969 1326.0313,422.0156 1326.0313,421.4531 C1326.0313,421.1719 1325.9219,420.9219 1325.6875,420.75 C1325.5156,420.625 1325.375,420.5938 1324.9219,420.5938 L1323.2031,420.5938 L1323.2031,414.0781 Z " fill="#000000"/><text fill="#000000" font-family="sans-serif" font-size="14" font-style="italic" lengthAdjust="spacing" textLength="204" x="1342.75" y="422.1436">LeaderElectionEventHandler</text><line style="stroke:#181818;stroke-width:0.5;" x1="1233.5" x2="1623.5" y1="433.2969" y2="433.2969"/><text fill="#000000" font-family="sans-serif" font-size="14" lengthAdjust="spacing" textLength="327" x="1238.5" y="450.292">void onGrantLeadership(newLeaderSessionId)</text><text fill="#000000" font-family="sans-serif" font-size="14" lengthAdjust="spacing" textLength="195" x="1238.5" y="466.5889">void onRevokeLeadership()</text><text fill="#000000" font-family="sans-serif" font-size="14" lengthAdjust="spacing" textLength="380" x="1238.5" y="482.8857">void onLeaderInformationChange(leaderInformation)</text></g><!--class LeaderElectionService--><g id="elem_LeaderElectionService"><rect codeLine="51" fill="#F1F1F1" height="105.1875" id="LeaderElectionService" rx="2.5" ry="2.5" style="stroke:#181818;stroke-width:0.5;" width="415" x="1220" y="875.2969"/><ellipse cx="1343.25" cy="891.2969" fill="#B4A7E5" rx="11" ry="11" style="stroke:#181818;stroke-width:1.0;"/><path d="M1344.2031,888.0781 L1345.9219,888.0781 C1346.3125,888.0781 1346.5,888.0469 1346.625,887.9688 C1346.8906,887.8125 1347.0313,887.5313 1347.0313,887.2344 C1347.0313,886.9688 1346.9219,886.7031 1346.6875,886.5313 C1346.5156,886.4219 1346.375,886.3906 1345.9219,886.3906 L1340.7813,886.3906 C1340.3438,886.3906 1340.2188,886.4063 1340.0625,886.5 C1339.8125,886.6563 1339.6563,886.9531 1339.6563,887.2344 C1339.6563,887.5156 1339.7969,887.7656 1340.0156,887.9375 C1340.1719,888.0469 1340.3594,888.0781 1340.7813,888.0781 L1342.5,888.0781 L1342.5,894.5938 L1340.7813,894.5938 C1340.3438,894.5938 1340.2188,894.6094 1340.0625,894.7188 C1339.8125,894.875 1339.6563,895.1563 1339.6563,895.4531 C1339.6563,895.7031 1339.7969,895.9688 1340.0156,896.125 C1340.1719,896.25 1340.375,896.2969 1340.7813,896.2969 L1345.9219,896.2969 C1346.6719,896.2969 1347.0313,896.0156 1347.0313,895.4531 C1347.0313,895.1719 1346.9219,894.9219 1346.6875,894.75 C1346.5156,894.625 1346.375,894.5938 1345.9219,894.5938 L1344.2031,894.5938 L1344.2031,888.0781 Z " fill="#000000"/><text fill="#000000" font-family="sans-serif" font-size="14" font-style="italic" lengthAdjust="spacing" textLength="160" x="1363.75" y="896.1436">LeaderElectionService</text><line style="stroke:#181818;stroke-width:0.5;" x1="1221" x2="1634" y1="907.2969" y2="907.2969"/><text fill="#000000" font-family="sans-serif" font-size="14" lengthAdjust="spacing" textLength="205" x="1226" y="924.292">void start(LeaderContender)</text><text fill="#000000" font-family="sans-serif" font-size="14" lengthAdjust="spacing" textLength="77" x="1226" y="940.5889">void stop()</text><text fill="#000000" font-family="sans-serif" font-size="14" lengthAdjust="spacing" textLength="403" x="1226" y="956.8857">void confirmLeadership(leaderSessionID, leaderAddress)</text><text fill="#000000" font-family="sans-serif" font-size="14" lengthAdjust="spacing" textLength="287" x="1226" y="973.1826">boolean hasLeadership(leaderSessionId)</text></g><!--class DefaultMultipleComponentLeaderElectionService--><g id="elem_DefaultMultipleComponentLeaderElectionService"><rect codeLine="79" fill="#F1F1F1" height="72.5938" id="DefaultMultipleComponentLeaderElectionService" rx="2.5" ry="2.5" style="stroke:#181818;stroke-width:0.5;" width="593" x="840" y="243.2969"/><ellipse cx="953.25" cy="259.2969" fill="#ADD1B2" rx="11" ry="11" style="stroke:#181818;stroke-width:1.0;"/><path d="M955.5938,254.9688 C954.6563,254.5313 954.0625,254.3906 953.1875,254.3906 C950.5625,254.3906 948.5625,256.4688 948.5625,259.1875 L948.5625,260.3125 C948.5625,262.8906 950.6719,264.7813 953.5625,264.7813 C954.7813,264.7813 955.9375,264.4844 956.6875,263.9375 C957.2656,263.5313 957.5938,263.0781 957.5938,262.6875 C957.5938,262.2344 957.2031,261.8438 956.7344,261.8438 C956.5156,261.8438 956.3125,261.9219 956.125,262.1094 C955.6719,262.5938 955.6719,262.5938 955.4844,262.6875 C955.0625,262.9531 954.375,263.0781 953.6094,263.0781 C951.5625,263.0781 950.2656,261.9844 950.2656,260.2813 L950.2656,259.1875 C950.2656,257.4063 951.5156,256.0938 953.25,256.0938 C953.8281,256.0938 954.4375,256.25 954.9063,256.5 C955.3906,256.7813 955.5625,257 955.6563,257.4063 C955.7188,257.8125 955.75,257.9375 955.8906,258.0625 C956.0313,258.2031 956.2656,258.3125 956.4844,258.3125 C956.75,258.3125 957.0156,258.1719 957.1875,257.9531 C957.2969,257.7969 957.3281,257.6094 957.3281,257.1875 L957.3281,255.7656 C957.3281,255.3281 957.3125,255.2031 957.2188,255.0469 C957.0625,254.7813 956.7813,254.6406 956.4844,254.6406 C956.1875,254.6406 955.9844,254.7344 955.7656,255.0469 L955.5938,254.9688 Z " fill="#000000"/><text fill="#000000" font-family="sans-serif" font-size="14" lengthAdjust="spacing" textLength="358" x="973.75" y="264.1436">DefaultMultipleComponentLeaderElectionService</text><line style="stroke:#181818;stroke-width:0.5;" x1="841" x2="1432" y1="275.2969" y2="275.2969"/><text fill="#000000" font-family="sans-serif" font-size="14" lengthAdjust="spacing" textLength="453" x="846" y="292.292">leaderElectionDriver: MultipleComponentLeaderElectionDriver</text><text fill="#000000" font-family="sans-serif" font-size="14" lengthAdjust="spacing" textLength="581" x="846" y="308.5889">leaderElectionEventHandlers: Map&lt;ComponentId, LeaderElectionEventHandler&gt;</text></g><!--class DefaultLeaderElectionService--><g id="elem_DefaultLeaderElectionService"><rect codeLine="81" fill="#F1F1F1" height="72.5938" id="DefaultLeaderElectionService" rx="2.5" ry="2.5" style="stroke:#181818;stroke-width:0.5;" width="321" x="1268" y="559.2969"/><ellipse cx="1317.25" cy="575.2969" fill="#ADD1B2" rx="11" ry="11" style="stroke:#181818;stroke-width:1.0;"/><path d="M1319.5938,570.9688 C1318.6563,570.5313 1318.0625,570.3906 1317.1875,570.3906 C1314.5625,570.3906 1312.5625,572.4688 1312.5625,575.1875 L1312.5625,576.3125 C1312.5625,578.8906 1314.6719,580.7813 1317.5625,580.7813 C1318.7813,580.7813 1319.9375,580.4844 1320.6875,579.9375 C1321.2656,579.5313 1321.5938,579.0781 1321.5938,578.6875 C1321.5938,578.2344 1321.2031,577.8438 1320.7344,577.8438 C1320.5156,577.8438 1320.3125,577.9219 1320.125,578.1094 C1319.6719,578.5938 1319.6719,578.5938 1319.4844,578.6875 C1319.0625,578.9531 1318.375,579.0781 1317.6094,579.0781 C1315.5625,579.0781 1314.2656,577.9844 1314.2656,576.2813 L1314.2656,575.1875 C1314.2656,573.4063 1315.5156,572.0938 1317.25,572.0938 C1317.8281,572.0938 1318.4375,572.25 1318.9063,572.5 C1319.3906,572.7813 1319.5625,573 1319.6563,573.4063 C1319.7188,573.8125 1319.75,573.9375 1319.8906,574.0625 C1320.0313,574.2031 1320.2656,574.3125 1320.4844,574.3125 C1320.75,574.3125 1321.0156,574.1719 1321.1875,573.9531 C1321.2969,573.7969 1321.3281,573.6094 1321.3281,573.1875 L1321.3281,571.7656 C1321.3281,571.3281 1321.3125,571.2031 1321.2188,571.0469 C1321.0625,570.7813 1320.7813,570.6406 1320.4844,570.6406 C1320.1875,570.6406 1319.9844,570.7344 1319.7656,571.0469 L1319.5938,570.9688 Z " fill="#000000"/><text fill="#000000" font-family="sans-serif" font-size="14" lengthAdjust="spacing" textLength="214" x="1337.75" y="580.1436">DefaultLeaderElectionService</text><line style="stroke:#181818;stroke-width:0.5;" x1="1269" x2="1588" y1="591.2969" y2="591.2969"/><text fill="#000000" font-family="sans-serif" font-size="14" lengthAdjust="spacing" textLength="309" x="1274" y="608.292">leaderElectionDriver: LeaderElectionDriver</text><text fill="#000000" font-family="sans-serif" font-size="14" lengthAdjust="spacing" textLength="257" x="1274" y="624.5889">leaderContender: LeaderContender</text></g><!--class MultipleComponentLeaderElectionDriverAdapter--><g id="elem_MultipleComponentLeaderElectionDriverAdapter"><rect codeLine="76" fill="#F1F1F1" height="56.2969" id="MultipleComponentLeaderElectionDriverAdapter" rx="2.5" ry="2.5" style="stroke:#181818;stroke-width:0.5;" width="633" x="7" y="85.2969"/><ellipse cx="141.75" cy="101.2969" fill="#ADD1B2" rx="11" ry="11" style="stroke:#181818;stroke-width:1.0;"/><path d="M144.0938,96.9688 C143.1563,96.5313 142.5625,96.3906 141.6875,96.3906 C139.0625,96.3906 137.0625,98.4688 137.0625,101.1875 L137.0625,102.3125 C137.0625,104.8906 139.1719,106.7813 142.0625,106.7813 C143.2813,106.7813 144.4375,106.4844 145.1875,105.9375 C145.7656,105.5313 146.0938,105.0781 146.0938,104.6875 C146.0938,104.2344 145.7031,103.8438 145.2344,103.8438 C145.0156,103.8438 144.8125,103.9219 144.625,104.1094 C144.1719,104.5938 144.1719,104.5938 143.9844,104.6875 C143.5625,104.9531 142.875,105.0781 142.1094,105.0781 C140.0625,105.0781 138.7656,103.9844 138.7656,102.2813 L138.7656,101.1875 C138.7656,99.4063 140.0156,98.0938 141.75,98.0938 C142.3281,98.0938 142.9375,98.25 143.4063,98.5 C143.8906,98.7813 144.0625,99 144.1563,99.4063 C144.2188,99.8125 144.25,99.9375 144.3906,100.0625 C144.5313,100.2031 144.7656,100.3125 144.9844,100.3125 C145.25,100.3125 145.5156,100.1719 145.6875,99.9531 C145.7969,99.7969 145.8281,99.6094 145.8281,99.1875 L145.8281,97.7656 C145.8281,97.3281 145.8125,97.2031 145.7188,97.0469 C145.5625,96.7813 145.2813,96.6406 144.9844,96.6406 C144.6875,96.6406 144.4844,96.7344 144.2656,97.0469 L144.0938,96.9688 Z " fill="#000000"/><text fill="#000000" font-family="sans-serif" font-size="14" lengthAdjust="spacing" textLength="355" x="162.25" y="106.1436">MultipleComponentLeaderElectionDriverAdapter</text><line style="stroke:#181818;stroke-width:0.5;" x1="8" x2="639" y1="117.2969" y2="117.2969"/><text fill="#000000" font-family="sans-serif" font-size="14" lengthAdjust="spacing" textLength="621" x="13" y="134.292">multipleComponentLeaderElectionService: MultipleComponentLeaderElectionService</text></g><!--class KubernetesMultipleComponentLeaderElectionDriver--><g id="elem_KubernetesMultipleComponentLeaderElectionDriver"><rect codeLine="83" fill="#F1F1F1" height="32" id="KubernetesMultipleComponentLeaderElectionDriver" rx="2.5" ry="2.5" style="stroke:#181818;stroke-width:0.5;" width="412" x="376.5" y="579.7969"/><ellipse cx="391.5" cy="595.7969" fill="#ADD1B2" rx="11" ry="11" style="stroke:#181818;stroke-width:1.0;"/><path d="M393.8438,591.4688 C392.9063,591.0313 392.3125,590.8906 391.4375,590.8906 C388.8125,590.8906 386.8125,592.9688 386.8125,595.6875 L386.8125,596.8125 C386.8125,599.3906 388.9219,601.2813 391.8125,601.2813 C393.0313,601.2813 394.1875,600.9844 394.9375,600.4375 C395.5156,600.0313 395.8438,599.5781 395.8438,599.1875 C395.8438,598.7344 395.4531,598.3438 394.9844,598.3438 C394.7656,598.3438 394.5625,598.4219 394.375,598.6094 C393.9219,599.0938 393.9219,599.0938 393.7344,599.1875 C393.3125,599.4531 392.625,599.5781 391.8594,599.5781 C389.8125,599.5781 388.5156,598.4844 388.5156,596.7813 L388.5156,595.6875 C388.5156,593.9063 389.7656,592.5938 391.5,592.5938 C392.0781,592.5938 392.6875,592.75 393.1563,593 C393.6406,593.2813 393.8125,593.5 393.9063,593.9063 C393.9688,594.3125 394,594.4375 394.1406,594.5625 C394.2813,594.7031 394.5156,594.8125 394.7344,594.8125 C395,594.8125 395.2656,594.6719 395.4375,594.4531 C395.5469,594.2969 395.5781,594.1094 395.5781,593.6875 L395.5781,592.2656 C395.5781,591.8281 395.5625,591.7031 395.4688,591.5469 C395.3125,591.2813 395.0313,591.1406 394.7344,591.1406 C394.4375,591.1406 394.2344,591.2344 394.0156,591.5469 L393.8438,591.4688 Z " fill="#000000"/><text fill="#000000" font-family="sans-serif" font-size="14" lengthAdjust="spacing" textLength="380" x="405.5" y="600.6436">KubernetesMultipleComponentLeaderElectionDriver</text></g><!--class ZooKeeperMultipleComponentLeaderElectionDriver--><g id="elem_ZooKeeperMultipleComponentLeaderElectionDriver"><rect codeLine="86" fill="#F1F1F1" height="32" id="ZooKeeperMultipleComponentLeaderElectionDriver" rx="2.5" ry="2.5" style="stroke:#181818;stroke-width:0.5;" width="409" x="824" y="579.7969"/><ellipse cx="839" cy="595.7969" fill="#ADD1B2" rx="11" ry="11" style="stroke:#181818;stroke-width:1.0;"/><path d="M841.3438,591.4688 C840.4063,591.0313 839.8125,590.8906 838.9375,590.8906 C836.3125,590.8906 834.3125,592.9688 834.3125,595.6875 L834.3125,596.8125 C834.3125,599.3906 836.4219,601.2813 839.3125,601.2813 C840.5313,601.2813 841.6875,600.9844 842.4375,600.4375 C843.0156,600.0313 843.3438,599.5781 843.3438,599.1875 C843.3438,598.7344 842.9531,598.3438 842.4844,598.3438 C842.2656,598.3438 842.0625,598.4219 841.875,598.6094 C841.4219,599.0938 841.4219,599.0938 841.2344,599.1875 C840.8125,599.4531 840.125,599.5781 839.3594,599.5781 C837.3125,599.5781 836.0156,598.4844 836.0156,596.7813 L836.0156,595.6875 C836.0156,593.9063 837.2656,592.5938 839,592.5938 C839.5781,592.5938 840.1875,592.75 840.6563,593 C841.1406,593.2813 841.3125,593.5 841.4063,593.9063 C841.4688,594.3125 841.5,594.4375 841.6406,594.5625 C841.7813,594.7031 842.0156,594.8125 842.2344,594.8125 C842.5,594.8125 842.7656,594.6719 842.9375,594.4531 C843.0469,594.2969 843.0781,594.1094 843.0781,593.6875 L843.0781,592.2656 C843.0781,591.8281 843.0625,591.7031 842.9688,591.5469 C842.8125,591.2813 842.5313,591.1406 842.2344,591.1406 C841.9375,591.1406 841.7344,591.2344 841.5156,591.5469 L841.3438,591.4688 Z " fill="#000000"/><text fill="#000000" font-family="sans-serif" font-size="14" lengthAdjust="spacing" textLength="377" x="853" y="600.6436">ZooKeeperMultipleComponentLeaderElectionDriver</text></g><!--reverse link LeaderElectionDriver to MultipleComponentLeaderElectionDriverAdapter--><g id="link_LeaderElectionDriver_MultipleComponentLeaderElectionDriverAdapter"><path d="M524.553,710.8019 C424.119,683.7489 323.5,644.6929 323.5,596.7969 C323.5,278.7969 323.5,278.7969 323.5,278.7969 C323.5,230.3889 323.5,173.9689 323.5,141.3679 " fill="none" id="LeaderElectionDriver-backto-MultipleComponentLeaderElectionDriverAdapter" style="stroke:#181818;stroke-width:1.0;stroke-dasharray:7.0,7.0;"/><polygon fill="none" points="526.37,704.0419,543.942,715.8829,522.821,717.5849,526.37,704.0419" style="stroke:#181818;stroke-width:1.0;"/></g><!--reverse link MultipleComponentLeaderElectionService to DefaultMultipleComponentLeaderElectionService--><g id="link_MultipleComponentLeaderElectionService_DefaultMultipleComponentLeaderElectionService"><path d="M1089.49,199.8819 C1098.61,215.2029 1107.65,230.3699 1115.32,243.2519 " fill="none" id="MultipleComponentLeaderElectionService-backto-DefaultMultipleComponentLeaderElectionService" style="stroke:#181818;stroke-width:1.0;stroke-dasharray:7.0,7.0;"/><polygon fill="none" points="1083.43,203.3949,1079.21,182.6309,1095.46,196.2299,1083.43,203.3949" style="stroke:#181818;stroke-width:1.0;"/></g><!--reverse link MultipleComponentLeaderElectionDriver.Listener to DefaultMultipleComponentLeaderElectionService--><g id="link_MultipleComponentLeaderElectionDriver.Listener_DefaultMultipleComponentLeaderElectionService"><path d="M1496.73,171.6409 C1416.63,195.4669 1326.18,222.3729 1255.95,243.2639 " fill="none" id="MultipleComponentLeaderElectionDriver.Listener-backto-DefaultMultipleComponentLeaderElectionService" style="stroke:#181818;stroke-width:1.0;stroke-dasharray:7.0,7.0;"/><polygon fill="none" points="1494.88,164.8879,1516.04,165.8939,1498.87,178.3059,1494.88,164.8879" style="stroke:#181818;stroke-width:1.0;"/></g><!--reverse link LeaderElectionService to DefaultLeaderElectionService--><g id="link_LeaderElectionService_DefaultLeaderElectionService"><path d="M1406.53,855.7519 C1401.96,837.2169 1397.81,817.1499 1395.5,798.2969 C1390.68,759.0359 1389.88,748.4509 1395.5,709.2969 C1399.28,683.0049 1407.78,654.2839 1415.21,632.4429 " fill="none" id="LeaderElectionService-backto-DefaultLeaderElectionService" style="stroke:#181818;stroke-width:1.0;stroke-dasharray:7.0,7.0;"/><polygon fill="none" points="1413.31,854.0139,1411.58,875.1329,1399.76,857.5419,1413.31,854.0139" style="stroke:#181818;stroke-width:1.0;"/></g><!--reverse link LeaderElectionEventHandler to DefaultLeaderElectionService--><g id="link_LeaderElectionEventHandler_DefaultLeaderElectionService"><path d="M1428.5,510.4409 C1428.5,527.0539 1428.5,544.3759 1428.5,558.9699 " fill="none" id="LeaderElectionEventHandler-backto-DefaultLeaderElectionService" style="stroke:#181818;stroke-width:1.0;stroke-dasharray:7.0,7.0;"/><polygon fill="none" points="1421.5,510.4009,1428.5,490.4009,1435.5,510.4009,1421.5,510.4009" style="stroke:#181818;stroke-width:1.0;"/></g><!--reverse link MultipleComponentLeaderElectionDriver to KubernetesMultipleComponentLeaderElectionDriver--><g id="link_MultipleComponentLeaderElectionDriver_KubernetesMultipleComponentLeaderElectionDriver"><path d="M808.477,505.8489 C740.186,532.7289 664.919,562.3549 620.78,579.7289 " fill="none" id="MultipleComponentLeaderElectionDriver-backto-KubernetesMultipleComponentLeaderElectionDriver" style="stroke:#181818;stroke-width:1.0;stroke-dasharray:7.0,7.0;"/><polygon fill="none" points="806.347,499.1639,827.521,498.3519,811.475,512.1909,806.347,499.1639" style="stroke:#181818;stroke-width:1.0;"/></g><!--reverse link MultipleComponentLeaderElectionDriver to ZooKeeperMultipleComponentLeaderElectionDriver--><g id="link_MultipleComponentLeaderElectionDriver_ZooKeeperMultipleComponentLeaderElectionDriver"><path d="M991.623,516.8279 C1002.826,540.5149 1014.29,564.7449 1021.39,579.7739 " fill="none" id="MultipleComponentLeaderElectionDriver-backto-ZooKeeperMultipleComponentLeaderElectionDriver" style="stroke:#181818;stroke-width:1.0;stroke-dasharray:7.0,7.0;"/><polygon fill="none" points="985.206,519.6329,982.983,498.5599,997.862,513.6469,985.206,519.6329" style="stroke:#181818;stroke-width:1.0;"/></g><!--link DefaultLeaderElectionService to LeaderElectionDriver--><g id="link_DefaultLeaderElectionService_LeaderElectionDriver"><path codeLine="89" d="M1267.87,632.3909 C1161.4,655.9829 1021.38,687.0109 910.141,711.6609 " fill="none" id="DefaultLeaderElectionService-to-LeaderElectionDriver" style="stroke:#181818;stroke-width:1.0;"/><polygon fill="#181818" points="905.2,712.7559,914.8521,714.7145,910.0816,711.6744,913.1218,706.9039,905.2,712.7559" style="stroke:#181818;stroke-width:1.0;"/><text fill="#000000" font-family="sans-serif" font-size="13" lengthAdjust="spacing" textLength="30" x="1120.5" y="675.3638">uses</text></g><!--link DefaultLeaderElectionService to LeaderContender--><g id="link_DefaultLeaderElectionService_LeaderContender"><path codeLine="90" d="M1462.22,632.5869 C1484.91,656.6649 1514.84,688.4239 1538.24,713.2509 " fill="none" id="DefaultLeaderElectionService-to-LeaderContender" style="stroke:#181818;stroke-width:1.0;"/><polygon fill="#181818" points="1541.93,717.1739,1538.6745,707.8786,1538.5032,713.5329,1532.8489,713.3615,1541.93,717.1739" style="stroke:#181818;stroke-width:1.0;"/><text fill="#000000" font-family="sans-serif" font-size="13" lengthAdjust="spacing" textLength="30" x="1503.5" y="675.3638">uses</text></g><!--link LeaderContender to LeaderElectionService--><g id="link_LeaderContender_LeaderElectionService"><path codeLine="91" d="M1544.83,790.4359 C1524.74,813.7879 1498.06,844.7899 1475.23,871.3329 " fill="none" id="LeaderContender-to-LeaderElectionService" style="stroke:#181818;stroke-width:1.0;"/><polygon fill="#181818" points="1471.88,875.2149,1480.7847,871.0071,1475.1435,871.4268,1474.7238,865.7855,1471.88,875.2149" style="stroke:#181818;stroke-width:1.0;"/><text fill="#000000" font-family="sans-serif" font-size="13" lengthAdjust="spacing" textLength="30" x="1511.5" y="841.3638">uses</text></g><!--link MultipleComponentLeaderElectionDriverAdapter to MultipleComponentLeaderElectionService--><g id="link_MultipleComponentLeaderElectionDriverAdapter_MultipleComponentLeaderElectionService"><path codeLine="93" d="M640.232,113.2969 C660.635,113.2969 681.217,113.2969 701.708,113.2969 " fill="none" id="MultipleComponentLeaderElectionDriverAdapter-to-MultipleComponentLeaderElectionService" style="stroke:#181818;stroke-width:1.0;"/><polygon fill="#181818" points="706.916,113.2969,697.916,109.2969,701.916,113.2969,697.916,117.2969,706.916,113.2969" style="stroke:#181818;stroke-width:1.0;"/><text fill="#000000" font-family="sans-serif" font-size="13" lengthAdjust="spacing" textLength="30" x="658.5" y="106.3638">uses</text></g><!--link DefaultMultipleComponentLeaderElectionService to LeaderElectionEventHandler--><g id="link_DefaultMultipleComponentLeaderElectionService_LeaderElectionEventHandler"><path codeLine="95" d="M1199.86,316.3829 C1242.84,340.5209 1300.06,372.6619 1346.51,398.7489 " fill="none" id="DefaultMultipleComponentLeaderElectionService-to-LeaderElectionEventHandler" style="stroke:#181818;stroke-width:1.0;"/><polygon fill="#181818" points="1350.97,401.2539,1345.0736,393.3651,1346.608,398.8099,1341.1632,400.3443,1350.97,401.2539" style="stroke:#181818;stroke-width:1.0;"/><text fill="#000000" font-family="sans-serif" font-size="13" lengthAdjust="spacing" textLength="30" x="1283.5" y="359.3638">uses</text></g><!--link DefaultMultipleComponentLeaderElectionService to MultipleComponentLeaderElectionDriver--><g id="link_DefaultMultipleComponentLeaderElectionService_MultipleComponentLeaderElectionDriver"><path codeLine="96" d="M1097.88,316.3829 C1074.68,337.7529 1044.68,365.3939 1018.46,389.5549 " fill="none" id="DefaultMultipleComponentLeaderElectionService-to-MultipleComponentLeaderElectionDriver" style="stroke:#181818;stroke-width:1.0;"/><polygon fill="#181818" points="1014.62,393.0929,1023.9503,389.9393,1018.2983,389.7061,1018.5315,384.0541,1014.62,393.0929" style="stroke:#181818;stroke-width:1.0;"/><text fill="#000000" font-family="sans-serif" font-size="13" lengthAdjust="spacing" textLength="30" x="1064.5" y="359.3638">uses</text></g><!--SRC=[jLPDZzem4BtdL_XMa0fe3xsWQYK4kos2NhfQLUhDn1DYhJyYsm6jglxtUaa2SUA0lTLoGlRCctblFfnFkJ65dizc1SF2b9nDKybdASDQJmZ5UuLvaXXg6A0V9JEqO31PIbv80SAWBM022ZqmI0sL0b5Xb2Hb2iJ-HOi2fpcWHqR52xgRtdr94ci0AiFf1UqCLc4rK2j53nRvJuBixo0fGIcJ6aRZqy5EIWPOe1phoatdjAZlJiP5kMDKvzNbMcHISVm6EqgRS6lo6R7kTGk100C3Lm76oTyafoIKIqQ14HsjmNHBjG7XYa5htctEGXhl8SrUUpIMEHPx25UZWbamjX7oAFggz7n_KPClB-WwJgiBvsZHda0Tg3KRw1nVj4US6gbUKQe06t3Et7BVRgydewZO8qVNdjLLfHNitxWhDz67WmNxZWLXjhoUgldiMg2b283jvtvjsDup24rj-aMjx9RI7WZYjhfTGGtEAV3pytfLitu2hItiUkNeTv0lu6o5EhbkZA4iXbVGKL7VIjZwotbpIJLzwUHtSsaCLx2TgXJVEhe9E6uTrTeDBSNFlcwjsw45ukbaBnidpLkSF2Ei3LPcrAdWk7qlNMcboAZYBJgTZca6Pq68icVNAiQwgdaPTdlxz8IY5MJOpaJKpcAUFfY7xKsFVrjvRM5myNNPtqu-w_k6Q1m93YQNFGNY2T_WT-w2UNUmEsa7PHcaxeBWmfp7Z0V9CG_SYL7FOvF8_v2Wt5foQwJzIh-hWLkWWRG_DahdQoAe9mU5gGskZKmJO5FkG0dx_QZ3FWrZ6LMz4Xk50xSEvtRvBUK6e03raJb61ZcdUBL4aycz_xMSerA33dM-V0hKVjtZVfm6f7P8eaREeWLsU0CVDnVzT9rdrnKd0ZEiT1NyFm00]--></g></svg>